<?xml version="1.0" encoding="utf-8" standalone="no"?>
<!DOCTYPE svg PUBLIC "-//W3C//DTD SVG 1.1//EN"
  "http://www.w3.org/Graphics/SVG/1.1/DTD/svg11.dtd">
<!-- Created with matplotlib (https://matplotlib.org/) -->
<svg height="215.355pt" version="1.1" viewBox="0 0 458.551562 215.355" width="458.551562pt" xmlns="http://www.w3.org/2000/svg" xmlns:xlink="http://www.w3.org/1999/xlink">
 <defs>
  <style type="text/css">
*{stroke-linecap:butt;stroke-linejoin:round;}
  </style>
 </defs>
 <g id="figure_1">
  <g id="patch_1">
   <path d="M 0 215.355 
L 458.551562 215.355 
L 458.551562 -0 
L 0 -0 
z
" style="fill:#ffffff;"/>
  </g>
  <g id="axes_1">
   <g id="patch_2">
    <path d="M 44.845313 191.476875 
L 435.445312 191.476875 
L 435.445312 28.396875 
L 44.845313 28.396875 
z
" style="fill:#ffffff;"/>
   </g>
   <g id="matplotlib.axis_1">
    <g id="xtick_1">
     <g id="line2d_1">
      <defs>
       <path d="M 0 0 
L 0 3.5 
" id="m4ee59a725b" style="stroke:#000000;stroke-width:0.8;"/>
      </defs>
      <g>
       <use style="stroke:#000000;stroke-width:0.8;" x="44.845313" xlink:href="#m4ee59a725b" y="191.476875"/>
      </g>
     </g>
     <g id="text_1">
      <!-- 0 -->
      <defs>
       <path d="M 31.78125 66.40625 
Q 24.171875 66.40625 20.328125 58.90625 
Q 16.5 51.421875 16.5 36.375 
Q 16.5 21.390625 20.328125 13.890625 
Q 24.171875 6.390625 31.78125 6.390625 
Q 39.453125 6.390625 43.28125 13.890625 
Q 47.125 21.390625 47.125 36.375 
Q 47.125 51.421875 43.28125 58.90625 
Q 39.453125 66.40625 31.78125 66.40625 
z
M 31.78125 74.21875 
Q 44.046875 74.21875 50.515625 64.515625 
Q 56.984375 54.828125 56.984375 36.375 
Q 56.984375 17.96875 50.515625 8.265625 
Q 44.046875 -1.421875 31.78125 -1.421875 
Q 19.53125 -1.421875 13.0625 8.265625 
Q 6.59375 17.96875 6.59375 36.375 
Q 6.59375 54.828125 13.0625 64.515625 
Q 19.53125 74.21875 31.78125 74.21875 
z
" id="DejaVuSans-48"/>
      </defs>
      <g transform="translate(41.664063 206.075313)scale(0.1 -0.1)">
       <use xlink:href="#DejaVuSans-48"/>
      </g>
     </g>
    </g>
    <g id="xtick_2">
     <g id="line2d_2">
      <g>
       <use style="stroke:#000000;stroke-width:0.8;" x="93.670313" xlink:href="#m4ee59a725b" y="191.476875"/>
      </g>
     </g>
     <g id="text_2">
      <!-- 2500 -->
      <defs>
       <path d="M 19.1875 8.296875 
L 53.609375 8.296875 
L 53.609375 0 
L 7.328125 0 
L 7.328125 8.296875 
Q 12.9375 14.109375 22.625 23.890625 
Q 32.328125 33.6875 34.8125 36.53125 
Q 39.546875 41.84375 41.421875 45.53125 
Q 43.3125 49.21875 43.3125 52.78125 
Q 43.3125 58.59375 39.234375 62.25 
Q 35.15625 65.921875 28.609375 65.921875 
Q 23.96875 65.921875 18.8125 64.3125 
Q 13.671875 62.703125 7.8125 59.421875 
L 7.8125 69.390625 
Q 13.765625 71.78125 18.9375 73 
Q 24.125 74.21875 28.421875 74.21875 
Q 39.75 74.21875 46.484375 68.546875 
Q 53.21875 62.890625 53.21875 53.421875 
Q 53.21875 48.921875 51.53125 44.890625 
Q 49.859375 40.875 45.40625 35.40625 
Q 44.1875 33.984375 37.640625 27.21875 
Q 31.109375 20.453125 19.1875 8.296875 
z
" id="DejaVuSans-50"/>
       <path d="M 10.796875 72.90625 
L 49.515625 72.90625 
L 49.515625 64.59375 
L 19.828125 64.59375 
L 19.828125 46.734375 
Q 21.96875 47.46875 24.109375 47.828125 
Q 26.265625 48.1875 28.421875 48.1875 
Q 40.625 48.1875 47.75 41.5 
Q 54.890625 34.8125 54.890625 23.390625 
Q 54.890625 11.625 47.5625 5.09375 
Q 40.234375 -1.421875 26.90625 -1.421875 
Q 22.3125 -1.421875 17.546875 -0.640625 
Q 12.796875 0.140625 7.71875 1.703125 
L 7.71875 11.625 
Q 12.109375 9.234375 16.796875 8.0625 
Q 21.484375 6.890625 26.703125 6.890625 
Q 35.15625 6.890625 40.078125 11.328125 
Q 45.015625 15.765625 45.015625 23.390625 
Q 45.015625 31 40.078125 35.4375 
Q 35.15625 39.890625 26.703125 39.890625 
Q 22.75 39.890625 18.8125 39.015625 
Q 14.890625 38.140625 10.796875 36.28125 
z
" id="DejaVuSans-53"/>
      </defs>
      <g transform="translate(80.945312 206.075313)scale(0.1 -0.1)">
       <use xlink:href="#DejaVuSans-50"/>
       <use x="63.623047" xlink:href="#DejaVuSans-53"/>
       <use x="127.246094" xlink:href="#DejaVuSans-48"/>
       <use x="190.869141" xlink:href="#DejaVuSans-48"/>
      </g>
     </g>
    </g>
    <g id="xtick_3">
     <g id="line2d_3">
      <g>
       <use style="stroke:#000000;stroke-width:0.8;" x="142.495313" xlink:href="#m4ee59a725b" y="191.476875"/>
      </g>
     </g>
     <g id="text_3">
      <!-- 5000 -->
      <g transform="translate(129.770313 206.075313)scale(0.1 -0.1)">
       <use xlink:href="#DejaVuSans-53"/>
       <use x="63.623047" xlink:href="#DejaVuSans-48"/>
       <use x="127.246094" xlink:href="#DejaVuSans-48"/>
       <use x="190.869141" xlink:href="#DejaVuSans-48"/>
      </g>
     </g>
    </g>
    <g id="xtick_4">
     <g id="line2d_4">
      <g>
       <use style="stroke:#000000;stroke-width:0.8;" x="191.320313" xlink:href="#m4ee59a725b" y="191.476875"/>
      </g>
     </g>
     <g id="text_4">
      <!-- 7500 -->
      <defs>
       <path d="M 8.203125 72.90625 
L 55.078125 72.90625 
L 55.078125 68.703125 
L 28.609375 0 
L 18.3125 0 
L 43.21875 64.59375 
L 8.203125 64.59375 
z
" id="DejaVuSans-55"/>
      </defs>
      <g transform="translate(178.595313 206.075313)scale(0.1 -0.1)">
       <use xlink:href="#DejaVuSans-55"/>
       <use x="63.623047" xlink:href="#DejaVuSans-53"/>
       <use x="127.246094" xlink:href="#DejaVuSans-48"/>
       <use x="190.869141" xlink:href="#DejaVuSans-48"/>
      </g>
     </g>
    </g>
    <g id="xtick_5">
     <g id="line2d_5">
      <g>
       <use style="stroke:#000000;stroke-width:0.8;" x="240.145313" xlink:href="#m4ee59a725b" y="191.476875"/>
      </g>
     </g>
     <g id="text_5">
      <!-- 10000 -->
      <defs>
       <path d="M 12.40625 8.296875 
L 28.515625 8.296875 
L 28.515625 63.921875 
L 10.984375 60.40625 
L 10.984375 69.390625 
L 28.421875 72.90625 
L 38.28125 72.90625 
L 38.28125 8.296875 
L 54.390625 8.296875 
L 54.390625 0 
L 12.40625 0 
z
" id="DejaVuSans-49"/>
      </defs>
      <g transform="translate(224.239063 206.075313)scale(0.1 -0.1)">
       <use xlink:href="#DejaVuSans-49"/>
       <use x="63.623047" xlink:href="#DejaVuSans-48"/>
       <use x="127.246094" xlink:href="#DejaVuSans-48"/>
       <use x="190.869141" xlink:href="#DejaVuSans-48"/>
       <use x="254.492188" xlink:href="#DejaVuSans-48"/>
      </g>
     </g>
    </g>
    <g id="xtick_6">
     <g id="line2d_6">
      <g>
       <use style="stroke:#000000;stroke-width:0.8;" x="288.970313" xlink:href="#m4ee59a725b" y="191.476875"/>
      </g>
     </g>
     <g id="text_6">
      <!-- 12500 -->
      <g transform="translate(273.064063 206.075313)scale(0.1 -0.1)">
       <use xlink:href="#DejaVuSans-49"/>
       <use x="63.623047" xlink:href="#DejaVuSans-50"/>
       <use x="127.246094" xlink:href="#DejaVuSans-53"/>
       <use x="190.869141" xlink:href="#DejaVuSans-48"/>
       <use x="254.492188" xlink:href="#DejaVuSans-48"/>
      </g>
     </g>
    </g>
    <g id="xtick_7">
     <g id="line2d_7">
      <g>
       <use style="stroke:#000000;stroke-width:0.8;" x="337.795313" xlink:href="#m4ee59a725b" y="191.476875"/>
      </g>
     </g>
     <g id="text_7">
      <!-- 15000 -->
      <g transform="translate(321.889063 206.075313)scale(0.1 -0.1)">
       <use xlink:href="#DejaVuSans-49"/>
       <use x="63.623047" xlink:href="#DejaVuSans-53"/>
       <use x="127.246094" xlink:href="#DejaVuSans-48"/>
       <use x="190.869141" xlink:href="#DejaVuSans-48"/>
       <use x="254.492188" xlink:href="#DejaVuSans-48"/>
      </g>
     </g>
    </g>
    <g id="xtick_8">
     <g id="line2d_8">
      <g>
       <use style="stroke:#000000;stroke-width:0.8;" x="386.620313" xlink:href="#m4ee59a725b" y="191.476875"/>
      </g>
     </g>
     <g id="text_8">
      <!-- 17500 -->
      <g transform="translate(370.714063 206.075313)scale(0.1 -0.1)">
       <use xlink:href="#DejaVuSans-49"/>
       <use x="63.623047" xlink:href="#DejaVuSans-55"/>
       <use x="127.246094" xlink:href="#DejaVuSans-53"/>
       <use x="190.869141" xlink:href="#DejaVuSans-48"/>
       <use x="254.492188" xlink:href="#DejaVuSans-48"/>
      </g>
     </g>
    </g>
    <g id="xtick_9">
     <g id="line2d_9">
      <g>
       <use style="stroke:#000000;stroke-width:0.8;" x="435.445312" xlink:href="#m4ee59a725b" y="191.476875"/>
      </g>
     </g>
     <g id="text_9">
      <!-- 20000 -->
      <g transform="translate(419.539062 206.075313)scale(0.1 -0.1)">
       <use xlink:href="#DejaVuSans-50"/>
       <use x="63.623047" xlink:href="#DejaVuSans-48"/>
       <use x="127.246094" xlink:href="#DejaVuSans-48"/>
       <use x="190.869141" xlink:href="#DejaVuSans-48"/>
       <use x="254.492188" xlink:href="#DejaVuSans-48"/>
      </g>
     </g>
    </g>
   </g>
   <g id="matplotlib.axis_2">
    <g id="ytick_1">
     <g id="line2d_10">
      <defs>
       <path d="M 0 0 
L -3.5 0 
" id="m414c609296" style="stroke:#000000;stroke-width:0.8;"/>
      </defs>
      <g>
       <use style="stroke:#000000;stroke-width:0.8;" x="44.845313" xlink:href="#m414c609296" y="179.833544"/>
      </g>
     </g>
     <g id="text_10">
      <!-- −0.50 -->
      <defs>
       <path d="M 10.59375 35.5 
L 73.1875 35.5 
L 73.1875 27.203125 
L 10.59375 27.203125 
z
" id="DejaVuSans-8722"/>
       <path d="M 10.6875 12.40625 
L 21 12.40625 
L 21 0 
L 10.6875 0 
z
" id="DejaVuSans-46"/>
      </defs>
      <g transform="translate(7.2 183.632763)scale(0.1 -0.1)">
       <use xlink:href="#DejaVuSans-8722"/>
       <use x="83.789062" xlink:href="#DejaVuSans-48"/>
       <use x="147.412109" xlink:href="#DejaVuSans-46"/>
       <use x="179.199219" xlink:href="#DejaVuSans-53"/>
       <use x="242.822266" xlink:href="#DejaVuSans-48"/>
      </g>
     </g>
    </g>
    <g id="ytick_2">
     <g id="line2d_11">
      <g>
       <use style="stroke:#000000;stroke-width:0.8;" x="44.845313" xlink:href="#m414c609296" y="159.13712"/>
      </g>
     </g>
     <g id="text_11">
      <!-- −0.25 -->
      <g transform="translate(7.2 162.936339)scale(0.1 -0.1)">
       <use xlink:href="#DejaVuSans-8722"/>
       <use x="83.789062" xlink:href="#DejaVuSans-48"/>
       <use x="147.412109" xlink:href="#DejaVuSans-46"/>
       <use x="179.199219" xlink:href="#DejaVuSans-50"/>
       <use x="242.822266" xlink:href="#DejaVuSans-53"/>
      </g>
     </g>
    </g>
    <g id="ytick_3">
     <g id="line2d_12">
      <g>
       <use style="stroke:#000000;stroke-width:0.8;" x="44.845313" xlink:href="#m414c609296" y="138.440697"/>
      </g>
     </g>
     <g id="text_12">
      <!-- 0.00 -->
      <g transform="translate(15.579688 142.239916)scale(0.1 -0.1)">
       <use xlink:href="#DejaVuSans-48"/>
       <use x="63.623047" xlink:href="#DejaVuSans-46"/>
       <use x="95.410156" xlink:href="#DejaVuSans-48"/>
       <use x="159.033203" xlink:href="#DejaVuSans-48"/>
      </g>
     </g>
    </g>
    <g id="ytick_4">
     <g id="line2d_13">
      <g>
       <use style="stroke:#000000;stroke-width:0.8;" x="44.845313" xlink:href="#m414c609296" y="117.744273"/>
      </g>
     </g>
     <g id="text_13">
      <!-- 0.25 -->
      <g transform="translate(15.579688 121.543492)scale(0.1 -0.1)">
       <use xlink:href="#DejaVuSans-48"/>
       <use x="63.623047" xlink:href="#DejaVuSans-46"/>
       <use x="95.410156" xlink:href="#DejaVuSans-50"/>
       <use x="159.033203" xlink:href="#DejaVuSans-53"/>
      </g>
     </g>
    </g>
    <g id="ytick_5">
     <g id="line2d_14">
      <g>
       <use style="stroke:#000000;stroke-width:0.8;" x="44.845313" xlink:href="#m414c609296" y="97.04785"/>
      </g>
     </g>
     <g id="text_14">
      <!-- 0.50 -->
      <g transform="translate(15.579688 100.847068)scale(0.1 -0.1)">
       <use xlink:href="#DejaVuSans-48"/>
       <use x="63.623047" xlink:href="#DejaVuSans-46"/>
       <use x="95.410156" xlink:href="#DejaVuSans-53"/>
       <use x="159.033203" xlink:href="#DejaVuSans-48"/>
      </g>
     </g>
    </g>
    <g id="ytick_6">
     <g id="line2d_15">
      <g>
       <use style="stroke:#000000;stroke-width:0.8;" x="44.845313" xlink:href="#m414c609296" y="76.351426"/>
      </g>
     </g>
     <g id="text_15">
      <!-- 0.75 -->
      <g transform="translate(15.579688 80.150645)scale(0.1 -0.1)">
       <use xlink:href="#DejaVuSans-48"/>
       <use x="63.623047" xlink:href="#DejaVuSans-46"/>
       <use x="95.410156" xlink:href="#DejaVuSans-55"/>
       <use x="159.033203" xlink:href="#DejaVuSans-53"/>
      </g>
     </g>
    </g>
    <g id="ytick_7">
     <g id="line2d_16">
      <g>
       <use style="stroke:#000000;stroke-width:0.8;" x="44.845313" xlink:href="#m414c609296" y="55.655003"/>
      </g>
     </g>
     <g id="text_16">
      <!-- 1.00 -->
      <g transform="translate(15.579688 59.454221)scale(0.1 -0.1)">
       <use xlink:href="#DejaVuSans-49"/>
       <use x="63.623047" xlink:href="#DejaVuSans-46"/>
       <use x="95.410156" xlink:href="#DejaVuSans-48"/>
       <use x="159.033203" xlink:href="#DejaVuSans-48"/>
      </g>
     </g>
    </g>
    <g id="ytick_8">
     <g id="line2d_17">
      <g>
       <use style="stroke:#000000;stroke-width:0.8;" x="44.845313" xlink:href="#m414c609296" y="34.958579"/>
      </g>
     </g>
     <g id="text_17">
      <!-- 1.25 -->
      <g transform="translate(15.579688 38.757798)scale(0.1 -0.1)">
       <use xlink:href="#DejaVuSans-49"/>
       <use x="63.623047" xlink:href="#DejaVuSans-46"/>
       <use x="95.410156" xlink:href="#DejaVuSans-50"/>
       <use x="159.033203" xlink:href="#DejaVuSans-53"/>
      </g>
     </g>
    </g>
   </g>
   <g id="line2d_18">
    <path clip-path="url(#pd3a45f4d5d)" d="M 44.845313 138.442557 
L 46.700663 138.489922 
L 47.423273 138.351112 
L 48.770843 138.109581 
L 49.298153 138.13188 
L 49.688753 138.391438 
L 50.372303 138.879211 
L 50.626193 138.765667 
L 50.977733 138.2912 
L 51.505043 137.632438 
L 51.719873 137.663531 
L 51.973763 137.967324 
L 52.637783 138.882303 
L 52.833083 138.780354 
L 53.086973 138.309171 
L 53.868173 136.631714 
L 54.043943 136.690361 
L 54.278303 137.075381 
L 55.137623 138.752064 
L 55.332923 138.67902 
L 55.625873 138.257965 
L 56.387543 137.063615 
L 56.660963 137.010734 
L 56.934383 137.197769 
L 57.305453 137.77632 
L 58.164773 139.239807 
L 58.360073 139.191326 
L 58.594433 138.831431 
L 59.024093 137.613091 
L 59.453753 136.645222 
L 59.688113 136.557537 
L 59.902943 136.749964 
L 60.840383 137.867402 
L 61.230983 138.112769 
L 61.504403 138.647739 
L 62.383253 140.895822 
L 62.422313 140.876356 
L 62.578553 140.625324 
L 62.851973 139.624663 
L 63.418343 137.511079 
L 63.574583 137.500901 
L 63.730823 137.838523 
L 64.023773 139.183707 
L 64.512023 141.267668 
L 64.648733 141.318977 
L 64.668263 141.299951 
L 64.824503 140.911895 
L 65.097923 139.392544 
L 65.742413 135.662439 
L 65.898653 135.543835 
L 65.918183 135.55774 
L 66.054893 135.820695 
L 66.308783 136.905821 
L 66.953273 139.771814 
L 67.168103 139.967671 
L 67.343873 139.852016 
L 68.222723 138.950424 
L 68.613323 138.813205 
L 68.867213 138.437163 
L 69.765593 136.751284 
L 69.785122 136.761373 
L 69.980423 137.026901 
L 70.351493 138.069346 
L 70.722563 138.845476 
L 70.878803 138.820534 
L 71.054573 138.472075 
L 71.327993 137.328704 
L 72.109193 133.769178 
L 72.265433 133.725904 
L 72.421673 134.023596 
L 72.656033 135.066007 
L 73.144283 138.566952 
L 73.593473 141.076321 
L 73.808303 141.349242 
L 73.945013 141.146727 
L 74.159843 140.300836 
L 75.097283 135.920392 
L 75.214463 136.066801 
L 75.409763 136.753348 
L 75.917543 139.748908 
L 76.249553 140.989298 
L 76.425323 141.074971 
L 76.581563 140.825544 
L 76.874513 139.795036 
L 77.479943 137.717663 
L 77.753363 137.447656 
L 78.026783 137.485835 
L 78.710333 137.904202 
L 79.061873 138.377512 
L 79.784483 139.439261 
L 79.960253 139.335266 
L 80.214143 138.856714 
L 80.760983 137.793644 
L 80.917223 137.850598 
L 81.132053 138.267291 
L 81.698423 139.5356 
L 81.815603 139.422417 
L 81.991373 138.852219 
L 82.303853 136.868048 
L 82.772573 134.144901 
L 82.889753 134.044772 
L 82.909283 134.060117 
L 83.026463 134.34851 
L 83.241293 135.679631 
L 84.002963 141.175889 
L 84.100613 141.030527 
L 84.256853 140.230313 
L 84.569333 137.163162 
L 85.018523 133.348934 
L 85.135703 133.169578 
L 85.174763 133.207873 
L 85.291943 133.612855 
L 85.506773 135.333753 
L 86.248913 142.010318 
L 86.327033 142.037153 
L 86.366093 141.983331 
L 86.502803 141.465499 
L 86.776223 139.277136 
L 87.381653 134.420061 
L 87.596483 133.993914 
L 87.733193 134.072728 
L 87.987083 134.628353 
L 88.768283 136.412476 
L 89.080763 137.5059 
L 89.881493 140.683449 
L 89.998673 140.543218 
L 90.193973 139.787115 
L 90.975173 135.743122 
L 91.033763 135.789294 
L 91.170473 136.188724 
L 91.424363 137.788734 
L 91.932143 140.89578 
L 92.029793 140.960159 
L 92.068853 140.916977 
L 92.205563 140.458732 
L 92.459453 138.562707 
L 93.045353 134.092654 
L 93.162533 133.99296 
L 93.182063 134.011226 
L 93.318773 134.400642 
L 93.572663 136.035029 
L 94.041383 138.911696 
L 94.158563 139.016048 
L 94.178093 139.001277 
L 94.295273 138.724991 
L 94.529633 137.378668 
L 95.096003 133.970535 
L 95.193653 133.927771 
L 95.213183 133.946031 
L 95.349893 134.312727 
L 95.603783 135.848628 
L 96.092033 138.703362 
L 96.209213 138.795479 
L 96.228743 138.780738 
L 96.365453 138.446606 
L 96.619343 136.996629 
L 97.088063 134.405009 
L 97.185713 134.334701 
L 97.224773 134.371732 
L 97.361483 134.797113 
L 97.595843 136.461444 
L 98.337983 142.23435 
L 98.455163 142.295076 
L 98.474693 142.275748 
L 98.611403 141.927534 
L 98.884823 140.43109 
L 99.412133 137.636481 
L 99.626963 137.377567 
L 99.783203 137.511988 
L 100.525343 138.589693 
L 100.564403 138.561331 
L 100.779233 138.20308 
L 101.189363 136.923069 
L 101.716673 135.483187 
L 101.990093 135.256426 
L 102.165863 135.371785 
L 102.380693 135.82941 
L 102.693173 137.127272 
L 103.747793 142.110203 
L 103.904033 142.103737 
L 104.099333 141.795564 
L 105.036773 139.927782 
L 105.368783 139.506265 
L 105.642203 138.703805 
L 106.501523 135.648999 
L 106.521053 135.658486 
L 106.657763 135.887323 
L 106.892123 136.856758 
L 107.497553 139.569286 
L 107.614733 139.538766 
L 107.770973 139.077106 
L 108.044393 137.319511 
L 108.610763 133.635347 
L 108.747473 133.494858 
L 108.767003 133.507468 
L 108.884183 133.74797 
L 109.118543 134.927611 
L 109.743503 138.350445 
L 109.880213 138.403765 
L 109.899743 138.384412 
L 110.055983 138.012135 
L 110.387993 136.423367 
L 110.778593 134.916883 
L 110.954363 134.80127 
L 111.110603 134.996183 
L 111.501203 136.044385 
L 111.794153 136.507926 
L 111.969923 136.454497 
L 112.223813 136.035774 
L 112.673003 135.349887 
L 112.848773 135.395105 
L 113.102663 135.772482 
L 113.590913 136.503342 
L 113.786213 136.457358 
L 114.098693 136.04635 
L 114.391643 135.813891 
L 114.547883 135.975304 
L 114.762713 136.653469 
L 115.094723 138.646015 
L 115.778273 142.854614 
L 115.993103 143.13458 
L 116.110283 142.979029 
L 116.305583 142.24185 
L 116.618063 140.006692 
L 117.457853 133.478853 
L 117.575033 133.39339 
L 117.594563 133.413228 
L 117.711743 133.744539 
L 117.907043 135.088455 
L 118.297643 139.819784 
L 118.707773 143.919149 
L 118.844483 144.196003 
L 118.864013 144.1765 
L 118.961663 143.851035 
L 119.156963 142.113531 
L 119.567093 135.630011 
L 119.938163 131.324337 
L 120.055343 131.059203 
L 120.094403 131.108805 
L 120.211583 131.659371 
L 120.445943 134.26024 
L 121.070903 141.715695 
L 121.149023 141.825776 
L 121.188083 141.784943 
L 121.305263 141.298892 
L 121.539623 139.061089 
L 122.027873 134.522372 
L 122.105993 134.461303 
L 122.145053 134.529251 
L 122.281763 135.278931 
L 122.535653 138.382044 
L 123.043433 144.451944 
L 123.121553 144.564491 
L 123.160613 144.501086 
L 123.277793 143.829547 
L 123.492623 140.937775 
L 124.176173 130.764029 
L 124.215233 130.750318 
L 124.254293 130.82893 
L 124.371473 131.607257 
L 124.605833 135.220547 
L 125.230793 145.672468 
L 125.308913 145.843415 
L 125.347973 145.794622 
L 125.465153 145.135112 
L 125.699513 141.984586 
L 126.226823 134.677947 
L 126.304943 134.513207 
L 126.344003 134.558031 
L 126.461183 135.192248 
L 126.676013 137.999831 
L 127.281443 146.447702 
L 127.320503 146.492742 
L 127.359563 146.446221 
L 127.476743 145.758571 
L 127.691573 142.598475 
L 128.433713 129.932772 
L 128.492303 129.885756 
L 128.531363 129.964299 
L 128.648543 130.698223 
L 128.882903 133.931299 
L 129.488333 142.540833 
L 129.605513 142.805915 
L 129.644573 142.766933 
L 129.761753 142.307454 
L 130.015643 140.091713 
L 130.464832 136.568161 
L 130.562483 136.455985 
L 130.601543 136.493527 
L 130.738253 136.972664 
L 131.011673 139.094054 
L 131.460863 142.293734 
L 131.578043 142.447036 
L 131.617103 142.41688 
L 131.753813 142.00373 
L 132.007703 140.219277 
L 132.749842 134.541385 
L 133.023263 133.932052 
L 133.257623 133.856992 
L 133.550573 134.036599 
L 133.823993 134.476132 
L 134.116943 135.433633 
L 134.976263 138.632118 
L 135.112973 138.451204 
L 135.327803 137.671358 
L 135.952763 135.18804 
L 136.069943 135.242059 
L 136.226183 135.668227 
L 136.538663 137.363049 
L 137.007383 139.638698 
L 137.241743 139.931333 
L 137.749523 140.101316 
L 137.964353 140.861496 
L 138.394013 143.580018 
L 138.706493 144.816852 
L 138.804143 144.793976 
L 138.940853 144.373757 
L 139.175213 142.73027 
L 139.839233 137.739714 
L 139.956412 137.673924 
L 139.975943 137.692956 
L 140.112653 138.031817 
L 140.718083 140.191148 
L 140.776673 140.127476 
L 140.932913 139.587817 
L 141.245393 137.384463 
L 141.596933 135.414596 
L 141.694583 135.361494 
L 141.714112 135.383652 
L 141.831293 135.744123 
L 142.065652 137.428716 
L 142.534373 140.694467 
L 142.592962 140.695787 
L 142.612493 140.665758 
L 142.729673 140.154538 
L 142.944502 137.836005 
L 143.608523 129.820041 
L 143.686643 130.06862 
L 143.842883 131.747936 
L 144.116303 137.833312 
L 144.663143 149.773501 
L 144.760793 150.121374 
L 144.799853 150.045245 
L 144.917033 149.091021 
L 145.131863 144.930058 
L 145.756822 131.5963 
L 145.815413 131.480931 
L 145.854473 131.565829 
L 145.971653 132.580995 
L 146.186483 136.946423 
L 146.791913 150.04043 
L 146.830973 150.111087 
L 146.870033 150.03919 
L 146.967683 149.234811 
L 147.162982 145.178123 
L 147.944183 125.21104 
L 147.963713 125.215185 
L 148.041832 125.59614 
L 148.198073 127.97204 
L 148.549613 137.966761 
L 148.920682 145.805505 
L 149.018333 146.177701 
L 149.057393 146.097726 
L 149.174573 145.112589 
L 149.408933 140.522449 
L 149.916713 130.426605 
L 149.994833 130.158907 
L 150.053423 130.279152 
L 150.170603 131.327407 
L 150.404963 136.060736 
L 150.971333 148.071704 
L 151.049453 148.344511 
L 151.108043 148.234095 
L 151.225223 147.230669 
L 151.459583 142.703234 
L 152.065013 130.559757 
L 152.162663 130.277972 
L 152.201723 130.333887 
L 152.318903 131.02736 
L 152.572793 134.411618 
L 153.002453 139.493147 
L 153.080573 139.638899 
L 153.119633 139.597991 
L 153.236813 139.043678 
L 153.471173 136.489396 
L 153.881303 132.465955 
L 153.939893 132.437339 
L 153.959423 132.471607 
L 154.057073 132.984226 
L 154.252373 135.667443 
L 155.033573 150.082176 
L 155.092163 149.96468 
L 155.209343 148.926895 
L 155.424172 144.578833 
L 156.146783 127.992481 
L 156.205373 127.906052 
L 156.244433 128.002091 
L 156.361613 128.999537 
L 156.595973 133.606162 
L 157.220933 146.69514 
L 157.299053 146.91659 
L 157.338113 146.860454 
L 157.455293 146.047754 
L 157.670123 142.458833 
L 158.334143 130.381572 
L 158.392733 130.302531 
L 158.431793 130.378927 
L 158.548973 131.210963 
L 158.763803 134.737396 
L 159.466883 147.55951 
L 159.525473 147.650365 
L 159.564533 147.588994 
L 159.681713 146.837637 
L 159.896543 143.585394 
L 160.599623 131.801979 
L 160.658213 131.744886 
L 160.697273 131.82237 
L 160.814453 132.592604 
L 161.048813 136.154318 
L 161.693303 146.800901 
L 161.771423 146.93376 
L 161.810483 146.862731 
L 161.927663 146.113745 
L 162.162023 142.597089 
L 162.767453 132.736981 
L 162.826043 132.612356 
L 162.884633 132.71305 
L 163.001813 133.590482 
L 163.216643 137.266357 
L 163.919723 150.808057 
L 163.958783 150.839329 
L 163.997843 150.752235 
L 164.115023 149.78522 
L 164.329853 145.563964 
L 165.091523 128.575976 
L 165.130583 128.585826 
L 165.150113 128.63864 
L 165.267293 129.610196 
L 165.482123 133.918147 
L 166.204733 150.477101 
L 166.263323 150.595762 
L 166.302383 150.528 
L 166.419563 149.651023 
L 166.653923 145.447029 
L 167.278883 133.486358 
L 167.376533 133.23141 
L 167.415593 133.292161 
L 167.532773 133.991659 
L 167.767133 137.152009 
L 168.294443 144.188719 
L 168.392093 144.394674 
L 168.431153 144.349886 
L 168.548333 143.803039 
L 168.782693 141.257827 
L 169.349063 134.94208 
L 169.466243 134.740767 
L 169.505303 134.780733 
L 169.642013 135.297852 
L 169.934963 137.68564 
L 170.364623 140.693795 
L 170.540393 140.919391 
L 170.677103 140.698715 
L 170.989583 139.53433 
L 171.360653 138.471254 
L 171.614543 138.305376 
L 172.161383 138.137277 
L 172.376213 138.157936 
L 172.532453 138.481271 
L 172.747283 139.620615 
L 173.098823 143.076283 
L 173.450363 145.826771 
L 173.508953 145.882529 
L 173.548013 145.825992 
L 173.665193 145.160999 
L 173.860493 142.303552 
L 174.212033 132.890722 
L 174.641693 123.035282 
L 174.758873 122.509878 
L 174.797933 122.614639 
L 174.915113 123.781133 
L 175.129943 128.903288 
L 175.852553 148.681208 
L 175.891613 148.706398 
L 175.911143 148.65837 
L 176.008793 147.822822 
L 176.204093 143.518335 
L 176.907173 125.756274 
L 176.965763 125.993361 
L 177.102473 128.020224 
L 177.356363 136.107183 
L 177.864143 152.010511 
L 177.961793 152.509494 
L 178.000853 152.382198 
L 178.118033 150.896805 
L 178.332863 144.521211 
L 178.957823 124.368688 
L 179.016413 124.17855 
L 179.055473 124.287309 
L 179.172653 125.70685 
L 179.407013 132.523884 
L 179.953853 148.906725 
L 180.012443 149.165671 
L 180.071033 149.00975 
L 180.188213 147.487753 
L 180.422573 140.564199 
L 180.949883 124.881851 
L 181.008473 124.638303 
L 181.067063 124.830001 
L 181.184243 126.502306 
L 181.418603 134.131015 
L 182.004503 153.948875 
L 182.063093 154.194699 
L 182.121683 153.9888 
L 182.238863 152.269059 
L 182.473223 144.670245 
L 183.000533 127.236544 
L 183.078653 126.804636 
L 183.137243 127.002513 
L 183.254423 128.705704 
L 183.488783 136.342432 
L 184.055153 155.15458 
L 184.133273 155.444551 
L 184.172333 155.296085 
L 184.289513 153.716977 
L 184.523873 146.427385 
L 185.090243 127.927854 
L 185.187893 127.448896 
L 185.226953 127.563662 
L 185.344133 128.899804 
L 185.578493 135.018499 
L 186.086273 148.337629 
L 186.183923 148.747871 
L 186.222983 148.647333 
L 186.340163 147.478217 
L 186.574523 142.066593 
L 187.101833 129.581399 
L 187.199483 129.170805 
L 187.238543 129.230452 
L 187.355723 130.13192 
L 187.590083 134.412042 
L 188.097863 143.483865 
L 188.175983 143.716706 
L 188.234573 143.628168 
L 188.351753 142.828755 
L 188.625173 138.837992 
L 188.996243 134.345256 
L 189.074363 134.209271 
L 189.113423 134.274641 
L 189.230603 134.989553 
L 189.464963 138.269321 
L 189.953213 145.075775 
L 190.031333 145.260141 
L 190.089923 145.174843 
L 190.226633 144.278353 
L 190.519583 140.235202 
L 190.871123 136.447499 
L 190.949243 136.345817 
L 190.988303 136.419235 
L 191.105483 137.119785 
L 191.359373 140.491848 
L 191.769503 145.31675 
L 191.828093 145.369312 
L 191.867153 145.279991 
L 191.984333 144.40388 
L 192.199163 140.682767 
L 192.824123 128.93308 
L 192.863183 128.894962 
L 192.902243 128.979685 
L 193.019423 129.955236 
L 193.253783 134.575608 
L 193.781093 145.351219 
L 193.839683 145.534463 
L 193.898273 145.419661 
L 194.015453 144.309839 
L 194.249813 139.216635 
L 194.777123 127.621037 
L 194.835713 127.473366 
L 194.874773 127.560941 
L 194.991953 128.714899 
L 195.206783 133.860066 
L 195.851273 150.935888 
L 195.890333 151.036559 
L 195.948923 150.892797 
L 196.066103 149.583513 
L 196.300463 143.735708 
L 196.827773 130.44356 
L 196.905893 130.1262 
L 196.944953 130.190725 
L 197.042603 130.986341 
L 197.237903 134.893254 
L 197.862863 148.778325 
L 197.901923 148.811344 
L 197.940983 148.700101 
L 198.058163 147.52719 
L 198.292523 142.130168 
L 198.839363 129.236817 
L 198.917483 128.960067 
L 198.956543 129.02294 
L 199.073723 129.977274 
L 199.308083 134.539317 
L 199.776803 143.572511 
L 199.854923 143.813304 
L 199.893983 143.74376 
L 200.011163 142.789248 
L 200.225993 138.628855 
L 200.772833 127.629201 
L 200.831423 127.521163 
L 200.870483 127.617492 
L 200.987663 128.701183 
L 201.222023 133.830753 
L 201.768863 146.355604 
L 201.846983 146.570937 
L 201.886043 146.466718 
L 202.003223 145.328992 
L 202.237583 140.033738 
L 202.784423 127.333994 
L 202.862543 127.114746 
L 202.901603 127.216147 
L 203.018783 128.338159 
L 203.253143 133.557326 
L 203.799983 146.189981 
L 203.878103 146.483391 
L 203.936693 146.356043 
L 204.053873 145.247872 
L 204.288233 140.378938 
L 204.815543 129.441152 
L 204.913193 129.134311 
L 204.952253 129.212693 
L 205.069433 130.097646 
L 205.303793 134.106498 
L 205.811573 142.761625 
L 205.928753 143.080697 
L 205.967813 143.009081 
L 206.084993 142.312173 
L 206.358413 138.85338 
L 206.729483 135.002561 
L 206.807603 134.873561 
L 206.846663 134.917637 
L 206.963843 135.461521 
L 207.217733 138.15628 
L 207.588803 141.594182 
L 207.647393 141.665511 
L 207.686453 141.614226 
L 207.803633 140.974652 
L 208.018463 138.10537 
L 208.643423 128.987272 
L 208.682483 128.977127 
L 208.702013 129.009483 
L 208.799663 129.544527 
L 208.994963 132.31768 
L 209.815223 146.267444 
L 209.893343 146.105407 
L 210.049583 144.908348 
L 210.850313 137.078797 
L 210.869843 137.085931 
L 210.987023 137.314252 
L 211.416683 138.594727 
L 211.475273 138.541519 
L 211.611983 138.051155 
L 211.865873 135.990637 
L 212.276003 132.928502 
L 212.334593 132.895446 
L 212.373653 132.956331 
L 212.490833 133.551362 
L 212.705663 136.109235 
L 213.311093 143.96586 
L 213.350153 143.966289 
L 213.369683 143.930624 
L 213.467333 143.391829 
L 213.662633 140.66014 
L 214.346183 129.261641 
L 214.365713 129.271843 
L 214.443833 129.606458 
L 214.600073 131.619493 
L 214.951613 140.20354 
L 215.303153 146.432971 
L 215.361743 146.615475 
L 215.420333 146.499141 
L 215.537513 145.380665 
L 215.771873 140.204076 
L 216.338243 127.143899 
L 216.416363 126.948774 
L 216.455423 127.057921 
L 216.572603 128.179793 
L 216.806963 133.238665 
L 217.295213 143.711296 
L 217.373333 143.937807 
L 217.412393 143.835789 
L 217.529573 142.675355 
L 217.744403 137.708771 
L 218.330303 123.106295 
L 218.388893 122.963902 
L 218.427953 123.069225 
L 218.545133 124.336403 
L 218.759963 129.8626 
L 219.443513 149.133194 
L 219.502103 149.259663 
L 219.541163 149.161844 
L 219.658343 148.054759 
L 219.912233 142.611288 
L 220.380953 133.139592 
L 220.478603 132.763981 
L 220.517663 132.806593 
L 220.615313 133.360763 
L 220.830143 136.268447 
L 221.259803 141.931605 
L 221.318393 142.03908 
L 221.357453 141.984985 
L 221.474633 141.221503 
L 221.689463 137.851035 
L 222.216773 129.409888 
L 222.255833 129.36251 
L 222.294893 129.434215 
L 222.412073 130.36431 
L 222.626903 134.497459 
L 223.232333 147.122412 
L 223.271393 147.193476 
L 223.310453 147.130458 
L 223.408103 146.394914 
L 223.603403 142.759875 
L 224.267423 128.666346 
L 224.306483 128.640263 
L 224.345543 128.741569 
L 224.462723 129.768211 
L 224.716613 134.721057 
L 225.146273 142.443848 
L 225.224393 142.680806 
L 225.263453 142.619917 
L 225.380633 141.741123 
L 225.614993 137.533276 
L 226.064183 129.857387 
L 226.103243 129.771518 
L 226.161833 129.899148 
L 226.279013 131.092817 
L 226.493843 136.151024 
L 227.099273 151.44425 
L 227.138333 151.491155 
L 227.177393 151.363857 
L 227.294573 149.942286 
L 227.509403 143.800267 
L 228.153893 123.353278 
L 228.212483 123.19435 
L 228.251543 123.318986 
L 228.368723 124.760799 
L 228.603083 131.529575 
L 229.188983 149.020466 
L 229.267103 149.378087 
L 229.325693 149.247292 
L 229.442873 148.051299 
L 229.716293 142.080334 
L 230.106893 134.930327 
L 230.185013 134.678194 
L 230.224073 134.731809 
L 230.341253 135.570111 
L 230.575613 139.476759 
L 230.985743 145.581644 
L 231.044333 145.669491 
L 231.083393 145.580176 
L 231.200573 144.610599 
L 231.434933 140.116477 
L 231.903653 131.291418 
L 231.962243 131.145192 
L 232.001303 131.216587 
L 232.118483 132.231977 
L 232.352843 137.18294 
L 232.802033 146.49659 
L 232.841093 146.605148 
L 232.899683 146.449481 
L 233.016863 144.963233 
L 233.231693 138.619375 
L 233.798063 120.737783 
L 233.817593 120.685883 
L 233.856653 120.763044 
L 233.954303 122.03438 
L 234.130073 128.03652 
L 234.872213 161.301679 
L 234.930803 160.828432 
L 235.067513 156.935311 
L 235.321403 141.366508 
L 235.829183 111.087128 
L 235.907303 110.436366 
L 235.946363 110.687157 
L 236.063543 113.734044 
L 236.278373 127.037376 
L 236.883803 167.873286 
L 236.922863 168.13011 
L 236.961923 167.946821 
L 237.059573 165.570795 
L 237.254873 153.46562 
L 237.918893 105.334497 
L 237.938423 105.356039 
L 238.016543 106.743438 
L 238.172783 115.547326 
L 238.504793 152.028435 
L 238.875863 183.347644 
L 238.934453 184.064148 
L 238.973513 183.697919 
L 239.071163 179.730742 
L 239.266463 159.179042 
L 239.715653 76.838611 
L 240.047663 37.478374 
L 240.125783 35.809602 
L 240.164843 36.232943 
L 240.262493 40.853335 
L 240.457793 63.740359 
L 241.317113 184.064148 
L 241.356173 183.75142 
L 241.453823 180.176463 
L 241.668653 161.218019 
L 242.254553 106.201347 
L 242.332673 105.334497 
L 242.371733 105.676651 
L 242.488913 109.626401 
L 242.723273 127.636661 
L 243.231053 166.845697 
L 243.328703 168.13011 
L 243.367763 167.873286 
L 243.484943 164.569263 
L 243.719303 148.9032 
L 244.266143 111.324645 
L 244.344263 110.436366 
L 244.402853 110.782501 
L 244.520033 113.950964 
L 244.754393 127.963649 
L 245.301233 160.508536 
L 245.379353 161.301679 
L 245.437943 161.050613 
L 245.555123 158.501317 
L 245.789483 147.177184 
L 246.316793 121.656517 
L 246.433973 120.685883 
L 246.473033 120.848681 
L 246.590213 122.66872 
L 246.844103 131.458596 
L 247.293293 145.901474 
L 247.410473 146.605148 
L 247.449533 146.49659 
L 247.566713 145.240885 
L 247.840133 138.762893 
L 248.211203 131.423505 
L 248.289323 131.145192 
L 248.328383 131.209262 
L 248.445563 132.178132 
L 248.679923 136.776773 
L 249.148643 145.490923 
L 249.226763 145.669573 
L 249.265823 145.581644 
L 249.383003 144.654521 
L 249.636893 140.264992 
L 250.007963 134.802608 
L 250.066553 134.678194 
L 250.105613 134.744111 
L 250.222793 135.655751 
L 250.437623 139.671538 
L 250.945403 149.327804 
L 250.984463 149.378087 
L 251.023523 149.276608 
L 251.140703 148.044514 
L 251.355533 142.506317 
L 252.019553 123.233719 
L 252.058613 123.201125 
L 252.078143 123.254127 
L 252.175793 124.204164 
L 252.371093 129.169644 
L 253.113233 151.491155 
L 253.152293 151.44425 
L 253.249943 150.591659 
L 253.445243 146.234465 
L 254.089733 129.899148 
L 254.148323 129.771518 
L 254.187383 129.857387 
L 254.304563 130.871623 
L 254.558453 135.765692 
L 254.949053 142.440449 
L 255.027173 142.680806 
L 255.066233 142.621846 
L 255.183413 141.744205 
L 255.417773 137.471049 
L 255.906023 128.741569 
L 255.964613 128.63726 
L 256.003672 128.727603 
L 256.120853 129.759334 
L 256.335683 134.173171 
L 256.921582 147.048764 
L 256.980173 147.193476 
L 257.019233 147.122412 
L 257.136413 146.129161 
L 257.370773 141.304606 
L 257.917613 129.626006 
L 257.995733 129.36251 
L 258.054323 129.477405 
L 258.191033 130.7059 
L 258.483983 136.238355 
L 258.855053 141.829485 
L 258.933173 142.03908 
L 258.972233 141.992236 
L 259.089413 141.27767 
L 259.323773 137.944884 
L 259.714373 132.867699 
L 259.772963 132.763981 
L 259.812023 132.830626 
L 259.929203 133.6979 
L 260.144033 137.608638 
L 260.729933 149.228652 
L 260.768993 149.254342 
L 260.788522 149.212279 
L 260.886173 148.445712 
L 261.061943 144.850581 
L 261.862673 122.963902 
L 261.921263 123.106295 
L 262.038443 124.4252 
L 262.272803 130.295122 
L 262.800113 143.589545 
L 262.878233 143.937807 
L 262.936823 143.82098 
L 263.054003 142.662325 
L 263.288363 137.519609 
L 263.776613 127.163553 
L 263.854733 126.945807 
L 263.893793 127.043486 
L 264.010973 128.145524 
L 264.245333 133.341131 
L 264.811703 146.393707 
L 264.889823 146.615475 
L 264.928883 146.526618 
L 265.046063 145.494904 
L 265.280423 140.706732 
L 265.827263 129.478883 
L 265.905383 129.261641 
L 265.944443 129.328757 
L 266.061622 130.1991 
L 266.295983 134.292269 
L 266.823293 143.679058 
L 266.920943 143.977967 
L 266.960003 143.930259 
L 267.077183 143.250129 
L 267.311543 140.060706 
L 267.819322 133.17637 
L 267.936503 132.890199 
L 267.975563 132.928502 
L 268.092743 133.398548 
L 268.366163 135.796885 
L 268.737233 138.454228 
L 268.854413 138.592636 
L 268.893473 138.560758 
L 269.049713 138.139763 
L 269.420783 137.082099 
L 269.518433 137.270772 
L 269.674673 138.225128 
L 269.967623 141.811472 
L 270.377753 146.176266 
L 270.436343 146.267444 
L 270.475403 146.22248 
L 270.592583 145.559125 
L 270.787883 142.775678 
L 271.588613 128.969766 
L 271.608143 128.987272 
L 271.705793 129.437287 
L 271.901093 131.89342 
L 272.584643 141.649936 
L 272.643233 141.637277 
L 272.662763 141.594182 
L 272.799473 140.804649 
L 273.170543 136.524544 
L 273.424433 134.886628 
L 273.483023 134.901794 
L 273.502553 134.94315 
L 273.619733 135.561134 
L 273.873623 138.571687 
L 274.283752 143.009081 
L 274.342343 143.083809 
L 274.381403 143.022954 
L 274.498582 142.297521 
L 274.713413 139.07545 
L 275.318843 129.159338 
L 275.357903 129.137921 
L 275.396963 129.231752 
L 275.514143 130.199255 
L 275.748503 134.754339 
L 276.314873 146.356043 
L 276.373463 146.483391 
L 276.412523 146.402902 
L 276.529703 145.377095 
L 276.744532 140.885564 
L 277.349963 127.216147 
L 277.408553 127.116821 
L 277.447612 127.22662 
L 277.564793 128.377156 
L 277.799152 133.683296 
L 278.345993 146.361889 
L 278.424113 146.569986 
L 278.463173 146.462097 
L 278.580353 145.318094 
L 278.814713 140.062141 
L 279.342023 127.848282 
L 279.439673 127.523643 
L 279.478733 127.629201 
L 279.595913 128.715681 
L 279.830273 133.575714 
L 280.318523 143.547779 
L 280.396643 143.813304 
L 280.435703 143.755756 
L 280.533353 143.06998 
L 280.728653 139.732355 
L 281.314552 128.974888 
L 281.353613 128.978761 
L 281.373143 129.031124 
L 281.490323 130.044495 
L 281.705153 134.602824 
L 282.310583 148.700101 
L 282.369172 148.812881 
L 282.408233 148.707818 
L 282.525413 147.554735 
L 282.759773 142.221637 
L 283.267553 130.402379 
L 283.345673 130.1262 
L 283.384733 130.210618 
L 283.501913 131.342183 
L 283.716743 136.31193 
L 284.302643 150.892797 
L 284.361233 151.036559 
L 284.400293 150.935888 
L 284.517473 149.708036 
L 284.732303 144.400371 
L 285.357263 127.660989 
L 285.415853 127.473366 
L 285.474443 127.621037 
L 285.591623 128.866415 
L 285.845513 134.78298 
L 286.314233 145.177573 
L 286.411883 145.534463 
L 286.450942 145.44505 
L 286.568123 144.413129 
L 286.802482 139.645038 
L 287.310263 129.186607 
L 287.388383 128.894962 
L 287.446973 128.997899 
L 287.564153 130.000273 
L 287.798513 134.509555 
L 288.345353 145.089041 
L 288.443003 145.376309 
L 288.482063 145.31675 
L 288.599243 144.593769 
L 288.853133 141.118314 
L 289.243733 136.486804 
L 289.321853 136.340225 
L 289.360913 136.391218 
L 289.478093 137.02254 
L 289.712453 139.936212 
L 290.161643 145.174843 
L 290.220233 145.260141 
L 290.259293 145.210623 
L 290.376473 144.557321 
L 290.591303 141.715249 
L 291.138143 134.274641 
L 291.196733 134.210018 
L 291.235793 134.278191 
L 291.352973 134.994628 
L 291.606863 138.510753 
L 292.016993 143.628168 
L 292.075582 143.716706 
L 292.114643 143.65104 
L 292.231823 142.848277 
L 292.446653 139.308464 
L 293.013023 129.230452 
L 293.052083 129.170805 
L 293.091143 129.238538 
L 293.208323 130.209728 
L 293.423153 134.633274 
L 294.048113 148.716362 
L 294.087173 148.741578 
L 294.106703 148.697339 
L 294.204353 147.911827 
L 294.399653 143.810908 
L 295.063673 127.448896 
L 295.083203 127.456724 
L 295.161323 127.927854 
L 295.317563 130.903356 
L 295.630043 142.452528 
L 296.040173 154.954654 
L 296.137823 155.445477 
L 296.176883 155.300313 
L 296.294062 153.716867 
L 296.528423 146.273388 
L 297.094793 127.16747 
L 297.172913 126.804636 
L 297.211973 126.92184 
L 297.329153 128.436811 
L 297.543983 134.987141 
L 298.129883 153.9888 
L 298.188473 154.194699 
L 298.227533 154.080924 
L 298.344713 152.558518 
L 298.559543 145.873368 
L 299.184503 124.830001 
L 299.243093 124.638303 
L 299.282153 124.752849 
L 299.399333 126.212394 
L 299.633693 133.116414 
L 300.161002 148.866085 
L 300.239123 149.165671 
L 300.278183 149.038889 
L 300.395363 147.582675 
L 300.629723 140.738214 
L 301.176563 124.411695 
L 301.235153 124.17855 
L 301.293743 124.368688 
L 301.410923 125.992656 
L 301.645283 133.324185 
L 302.231183 152.248361 
L 302.289773 152.509494 
L 302.348363 152.348814 
L 302.465543 150.804633 
L 302.699903 143.786744 
L 303.266273 126.158587 
L 303.344393 125.756274 
L 303.402983 125.907264 
L 303.520163 127.322498 
L 303.754523 133.647797 
L 304.301362 148.441916 
L 304.379482 148.714022 
L 304.418543 148.608057 
L 304.535723 147.344337 
L 304.750553 141.899738 
L 305.434102 122.720611 
L 305.512223 122.510857 
L 305.551283 122.618163 
L 305.668463 123.743052 
L 305.902823 128.886395 
L 306.586373 145.160999 
L 306.762142 145.882055 
L 306.840262 145.70371 
L 307.016033 144.483863 
L 307.758173 138.365686 
L 307.973003 138.108379 
L 308.226893 138.214592 
L 308.617493 138.303332 
L 308.851853 138.421266 
L 309.066683 138.847107 
L 309.476813 140.391569 
L 309.730703 140.925135 
L 309.828353 140.840617 
L 309.984593 140.284969 
L 310.258013 138.228321 
L 310.726733 134.819805 
L 310.804853 134.740424 
L 310.843912 134.780065 
L 310.961093 135.227314 
L 311.175923 137.226534 
L 311.859473 144.394674 
L 311.937593 144.266401 
L 312.074303 143.35273 
L 312.347723 139.485872 
L 312.816442 133.356202 
L 312.894563 133.235453 
L 312.933623 133.313701 
L 313.050803 134.113361 
L 313.265633 137.577231 
L 313.968713 150.576433 
L 314.007772 150.58574 
L 314.027303 150.546209 
L 314.124953 149.906717 
L 314.320253 146.579999 
L 315.140512 128.564917 
L 315.179573 128.618973 
L 315.277222 129.305375 
L 315.472523 132.796093 
L 316.292783 150.839329 
L 316.312313 150.838418 
L 316.390433 150.543214 
L 316.546672 148.661214 
L 316.878683 141.038927 
L 317.288813 133.19966 
L 317.425523 132.612356 
L 317.464583 132.67076 
L 317.581763 133.421576 
L 317.816123 137.012768 
L 318.421553 146.793053 
L 318.499673 146.934891 
L 318.538733 146.868361 
L 318.655912 146.131878 
L 318.870743 142.992881 
L 319.554293 131.82237 
L 319.612883 131.740769 
L 319.651943 131.801979 
L 319.769122 132.530519 
L 319.983952 135.709521 
L 320.706563 147.631819 
L 320.745623 147.644514 
L 320.784683 147.55951 
L 320.901862 146.728881 
L 321.116692 143.255808 
L 321.839303 130.327857 
L 321.878363 130.303044 
L 321.917423 130.381572 
L 322.034603 131.222829 
L 322.249433 134.78472 
L 322.913453 146.860454 
L 322.952513 146.91659 
L 322.991573 146.861557 
L 323.089223 146.239625 
L 323.284523 143.10902 
L 324.065722 127.904017 
L 324.085253 127.93282 
L 324.182903 128.536788 
L 324.358673 131.416012 
L 324.807863 144.061689 
L 325.120342 149.736349 
L 325.217993 150.082176 
L 325.257052 150.011173 
L 325.374233 149.112638 
L 325.608592 144.825194 
L 326.233553 132.710378 
L 326.331203 132.425259 
L 326.370263 132.465955 
L 326.487443 133.062446 
L 326.741332 135.971 
L 327.112403 139.549596 
L 327.170993 139.638899 
L 327.229582 139.55808 
L 327.366292 138.720634 
L 327.639713 135.032822 
L 328.030313 130.396368 
L 328.088903 130.277972 
L 328.147492 130.373405 
L 328.264673 131.228018 
L 328.479503 134.900561 
L 329.182583 148.337651 
L 329.241173 148.26797 
L 329.358353 147.330344 
L 329.573183 143.258222 
L 330.198143 130.279152 
L 330.256732 130.158907 
L 330.295793 130.232106 
L 330.412973 131.165165 
L 330.647333 135.632466 
L 331.174643 146.009654 
L 331.233232 146.177701 
L 331.291823 146.052792 
L 331.409003 144.926437 
L 331.643363 139.692985 
L 332.248793 125.333512 
L 332.307383 125.21104 
L 332.346443 125.313542 
L 332.463623 126.494314 
L 332.678453 131.611547 
L 333.362003 149.949439 
L 333.420592 150.111087 
L 333.459653 150.04043 
L 333.576833 149.009944 
L 333.811193 144.013133 
L 334.358033 131.779499 
L 334.436153 131.480931 
L 334.494743 131.5963 
L 334.611922 132.672281 
L 334.846283 137.548636 
L 335.412653 149.846305 
L 335.490773 150.121374 
L 335.549363 150.00412 
L 335.666542 148.961715 
L 335.900903 144.227599 
L 336.545393 130.192668 
L 336.662573 129.818755 
L 336.701633 129.886663 
L 336.818813 130.611187 
L 337.072702 134.081602 
L 337.560952 140.388258 
L 337.697663 140.709852 
L 337.717193 140.694467 
L 337.834373 140.314805 
L 338.088263 138.330893 
L 338.498393 135.46094 
L 338.596043 135.350205 
L 338.635103 135.382475 
L 338.771813 135.814976 
L 339.064763 137.847657 
L 339.455363 140.08908 
L 339.572543 140.191162 
L 339.611603 140.158408 
L 339.767843 139.741167 
L 340.334213 137.660846 
L 340.373272 137.682407 
L 340.490453 137.963148 
L 340.705283 139.270827 
L 341.486483 144.830671 
L 341.584133 144.763223 
L 341.740373 144.233327 
L 342.130972 141.756054 
L 342.502043 140.101316 
L 342.716873 139.884986 
L 343.185592 139.765037 
L 343.380893 139.186339 
L 343.732433 137.241528 
L 344.162093 135.273887 
L 344.298803 135.18804 
L 344.318332 135.201867 
L 344.455042 135.470349 
L 344.728463 136.670509 
L 345.197183 138.562641 
L 345.353423 138.609344 
L 345.509662 138.301935 
L 345.802613 137.052248 
L 346.408043 134.522457 
L 346.740053 133.998665 
L 347.072063 133.852973 
L 347.267362 133.976205 
L 347.462663 134.40547 
L 347.716553 135.642027 
L 348.107152 138.955259 
L 348.556343 142.237357 
L 348.693053 142.446879 
L 348.712583 142.43652 
L 348.829763 142.162922 
L 349.044593 140.835819 
L 349.669553 136.468942 
L 349.747673 136.487827 
L 349.767203 136.522109 
L 349.903913 137.082531 
L 350.177333 139.480166 
L 350.587463 142.724877 
L 350.665583 142.802129 
L 350.704643 142.746602 
L 350.821823 142.186975 
L 351.036653 139.721454 
L 351.778793 129.879268 
L 351.856913 130.075336 
L 352.013153 131.509916 
L 352.306103 137.060088 
L 352.813883 146.077802 
L 352.931063 146.492742 
L 352.970123 146.447702 
L 353.087303 145.785903 
L 353.321663 142.565212 
L 353.868503 134.687458 
L 353.946622 134.513207 
L 353.985683 134.553437 
L 354.102863 135.170684 
L 354.317693 137.913558 
L 354.903593 145.794622 
L 354.962183 145.834363 
L 355.001242 145.748873 
L 355.118423 144.961415 
L 355.352782 141.353126 
L 355.977743 130.902734 
L 356.055862 130.745646 
L 356.094923 130.805347 
L 356.212103 131.51889 
L 356.446463 134.917216 
L 357.051893 144.356871 
L 357.149543 144.566002 
L 357.188603 144.509464 
L 357.305783 143.888179 
L 357.540143 141.075289 
L 358.067453 134.663269 
L 358.165102 134.452123 
L 358.204163 134.482848 
L 358.321343 134.948735 
L 358.555703 137.175359 
L 359.043953 141.741043 
L 359.122073 141.822347 
L 359.161133 141.767318 
L 359.278313 141.22113 
L 359.512673 138.658847 
L 360.137632 131.159279 
L 360.215753 131.060292 
L 360.254813 131.114407 
L 360.371993 131.684304 
L 360.586823 134.110138 
L 361.368023 144.141816 
L 361.446143 144.18983 
L 361.485203 144.124419 
L 361.621913 143.458814 
L 361.895332 140.586286 
L 362.520293 133.835271 
L 362.715593 133.383441 
L 362.813243 133.525781 
L 362.989013 134.317587 
L 363.340553 137.247973 
L 363.985043 142.435077 
L 364.238933 143.12397 
L 364.356112 143.096214 
L 364.512353 142.729108 
L 364.785773 141.323301 
L 365.703683 135.975304 
L 365.918513 135.815329 
L 366.113812 135.99127 
L 366.621593 136.513046 
L 366.816892 136.370843 
L 367.207493 135.663149 
L 367.500443 135.343655 
L 367.676213 135.41693 
L 367.930103 135.832419 
L 368.379293 136.514951 
L 368.535533 136.449053 
L 368.750363 136.044385 
L 369.336263 134.793731 
L 369.472973 134.916883 
L 369.668273 135.494153 
L 370.429943 138.421923 
L 370.469002 138.399974 
L 370.605713 138.107651 
L 370.840073 136.928278 
L 371.465033 133.528135 
L 371.562683 133.505998 
L 371.582213 133.526119 
L 371.718923 133.891469 
L 371.972813 135.437235 
L 372.597773 139.46797 
L 372.734483 139.582869 
L 372.754013 139.569286 
L 372.890723 139.28109 
L 373.164143 137.968048 
L 373.652393 135.754844 
L 373.808633 135.655393 
L 373.828163 135.668966 
L 373.984402 135.968099 
L 374.277353 137.177291 
L 374.843723 139.423039 
L 375.175733 139.893285 
L 375.605392 140.419281 
L 376.035053 141.50678 
L 376.386593 142.128196 
L 376.542833 142.071741 
L 376.718603 141.69007 
L 377.011552 140.377674 
L 377.968523 135.57661 
L 378.222413 135.263067 
L 378.417712 135.330447 
L 378.652073 135.709756 
L 379.042673 136.856423 
L 379.628573 138.496425 
L 379.843403 138.601574 
L 380.019173 138.425094 
L 380.683193 137.391272 
L 380.741782 137.446322 
L 380.917553 137.879297 
L 381.210503 139.405736 
L 381.757343 142.248383 
L 381.854993 142.303253 
L 381.894053 142.266011 
L 382.030763 141.861677 
L 382.265123 140.266423 
L 383.026793 134.371732 
L 383.124443 134.3495 
L 383.143973 134.372791 
L 383.280683 134.772939 
L 383.573633 136.582833 
L 383.983763 138.72579 
L 384.100943 138.788051 
L 384.120473 138.76834 
L 384.257182 138.398113 
L 384.511073 136.867523 
L 384.999323 134.008927 
L 385.116503 133.92659 
L 385.136033 133.944112 
L 385.272743 134.309214 
L 385.526633 135.877848 
L 386.034413 138.944397 
L 386.132063 139.017959 
L 386.171123 138.983021 
L 386.307833 138.581954 
L 386.581253 136.801701 
L 387.030443 134.076818 
L 387.128093 133.986124 
L 387.167153 134.019334 
L 387.303863 134.446962 
L 387.538223 136.131476 
L 388.163183 140.880501 
L 388.260832 140.963672 
L 388.299893 140.928008 
L 388.436603 140.513652 
L 388.710023 138.708591 
L 389.178742 135.8626 
L 389.295923 135.744829 
L 389.334983 135.773668 
L 389.471693 136.128175 
L 389.745113 137.717294 
L 390.252893 140.543218 
L 390.409133 140.67595 
L 390.428663 140.662315 
L 390.565373 140.39563 
L 390.838793 139.208014 
L 391.463753 136.463525 
L 392.459783 134.166604 
L 392.674613 134.002285 
L 392.811323 134.226971 
L 393.006623 135.107933 
L 393.338633 137.921122 
L 393.846413 141.886132 
L 393.963593 142.046386 
L 394.002653 142.010318 
L 394.119833 141.630953 
L 394.334663 139.985494 
L 395.115863 133.169578 
L 395.193983 133.240696 
L 395.330693 133.81928 
L 395.604113 136.292441 
L 396.131423 140.967576 
L 396.268133 141.170806 
L 396.287663 141.154407 
L 396.404843 140.826336 
L 396.619673 139.363257 
L 397.322753 134.084829 
L 397.420403 134.054344 
L 397.439933 134.07573 
L 397.576643 134.461686 
L 397.850063 136.13991 
L 398.377373 139.286042 
L 398.572673 139.534841 
L 398.709383 139.393972 
L 399.002333 138.605628 
L 399.373402 137.815371 
L 399.549173 137.829038 
L 399.764003 138.177181 
L 400.428022 139.434356 
L 400.623323 139.360407 
L 400.916272 138.902972 
L 401.560763 137.88634 
L 402.127133 137.532266 
L 402.517733 137.454064 
L 402.732563 137.652413 
L 402.986453 138.253978 
L 403.494233 140.26631 
L 403.806713 141.05946 
L 403.962953 141.044294 
L 404.119193 140.701451 
L 404.392613 139.416136 
L 405.076163 135.99407 
L 405.212873 135.929378 
L 405.232403 135.944656 
L 405.369113 136.218818 
L 405.623003 137.388321 
L 406.384673 141.297636 
L 406.521383 141.333733 
L 406.540912 141.314745 
L 406.697153 140.951026 
L 406.951043 139.659765 
L 407.966603 133.744441 
L 408.122843 133.74548 
L 408.298612 134.1329 
L 408.591563 135.466231 
L 409.275113 138.668876 
L 409.489943 138.863488 
L 409.646183 138.704083 
L 409.919602 138.009938 
L 410.427383 136.790896 
L 410.622682 136.768022 
L 410.817983 137.034466 
L 411.345293 138.354303 
L 411.696833 138.859812 
L 412.028842 138.950424 
L 412.360853 139.090717 
L 412.692863 139.536568 
L 413.083462 139.967671 
L 413.239703 139.869108 
L 413.435002 139.408981 
L 413.747483 137.975895 
L 414.274793 135.636031 
L 414.431033 135.551546 
L 414.567743 135.812782 
L 414.802103 136.924781 
L 415.602833 141.318977 
L 415.720013 141.294318 
L 415.876253 140.917909 
L 416.188733 139.398786 
L 416.618393 137.588014 
L 416.794163 137.475719 
L 416.930873 137.689146 
L 417.184763 138.61857 
L 417.770663 140.814401 
L 417.946433 140.883161 
L 418.122203 140.625418 
L 418.454213 139.589598 
L 418.961993 138.194634 
L 419.274473 137.916682 
L 419.821313 137.580348 
L 420.739223 136.590492 
L 420.954053 136.89509 
L 421.344653 137.973224 
L 421.832903 139.131404 
L 422.067263 139.24518 
L 422.282093 139.075608 
L 422.653163 138.392283 
L 423.336713 137.176989 
L 423.649193 137.001206 
L 423.903083 137.091485 
L 424.215563 137.482849 
L 425.094413 138.754224 
L 425.289713 138.632655 
L 425.563133 138.124223 
L 426.285743 136.637183 
L 426.461513 136.676828 
L 426.676343 137.008735 
L 427.633313 138.879193 
L 427.848142 138.704772 
L 428.746523 137.632438 
L 428.980883 137.836395 
L 429.898793 138.878651 
L 430.172213 138.75472 
L 431.187773 138.086078 
L 431.851793 138.175158 
L 434.195393 138.442623 
L 435.210953 138.450699 
L 435.406253 138.442557 
L 435.406253 138.442557 
" style="fill:none;stroke:#1f77b4;stroke-linecap:square;stroke-width:1.5;"/>
   </g>
   <g id="patch_3">
    <path d="M 44.845313 191.476875 
L 44.845313 28.396875 
" style="fill:none;stroke:#000000;stroke-linecap:square;stroke-linejoin:miter;stroke-width:0.8;"/>
   </g>
   <g id="patch_4">
    <path d="M 435.445312 191.476875 
L 435.445312 28.396875 
" style="fill:none;stroke:#000000;stroke-linecap:square;stroke-linejoin:miter;stroke-width:0.8;"/>
   </g>
   <g id="patch_5">
    <path d="M 44.845313 191.476875 
L 435.445312 191.476875 
" style="fill:none;stroke:#000000;stroke-linecap:square;stroke-linejoin:miter;stroke-width:0.8;"/>
   </g>
   <g id="patch_6">
    <path d="M 44.845313 28.396875 
L 435.445312 28.396875 
" style="fill:none;stroke:#000000;stroke-linecap:square;stroke-linejoin:miter;stroke-width:0.8;"/>
   </g>
   <g id="text_18">
    <!-- Correlation -->
    <defs>
     <path d="M 64.40625 67.28125 
L 64.40625 56.890625 
Q 59.421875 61.53125 53.78125 63.8125 
Q 48.140625 66.109375 41.796875 66.109375 
Q 29.296875 66.109375 22.65625 58.46875 
Q 16.015625 50.828125 16.015625 36.375 
Q 16.015625 21.96875 22.65625 14.328125 
Q 29.296875 6.6875 41.796875 6.6875 
Q 48.140625 6.6875 53.78125 8.984375 
Q 59.421875 11.28125 64.40625 15.921875 
L 64.40625 5.609375 
Q 59.234375 2.09375 53.4375 0.328125 
Q 47.65625 -1.421875 41.21875 -1.421875 
Q 24.65625 -1.421875 15.125 8.703125 
Q 5.609375 18.84375 5.609375 36.375 
Q 5.609375 53.953125 15.125 64.078125 
Q 24.65625 74.21875 41.21875 74.21875 
Q 47.75 74.21875 53.53125 72.484375 
Q 59.328125 70.75 64.40625 67.28125 
z
" id="DejaVuSans-67"/>
     <path d="M 30.609375 48.390625 
Q 23.390625 48.390625 19.1875 42.75 
Q 14.984375 37.109375 14.984375 27.296875 
Q 14.984375 17.484375 19.15625 11.84375 
Q 23.34375 6.203125 30.609375 6.203125 
Q 37.796875 6.203125 41.984375 11.859375 
Q 46.1875 17.53125 46.1875 27.296875 
Q 46.1875 37.015625 41.984375 42.703125 
Q 37.796875 48.390625 30.609375 48.390625 
z
M 30.609375 56 
Q 42.328125 56 49.015625 48.375 
Q 55.71875 40.765625 55.71875 27.296875 
Q 55.71875 13.875 49.015625 6.21875 
Q 42.328125 -1.421875 30.609375 -1.421875 
Q 18.84375 -1.421875 12.171875 6.21875 
Q 5.515625 13.875 5.515625 27.296875 
Q 5.515625 40.765625 12.171875 48.375 
Q 18.84375 56 30.609375 56 
z
" id="DejaVuSans-111"/>
     <path d="M 41.109375 46.296875 
Q 39.59375 47.171875 37.8125 47.578125 
Q 36.03125 48 33.890625 48 
Q 26.265625 48 22.1875 43.046875 
Q 18.109375 38.09375 18.109375 28.8125 
L 18.109375 0 
L 9.078125 0 
L 9.078125 54.6875 
L 18.109375 54.6875 
L 18.109375 46.1875 
Q 20.953125 51.171875 25.484375 53.578125 
Q 30.03125 56 36.53125 56 
Q 37.453125 56 38.578125 55.875 
Q 39.703125 55.765625 41.0625 55.515625 
z
" id="DejaVuSans-114"/>
     <path d="M 56.203125 29.59375 
L 56.203125 25.203125 
L 14.890625 25.203125 
Q 15.484375 15.921875 20.484375 11.0625 
Q 25.484375 6.203125 34.421875 6.203125 
Q 39.59375 6.203125 44.453125 7.46875 
Q 49.3125 8.734375 54.109375 11.28125 
L 54.109375 2.78125 
Q 49.265625 0.734375 44.1875 -0.34375 
Q 39.109375 -1.421875 33.890625 -1.421875 
Q 20.796875 -1.421875 13.15625 6.1875 
Q 5.515625 13.8125 5.515625 26.8125 
Q 5.515625 40.234375 12.765625 48.109375 
Q 20.015625 56 32.328125 56 
Q 43.359375 56 49.78125 48.890625 
Q 56.203125 41.796875 56.203125 29.59375 
z
M 47.21875 32.234375 
Q 47.125 39.59375 43.09375 43.984375 
Q 39.0625 48.390625 32.421875 48.390625 
Q 24.90625 48.390625 20.390625 44.140625 
Q 15.875 39.890625 15.1875 32.171875 
z
" id="DejaVuSans-101"/>
     <path d="M 9.421875 75.984375 
L 18.40625 75.984375 
L 18.40625 0 
L 9.421875 0 
z
" id="DejaVuSans-108"/>
     <path d="M 34.28125 27.484375 
Q 23.390625 27.484375 19.1875 25 
Q 14.984375 22.515625 14.984375 16.5 
Q 14.984375 11.71875 18.140625 8.90625 
Q 21.296875 6.109375 26.703125 6.109375 
Q 34.1875 6.109375 38.703125 11.40625 
Q 43.21875 16.703125 43.21875 25.484375 
L 43.21875 27.484375 
z
M 52.203125 31.203125 
L 52.203125 0 
L 43.21875 0 
L 43.21875 8.296875 
Q 40.140625 3.328125 35.546875 0.953125 
Q 30.953125 -1.421875 24.3125 -1.421875 
Q 15.921875 -1.421875 10.953125 3.296875 
Q 6 8.015625 6 15.921875 
Q 6 25.140625 12.171875 29.828125 
Q 18.359375 34.515625 30.609375 34.515625 
L 43.21875 34.515625 
L 43.21875 35.40625 
Q 43.21875 41.609375 39.140625 45 
Q 35.0625 48.390625 27.6875 48.390625 
Q 23 48.390625 18.546875 47.265625 
Q 14.109375 46.140625 10.015625 43.890625 
L 10.015625 52.203125 
Q 14.9375 54.109375 19.578125 55.046875 
Q 24.21875 56 28.609375 56 
Q 40.484375 56 46.34375 49.84375 
Q 52.203125 43.703125 52.203125 31.203125 
z
" id="DejaVuSans-97"/>
     <path d="M 18.3125 70.21875 
L 18.3125 54.6875 
L 36.8125 54.6875 
L 36.8125 47.703125 
L 18.3125 47.703125 
L 18.3125 18.015625 
Q 18.3125 11.328125 20.140625 9.421875 
Q 21.96875 7.515625 27.59375 7.515625 
L 36.8125 7.515625 
L 36.8125 0 
L 27.59375 0 
Q 17.1875 0 13.234375 3.875 
Q 9.28125 7.765625 9.28125 18.015625 
L 9.28125 47.703125 
L 2.6875 47.703125 
L 2.6875 54.6875 
L 9.28125 54.6875 
L 9.28125 70.21875 
z
" id="DejaVuSans-116"/>
     <path d="M 9.421875 54.6875 
L 18.40625 54.6875 
L 18.40625 0 
L 9.421875 0 
z
M 9.421875 75.984375 
L 18.40625 75.984375 
L 18.40625 64.59375 
L 9.421875 64.59375 
z
" id="DejaVuSans-105"/>
     <path d="M 54.890625 33.015625 
L 54.890625 0 
L 45.90625 0 
L 45.90625 32.71875 
Q 45.90625 40.484375 42.875 44.328125 
Q 39.84375 48.1875 33.796875 48.1875 
Q 26.515625 48.1875 22.3125 43.546875 
Q 18.109375 38.921875 18.109375 30.90625 
L 18.109375 0 
L 9.078125 0 
L 9.078125 54.6875 
L 18.109375 54.6875 
L 18.109375 46.1875 
Q 21.34375 51.125 25.703125 53.5625 
Q 30.078125 56 35.796875 56 
Q 45.21875 56 50.046875 50.171875 
Q 54.890625 44.34375 54.890625 33.015625 
z
" id="DejaVuSans-110"/>
    </defs>
    <g transform="translate(184.6125 22.396875)scale(0.2 -0.2)">
     <use xlink:href="#DejaVuSans-67"/>
     <use x="69.824219" xlink:href="#DejaVuSans-111"/>
     <use x="131.005859" xlink:href="#DejaVuSans-114"/>
     <use x="172.103516" xlink:href="#DejaVuSans-114"/>
     <use x="213.185547" xlink:href="#DejaVuSans-101"/>
     <use x="274.708984" xlink:href="#DejaVuSans-108"/>
     <use x="302.492188" xlink:href="#DejaVuSans-97"/>
     <use x="363.771484" xlink:href="#DejaVuSans-116"/>
     <use x="402.980469" xlink:href="#DejaVuSans-105"/>
     <use x="430.763672" xlink:href="#DejaVuSans-111"/>
     <use x="491.945312" xlink:href="#DejaVuSans-110"/>
    </g>
   </g>
  </g>
 </g>
 <defs>
  <clipPath id="pd3a45f4d5d">
   <rect height="163.08" width="390.6" x="44.845313" y="28.396875"/>
  </clipPath>
 </defs>
</svg>
