<?xml version="1.0" encoding="utf-8" standalone="no"?>
<!DOCTYPE svg PUBLIC "-//W3C//DTD SVG 1.1//EN"
  "http://www.w3.org/Graphics/SVG/1.1/DTD/svg11.dtd">
<!-- Created with matplotlib (https://matplotlib.org/) -->
<svg height="216pt" version="1.1" viewBox="0 0 1440 216" width="1440pt" xmlns="http://www.w3.org/2000/svg" xmlns:xlink="http://www.w3.org/1999/xlink">
 <defs>
  <style type="text/css">
*{stroke-linecap:butt;stroke-linejoin:round;}
  </style>
 </defs>
 <g id="figure_1">
  <g id="patch_1">
   <path d="M 0 216 
L 1440 216 
L 1440 0 
L 0 0 
z
" style="fill:#ffffff;"/>
  </g>
  <g id="axes_1">
   <g id="patch_2">
    <path d="M 180 189 
L 1296 189 
L 1296 25.92 
L 180 25.92 
z
" style="fill:#ffffff;"/>
   </g>
   <g id="matplotlib.axis_1">
    <g id="xtick_1">
     <g id="line2d_1">
      <defs>
       <path d="M 0 0 
L 0 3.5 
" id="m483076d3ef" style="stroke:#000000;stroke-width:0.8;"/>
      </defs>
      <g>
       <use style="stroke:#000000;stroke-width:0.8;" x="180" xlink:href="#m483076d3ef" y="189"/>
      </g>
     </g>
     <g id="text_1">
      <!-- 0.0 -->
      <defs>
       <path d="M 31.78125 66.40625 
Q 24.171875 66.40625 20.328125 58.90625 
Q 16.5 51.421875 16.5 36.375 
Q 16.5 21.390625 20.328125 13.890625 
Q 24.171875 6.390625 31.78125 6.390625 
Q 39.453125 6.390625 43.28125 13.890625 
Q 47.125 21.390625 47.125 36.375 
Q 47.125 51.421875 43.28125 58.90625 
Q 39.453125 66.40625 31.78125 66.40625 
z
M 31.78125 74.21875 
Q 44.046875 74.21875 50.515625 64.515625 
Q 56.984375 54.828125 56.984375 36.375 
Q 56.984375 17.96875 50.515625 8.265625 
Q 44.046875 -1.421875 31.78125 -1.421875 
Q 19.53125 -1.421875 13.0625 8.265625 
Q 6.59375 17.96875 6.59375 36.375 
Q 6.59375 54.828125 13.0625 64.515625 
Q 19.53125 74.21875 31.78125 74.21875 
z
" id="DejaVuSans-48"/>
       <path d="M 10.6875 12.40625 
L 21 12.40625 
L 21 0 
L 10.6875 0 
z
" id="DejaVuSans-46"/>
      </defs>
      <g transform="translate(172.048438 203.598437)scale(0.1 -0.1)">
       <use xlink:href="#DejaVuSans-48"/>
       <use x="63.623047" xlink:href="#DejaVuSans-46"/>
       <use x="95.410156" xlink:href="#DejaVuSans-48"/>
      </g>
     </g>
    </g>
    <g id="xtick_2">
     <g id="line2d_2">
      <g>
       <use style="stroke:#000000;stroke-width:0.8;" x="403.2" xlink:href="#m483076d3ef" y="189"/>
      </g>
     </g>
     <g id="text_2">
      <!-- 0.2 -->
      <defs>
       <path d="M 19.1875 8.296875 
L 53.609375 8.296875 
L 53.609375 0 
L 7.328125 0 
L 7.328125 8.296875 
Q 12.9375 14.109375 22.625 23.890625 
Q 32.328125 33.6875 34.8125 36.53125 
Q 39.546875 41.84375 41.421875 45.53125 
Q 43.3125 49.21875 43.3125 52.78125 
Q 43.3125 58.59375 39.234375 62.25 
Q 35.15625 65.921875 28.609375 65.921875 
Q 23.96875 65.921875 18.8125 64.3125 
Q 13.671875 62.703125 7.8125 59.421875 
L 7.8125 69.390625 
Q 13.765625 71.78125 18.9375 73 
Q 24.125 74.21875 28.421875 74.21875 
Q 39.75 74.21875 46.484375 68.546875 
Q 53.21875 62.890625 53.21875 53.421875 
Q 53.21875 48.921875 51.53125 44.890625 
Q 49.859375 40.875 45.40625 35.40625 
Q 44.1875 33.984375 37.640625 27.21875 
Q 31.109375 20.453125 19.1875 8.296875 
z
" id="DejaVuSans-50"/>
      </defs>
      <g transform="translate(395.248438 203.598437)scale(0.1 -0.1)">
       <use xlink:href="#DejaVuSans-48"/>
       <use x="63.623047" xlink:href="#DejaVuSans-46"/>
       <use x="95.410156" xlink:href="#DejaVuSans-50"/>
      </g>
     </g>
    </g>
    <g id="xtick_3">
     <g id="line2d_3">
      <g>
       <use style="stroke:#000000;stroke-width:0.8;" x="626.4" xlink:href="#m483076d3ef" y="189"/>
      </g>
     </g>
     <g id="text_3">
      <!-- 0.4 -->
      <defs>
       <path d="M 37.796875 64.3125 
L 12.890625 25.390625 
L 37.796875 25.390625 
z
M 35.203125 72.90625 
L 47.609375 72.90625 
L 47.609375 25.390625 
L 58.015625 25.390625 
L 58.015625 17.1875 
L 47.609375 17.1875 
L 47.609375 0 
L 37.796875 0 
L 37.796875 17.1875 
L 4.890625 17.1875 
L 4.890625 26.703125 
z
" id="DejaVuSans-52"/>
      </defs>
      <g transform="translate(618.448438 203.598437)scale(0.1 -0.1)">
       <use xlink:href="#DejaVuSans-48"/>
       <use x="63.623047" xlink:href="#DejaVuSans-46"/>
       <use x="95.410156" xlink:href="#DejaVuSans-52"/>
      </g>
     </g>
    </g>
    <g id="xtick_4">
     <g id="line2d_4">
      <g>
       <use style="stroke:#000000;stroke-width:0.8;" x="849.6" xlink:href="#m483076d3ef" y="189"/>
      </g>
     </g>
     <g id="text_4">
      <!-- 0.6 -->
      <defs>
       <path d="M 33.015625 40.375 
Q 26.375 40.375 22.484375 35.828125 
Q 18.609375 31.296875 18.609375 23.390625 
Q 18.609375 15.53125 22.484375 10.953125 
Q 26.375 6.390625 33.015625 6.390625 
Q 39.65625 6.390625 43.53125 10.953125 
Q 47.40625 15.53125 47.40625 23.390625 
Q 47.40625 31.296875 43.53125 35.828125 
Q 39.65625 40.375 33.015625 40.375 
z
M 52.59375 71.296875 
L 52.59375 62.3125 
Q 48.875 64.0625 45.09375 64.984375 
Q 41.3125 65.921875 37.59375 65.921875 
Q 27.828125 65.921875 22.671875 59.328125 
Q 17.53125 52.734375 16.796875 39.40625 
Q 19.671875 43.65625 24.015625 45.921875 
Q 28.375 48.1875 33.59375 48.1875 
Q 44.578125 48.1875 50.953125 41.515625 
Q 57.328125 34.859375 57.328125 23.390625 
Q 57.328125 12.15625 50.6875 5.359375 
Q 44.046875 -1.421875 33.015625 -1.421875 
Q 20.359375 -1.421875 13.671875 8.265625 
Q 6.984375 17.96875 6.984375 36.375 
Q 6.984375 53.65625 15.1875 63.9375 
Q 23.390625 74.21875 37.203125 74.21875 
Q 40.921875 74.21875 44.703125 73.484375 
Q 48.484375 72.75 52.59375 71.296875 
z
" id="DejaVuSans-54"/>
      </defs>
      <g transform="translate(841.648438 203.598437)scale(0.1 -0.1)">
       <use xlink:href="#DejaVuSans-48"/>
       <use x="63.623047" xlink:href="#DejaVuSans-46"/>
       <use x="95.410156" xlink:href="#DejaVuSans-54"/>
      </g>
     </g>
    </g>
    <g id="xtick_5">
     <g id="line2d_5">
      <g>
       <use style="stroke:#000000;stroke-width:0.8;" x="1072.8" xlink:href="#m483076d3ef" y="189"/>
      </g>
     </g>
     <g id="text_5">
      <!-- 0.8 -->
      <defs>
       <path d="M 31.78125 34.625 
Q 24.75 34.625 20.71875 30.859375 
Q 16.703125 27.09375 16.703125 20.515625 
Q 16.703125 13.921875 20.71875 10.15625 
Q 24.75 6.390625 31.78125 6.390625 
Q 38.8125 6.390625 42.859375 10.171875 
Q 46.921875 13.96875 46.921875 20.515625 
Q 46.921875 27.09375 42.890625 30.859375 
Q 38.875 34.625 31.78125 34.625 
z
M 21.921875 38.8125 
Q 15.578125 40.375 12.03125 44.71875 
Q 8.5 49.078125 8.5 55.328125 
Q 8.5 64.0625 14.71875 69.140625 
Q 20.953125 74.21875 31.78125 74.21875 
Q 42.671875 74.21875 48.875 69.140625 
Q 55.078125 64.0625 55.078125 55.328125 
Q 55.078125 49.078125 51.53125 44.71875 
Q 48 40.375 41.703125 38.8125 
Q 48.828125 37.15625 52.796875 32.3125 
Q 56.78125 27.484375 56.78125 20.515625 
Q 56.78125 9.90625 50.3125 4.234375 
Q 43.84375 -1.421875 31.78125 -1.421875 
Q 19.734375 -1.421875 13.25 4.234375 
Q 6.78125 9.90625 6.78125 20.515625 
Q 6.78125 27.484375 10.78125 32.3125 
Q 14.796875 37.15625 21.921875 38.8125 
z
M 18.3125 54.390625 
Q 18.3125 48.734375 21.84375 45.5625 
Q 25.390625 42.390625 31.78125 42.390625 
Q 38.140625 42.390625 41.71875 45.5625 
Q 45.3125 48.734375 45.3125 54.390625 
Q 45.3125 60.0625 41.71875 63.234375 
Q 38.140625 66.40625 31.78125 66.40625 
Q 25.390625 66.40625 21.84375 63.234375 
Q 18.3125 60.0625 18.3125 54.390625 
z
" id="DejaVuSans-56"/>
      </defs>
      <g transform="translate(1064.848438 203.598437)scale(0.1 -0.1)">
       <use xlink:href="#DejaVuSans-48"/>
       <use x="63.623047" xlink:href="#DejaVuSans-46"/>
       <use x="95.410156" xlink:href="#DejaVuSans-56"/>
      </g>
     </g>
    </g>
    <g id="xtick_6">
     <g id="line2d_6">
      <g>
       <use style="stroke:#000000;stroke-width:0.8;" x="1296" xlink:href="#m483076d3ef" y="189"/>
      </g>
     </g>
     <g id="text_6">
      <!-- 1.0 -->
      <defs>
       <path d="M 12.40625 8.296875 
L 28.515625 8.296875 
L 28.515625 63.921875 
L 10.984375 60.40625 
L 10.984375 69.390625 
L 28.421875 72.90625 
L 38.28125 72.90625 
L 38.28125 8.296875 
L 54.390625 8.296875 
L 54.390625 0 
L 12.40625 0 
z
" id="DejaVuSans-49"/>
      </defs>
      <g transform="translate(1288.048438 203.598437)scale(0.1 -0.1)">
       <use xlink:href="#DejaVuSans-49"/>
       <use x="63.623047" xlink:href="#DejaVuSans-46"/>
       <use x="95.410156" xlink:href="#DejaVuSans-48"/>
      </g>
     </g>
    </g>
    <g id="text_7">
     <!-- time -->
     <defs>
      <path d="M 18.3125 70.21875 
L 18.3125 54.6875 
L 36.8125 54.6875 
L 36.8125 47.703125 
L 18.3125 47.703125 
L 18.3125 18.015625 
Q 18.3125 11.328125 20.140625 9.421875 
Q 21.96875 7.515625 27.59375 7.515625 
L 36.8125 7.515625 
L 36.8125 0 
L 27.59375 0 
Q 17.1875 0 13.234375 3.875 
Q 9.28125 7.765625 9.28125 18.015625 
L 9.28125 47.703125 
L 2.6875 47.703125 
L 2.6875 54.6875 
L 9.28125 54.6875 
L 9.28125 70.21875 
z
" id="DejaVuSans-116"/>
      <path d="M 9.421875 54.6875 
L 18.40625 54.6875 
L 18.40625 0 
L 9.421875 0 
z
M 9.421875 75.984375 
L 18.40625 75.984375 
L 18.40625 64.59375 
L 9.421875 64.59375 
z
" id="DejaVuSans-105"/>
      <path d="M 52 44.1875 
Q 55.375 50.25 60.0625 53.125 
Q 64.75 56 71.09375 56 
Q 79.640625 56 84.28125 50.015625 
Q 88.921875 44.046875 88.921875 33.015625 
L 88.921875 0 
L 79.890625 0 
L 79.890625 32.71875 
Q 79.890625 40.578125 77.09375 44.375 
Q 74.3125 48.1875 68.609375 48.1875 
Q 61.625 48.1875 57.5625 43.546875 
Q 53.515625 38.921875 53.515625 30.90625 
L 53.515625 0 
L 44.484375 0 
L 44.484375 32.71875 
Q 44.484375 40.625 41.703125 44.40625 
Q 38.921875 48.1875 33.109375 48.1875 
Q 26.21875 48.1875 22.15625 43.53125 
Q 18.109375 38.875 18.109375 30.90625 
L 18.109375 0 
L 9.078125 0 
L 9.078125 54.6875 
L 18.109375 54.6875 
L 18.109375 46.1875 
Q 21.1875 51.21875 25.484375 53.609375 
Q 29.78125 56 35.6875 56 
Q 41.65625 56 45.828125 52.96875 
Q 50 49.953125 52 44.1875 
z
" id="DejaVuSans-109"/>
      <path d="M 56.203125 29.59375 
L 56.203125 25.203125 
L 14.890625 25.203125 
Q 15.484375 15.921875 20.484375 11.0625 
Q 25.484375 6.203125 34.421875 6.203125 
Q 39.59375 6.203125 44.453125 7.46875 
Q 49.3125 8.734375 54.109375 11.28125 
L 54.109375 2.78125 
Q 49.265625 0.734375 44.1875 -0.34375 
Q 39.109375 -1.421875 33.890625 -1.421875 
Q 20.796875 -1.421875 13.15625 6.1875 
Q 5.515625 13.8125 5.515625 26.8125 
Q 5.515625 40.234375 12.765625 48.109375 
Q 20.015625 56 32.328125 56 
Q 43.359375 56 49.78125 48.890625 
Q 56.203125 41.796875 56.203125 29.59375 
z
M 47.21875 32.234375 
Q 47.125 39.59375 43.09375 43.984375 
Q 39.0625 48.390625 32.421875 48.390625 
Q 24.90625 48.390625 20.390625 44.140625 
Q 15.875 39.890625 15.1875 32.171875 
z
" id="DejaVuSans-101"/>
     </defs>
     <g transform="translate(721.055859 221.075781)scale(0.15 -0.15)">
      <use xlink:href="#DejaVuSans-116"/>
      <use x="39.208984" xlink:href="#DejaVuSans-105"/>
      <use x="66.992188" xlink:href="#DejaVuSans-109"/>
      <use x="164.404297" xlink:href="#DejaVuSans-101"/>
     </g>
    </g>
   </g>
   <g id="matplotlib.axis_2">
    <g id="ytick_1">
     <g id="line2d_7">
      <path clip-path="url(#pfd49b98728)" d="M 180 181.939297 
L 1296 181.939297 
" style="fill:none;stroke:#b0b0b0;stroke-linecap:square;stroke-width:0.8;"/>
     </g>
     <g id="line2d_8">
      <defs>
       <path d="M 0 0 
L -3.5 0 
" id="m3766ff8a37" style="stroke:#000000;stroke-width:0.8;"/>
      </defs>
      <g>
       <use style="stroke:#000000;stroke-width:0.8;" x="180" xlink:href="#m3766ff8a37" y="181.939297"/>
      </g>
     </g>
     <g id="text_8">
      <!-- 0.0 -->
      <g transform="translate(157.096875 185.738516)scale(0.1 -0.1)">
       <use xlink:href="#DejaVuSans-48"/>
       <use x="63.623047" xlink:href="#DejaVuSans-46"/>
       <use x="95.410156" xlink:href="#DejaVuSans-48"/>
      </g>
     </g>
    </g>
    <g id="ytick_2">
     <g id="line2d_9">
      <path clip-path="url(#pfd49b98728)" d="M 180 143.75852 
L 1296 143.75852 
" style="fill:none;stroke:#b0b0b0;stroke-linecap:square;stroke-width:0.8;"/>
     </g>
     <g id="line2d_10">
      <g>
       <use style="stroke:#000000;stroke-width:0.8;" x="180" xlink:href="#m3766ff8a37" y="143.75852"/>
      </g>
     </g>
     <g id="text_9">
      <!-- 0.5 -->
      <defs>
       <path d="M 10.796875 72.90625 
L 49.515625 72.90625 
L 49.515625 64.59375 
L 19.828125 64.59375 
L 19.828125 46.734375 
Q 21.96875 47.46875 24.109375 47.828125 
Q 26.265625 48.1875 28.421875 48.1875 
Q 40.625 48.1875 47.75 41.5 
Q 54.890625 34.8125 54.890625 23.390625 
Q 54.890625 11.625 47.5625 5.09375 
Q 40.234375 -1.421875 26.90625 -1.421875 
Q 22.3125 -1.421875 17.546875 -0.640625 
Q 12.796875 0.140625 7.71875 1.703125 
L 7.71875 11.625 
Q 12.109375 9.234375 16.796875 8.0625 
Q 21.484375 6.890625 26.703125 6.890625 
Q 35.15625 6.890625 40.078125 11.328125 
Q 45.015625 15.765625 45.015625 23.390625 
Q 45.015625 31 40.078125 35.4375 
Q 35.15625 39.890625 26.703125 39.890625 
Q 22.75 39.890625 18.8125 39.015625 
Q 14.890625 38.140625 10.796875 36.28125 
z
" id="DejaVuSans-53"/>
      </defs>
      <g transform="translate(157.096875 147.557739)scale(0.1 -0.1)">
       <use xlink:href="#DejaVuSans-48"/>
       <use x="63.623047" xlink:href="#DejaVuSans-46"/>
       <use x="95.410156" xlink:href="#DejaVuSans-53"/>
      </g>
     </g>
    </g>
    <g id="ytick_3">
     <g id="line2d_11">
      <path clip-path="url(#pfd49b98728)" d="M 180 105.577744 
L 1296 105.577744 
" style="fill:none;stroke:#b0b0b0;stroke-linecap:square;stroke-width:0.8;"/>
     </g>
     <g id="line2d_12">
      <g>
       <use style="stroke:#000000;stroke-width:0.8;" x="180" xlink:href="#m3766ff8a37" y="105.577744"/>
      </g>
     </g>
     <g id="text_10">
      <!-- 1.0 -->
      <g transform="translate(157.096875 109.376962)scale(0.1 -0.1)">
       <use xlink:href="#DejaVuSans-49"/>
       <use x="63.623047" xlink:href="#DejaVuSans-46"/>
       <use x="95.410156" xlink:href="#DejaVuSans-48"/>
      </g>
     </g>
    </g>
    <g id="ytick_4">
     <g id="line2d_13">
      <path clip-path="url(#pfd49b98728)" d="M 180 67.396967 
L 1296 67.396967 
" style="fill:none;stroke:#b0b0b0;stroke-linecap:square;stroke-width:0.8;"/>
     </g>
     <g id="line2d_14">
      <g>
       <use style="stroke:#000000;stroke-width:0.8;" x="180" xlink:href="#m3766ff8a37" y="67.396967"/>
      </g>
     </g>
     <g id="text_11">
      <!-- 1.5 -->
      <g transform="translate(157.096875 71.196185)scale(0.1 -0.1)">
       <use xlink:href="#DejaVuSans-49"/>
       <use x="63.623047" xlink:href="#DejaVuSans-46"/>
       <use x="95.410156" xlink:href="#DejaVuSans-53"/>
      </g>
     </g>
    </g>
    <g id="ytick_5">
     <g id="line2d_15">
      <path clip-path="url(#pfd49b98728)" d="M 180 29.21619 
L 1296 29.21619 
" style="fill:none;stroke:#b0b0b0;stroke-linecap:square;stroke-width:0.8;"/>
     </g>
     <g id="line2d_16">
      <g>
       <use style="stroke:#000000;stroke-width:0.8;" x="180" xlink:href="#m3766ff8a37" y="29.21619"/>
      </g>
     </g>
     <g id="text_12">
      <!-- 2.0 -->
      <g transform="translate(157.096875 33.015409)scale(0.1 -0.1)">
       <use xlink:href="#DejaVuSans-50"/>
       <use x="63.623047" xlink:href="#DejaVuSans-46"/>
       <use x="95.410156" xlink:href="#DejaVuSans-48"/>
      </g>
     </g>
    </g>
    <g id="text_13">
     <!-- Amplitude -->
     <defs>
      <path d="M 34.1875 63.1875 
L 20.796875 26.90625 
L 47.609375 26.90625 
z
M 28.609375 72.90625 
L 39.796875 72.90625 
L 67.578125 0 
L 57.328125 0 
L 50.6875 18.703125 
L 17.828125 18.703125 
L 11.1875 0 
L 0.78125 0 
z
" id="DejaVuSans-65"/>
      <path d="M 18.109375 8.203125 
L 18.109375 -20.796875 
L 9.078125 -20.796875 
L 9.078125 54.6875 
L 18.109375 54.6875 
L 18.109375 46.390625 
Q 20.953125 51.265625 25.265625 53.625 
Q 29.59375 56 35.59375 56 
Q 45.5625 56 51.78125 48.09375 
Q 58.015625 40.1875 58.015625 27.296875 
Q 58.015625 14.40625 51.78125 6.484375 
Q 45.5625 -1.421875 35.59375 -1.421875 
Q 29.59375 -1.421875 25.265625 0.953125 
Q 20.953125 3.328125 18.109375 8.203125 
z
M 48.6875 27.296875 
Q 48.6875 37.203125 44.609375 42.84375 
Q 40.53125 48.484375 33.40625 48.484375 
Q 26.265625 48.484375 22.1875 42.84375 
Q 18.109375 37.203125 18.109375 27.296875 
Q 18.109375 17.390625 22.1875 11.75 
Q 26.265625 6.109375 33.40625 6.109375 
Q 40.53125 6.109375 44.609375 11.75 
Q 48.6875 17.390625 48.6875 27.296875 
z
" id="DejaVuSans-112"/>
      <path d="M 9.421875 75.984375 
L 18.40625 75.984375 
L 18.40625 0 
L 9.421875 0 
z
" id="DejaVuSans-108"/>
      <path d="M 8.5 21.578125 
L 8.5 54.6875 
L 17.484375 54.6875 
L 17.484375 21.921875 
Q 17.484375 14.15625 20.5 10.265625 
Q 23.53125 6.390625 29.59375 6.390625 
Q 36.859375 6.390625 41.078125 11.03125 
Q 45.3125 15.671875 45.3125 23.6875 
L 45.3125 54.6875 
L 54.296875 54.6875 
L 54.296875 0 
L 45.3125 0 
L 45.3125 8.40625 
Q 42.046875 3.421875 37.71875 1 
Q 33.40625 -1.421875 27.6875 -1.421875 
Q 18.265625 -1.421875 13.375 4.4375 
Q 8.5 10.296875 8.5 21.578125 
z
M 31.109375 56 
z
" id="DejaVuSans-117"/>
      <path d="M 45.40625 46.390625 
L 45.40625 75.984375 
L 54.390625 75.984375 
L 54.390625 0 
L 45.40625 0 
L 45.40625 8.203125 
Q 42.578125 3.328125 38.25 0.953125 
Q 33.9375 -1.421875 27.875 -1.421875 
Q 17.96875 -1.421875 11.734375 6.484375 
Q 5.515625 14.40625 5.515625 27.296875 
Q 5.515625 40.1875 11.734375 48.09375 
Q 17.96875 56 27.875 56 
Q 33.9375 56 38.25 53.625 
Q 42.578125 51.265625 45.40625 46.390625 
z
M 14.796875 27.296875 
Q 14.796875 17.390625 18.875 11.75 
Q 22.953125 6.109375 30.078125 6.109375 
Q 37.203125 6.109375 41.296875 11.75 
Q 45.40625 17.390625 45.40625 27.296875 
Q 45.40625 37.203125 41.296875 42.84375 
Q 37.203125 48.484375 30.078125 48.484375 
Q 22.953125 48.484375 18.875 42.84375 
Q 14.796875 37.203125 14.796875 27.296875 
z
" id="DejaVuSans-100"/>
     </defs>
     <g transform="translate(149.977344 145.893984)rotate(-90)scale(0.15 -0.15)">
      <use xlink:href="#DejaVuSans-65"/>
      <use x="68.408203" xlink:href="#DejaVuSans-109"/>
      <use x="165.820312" xlink:href="#DejaVuSans-112"/>
      <use x="229.296875" xlink:href="#DejaVuSans-108"/>
      <use x="257.080078" xlink:href="#DejaVuSans-105"/>
      <use x="284.863281" xlink:href="#DejaVuSans-116"/>
      <use x="324.072266" xlink:href="#DejaVuSans-117"/>
      <use x="387.451172" xlink:href="#DejaVuSans-100"/>
      <use x="450.927734" xlink:href="#DejaVuSans-101"/>
     </g>
    </g>
   </g>
   <g id="line2d_17">
    <path clip-path="url(#pfd49b98728)" d="M 180 153.88499 
L 182.6784 149.902232 
L 186.138 144.326884 
L 191.16 135.755934 
L 200.3112 120.096523 
L 204.2172 113.891887 
L 207.4536 109.155012 
L 210.3552 105.300635 
L 212.922 102.250621 
L 215.2656 99.793484 
L 217.4976 97.767018 
L 219.618 96.141363 
L 221.6268 94.881147 
L 223.524 93.947426 
L 225.4212 93.266376 
L 227.2068 92.85705 
L 228.9924 92.671025 
L 230.778 92.70483 
L 232.5636 92.952816 
L 234.4608 93.44213 
L 236.4696 94.200393 
L 238.59 95.249039 
L 240.822 96.600443 
L 243.3888 98.422963 
L 246.402 100.847046 
L 250.866 104.760782 
L 256.3344 109.501217 
L 259.236 111.720192 
L 261.5796 113.251022 
L 263.7 114.383177 
L 265.7088 115.201759 
L 267.606 115.728149 
L 269.3916 115.99449 
L 271.1772 116.03536 
L 272.9628 115.853274 
L 274.86 115.424313 
L 276.7572 114.76746 
L 278.8776 113.787728 
L 281.1096 112.510139 
L 283.6764 110.779491 
L 286.6896 108.46914 
L 290.484 105.263754 
L 296.2872 100.032884 
L 308.0052 89.443951 
L 313.6968 84.625219 
L 318.384 80.937154 
L 322.29 78.132468 
L 325.638 75.985754 
L 328.6512 74.310568 
L 331.3296 73.069977 
L 333.7848 72.174968 
L 336.0168 71.59214 
L 338.1372 71.267628 
L 340.146 71.188347 
L 342.0432 71.336389 
L 343.8288 71.689611 
L 345.6144 72.265105 
L 347.4 73.077172 
L 349.1856 74.139689 
L 350.9712 75.46594 
L 352.7568 77.068435 
L 354.654 79.086668 
L 356.5512 81.442184 
L 358.4484 84.145599 
L 360.4572 87.39664 
L 362.5776 91.269425 
L 364.8096 95.839316 
L 367.1532 101.179228 
L 369.6084 107.353606 
L 372.2868 114.727852 
L 375.3 123.72387 
L 379.4292 136.857565 
L 383.112 148.368776 
L 384.786 152.915633 
L 386.0136 155.628146 
L 386.9064 157.108742 
L 387.576 157.874642 
L 388.134 158.254636 
L 388.692 158.381285 
L 389.25 158.245235 
L 389.808 157.846093 
L 390.4776 157.032183 
L 391.2588 155.657317 
L 392.1516 153.598858 
L 393.2676 150.434844 
L 394.7184 145.595775 
L 396.7272 138.011123 
L 399.6288 126.079824 
L 410.0076 82.688645 
L 413.0208 71.39035 
L 415.5876 62.609892 
L 417.8196 55.724272 
L 419.8284 50.199129 
L 421.7256 45.620209 
L 423.3996 42.132564 
L 424.962 39.370931 
L 426.4128 37.25179 
L 427.752 35.689367 
L 428.9796 34.598205 
L 430.0956 33.895308 
L 431.1 33.501867 
L 432.1044 33.337806 
L 433.1088 33.405302 
L 434.1132 33.706011 
L 435.1176 34.241042 
L 436.2336 35.110992 
L 437.3496 36.270803 
L 438.5772 37.880151 
L 439.9164 40.031201 
L 441.3672 42.820823 
L 442.9296 46.348093 
L 444.6036 50.71078 
L 446.3892 56.00044 
L 448.398 62.686309 
L 450.63 70.940863 
L 453.1968 81.342496 
L 456.5448 95.931448 
L 461.79 118.846227 
L 463.5756 125.653421 
L 464.9148 129.9836 
L 466.0308 132.881907 
L 466.9236 134.625124 
L 467.7048 135.669746 
L 468.3744 136.178544 
L 468.9324 136.318836 
L 469.4904 136.198109 
L 470.0484 135.818802 
L 470.718 135.032967 
L 471.4992 133.687289 
L 472.392 131.638806 
L 473.508 128.425773 
L 474.8472 123.817154 
L 476.6328 116.789899 
L 479.4228 104.771613 
L 484.5564 82.624439 
L 487.1232 72.600116 
L 489.2436 65.175334 
L 491.1408 59.310225 
L 492.8148 54.812372 
L 494.3772 51.229664 
L 495.828 48.462763 
L 497.0556 46.558501 
L 498.1716 45.184235 
L 499.2876 44.156389 
L 500.292 43.531633 
L 501.1848 43.217425 
L 502.0776 43.131541 
L 502.9704 43.274735 
L 503.8632 43.647213 
L 504.756 44.248627 
L 505.7604 45.197719 
L 506.8764 46.588089 
L 508.104 48.520772 
L 509.4432 51.102112 
L 510.894 54.44077 
L 512.4564 58.643582 
L 514.1304 63.809855 
L 516.0276 70.43439 
L 518.148 78.702078 
L 520.6032 89.216476 
L 524.0628 105.127229 
L 527.9688 122.907283 
L 529.7544 129.997118 
L 530.982 134.057859 
L 531.9864 136.681928 
L 532.7676 138.187751 
L 533.4372 139.054788 
L 533.9952 139.456238 
L 534.4416 139.559704 
L 534.888 139.467567 
L 535.446 139.079594 
L 536.004 138.397215 
L 536.6736 137.211582 
L 537.4548 135.368051 
L 538.4592 132.371681 
L 539.6868 127.95037 
L 541.3608 120.985374 
L 543.9276 109.197146 
L 549.396 83.900628 
L 551.8512 73.668068 
L 553.9716 65.752874 
L 555.8688 59.52213 
L 557.5428 54.762423 
L 559.1052 50.988244 
L 560.4444 48.291577 
L 561.672 46.271121 
L 562.788 44.818096 
L 563.7924 43.828196 
L 564.7968 43.143046 
L 565.6896 42.791961 
L 566.5824 42.684904 
L 567.4752 42.822507 
L 568.368 43.204839 
L 569.2608 43.83142 
L 570.2652 44.826979 
L 571.3812 46.291374 
L 572.4972 48.128607 
L 573.7248 50.573444 
L 575.064 53.736391 
L 576.5148 57.730476 
L 578.1888 63.044883 
L 579.9744 69.505601 
L 581.8716 77.207408 
L 583.992 86.749108 
L 586.4472 98.886272 
L 589.2372 113.864536 
L 592.6968 133.748338 
L 598.2768 167.364568 
L 600.6204 181.061101 
L 600.732 181.1194 
L 601.0668 179.549018 
L 608.0976 140.062349 
L 610.6644 127.334739 
L 613.008 116.827248 
L 615.0168 108.784302 
L 616.914 102.084759 
L 618.588 96.947128 
L 620.1504 92.840343 
L 621.6012 89.644636 
L 622.9404 87.237601 
L 624.168 85.498231 
L 625.284 84.310094 
L 626.2884 83.563756 
L 627.1812 83.158546 
L 628.074 82.996911 
L 628.9668 83.078847 
L 629.8596 83.40383 
L 630.7524 83.970811 
L 631.7568 84.895955 
L 632.7612 86.12236 
L 633.8772 87.83367 
L 635.1048 90.132474 
L 636.444 93.125937 
L 637.8948 96.922946 
L 639.4572 101.630513 
L 641.2428 107.754378 
L 643.14 115.070249 
L 645.2604 124.142874 
L 647.7156 135.68153 
L 650.5056 149.896425 
L 654.3 170.492859 
L 655.974 179.171747 
L 656.1972 179.771998 
L 656.3088 179.836423 
L 656.532 179.431316 
L 656.9784 177.497947 
L 658.4292 169.569727 
L 665.2368 131.90029 
L 668.25 116.572105 
L 670.8168 104.612479 
L 673.0488 95.216046 
L 675.0576 87.670953 
L 676.8432 81.760673 
L 678.5172 76.949321 
L 680.0796 73.129572 
L 681.4188 70.391278 
L 682.6464 68.328049 
L 683.7624 66.830839 
L 684.8784 65.699414 
L 685.8828 64.997109 
L 686.7756 64.625809 
L 687.6684 64.493449 
L 688.5612 64.600295 
L 689.454 64.946079 
L 690.3468 65.529999 
L 691.3512 66.46987 
L 692.4672 67.862328 
L 693.5832 69.616454 
L 694.8108 71.956242 
L 696.15 74.987318 
L 697.6008 78.816823 
L 699.2748 83.911011 
L 701.0604 90.09752 
L 703.0692 97.91464 
L 705.3012 107.552163 
L 707.868 119.680234 
L 711.1044 136.130413 
L 716.0148 161.217721 
L 717.1308 165.861735 
L 717.912 168.236711 
L 718.3584 169.073555 
L 718.6932 169.388238 
L 719.028 169.411197 
L 719.3628 169.141769 
L 719.8092 168.362573 
L 720.3672 166.830541 
L 721.1484 163.955994 
L 722.376 158.489644 
L 725.0544 145.242509 
L 729.072 125.63902 
L 731.6388 114.218172 
L 733.8708 105.278265 
L 735.8796 98.150127 
L 737.6652 92.619007 
L 739.2276 88.444181 
L 740.6784 85.150593 
L 742.0176 82.626389 
L 743.2452 80.759036 
L 744.3612 79.438931 
L 745.3656 78.562134 
L 746.37 77.982745 
L 747.2628 77.718654 
L 748.1556 77.691257 
L 749.0484 77.900512 
L 749.9412 78.345839 
L 750.9456 79.127608 
L 751.95 80.204348 
L 753.066 81.742728 
L 754.2936 83.844171 
L 755.6328 86.614965 
L 757.0836 90.163479 
L 758.646 94.596595 
L 760.32 100.015263 
L 762.2172 106.938044 
L 764.3376 115.571005 
L 766.6812 126.076821 
L 769.4712 139.656404 
L 774.0468 163.29764 
L 775.7208 171.341674 
L 776.3904 173.796005 
L 776.8368 174.784803 
L 777.1716 175.008207 
L 777.3948 174.878607 
L 777.7296 174.294463 
L 778.176 172.947737 
L 778.9572 169.689116 
L 780.5196 161.902837 
L 787.8852 124.156405 
L 790.452 112.429358 
L 792.7956 102.746174 
L 794.8044 95.343807 
L 796.7016 89.192484 
L 798.3756 84.491355 
L 799.938 80.750555 
L 801.3888 77.857517 
L 802.728 75.696899 
L 803.9556 74.154593 
L 805.0716 73.120865 
L 806.076 72.492706 
L 806.9688 72.175526 
L 807.8616 72.085461 
L 808.7544 72.222062 
L 809.6472 72.584332 
L 810.6516 73.259686 
L 811.656 74.215648 
L 812.772 75.602134 
L 813.9996 77.513769 
L 815.3388 80.04856 
L 816.7896 83.304659 
L 818.352 87.376079 
L 820.1376 92.699606 
L 822.0348 99.069107 
L 824.2668 107.378488 
L 826.9452 118.25836 
L 834.1992 148.324986 
L 835.4268 152.283154 
L 836.4312 154.810706 
L 837.2124 156.187708 
L 837.7704 156.799279 
L 838.3284 157.074176 
L 838.7748 157.044959 
L 839.2212 156.796343 
L 839.7792 156.190307 
L 840.4488 155.067225 
L 841.23 153.289667 
L 842.2344 150.426356 
L 843.6852 145.518156 
L 846.0288 136.653683 
L 850.6044 119.305222 
L 852.948 111.356737 
L 854.9568 105.333633 
L 856.7424 100.693139 
L 858.3048 97.237231 
L 859.7556 94.566046 
L 860.9832 92.728185 
L 862.2108 91.289797 
L 863.3268 90.336686 
L 864.3312 89.77229 
L 865.224 89.506519 
L 866.1168 89.464369 
L 867.0096 89.646785 
L 867.9024 90.054158 
L 868.9068 90.781137 
L 869.9112 91.791592 
L 871.0272 93.244482 
L 872.2548 95.239634 
L 873.594 97.882661 
L 875.0448 101.282519 
L 876.6072 105.548339 
L 878.2812 110.785462 
L 880.1784 117.508228 
L 882.1872 125.471605 
L 884.4192 135.239613 
L 886.986 147.509626 
L 889.9992 163.053122 
L 893.4588 181.587273 
L 893.682 180.619696 
L 897.2532 160.542398 
L 903.0564 128.373577 
L 906.4044 111.047594 
L 909.1944 97.760304 
L 911.538 87.616046 
L 913.6584 79.363834 
L 915.5556 72.804381 
L 917.3412 67.395503 
L 919.0152 63.035338 
L 920.466 59.834988 
L 921.8052 57.370914 
L 923.0328 55.533276 
L 924.1488 54.216487 
L 925.2648 53.239027 
L 926.2692 52.650264 
L 927.162 52.35817 
L 928.0548 52.282957 
L 928.9476 52.423299 
L 929.8404 52.77729 
L 930.8448 53.427776 
L 931.8492 54.341015 
L 932.9652 55.657214 
L 934.1928 57.461121 
L 935.532 59.838149 
L 936.9828 62.870223 
L 938.6568 66.917171 
L 940.554 72.140955 
L 942.6744 78.655102 
L 945.4644 88.012751 
L 951.714 109.306217 
L 953.4996 114.458465 
L 954.8388 117.713209 
L 955.9548 119.913928 
L 956.9592 121.430157 
L 957.852 122.369735 
L 958.6332 122.857214 
L 959.3028 123.019032 
L 959.9724 122.942806 
L 960.642 122.630988 
L 961.4232 121.977956 
L 962.2044 121.028623 
L 963.0972 119.607896 
L 964.2132 117.383462 
L 965.5524 114.162994 
L 967.2264 109.496489 
L 969.57 102.222927 
L 976.266 81.060316 
L 978.498 74.914277 
L 980.3952 70.302504 
L 982.0692 66.768194 
L 983.6316 63.960339 
L 985.0824 61.800147 
L 986.4216 60.201332 
L 987.6492 59.075851 
L 988.7652 58.337917 
L 989.8812 57.872446 
L 990.8856 57.685814 
L 991.89 57.71752 
L 992.8944 57.964856 
L 994.0104 58.488025 
L 995.1264 59.266254 
L 996.354 60.407214 
L 997.6932 61.977472 
L 999.144 64.039385 
L 1000.7064 66.646161 
L 1002.492 70.061197 
L 1004.6124 74.619406 
L 1007.4024 81.205946 
L 1013.9868 97.002835 
L 1015.884 100.876159 
L 1017.4464 103.591894 
L 1018.7856 105.498061 
L 1020.0132 106.854902 
L 1021.0176 107.663798 
L 1022.022 108.188594 
L 1022.9148 108.411644 
L 1023.8076 108.405433 
L 1024.7004 108.173878 
L 1025.5932 107.724646 
L 1026.5976 106.972976 
L 1027.7136 105.855817 
L 1029.0528 104.168585 
L 1030.6152 101.802754 
L 1032.5124 98.500475 
L 1035.414 92.937271 
L 1040.1012 83.950234 
L 1042.4448 79.957815 
L 1044.342 77.133922 
L 1046.016 75.003999 
L 1047.5784 73.355255 
L 1049.0292 72.137636 
L 1050.3684 71.293445 
L 1051.596 70.762156 
L 1052.8236 70.466736 
L 1054.0512 70.409096 
L 1055.2788 70.58946 
L 1056.5064 71.006458 
L 1057.734 71.657221 
L 1059.0732 72.628677 
L 1060.524 73.980641 
L 1062.0864 75.771777 
L 1063.7604 78.056884 
L 1065.546 80.883622 
L 1067.5548 84.50087 
L 1069.7868 88.996271 
L 1072.3536 94.676177 
L 1075.7016 102.669322 
L 1085.076 125.407892 
L 1087.4196 130.32964 
L 1089.3168 133.834981 
L 1090.9908 136.487237 
L 1092.4416 138.402488 
L 1093.7808 139.825738 
L 1095.0084 140.825506 
L 1096.1244 141.477161 
L 1097.2404 141.886347 
L 1098.3564 142.061314 
L 1099.4724 142.015527 
L 1100.7 141.731521 
L 1102.0392 141.174622 
L 1103.49 140.325188 
L 1105.2756 139.001956 
L 1107.5076 137.044205 
L 1110.8556 133.773015 
L 1117.3284 127.422397 
L 1120.5648 124.578425 
L 1123.4664 122.316336 
L 1126.1448 120.504493 
L 1128.6 119.099677 
L 1130.9436 118.007069 
L 1133.1756 117.211119 
L 1135.296 116.694701 
L 1137.3048 116.438679 
L 1139.202 116.421457 
L 1140.9876 116.618773 
L 1142.7732 117.036631 
L 1144.5588 117.688095 
L 1146.3444 118.585715 
L 1148.13 119.741149 
L 1149.9156 121.164799 
L 1151.7012 122.865465 
L 1153.5984 124.983586 
L 1155.6072 127.581591 
L 1157.616 130.547465 
L 1159.7364 134.074956 
L 1161.9684 138.219241 
L 1164.4236 143.267201 
L 1167.102 149.314524 
L 1170.1152 156.696009 
L 1177.0344 173.957037 
L 1177.8156 175.174015 
L 1178.3736 175.647162 
L 1178.82 175.717548 
L 1179.2664 175.498127 
L 1179.7128 175.013516 
L 1180.3824 173.896024 
L 1181.3868 171.656291 
L 1182.9492 167.516091 
L 1185.9624 158.766831 
L 1193.4396 136.939356 
L 1196.7876 127.903834 
L 1199.6892 120.687892 
L 1202.256 114.875618 
L 1204.5996 110.094782 
L 1206.8316 106.046693 
L 1208.8404 102.847765 
L 1210.7376 100.22674 
L 1212.5232 98.122258 
L 1214.1972 96.471302 
L 1215.8712 95.131815 
L 1217.4336 94.160223 
L 1218.996 93.453266 
L 1220.4468 93.028366 
L 1221.8976 92.819911 
L 1223.46 92.828581 
L 1225.0224 93.067992 
L 1226.6964 93.565893 
L 1228.3704 94.296191 
L 1230.2676 95.380304 
L 1232.2764 96.792651 
L 1234.5084 98.635331 
L 1237.1868 101.152514 
L 1240.5348 104.633295 
L 1245.8916 110.579844 
L 1253.7036 119.193217 
L 1266.5376 133.102256 
L 1269.6624 136.958944 
L 1272.564 140.899611 
L 1275.2424 144.906664 
L 1277.9208 149.308951 
L 1280.7108 154.337847 
L 1283.6124 160.048983 
L 1286.7372 166.714774 
L 1290.8664 176.118264 
L 1292.3172 179.194326 
L 1292.8752 179.917841 
L 1293.21 179.9743 
L 1293.5448 179.69405 
L 1294.1028 178.749432 
L 1295.2188 176.232135 
L 1295.8884 174.595426 
L 1295.8884 174.595426 
" style="fill:none;stroke:#1f77b4;stroke-linecap:square;"/>
   </g>
   <g id="patch_3">
    <path d="M 180 189 
L 180 25.92 
" style="fill:none;stroke:#000000;stroke-linecap:square;stroke-linejoin:miter;stroke-width:0.8;"/>
   </g>
   <g id="patch_4">
    <path d="M 1296 189 
L 1296 25.92 
" style="fill:none;stroke:#000000;stroke-linecap:square;stroke-linejoin:miter;stroke-width:0.8;"/>
   </g>
   <g id="patch_5">
    <path d="M 180 189 
L 1296 189 
" style="fill:none;stroke:#000000;stroke-linecap:square;stroke-linejoin:miter;stroke-width:0.8;"/>
   </g>
   <g id="patch_6">
    <path d="M 180 25.92 
L 1296 25.92 
" style="fill:none;stroke:#000000;stroke-linecap:square;stroke-linejoin:miter;stroke-width:0.8;"/>
   </g>
   <g id="text_14">
    <!-- Envelope -->
    <defs>
     <path d="M 9.8125 72.90625 
L 55.90625 72.90625 
L 55.90625 64.59375 
L 19.671875 64.59375 
L 19.671875 43.015625 
L 54.390625 43.015625 
L 54.390625 34.71875 
L 19.671875 34.71875 
L 19.671875 8.296875 
L 56.78125 8.296875 
L 56.78125 0 
L 9.8125 0 
z
" id="DejaVuSans-69"/>
     <path d="M 54.890625 33.015625 
L 54.890625 0 
L 45.90625 0 
L 45.90625 32.71875 
Q 45.90625 40.484375 42.875 44.328125 
Q 39.84375 48.1875 33.796875 48.1875 
Q 26.515625 48.1875 22.3125 43.546875 
Q 18.109375 38.921875 18.109375 30.90625 
L 18.109375 0 
L 9.078125 0 
L 9.078125 54.6875 
L 18.109375 54.6875 
L 18.109375 46.1875 
Q 21.34375 51.125 25.703125 53.5625 
Q 30.078125 56 35.796875 56 
Q 45.21875 56 50.046875 50.171875 
Q 54.890625 44.34375 54.890625 33.015625 
z
" id="DejaVuSans-110"/>
     <path d="M 2.984375 54.6875 
L 12.5 54.6875 
L 29.59375 8.796875 
L 46.6875 54.6875 
L 56.203125 54.6875 
L 35.6875 0 
L 23.484375 0 
z
" id="DejaVuSans-118"/>
     <path d="M 30.609375 48.390625 
Q 23.390625 48.390625 19.1875 42.75 
Q 14.984375 37.109375 14.984375 27.296875 
Q 14.984375 17.484375 19.15625 11.84375 
Q 23.34375 6.203125 30.609375 6.203125 
Q 37.796875 6.203125 41.984375 11.859375 
Q 46.1875 17.53125 46.1875 27.296875 
Q 46.1875 37.015625 41.984375 42.703125 
Q 37.796875 48.390625 30.609375 48.390625 
z
M 30.609375 56 
Q 42.328125 56 49.015625 48.375 
Q 55.71875 40.765625 55.71875 27.296875 
Q 55.71875 13.875 49.015625 6.21875 
Q 42.328125 -1.421875 30.609375 -1.421875 
Q 18.84375 -1.421875 12.171875 6.21875 
Q 5.515625 13.875 5.515625 27.296875 
Q 5.515625 40.765625 12.171875 48.375 
Q 18.84375 56 30.609375 56 
z
" id="DejaVuSans-111"/>
    </defs>
    <g transform="translate(691.873438 19.92)scale(0.2 -0.2)">
     <use xlink:href="#DejaVuSans-69"/>
     <use x="63.183594" xlink:href="#DejaVuSans-110"/>
     <use x="126.5625" xlink:href="#DejaVuSans-118"/>
     <use x="185.742188" xlink:href="#DejaVuSans-101"/>
     <use x="247.265625" xlink:href="#DejaVuSans-108"/>
     <use x="275.048828" xlink:href="#DejaVuSans-111"/>
     <use x="336.230469" xlink:href="#DejaVuSans-112"/>
     <use x="399.707031" xlink:href="#DejaVuSans-101"/>
    </g>
   </g>
  </g>
 </g>
 <defs>
  <clipPath id="pfd49b98728">
   <rect height="163.08" width="1116" x="180" y="25.92"/>
  </clipPath>
 </defs>
</svg>
