<?xml version="1.0" encoding="utf-8" standalone="no"?>
<!DOCTYPE svg PUBLIC "-//W3C//DTD SVG 1.1//EN"
  "http://www.w3.org/Graphics/SVG/1.1/DTD/svg11.dtd">
<!-- Created with matplotlib (https://matplotlib.org/) -->
<svg height="229.657031pt" version="1.1" viewBox="0 0 1183.037812 229.657031" width="1183.037812pt" xmlns="http://www.w3.org/2000/svg" xmlns:xlink="http://www.w3.org/1999/xlink">
 <defs>
  <style type="text/css">
*{stroke-linecap:butt;stroke-linejoin:round;}
  </style>
 </defs>
 <g id="figure_1">
  <g id="patch_1">
   <path d="M 0 229.657031 
L 1183.037812 229.657031 
L 1183.037812 0 
L 0 0 
z
" style="fill:#ffffff;"/>
  </g>
  <g id="axes_1">
   <g id="patch_2">
    <path d="M 51.88625 189.197344 
L 1167.88625 189.197344 
L 1167.88625 26.117344 
L 51.88625 26.117344 
z
" style="fill:#ffffff;"/>
   </g>
   <g id="matplotlib.axis_1">
    <g id="xtick_1">
     <g id="line2d_1">
      <defs>
       <path d="M 0 0 
L 0 3.5 
" id="m9c98859112" style="stroke:#000000;stroke-width:0.8;"/>
      </defs>
      <g>
       <use style="stroke:#000000;stroke-width:0.8;" x="51.88625" xlink:href="#m9c98859112" y="189.197344"/>
      </g>
     </g>
     <g id="text_1">
      <!-- 0.0 -->
      <defs>
       <path d="M 31.78125 66.40625 
Q 24.171875 66.40625 20.328125 58.90625 
Q 16.5 51.421875 16.5 36.375 
Q 16.5 21.390625 20.328125 13.890625 
Q 24.171875 6.390625 31.78125 6.390625 
Q 39.453125 6.390625 43.28125 13.890625 
Q 47.125 21.390625 47.125 36.375 
Q 47.125 51.421875 43.28125 58.90625 
Q 39.453125 66.40625 31.78125 66.40625 
z
M 31.78125 74.21875 
Q 44.046875 74.21875 50.515625 64.515625 
Q 56.984375 54.828125 56.984375 36.375 
Q 56.984375 17.96875 50.515625 8.265625 
Q 44.046875 -1.421875 31.78125 -1.421875 
Q 19.53125 -1.421875 13.0625 8.265625 
Q 6.59375 17.96875 6.59375 36.375 
Q 6.59375 54.828125 13.0625 64.515625 
Q 19.53125 74.21875 31.78125 74.21875 
z
" id="DejaVuSans-48"/>
       <path d="M 10.6875 12.40625 
L 21 12.40625 
L 21 0 
L 10.6875 0 
z
" id="DejaVuSans-46"/>
      </defs>
      <g transform="translate(43.934688 203.795781)scale(0.1 -0.1)">
       <use xlink:href="#DejaVuSans-48"/>
       <use x="63.623047" xlink:href="#DejaVuSans-46"/>
       <use x="95.410156" xlink:href="#DejaVuSans-48"/>
      </g>
     </g>
    </g>
    <g id="xtick_2">
     <g id="line2d_2">
      <g>
       <use style="stroke:#000000;stroke-width:0.8;" x="275.08625" xlink:href="#m9c98859112" y="189.197344"/>
      </g>
     </g>
     <g id="text_2">
      <!-- 0.2 -->
      <defs>
       <path d="M 19.1875 8.296875 
L 53.609375 8.296875 
L 53.609375 0 
L 7.328125 0 
L 7.328125 8.296875 
Q 12.9375 14.109375 22.625 23.890625 
Q 32.328125 33.6875 34.8125 36.53125 
Q 39.546875 41.84375 41.421875 45.53125 
Q 43.3125 49.21875 43.3125 52.78125 
Q 43.3125 58.59375 39.234375 62.25 
Q 35.15625 65.921875 28.609375 65.921875 
Q 23.96875 65.921875 18.8125 64.3125 
Q 13.671875 62.703125 7.8125 59.421875 
L 7.8125 69.390625 
Q 13.765625 71.78125 18.9375 73 
Q 24.125 74.21875 28.421875 74.21875 
Q 39.75 74.21875 46.484375 68.546875 
Q 53.21875 62.890625 53.21875 53.421875 
Q 53.21875 48.921875 51.53125 44.890625 
Q 49.859375 40.875 45.40625 35.40625 
Q 44.1875 33.984375 37.640625 27.21875 
Q 31.109375 20.453125 19.1875 8.296875 
z
" id="DejaVuSans-50"/>
      </defs>
      <g transform="translate(267.134688 203.795781)scale(0.1 -0.1)">
       <use xlink:href="#DejaVuSans-48"/>
       <use x="63.623047" xlink:href="#DejaVuSans-46"/>
       <use x="95.410156" xlink:href="#DejaVuSans-50"/>
      </g>
     </g>
    </g>
    <g id="xtick_3">
     <g id="line2d_3">
      <g>
       <use style="stroke:#000000;stroke-width:0.8;" x="498.28625" xlink:href="#m9c98859112" y="189.197344"/>
      </g>
     </g>
     <g id="text_3">
      <!-- 0.4 -->
      <defs>
       <path d="M 37.796875 64.3125 
L 12.890625 25.390625 
L 37.796875 25.390625 
z
M 35.203125 72.90625 
L 47.609375 72.90625 
L 47.609375 25.390625 
L 58.015625 25.390625 
L 58.015625 17.1875 
L 47.609375 17.1875 
L 47.609375 0 
L 37.796875 0 
L 37.796875 17.1875 
L 4.890625 17.1875 
L 4.890625 26.703125 
z
" id="DejaVuSans-52"/>
      </defs>
      <g transform="translate(490.334688 203.795781)scale(0.1 -0.1)">
       <use xlink:href="#DejaVuSans-48"/>
       <use x="63.623047" xlink:href="#DejaVuSans-46"/>
       <use x="95.410156" xlink:href="#DejaVuSans-52"/>
      </g>
     </g>
    </g>
    <g id="xtick_4">
     <g id="line2d_4">
      <g>
       <use style="stroke:#000000;stroke-width:0.8;" x="721.48625" xlink:href="#m9c98859112" y="189.197344"/>
      </g>
     </g>
     <g id="text_4">
      <!-- 0.6 -->
      <defs>
       <path d="M 33.015625 40.375 
Q 26.375 40.375 22.484375 35.828125 
Q 18.609375 31.296875 18.609375 23.390625 
Q 18.609375 15.53125 22.484375 10.953125 
Q 26.375 6.390625 33.015625 6.390625 
Q 39.65625 6.390625 43.53125 10.953125 
Q 47.40625 15.53125 47.40625 23.390625 
Q 47.40625 31.296875 43.53125 35.828125 
Q 39.65625 40.375 33.015625 40.375 
z
M 52.59375 71.296875 
L 52.59375 62.3125 
Q 48.875 64.0625 45.09375 64.984375 
Q 41.3125 65.921875 37.59375 65.921875 
Q 27.828125 65.921875 22.671875 59.328125 
Q 17.53125 52.734375 16.796875 39.40625 
Q 19.671875 43.65625 24.015625 45.921875 
Q 28.375 48.1875 33.59375 48.1875 
Q 44.578125 48.1875 50.953125 41.515625 
Q 57.328125 34.859375 57.328125 23.390625 
Q 57.328125 12.15625 50.6875 5.359375 
Q 44.046875 -1.421875 33.015625 -1.421875 
Q 20.359375 -1.421875 13.671875 8.265625 
Q 6.984375 17.96875 6.984375 36.375 
Q 6.984375 53.65625 15.1875 63.9375 
Q 23.390625 74.21875 37.203125 74.21875 
Q 40.921875 74.21875 44.703125 73.484375 
Q 48.484375 72.75 52.59375 71.296875 
z
" id="DejaVuSans-54"/>
      </defs>
      <g transform="translate(713.534688 203.795781)scale(0.1 -0.1)">
       <use xlink:href="#DejaVuSans-48"/>
       <use x="63.623047" xlink:href="#DejaVuSans-46"/>
       <use x="95.410156" xlink:href="#DejaVuSans-54"/>
      </g>
     </g>
    </g>
    <g id="xtick_5">
     <g id="line2d_5">
      <g>
       <use style="stroke:#000000;stroke-width:0.8;" x="944.68625" xlink:href="#m9c98859112" y="189.197344"/>
      </g>
     </g>
     <g id="text_5">
      <!-- 0.8 -->
      <defs>
       <path d="M 31.78125 34.625 
Q 24.75 34.625 20.71875 30.859375 
Q 16.703125 27.09375 16.703125 20.515625 
Q 16.703125 13.921875 20.71875 10.15625 
Q 24.75 6.390625 31.78125 6.390625 
Q 38.8125 6.390625 42.859375 10.171875 
Q 46.921875 13.96875 46.921875 20.515625 
Q 46.921875 27.09375 42.890625 30.859375 
Q 38.875 34.625 31.78125 34.625 
z
M 21.921875 38.8125 
Q 15.578125 40.375 12.03125 44.71875 
Q 8.5 49.078125 8.5 55.328125 
Q 8.5 64.0625 14.71875 69.140625 
Q 20.953125 74.21875 31.78125 74.21875 
Q 42.671875 74.21875 48.875 69.140625 
Q 55.078125 64.0625 55.078125 55.328125 
Q 55.078125 49.078125 51.53125 44.71875 
Q 48 40.375 41.703125 38.8125 
Q 48.828125 37.15625 52.796875 32.3125 
Q 56.78125 27.484375 56.78125 20.515625 
Q 56.78125 9.90625 50.3125 4.234375 
Q 43.84375 -1.421875 31.78125 -1.421875 
Q 19.734375 -1.421875 13.25 4.234375 
Q 6.78125 9.90625 6.78125 20.515625 
Q 6.78125 27.484375 10.78125 32.3125 
Q 14.796875 37.15625 21.921875 38.8125 
z
M 18.3125 54.390625 
Q 18.3125 48.734375 21.84375 45.5625 
Q 25.390625 42.390625 31.78125 42.390625 
Q 38.140625 42.390625 41.71875 45.5625 
Q 45.3125 48.734375 45.3125 54.390625 
Q 45.3125 60.0625 41.71875 63.234375 
Q 38.140625 66.40625 31.78125 66.40625 
Q 25.390625 66.40625 21.84375 63.234375 
Q 18.3125 60.0625 18.3125 54.390625 
z
" id="DejaVuSans-56"/>
      </defs>
      <g transform="translate(936.734688 203.795781)scale(0.1 -0.1)">
       <use xlink:href="#DejaVuSans-48"/>
       <use x="63.623047" xlink:href="#DejaVuSans-46"/>
       <use x="95.410156" xlink:href="#DejaVuSans-56"/>
      </g>
     </g>
    </g>
    <g id="xtick_6">
     <g id="line2d_6">
      <g>
       <use style="stroke:#000000;stroke-width:0.8;" x="1167.88625" xlink:href="#m9c98859112" y="189.197344"/>
      </g>
     </g>
     <g id="text_6">
      <!-- 1.0 -->
      <defs>
       <path d="M 12.40625 8.296875 
L 28.515625 8.296875 
L 28.515625 63.921875 
L 10.984375 60.40625 
L 10.984375 69.390625 
L 28.421875 72.90625 
L 38.28125 72.90625 
L 38.28125 8.296875 
L 54.390625 8.296875 
L 54.390625 0 
L 12.40625 0 
z
" id="DejaVuSans-49"/>
      </defs>
      <g transform="translate(1159.934688 203.795781)scale(0.1 -0.1)">
       <use xlink:href="#DejaVuSans-49"/>
       <use x="63.623047" xlink:href="#DejaVuSans-46"/>
       <use x="95.410156" xlink:href="#DejaVuSans-48"/>
      </g>
     </g>
    </g>
    <g id="text_7">
     <!-- τ -->
     <defs>
      <path d="M 36.234375 9.96875 
Q 37.984375 7.625 43.265625 7.625 
L 47.609375 7.625 
L 47.609375 0 
L 42.1875 0 
Q 33.40625 0 29.390625 4.6875 
Q 25.390625 9.46875 25.390625 19.828125 
L 25.390625 45.703125 
L 4.890625 45.703125 
L 4.890625 54.6875 
L 55.328125 54.6875 
L 55.328125 45.703125 
L 34.578125 45.703125 
L 34.578125 19.28125 
Q 34.578125 12.203125 36.234375 9.96875 
z
" id="DejaVuSans-964"/>
     </defs>
     <g transform="translate(605.973047 219.753438)scale(0.13 -0.13)">
      <use xlink:href="#DejaVuSans-964"/>
     </g>
    </g>
   </g>
   <g id="matplotlib.axis_2">
    <g id="ytick_1">
     <g id="line2d_7">
      <path clip-path="url(#p1f01dc8621)" d="M 51.88625 177.806546 
L 1167.88625 177.806546 
" style="fill:none;stroke:#b0b0b0;stroke-linecap:square;stroke-width:0.8;"/>
     </g>
     <g id="line2d_8">
      <defs>
       <path d="M 0 0 
L -3.5 0 
" id="mf062ed7ac6" style="stroke:#000000;stroke-width:0.8;"/>
      </defs>
      <g>
       <use style="stroke:#000000;stroke-width:0.8;" x="51.88625" xlink:href="#mf062ed7ac6" y="177.806546"/>
      </g>
     </g>
     <g id="text_8">
      <!-- −20 -->
      <defs>
       <path d="M 10.59375 35.5 
L 73.1875 35.5 
L 73.1875 27.203125 
L 10.59375 27.203125 
z
" id="DejaVuSans-8722"/>
      </defs>
      <g transform="translate(23.781563 181.605765)scale(0.1 -0.1)">
       <use xlink:href="#DejaVuSans-8722"/>
       <use x="83.789062" xlink:href="#DejaVuSans-50"/>
       <use x="147.412109" xlink:href="#DejaVuSans-48"/>
      </g>
     </g>
    </g>
    <g id="ytick_2">
     <g id="line2d_9">
      <path clip-path="url(#p1f01dc8621)" d="M 51.88625 147.722794 
L 1167.88625 147.722794 
" style="fill:none;stroke:#b0b0b0;stroke-linecap:square;stroke-width:0.8;"/>
     </g>
     <g id="line2d_10">
      <g>
       <use style="stroke:#000000;stroke-width:0.8;" x="51.88625" xlink:href="#mf062ed7ac6" y="147.722794"/>
      </g>
     </g>
     <g id="text_9">
      <!-- −15 -->
      <defs>
       <path d="M 10.796875 72.90625 
L 49.515625 72.90625 
L 49.515625 64.59375 
L 19.828125 64.59375 
L 19.828125 46.734375 
Q 21.96875 47.46875 24.109375 47.828125 
Q 26.265625 48.1875 28.421875 48.1875 
Q 40.625 48.1875 47.75 41.5 
Q 54.890625 34.8125 54.890625 23.390625 
Q 54.890625 11.625 47.5625 5.09375 
Q 40.234375 -1.421875 26.90625 -1.421875 
Q 22.3125 -1.421875 17.546875 -0.640625 
Q 12.796875 0.140625 7.71875 1.703125 
L 7.71875 11.625 
Q 12.109375 9.234375 16.796875 8.0625 
Q 21.484375 6.890625 26.703125 6.890625 
Q 35.15625 6.890625 40.078125 11.328125 
Q 45.015625 15.765625 45.015625 23.390625 
Q 45.015625 31 40.078125 35.4375 
Q 35.15625 39.890625 26.703125 39.890625 
Q 22.75 39.890625 18.8125 39.015625 
Q 14.890625 38.140625 10.796875 36.28125 
z
" id="DejaVuSans-53"/>
      </defs>
      <g transform="translate(23.781563 151.522013)scale(0.1 -0.1)">
       <use xlink:href="#DejaVuSans-8722"/>
       <use x="83.789062" xlink:href="#DejaVuSans-49"/>
       <use x="147.412109" xlink:href="#DejaVuSans-53"/>
      </g>
     </g>
    </g>
    <g id="ytick_3">
     <g id="line2d_11">
      <path clip-path="url(#p1f01dc8621)" d="M 51.88625 117.639042 
L 1167.88625 117.639042 
" style="fill:none;stroke:#b0b0b0;stroke-linecap:square;stroke-width:0.8;"/>
     </g>
     <g id="line2d_12">
      <g>
       <use style="stroke:#000000;stroke-width:0.8;" x="51.88625" xlink:href="#mf062ed7ac6" y="117.639042"/>
      </g>
     </g>
     <g id="text_10">
      <!-- −10 -->
      <g transform="translate(23.781563 121.438261)scale(0.1 -0.1)">
       <use xlink:href="#DejaVuSans-8722"/>
       <use x="83.789062" xlink:href="#DejaVuSans-49"/>
       <use x="147.412109" xlink:href="#DejaVuSans-48"/>
      </g>
     </g>
    </g>
    <g id="ytick_4">
     <g id="line2d_13">
      <path clip-path="url(#p1f01dc8621)" d="M 51.88625 87.55529 
L 1167.88625 87.55529 
" style="fill:none;stroke:#b0b0b0;stroke-linecap:square;stroke-width:0.8;"/>
     </g>
     <g id="line2d_14">
      <g>
       <use style="stroke:#000000;stroke-width:0.8;" x="51.88625" xlink:href="#mf062ed7ac6" y="87.55529"/>
      </g>
     </g>
     <g id="text_11">
      <!-- −5 -->
      <g transform="translate(30.144063 91.354509)scale(0.1 -0.1)">
       <use xlink:href="#DejaVuSans-8722"/>
       <use x="83.789062" xlink:href="#DejaVuSans-53"/>
      </g>
     </g>
    </g>
    <g id="ytick_5">
     <g id="line2d_15">
      <path clip-path="url(#p1f01dc8621)" d="M 51.88625 57.471538 
L 1167.88625 57.471538 
" style="fill:none;stroke:#b0b0b0;stroke-linecap:square;stroke-width:0.8;"/>
     </g>
     <g id="line2d_16">
      <g>
       <use style="stroke:#000000;stroke-width:0.8;" x="51.88625" xlink:href="#mf062ed7ac6" y="57.471538"/>
      </g>
     </g>
     <g id="text_12">
      <!-- 0 -->
      <g transform="translate(38.52375 61.270757)scale(0.1 -0.1)">
       <use xlink:href="#DejaVuSans-48"/>
      </g>
     </g>
    </g>
    <g id="ytick_6">
     <g id="line2d_17">
      <path clip-path="url(#p1f01dc8621)" d="M 51.88625 27.387787 
L 1167.88625 27.387787 
" style="fill:none;stroke:#b0b0b0;stroke-linecap:square;stroke-width:0.8;"/>
     </g>
     <g id="line2d_18">
      <g>
       <use style="stroke:#000000;stroke-width:0.8;" x="51.88625" xlink:href="#mf062ed7ac6" y="27.387787"/>
      </g>
     </g>
     <g id="text_13">
      <!-- 5 -->
      <g transform="translate(38.52375 31.187005)scale(0.1 -0.1)">
       <use xlink:href="#DejaVuSans-53"/>
      </g>
     </g>
    </g>
    <g id="text_14">
     <!-- dBW -->
     <defs>
      <path d="M 45.40625 46.390625 
L 45.40625 75.984375 
L 54.390625 75.984375 
L 54.390625 0 
L 45.40625 0 
L 45.40625 8.203125 
Q 42.578125 3.328125 38.25 0.953125 
Q 33.9375 -1.421875 27.875 -1.421875 
Q 17.96875 -1.421875 11.734375 6.484375 
Q 5.515625 14.40625 5.515625 27.296875 
Q 5.515625 40.1875 11.734375 48.09375 
Q 17.96875 56 27.875 56 
Q 33.9375 56 38.25 53.625 
Q 42.578125 51.265625 45.40625 46.390625 
z
M 14.796875 27.296875 
Q 14.796875 17.390625 18.875 11.75 
Q 22.953125 6.109375 30.078125 6.109375 
Q 37.203125 6.109375 41.296875 11.75 
Q 45.40625 17.390625 45.40625 27.296875 
Q 45.40625 37.203125 41.296875 42.84375 
Q 37.203125 48.484375 30.078125 48.484375 
Q 22.953125 48.484375 18.875 42.84375 
Q 14.796875 37.203125 14.796875 27.296875 
z
" id="DejaVuSans-100"/>
      <path d="M 19.671875 34.8125 
L 19.671875 8.109375 
L 35.5 8.109375 
Q 43.453125 8.109375 47.28125 11.40625 
Q 51.125 14.703125 51.125 21.484375 
Q 51.125 28.328125 47.28125 31.5625 
Q 43.453125 34.8125 35.5 34.8125 
z
M 19.671875 64.796875 
L 19.671875 42.828125 
L 34.28125 42.828125 
Q 41.5 42.828125 45.03125 45.53125 
Q 48.578125 48.25 48.578125 53.8125 
Q 48.578125 59.328125 45.03125 62.0625 
Q 41.5 64.796875 34.28125 64.796875 
z
M 9.8125 72.90625 
L 35.015625 72.90625 
Q 46.296875 72.90625 52.390625 68.21875 
Q 58.5 63.53125 58.5 54.890625 
Q 58.5 48.1875 55.375 44.234375 
Q 52.25 40.28125 46.1875 39.3125 
Q 53.46875 37.75 57.5 32.78125 
Q 61.53125 27.828125 61.53125 20.40625 
Q 61.53125 10.640625 54.890625 5.3125 
Q 48.25 0 35.984375 0 
L 9.8125 0 
z
" id="DejaVuSans-66"/>
      <path d="M 3.328125 72.90625 
L 13.28125 72.90625 
L 28.609375 11.28125 
L 43.890625 72.90625 
L 54.984375 72.90625 
L 70.3125 11.28125 
L 85.59375 72.90625 
L 95.609375 72.90625 
L 77.296875 0 
L 64.890625 0 
L 49.515625 63.28125 
L 33.984375 0 
L 21.578125 0 
z
" id="DejaVuSans-87"/>
     </defs>
     <g transform="translate(17.077969 122.667266)rotate(-90)scale(0.13 -0.13)">
      <use xlink:href="#DejaVuSans-100"/>
      <use x="63.476562" xlink:href="#DejaVuSans-66"/>
      <use x="132.033203" xlink:href="#DejaVuSans-87"/>
     </g>
    </g>
   </g>
   <g id="line2d_19">
    <path clip-path="url(#p1f01dc8621)" d="M 51.88625 57.211225 
L 52.44425 50.024896 
L 53.00225 45.511861 
L 53.44865 43.349723 
L 53.78345 42.450064 
L 54.11825 42.125135 
L 54.34145 42.219753 
L 54.56465 42.563694 
L 54.89945 43.558976 
L 55.34585 45.843197 
L 55.79225 49.38128 
L 56.23865 54.487298 
L 56.68505 61.733879 
L 57.13145 72.09093 
L 57.80105 88.767225 
L 57.91265 88.092148 
L 58.24745 79.833496 
L 58.80545 66.17855 
L 59.36345 57.697345 
L 59.92145 52.585464 
L 60.36785 50.154279 
L 60.81425 48.853617 
L 61.14905 48.498502 
L 61.37225 48.520293 
L 61.70705 48.895734 
L 62.15345 49.933874 
L 62.93465 52.638492 
L 63.60425 54.789533 
L 64.05065 55.538723 
L 64.38545 55.632555 
L 64.72025 55.390614 
L 65.94785 54.003929 
L 66.17105 54.029863 
L 66.39425 54.220419 
L 66.72905 54.867128 
L 67.06385 56.016827 
L 67.51025 58.485582 
L 67.95665 62.28768 
L 68.40305 67.892408 
L 68.84945 76.198666 
L 69.29585 89.077893 
L 69.85385 106.982337 
L 70.07705 100.715281 
L 70.63505 81.186153 
L 71.19305 70.023812 
L 71.75105 63.479381 
L 72.19745 60.300636 
L 72.64385 58.472176 
L 72.97865 57.839492 
L 73.20185 57.730252 
L 73.42505 57.851239 
L 73.75985 58.428119 
L 74.20625 59.829235 
L 75.54545 64.937053 
L 75.76865 65.092551 
L 75.99185 64.847873 
L 76.32665 63.753863 
L 76.88465 60.592104 
L 78.22385 52.534756 
L 78.89345 49.890927 
L 79.45145 48.466381 
L 80.00945 47.640872 
L 80.45585 47.326027 
L 80.90225 47.245186 
L 81.46025 47.379163 
L 82.24145 47.84968 
L 83.02265 48.581564 
L 83.69225 49.499124 
L 84.36185 50.840373 
L 85.03145 52.767541 
L 85.70105 55.408607 
L 86.48225 59.463528 
L 87.48665 66.006889 
L 89.16065 77.160588 
L 89.83025 80.147147 
L 90.27665 81.211832 
L 90.49985 81.377904 
L 90.72305 81.260826 
L 90.94625 80.842663 
L 91.28105 79.654658 
L 91.72745 77.176746 
L 92.84345 69.08842 
L 93.73625 63.362133 
L 94.40585 60.219666 
L 94.96385 58.412356 
L 95.52185 57.309048 
L 95.96825 56.893648 
L 96.30305 56.830529 
L 96.63785 56.961878 
L 97.08425 57.411514 
L 97.64225 58.369656 
L 98.31185 60.060176 
L 98.98145 62.386191 
L 99.65105 65.509075 
L 100.43225 70.305139 
L 101.21345 75.083119 
L 101.43665 75.765332 
L 101.54825 75.880142 
L 101.65985 75.820426 
L 101.88305 75.149726 
L 102.21785 72.885038 
L 102.88745 65.966972 
L 103.89185 56.216934 
L 104.56145 51.757749 
L 105.11945 49.393008 
L 105.56585 48.386983 
L 105.90065 48.16177 
L 106.12385 48.274036 
L 106.45865 48.859145 
L 106.79345 49.986046 
L 107.23985 52.456014 
L 107.68625 56.292257 
L 108.13265 62.013983 
L 108.57905 70.735841 
L 108.91385 80.900338 
L 109.24865 98.143387 
L 109.58345 119.972319 
L 110.14145 82.537144 
L 110.58785 68.906121 
L 111.14585 59.077377 
L 111.70385 53.200749 
L 112.15025 50.319944 
L 112.59665 48.69442 
L 112.93145 48.201005 
L 113.15465 48.199204 
L 113.37785 48.455682 
L 113.71265 49.330744 
L 114.15905 51.462619 
L 114.60545 54.840232 
L 115.05185 59.760579 
L 115.49825 66.809824 
L 115.94465 77.269584 
L 116.39105 94.415684 
L 116.83745 112.865707 
L 117.84185 76.273707 
L 118.28825 69.531344 
L 118.73465 65.513559 
L 119.18105 63.335217 
L 119.51585 62.622429 
L 119.73905 62.507627 
L 119.96225 62.63715 
L 120.29705 63.198458 
L 121.41305 65.663558 
L 121.63625 65.632837 
L 121.85945 65.264603 
L 122.19425 64.094125 
L 122.75225 61.025501 
L 123.75665 55.361037 
L 124.31465 53.33589 
L 124.76105 52.493903 
L 125.09585 52.337148 
L 125.31905 52.462276 
L 125.65385 52.998365 
L 126.10025 54.373527 
L 126.54665 56.522281 
L 127.10465 60.336756 
L 127.77425 66.632185 
L 128.55545 76.221195 
L 129.67145 89.967166 
L 130.00625 91.699943 
L 130.11785 91.836475 
L 130.22945 91.747744 
L 130.45265 90.934537 
L 130.78745 88.392741 
L 131.34545 81.987965 
L 133.13105 60.162518 
L 133.91225 53.532581 
L 134.58185 49.550826 
L 135.13985 47.381062 
L 135.58625 46.366646 
L 135.92105 46.01483 
L 136.25585 46.006688 
L 136.59065 46.336838 
L 136.92545 46.999987 
L 137.37185 48.391103 
L 137.92985 50.910446 
L 138.71105 55.710251 
L 140.38505 66.904984 
L 140.83145 68.27357 
L 141.05465 68.448416 
L 141.27785 68.261997 
L 141.50105 67.722762 
L 141.83585 66.313675 
L 142.39385 62.740308 
L 144.73745 45.772822 
L 145.29545 43.472935 
L 145.74185 42.378758 
L 146.07665 42.032907 
L 146.29985 42.045166 
L 146.52305 42.264574 
L 146.85785 43.012785 
L 147.19265 44.319093 
L 147.63905 47.082915 
L 148.08545 51.32392 
L 148.53185 57.640622 
L 148.97825 67.239927 
L 149.42465 82.348475 
L 149.75945 92.65916 
L 149.87105 91.453439 
L 150.98705 57.708646 
L 151.54505 49.933976 
L 152.10305 45.398005 
L 152.54945 43.486587 
L 152.88425 42.925018 
L 153.10745 42.950803 
L 153.33065 43.299895 
L 153.66545 44.457886 
L 154.00025 46.453089 
L 154.44665 50.692446 
L 154.89305 57.441434 
L 155.33945 68.556455 
L 155.67425 83.200416 
L 156.12065 113.204639 
L 156.56705 77.484087 
L 157.01345 61.75036 
L 157.57145 50.98036 
L 158.12945 44.74283 
L 158.57585 41.786898 
L 159.02225 40.229543 
L 159.24545 39.919602 
L 159.46865 39.908822 
L 159.69185 40.195399 
L 160.02665 41.194166 
L 160.36145 42.916599 
L 160.80785 46.494442 
L 161.25425 51.905231 
L 161.70065 59.938738 
L 162.14705 72.275893 
L 162.70505 92.519676 
L 162.81665 92.080294 
L 163.15145 80.237044 
L 163.59785 66.554662 
L 164.04425 58.239628 
L 164.49065 53.145543 
L 164.93705 50.220194 
L 165.27185 49.140251 
L 165.49505 48.884656 
L 165.71825 48.975501 
L 165.94145 49.397752 
L 166.27625 50.624398 
L 166.72265 53.270216 
L 167.83865 60.865003 
L 167.95025 61.029705 
L 168.06185 60.972375 
L 168.28505 60.193228 
L 168.61985 57.699761 
L 169.95905 45.877737 
L 170.40545 43.654843 
L 170.85185 42.503091 
L 171.07505 42.329877 
L 171.29825 42.428953 
L 171.52145 42.806991 
L 171.85625 43.921903 
L 172.30265 46.531252 
L 172.74905 50.663723 
L 173.19545 56.794326 
L 173.64185 65.822386 
L 174.19985 82.805966 
L 174.42305 88.575196 
L 174.53465 89.060396 
L 174.75785 84.635715 
L 175.42745 66.208406 
L 175.98545 57.443757 
L 176.43185 53.382331 
L 176.87825 51.196291 
L 177.21305 50.590493 
L 177.43625 50.642673 
L 177.65945 51.052822 
L 177.99425 52.349864 
L 178.44065 55.441861 
L 178.88705 60.342048 
L 179.33345 67.500438 
L 180.33785 85.775298 
L 180.44945 85.04606 
L 180.78425 79.0563 
L 181.45385 66.590569 
L 182.01185 60.362203 
L 182.45825 57.554616 
L 182.79305 56.447873 
L 183.12785 56.054535 
L 183.35105 56.129025 
L 183.68585 56.640437 
L 184.69025 58.795501 
L 184.91345 58.747109 
L 185.13665 58.307154 
L 185.47145 56.908908 
L 186.02945 53.247128 
L 187.03385 46.6158 
L 187.59185 44.310672 
L 188.03825 43.403772 
L 188.26145 43.280938 
L 188.48465 43.386827 
L 188.70785 43.729145 
L 189.04265 44.708149 
L 189.48905 46.959586 
L 189.93545 50.461034 
L 190.38185 55.528274 
L 190.82825 62.759584 
L 191.27465 73.446602 
L 191.72105 90.969004 
L 192.16745 112.201585 
L 192.50225 95.892263 
L 192.94865 80.358009 
L 193.39505 72.418636 
L 193.84145 68.448968 
L 194.17625 67.292558 
L 194.28785 67.207604 
L 194.39945 67.266639 
L 194.62265 67.812786 
L 194.95745 69.722769 
L 195.29225 73.033765 
L 195.73865 79.791961 
L 196.29665 88.754195 
L 196.40825 89.095224 
L 196.51985 88.50526 
L 196.74305 84.974636 
L 197.74745 64.56443 
L 198.30545 57.841035 
L 198.86345 53.868872 
L 199.30985 52.330609 
L 199.53305 52.065661 
L 199.75625 52.131255 
L 199.97945 52.531115 
L 200.31425 53.781899 
L 200.76065 56.776073 
L 201.20705 61.542619 
L 201.76505 70.51559 
L 202.43465 82.04008 
L 202.54625 82.376583 
L 202.65785 81.873378 
L 202.88105 78.85355 
L 203.88545 61.629689 
L 204.44345 56.391145 
L 204.88985 54.21577 
L 205.22465 53.627521 
L 205.44785 53.715722 
L 205.67105 54.192058 
L 206.00585 55.665411 
L 206.45225 59.184925 
L 206.89865 64.738124 
L 207.79145 77.674021 
L 207.90305 77.621077 
L 208.12625 75.356749 
L 209.68865 49.956667 
L 210.24665 45.679927 
L 210.69305 43.769064 
L 211.02785 43.127372 
L 211.25105 43.062312 
L 211.47425 43.28618 
L 211.80905 44.173598 
L 212.14385 45.753469 
L 212.59025 49.03647 
L 213.14825 55.281819 
L 214.26425 70.013336 
L 214.37585 70.001805 
L 214.59905 68.451136 
L 215.15705 60.374985 
L 215.82665 51.838953 
L 216.38465 47.41447 
L 216.83105 45.435575 
L 217.16585 44.763715 
L 217.38905 44.680835 
L 217.61225 44.88241 
L 217.94705 45.712164 
L 218.39345 47.802167 
L 218.95145 51.973612 
L 220.29065 63.425725 
L 220.40225 63.527042 
L 220.51385 63.381181 
L 220.73705 62.423077 
L 221.18345 58.866319 
L 222.07625 51.751773 
L 222.52265 49.631263 
L 222.85745 48.763725 
L 223.08065 48.523319 
L 223.30385 48.547435 
L 223.52705 48.830641 
L 223.86185 49.726969 
L 224.30825 51.74584 
L 224.97785 56.080788 
L 225.64745 60.014969 
L 225.87065 60.569462 
L 225.98225 60.633378 
L 226.09385 60.550507 
L 226.31705 59.972824 
L 226.76345 57.641886 
L 227.76785 51.851966 
L 228.21425 50.457014 
L 228.54905 50.078378 
L 228.77225 50.166873 
L 228.99545 50.542982 
L 229.33025 51.683098 
L 229.77665 54.410592 
L 230.22305 58.83248 
L 230.66945 65.625316 
L 231.11585 76.415608 
L 231.45065 90.053579 
L 231.67385 106.109878 
L 231.89705 139.730771 
L 232.56665 83.591121 
L 233.01305 71.317841 
L 233.45945 64.309768 
L 233.90585 60.155852 
L 234.35225 57.971021 
L 234.68705 57.383507 
L 234.91025 57.447108 
L 235.13345 57.863512 
L 235.46825 59.15122 
L 235.91465 62.168351 
L 236.36105 66.867084 
L 236.91905 75.689649 
L 237.92345 95.669687 
L 238.03505 95.552977 
L 238.25825 92.864688 
L 239.26265 76.175335 
L 239.82065 71.186581 
L 240.37865 68.156903 
L 241.82945 61.534773 
L 243.72665 50.867331 
L 244.17305 49.66312 
L 244.50785 49.303103 
L 244.73105 49.348333 
L 244.95425 49.639892 
L 245.28905 50.579793 
L 245.62385 52.193319 
L 246.07025 55.579656 
L 246.51665 60.701773 
L 247.07465 69.936359 
L 247.52105 77.078701 
L 247.63265 77.697587 
L 247.74425 77.491558 
L 247.96745 74.767864 
L 249.41825 48.56757 
L 250.08785 41.951878 
L 250.64585 38.283729 
L 251.20385 35.858863 
L 251.76185 34.398575 
L 252.20825 33.77744 
L 252.65465 33.539495 
L 253.10105 33.603977 
L 253.54745 33.908421 
L 254.10545 34.575134 
L 254.66345 35.573474 
L 255.22145 37.0171 
L 255.77945 39.129274 
L 256.33745 42.257005 
L 256.89545 46.939168 
L 257.34185 52.423321 
L 257.78825 60.47715 
L 258.23465 73.43366 
L 258.56945 89.99403 
L 258.79265 102.093146 
L 258.90425 100.636684 
L 259.57385 67.473626 
L 260.02025 56.339654 
L 260.57825 47.756236 
L 261.13625 42.50866 
L 261.58265 39.970402 
L 262.02905 38.634926 
L 262.25225 38.379931 
L 262.47545 38.390967 
L 262.69865 38.666886 
L 263.03345 39.585112 
L 263.47985 41.798875 
L 263.92625 45.259547 
L 264.48425 51.597038 
L 265.60025 66.775078 
L 265.71185 66.981082 
L 265.82345 66.667643 
L 266.04665 64.718817 
L 267.60905 46.169518 
L 268.05545 43.783473 
L 268.39025 42.812716 
L 268.61345 42.531953 
L 268.83665 42.536899 
L 269.05985 42.82631 
L 269.39465 43.802815 
L 269.84105 46.17828 
L 270.28745 49.950781 
L 270.73385 55.471014 
L 271.18025 63.405432 
L 271.62665 74.927891 
L 272.18465 91.027345 
L 272.29625 91.01528 
L 272.51945 86.236801 
L 273.18905 68.795923 
L 273.74705 60.583688 
L 274.19345 56.77336 
L 274.63985 54.666904 
L 274.97465 53.973591 
L 275.19785 53.871817 
L 275.42105 54.026919 
L 275.75585 54.683937 
L 276.20225 56.192964 
L 277.42985 60.95062 
L 277.76465 61.358037 
L 277.98785 61.283861 
L 278.32265 60.735918 
L 279.88505 57.240138 
L 280.10825 57.182963 
L 280.33145 57.289881 
L 280.66625 57.75183 
L 281.11265 58.866232 
L 282.56345 63.063612 
L 282.78665 63.158532 
L 283.00985 63.015178 
L 283.34465 62.42135 
L 284.68385 59.363468 
L 284.90705 59.284488 
L 285.13025 59.428742 
L 285.35345 59.824652 
L 285.68825 60.95539 
L 286.02305 62.837068 
L 286.46945 66.811993 
L 286.91585 73.123704 
L 287.36225 83.352652 
L 287.69705 96.090885 
L 288.14345 119.5524 
L 288.36665 107.478918 
L 288.81305 85.361093 
L 289.25945 73.365336 
L 289.81745 64.370388 
L 290.37545 58.955788 
L 290.82185 56.327619 
L 291.26825 54.870182 
L 291.60305 54.435245 
L 291.82625 54.429403 
L 292.04945 54.636906 
L 292.38425 55.326029 
L 292.83065 56.899895 
L 293.38865 59.793256 
L 294.39305 66.614996 
L 295.17425 71.305806 
L 295.62065 72.746666 
L 295.84385 73.028543 
L 296.06705 73.02401 
L 296.29025 72.754868 
L 296.62505 71.914567 
L 297.07145 70.114133 
L 297.74105 66.317756 
L 299.97305 52.487796 
L 300.53105 50.504144 
L 300.97745 49.593482 
L 301.31225 49.334649 
L 301.53545 49.373898 
L 301.87025 49.764366 
L 302.20505 50.571591 
L 302.65145 52.339761 
L 303.20945 55.766671 
L 303.76745 60.704694 
L 304.43705 68.75165 
L 305.44145 81.215856 
L 305.66465 82.190453 
L 305.77625 82.264577 
L 305.88785 82.088162 
L 306.11105 81.146915 
L 307.67345 72.408408 
L 308.78945 68.567767 
L 309.34745 65.086019 
L 310.46345 55.722608 
L 311.35625 49.203475 
L 312.02585 45.757605 
L 312.58385 43.870799 
L 313.03025 42.965587 
L 313.47665 42.548672 
L 313.81145 42.523122 
L 314.14625 42.713855 
L 314.59265 43.25332 
L 315.26225 44.527852 
L 316.15505 46.820466 
L 316.93625 49.440361 
L 317.49425 52.007509 
L 318.05225 55.659301 
L 318.61025 61.143934 
L 319.05665 67.734474 
L 319.50305 77.736846 
L 320.17265 99.142773 
L 320.28425 98.685231 
L 320.61905 86.876785 
L 321.17705 69.311694 
L 321.73505 58.783334 
L 322.29305 52.15636 
L 322.85105 48.087875 
L 323.29745 46.282762 
L 323.63225 45.686717 
L 323.85545 45.639016 
L 324.07865 45.872062 
L 324.41345 46.762893 
L 324.74825 48.342241 
L 325.19465 51.642397 
L 325.64105 56.526962 
L 326.31065 66.980744 
L 326.75705 73.146684 
L 326.86865 73.627992 
L 326.98025 73.462655 
L 327.20345 71.361316 
L 328.76585 49.200542 
L 329.32385 45.603852 
L 329.77025 44.172209 
L 329.99345 43.900995 
L 330.21665 43.919428 
L 330.43985 44.228647 
L 330.77465 45.252892 
L 331.22105 47.743614 
L 331.66745 51.719627 
L 332.11385 57.55014 
L 332.67185 68.182215 
L 333.22985 79.522252 
L 333.34145 80.150249 
L 333.45305 79.738079 
L 333.67625 76.399733 
L 334.68065 57.547048 
L 335.23865 51.799613 
L 335.68505 49.136948 
L 336.01985 48.075968 
L 336.24305 47.777081 
L 336.46625 47.793843 
L 336.68945 48.124284 
L 337.02425 49.220292 
L 337.47065 51.887059 
L 337.91705 56.176365 
L 338.36345 62.631135 
L 338.80985 72.448736 
L 339.25625 88.502117 
L 339.59105 104.000365 
L 339.70265 104.590052 
L 340.03745 90.338822 
L 340.48385 74.73744 
L 340.93025 65.523202 
L 341.48825 58.551881 
L 342.04625 54.49242 
L 342.49265 52.600812 
L 342.93905 51.534803 
L 343.38545 51.010475 
L 344.05505 50.668725 
L 344.61305 50.322889 
L 345.17105 49.698586 
L 346.39865 48.148981 
L 346.73345 48.038194 
L 347.06825 48.19375 
L 347.40305 48.672902 
L 347.73785 49.526922 
L 348.18425 51.332098 
L 348.74225 54.82012 
L 349.30025 59.873744 
L 350.08145 69.469813 
L 350.63945 75.891137 
L 350.86265 77.15958 
L 350.97425 77.36932 
L 351.08585 77.296338 
L 351.30905 76.427944 
L 351.86705 72.26063 
L 352.42505 68.602614 
L 352.75985 67.347788 
L 352.98305 66.962348 
L 353.20625 66.953597 
L 353.42945 67.336661 
L 353.76425 68.695546 
L 354.09905 71.10719 
L 354.54545 76.350311 
L 354.99185 84.878772 
L 355.43825 98.617044 
L 355.77305 109.614907 
L 355.88465 109.799222 
L 356.10785 103.341065 
L 356.66585 84.675937 
L 357.22385 73.927851 
L 357.78185 67.876601 
L 358.22825 65.283901 
L 358.56305 64.40215 
L 358.78625 64.278722 
L 359.00945 64.515697 
L 359.34425 65.544911 
L 359.67905 67.398771 
L 360.12545 71.195243 
L 360.90665 80.638829 
L 361.24145 83.698189 
L 361.35305 84.092232 
L 361.46465 84.07633 
L 361.68785 82.845961 
L 362.13425 77.45473 
L 362.91545 67.992629 
L 363.47345 63.792562 
L 363.91985 61.982452 
L 364.25465 61.463427 
L 364.47785 61.500083 
L 364.70105 61.835585 
L 365.03585 62.885799 
L 365.48225 65.245393 
L 366.70985 73.074448 
L 366.82145 73.183951 
L 366.93305 73.081752 
L 367.15625 72.25113 
L 367.49105 69.767425 
L 368.83025 58.200431 
L 369.27665 56.055994 
L 369.61145 55.163857 
L 369.83465 54.916147 
L 370.05785 54.95283 
L 370.28105 55.283785 
L 370.61585 56.366481 
L 370.95065 58.22793 
L 371.39705 62.171319 
L 371.84345 68.390258 
L 372.28985 78.404635 
L 372.62465 91.075738 
L 372.84785 105.787394 
L 373.18265 139.737795 
L 373.40585 106.025936 
L 373.74065 86.002287 
L 374.18705 72.481 
L 374.74505 62.950958 
L 375.30305 57.436156 
L 375.74945 54.890449 
L 376.08425 53.843586 
L 376.41905 53.452828 
L 376.64225 53.536179 
L 376.86545 53.886827 
L 377.20025 54.908523 
L 377.64665 57.197394 
L 378.20465 61.532081 
L 379.54385 73.132786 
L 379.65545 73.232711 
L 379.76705 73.078375 
L 379.99025 72.076114 
L 380.43665 68.311883 
L 381.44105 59.618267 
L 381.99905 56.6862 
L 382.44545 55.406383 
L 382.78025 55.040486 
L 383.00345 55.072506 
L 383.22665 55.323918 
L 383.56145 56.115887 
L 384.00785 57.973343 
L 384.45425 60.821956 
L 385.01225 65.997828 
L 385.57025 73.366637 
L 386.68625 90.507481 
L 386.79785 90.590655 
L 387.02105 88.968398 
L 387.57905 80.1079 
L 388.24865 70.58612 
L 388.91825 64.292579 
L 389.47625 60.983143 
L 389.92265 59.361166 
L 390.36905 58.549043 
L 390.59225 58.432176 
L 390.81545 58.505619 
L 391.15025 58.975675 
L 391.48505 59.890415 
L 391.93145 61.847292 
L 392.48945 65.617449 
L 393.04745 71.096917 
L 393.82865 81.599866 
L 394.27505 86.971495 
L 394.49825 88.025084 
L 394.60985 87.951319 
L 394.83305 86.683468 
L 395.27945 81.60401 
L 396.06065 72.886961 
L 396.61865 68.969098 
L 397.06505 67.226965 
L 397.39985 66.679286 
L 397.62305 66.665535 
L 397.84625 66.932418 
L 398.18105 67.868654 
L 398.62745 70.170553 
L 399.07385 73.801529 
L 399.63185 80.466596 
L 400.63625 94.261938 
L 400.74785 94.508471 
L 400.85945 94.216962 
L 401.08265 92.243772 
L 402.64505 72.671103 
L 403.20305 69.180893 
L 403.76105 67.080918 
L 404.31905 65.840255 
L 405.32345 63.880092 
L 405.88145 62.016258 
L 406.55105 58.850175 
L 408.33665 49.953011 
L 409.00625 47.801527 
L 409.56425 46.710855 
L 410.01065 46.32056 
L 410.34545 46.319203 
L 410.68025 46.577877 
L 411.01505 47.110384 
L 411.46145 48.282039 
L 411.90785 50.049381 
L 412.46585 53.277659 
L 413.02385 58.014249 
L 413.58185 65.029386 
L 414.02825 73.379546 
L 414.47465 86.214939 
L 415.03265 103.837783 
L 415.25585 96.788709 
L 415.81385 76.076862 
L 416.37185 63.756858 
L 416.92985 55.845947 
L 417.48785 50.525249 
L 418.04585 47.0337 
L 418.49225 45.316155 
L 418.82705 44.597358 
L 419.16185 44.351122 
L 419.38505 44.450318 
L 419.71985 45.005757 
L 420.05465 46.076919 
L 420.50105 48.397923 
L 420.94745 51.928507 
L 421.39385 57.014678 
L 421.84025 64.241977 
L 422.39825 77.264071 
L 422.73305 84.654385 
L 422.84465 85.39937 
L 422.95625 84.767353 
L 423.17945 80.322284 
L 423.96065 61.653679 
L 424.51865 53.17078 
L 425.07665 47.546296 
L 425.63465 43.908842 
L 426.08105 42.116575 
L 426.52745 41.175842 
L 426.86225 40.985721 
L 427.08545 41.095768 
L 427.42025 41.61316 
L 427.75505 42.558981 
L 428.20145 44.51783 
L 428.75945 48.205532 
L 429.31745 53.529542 
L 429.87545 60.897157 
L 430.99145 77.832803 
L 431.10305 78.014158 
L 431.21465 77.598187 
L 431.43785 75.292987 
L 433.00025 53.999652 
L 433.66985 49.111404 
L 434.22785 46.517664 
L 434.67425 45.225259 
L 435.12065 44.537686 
L 435.45545 44.384776 
L 435.79025 44.523755 
L 436.12505 44.941691 
L 436.57145 45.914486 
L 437.12945 47.762891 
L 437.79905 50.812706 
L 440.14265 62.566113 
L 440.58905 63.371937 
L 441.03545 63.663848 
L 442.03985 63.963426 
L 442.37465 64.344236 
L 442.82105 65.270331 
L 443.26745 66.75877 
L 443.82545 69.467036 
L 444.60665 74.593396 
L 445.38785 79.508155 
L 445.72265 80.530175 
L 445.94585 80.62091 
L 446.16905 80.234237 
L 446.50385 78.92205 
L 447.28505 74.348356 
L 448.17785 69.688456 
L 448.84745 67.349346 
L 449.40545 66.088631 
L 449.96345 65.299997 
L 450.63305 64.743733 
L 452.19545 63.641159 
L 452.86505 62.774492 
L 453.64625 61.345232 
L 455.76665 57.141011 
L 456.21305 56.75332 
L 456.54785 56.696402 
L 456.88265 56.879769 
L 457.21745 57.340859 
L 457.66385 58.458495 
L 458.11025 60.254317 
L 458.66825 63.66823 
L 459.22625 68.712676 
L 459.89585 77.31284 
L 460.56545 85.768475 
L 460.67705 86.240809 
L 460.78865 86.222751 
L 461.01185 84.740984 
L 461.45825 78.308181 
L 462.35105 65.428386 
L 463.02065 58.944509 
L 463.69025 54.704615 
L 464.24825 52.513684 
L 464.69465 51.481386 
L 465.14105 50.985421 
L 465.47585 50.905511 
L 465.92225 51.093158 
L 467.26145 52.021612 
L 467.59625 51.862438 
L 467.93105 51.397483 
L 468.37745 50.289076 
L 469.04705 47.828207 
L 470.60945 41.707099 
L 471.27905 40.033737 
L 471.72545 39.41168 
L 472.06025 39.233733 
L 472.39505 39.321515 
L 472.72985 39.693044 
L 473.17625 40.66664 
L 473.62265 42.245176 
L 474.18065 45.199707 
L 474.73865 49.46337 
L 475.29665 55.341036 
L 476.07785 66.355048 
L 476.52425 71.862425 
L 476.74745 72.771251 
L 476.85905 72.556526 
L 477.08225 70.917591 
L 477.64025 63.46107 
L 478.42145 53.956155 
L 479.09105 48.596511 
L 479.64905 45.786118 
L 480.09545 44.441578 
L 480.43025 43.90189 
L 480.76505 43.735006 
L 480.98825 43.821717 
L 481.32305 44.239461 
L 481.76945 45.323494 
L 482.21585 47.010939 
L 482.77385 50.008034 
L 483.44345 55.090314 
L 484.00145 60.939068 
L 484.55945 69.071992 
L 485.00585 78.558573 
L 485.34065 89.305969 
L 485.67545 108.394102 
L 486.01025 150.450491 
L 486.23345 111.545659 
L 486.56825 89.961311 
L 487.01465 75.064808 
L 487.57265 63.597914 
L 488.24225 54.415967 
L 488.91185 48.017234 
L 489.58145 43.518408 
L 490.25105 40.532423 
L 490.80905 39.062823 
L 491.25545 38.514662 
L 491.59025 38.461916 
L 491.92505 38.716044 
L 492.25985 39.280619 
L 492.70625 40.529508 
L 493.26425 42.931769 
L 493.82225 46.361114 
L 494.49185 52.069948 
L 495.16145 60.027915 
L 495.71945 69.158522 
L 496.27745 82.030725 
L 497.17025 107.130834 
L 497.39345 103.083847 
L 498.17465 83.524483 
L 498.73265 75.528679 
L 499.29065 70.394887 
L 499.84865 67.025196 
L 500.40665 64.922134 
L 500.85305 64.005879 
L 501.18785 63.740051 
L 501.41105 63.762937 
L 501.74585 64.102696 
L 502.08065 64.818431 
L 502.52705 66.372839 
L 503.08505 69.252745 
L 504.42425 76.841316 
L 504.64745 77.041482 
L 504.87065 76.661071 
L 505.20545 75.131611 
L 505.98665 69.579971 
L 506.65625 65.471806 
L 507.10265 63.726253 
L 507.43745 63.018101 
L 507.66065 62.846382 
L 507.88385 62.923996 
L 508.10705 63.260604 
L 508.44185 64.279389 
L 508.88825 66.695605 
L 509.33465 70.533486 
L 509.78105 76.163776 
L 510.33905 86.491099 
L 511.00865 99.278104 
L 511.12025 99.250702 
L 511.34345 96.421748 
L 512.45945 75.809707 
L 513.01745 70.414563 
L 513.46385 67.947737 
L 513.79865 66.981507 
L 514.02185 66.713966 
L 514.24505 66.727843 
L 514.46825 67.009179 
L 514.80305 67.904036 
L 515.24945 69.897045 
L 516.03065 74.872339 
L 516.70025 78.596607 
L 517.03505 79.331893 
L 517.25825 79.303265 
L 517.48145 78.933511 
L 518.70905 76.037436 
L 518.93225 76.10109 
L 519.15545 76.493437 
L 519.49025 77.801482 
L 519.82505 80.146067 
L 520.27145 85.402678 
L 520.71785 94.343001 
L 521.16425 109.483977 
L 521.38745 117.62888 
L 521.49905 118.548284 
L 521.72225 111.542679 
L 522.28025 90.325491 
L 522.83825 78.146158 
L 523.39625 70.89972 
L 523.84265 67.373711 
L 524.28905 65.428753 
L 524.62385 64.906576 
L 524.84705 64.99484 
L 525.07025 65.440291 
L 525.40505 66.820045 
L 525.73985 69.159338 
L 526.18625 74.157142 
L 526.63265 82.347708 
L 526.96745 92.309123 
L 527.30225 110.399421 
L 527.52545 140.693999 
L 527.63705 177.439333 
L 527.86025 118.087174 
L 528.19505 95.343605 
L 528.64145 80.985978 
L 529.08785 72.710922 
L 529.64585 66.560303 
L 530.09225 63.822494 
L 530.42705 62.760046 
L 530.65025 62.469576 
L 530.87345 62.491191 
L 531.09665 62.809652 
L 531.43145 63.809855 
L 531.87785 65.992707 
L 532.88225 71.507445 
L 533.10545 71.769604 
L 533.21705 71.643008 
L 533.44025 70.868276 
L 533.77505 68.638218 
L 535.33745 56.328288 
L 535.89545 54.10868 
L 536.23025 53.43228 
L 536.56505 53.220437 
L 536.78825 53.321554 
L 537.12305 53.803415 
L 537.56945 54.952615 
L 538.68545 58.218569 
L 538.90865 58.412252 
L 539.13185 58.311579 
L 539.35505 57.907148 
L 539.68985 56.802995 
L 540.58265 52.571559 
L 541.25225 49.98288 
L 541.69865 49.049374 
L 542.03345 48.856331 
L 542.25665 48.990494 
L 542.59145 49.614216 
L 542.92625 50.784156 
L 543.37265 53.291921 
L 543.81905 57.052009 
L 544.37705 63.868325 
L 545.49305 79.520406 
L 545.60465 79.393786 
L 545.82785 77.499179 
L 547.50185 55.873219 
L 547.94825 53.265282 
L 548.39465 51.813223 
L 548.72945 51.404204 
L 548.95265 51.435312 
L 549.17585 51.701197 
L 549.51065 52.52967 
L 549.95705 54.416262 
L 550.51505 57.959861 
L 551.96585 68.586526 
L 552.18905 68.928308 
L 552.30065 68.849311 
L 552.52385 68.228721 
L 552.85865 66.422128 
L 554.42105 56.69809 
L 554.97905 54.925822 
L 555.42545 54.260507 
L 555.76025 54.185256 
L 556.09505 54.468868 
L 556.42985 55.116819 
L 556.87625 56.579814 
L 557.32265 58.811452 
L 557.88065 62.949805 
L 558.43865 69.225498 
L 558.88505 76.749122 
L 559.33145 88.358588 
L 560.00105 109.777353 
L 560.33585 96.026013 
L 560.89385 76.761231 
L 561.45185 65.312241 
L 562.12145 56.508029 
L 562.79105 50.851405 
L 563.34905 47.836886 
L 563.79545 46.342007 
L 564.24185 45.581311 
L 564.57665 45.466984 
L 564.79985 45.602177 
L 565.13465 46.117937 
L 565.58105 47.385731 
L 566.13905 49.894418 
L 566.80865 54.185092 
L 568.37105 65.317728 
L 568.70585 66.092264 
L 568.92905 66.04818 
L 569.15225 65.616298 
L 569.59865 63.981182 
L 571.04945 57.995306 
L 571.83065 55.855175 
L 573.95105 50.530747 
L 575.17865 47.447048 
L 575.84825 46.329431 
L 576.29465 45.912132 
L 576.74105 45.790325 
L 577.07585 45.906088 
L 577.52225 46.354609 
L 577.96865 47.166005 
L 578.52665 48.757263 
L 579.08465 51.119803 
L 579.64265 54.487249 
L 580.20065 59.271027 
L 580.75865 66.26292 
L 581.20505 74.59964 
L 581.65145 87.925969 
L 581.98625 105.736175 
L 582.20945 122.012974 
L 582.32105 120.8058 
L 582.87905 86.683576 
L 583.32545 73.581472 
L 583.88345 63.803507 
L 584.44145 57.763783 
L 584.99945 54.120661 
L 585.44585 52.56167 
L 585.78065 52.102786 
L 586.00385 52.12553 
L 586.22705 52.412782 
L 586.56185 53.355003 
L 587.00825 55.638817 
L 587.45465 59.271446 
L 587.90105 64.557865 
L 588.45905 74.047908 
L 589.12865 85.757333 
L 589.24025 86.018941 
L 589.35185 85.429026 
L 589.68665 80.147758 
L 590.46785 66.283963 
L 591.02585 60.138362 
L 591.47225 57.145342 
L 591.91865 55.569469 
L 592.14185 55.266878 
L 592.36505 55.277185 
L 592.58825 55.600336 
L 592.92305 56.687644 
L 593.25785 58.548368 
L 593.70425 62.420474 
L 594.15065 68.341752 
L 594.59705 77.384672 
L 594.93185 87.793969 
L 595.26665 104.837934 
L 595.60145 123.977875 
L 596.27105 87.705905 
L 596.71745 77.119883 
L 597.16385 71.111718 
L 597.61025 67.836215 
L 597.94505 66.729808 
L 598.16825 66.555582 
L 598.39145 66.810235 
L 598.61465 67.488568 
L 598.94945 69.310694 
L 599.39585 73.291294 
L 600.51185 85.895525 
L 600.62345 85.822868 
L 600.84665 84.189563 
L 601.29305 77.539159 
L 602.07425 66.496629 
L 602.63225 61.538828 
L 603.07865 59.197855 
L 603.41345 58.303627 
L 603.63665 58.102549 
L 603.85985 58.216687 
L 604.08305 58.651817 
L 604.41785 59.935346 
L 604.86425 62.955127 
L 605.31065 67.803171 
L 605.75705 75.166384 
L 606.20345 86.270318 
L 606.76145 101.229387 
L 606.87305 100.604115 
L 607.20785 91.283702 
L 607.76585 76.459074 
L 608.32385 67.562089 
L 608.88185 62.361273 
L 609.32825 60.04442 
L 609.66305 59.177376 
L 609.88625 58.972996 
L 610.10945 59.052294 
L 610.33265 59.407682 
L 610.66745 60.451885 
L 611.11385 62.808706 
L 611.67185 67.391981 
L 612.22985 73.976164 
L 613.56905 92.42758 
L 613.68065 92.532418 
L 613.79225 92.17668 
L 614.01545 90.315815 
L 614.68505 81.046344 
L 615.68945 68.121655 
L 616.80545 56.551654 
L 617.69825 49.242483 
L 618.47945 44.520626 
L 619.14905 41.820979 
L 619.59545 40.73536 
L 619.93025 40.30378 
L 620.26505 40.206401 
L 620.59985 40.450673 
L 620.93465 41.046495 
L 621.38105 42.410999 
L 621.93905 45.095985 
L 622.49705 48.989315 
L 623.16665 55.544957 
L 623.83625 64.745409 
L 624.39425 75.321955 
L 624.95225 90.405447 
L 625.39865 109.553147 
L 625.62185 125.549165 
L 625.95665 173.183831 
L 626.17985 134.53833 
L 626.51465 115.833758 
L 626.96105 104.633535 
L 627.63065 94.959051 
L 628.85825 81.098745 
L 629.52785 75.828393 
L 629.97425 73.724685 
L 630.30905 72.994211 
L 630.53225 72.949795 
L 630.75545 73.291959 
L 631.09025 74.615861 
L 631.42505 77.082974 
L 631.87145 82.659801 
L 632.31785 91.566334 
L 632.76425 99.712565 
L 632.87585 99.278005 
L 633.09905 94.514275 
L 633.99185 70.016032 
L 634.66145 58.790864 
L 635.33105 51.479284 
L 635.88905 47.419438 
L 636.44705 44.777813 
L 636.89345 43.514657 
L 637.33985 42.899471 
L 637.67465 42.809261 
L 638.00945 42.994154 
L 638.45585 43.594992 
L 639.12545 45.023133 
L 641.02265 49.962348 
L 641.58065 51.859239 
L 642.13865 54.635389 
L 642.58505 57.939087 
L 643.03145 62.737013 
L 643.47785 69.82056 
L 643.92425 80.390463 
L 644.37065 92.18037 
L 644.48225 92.805051 
L 644.59385 91.568632 
L 645.04025 78.249483 
L 645.59825 64.296772 
L 646.15625 55.424085 
L 646.71425 49.767027 
L 647.27225 46.406848 
L 647.71865 45.089074 
L 647.94185 44.854515 
L 648.16505 44.899106 
L 648.38825 45.22637 
L 648.72305 46.268285 
L 649.16945 48.784223 
L 649.61585 52.839807 
L 650.06225 58.9716 
L 650.50865 68.380973 
L 650.84345 79.456202 
L 651.17825 98.961535 
L 651.40145 122.137584 
L 651.51305 120.780064 
L 651.84785 90.956706 
L 652.29425 73.428233 
L 652.74065 64.375708 
L 653.18705 59.189134 
L 653.63345 56.48411 
L 653.96825 55.76117 
L 654.07985 55.75153 
L 654.30305 56.077748 
L 654.52625 56.878086 
L 654.86105 59.049214 
L 655.19585 62.607981 
L 655.64225 70.442159 
L 655.97705 80.394815 
L 656.31185 99.291186 
L 656.64665 141.022384 
L 656.86985 100.760979 
L 657.20465 79.574479 
L 657.65105 65.341662 
L 658.20905 55.186025 
L 658.76705 49.176364 
L 659.21345 46.303103 
L 659.65985 44.785403 
L 659.88305 44.483447 
L 660.10625 44.47274 
L 660.32945 44.750119 
L 660.66425 45.711417 
L 661.11065 48.057727 
L 661.55705 51.746205 
L 662.11505 58.563934 
L 662.89625 71.995294 
L 663.23105 76.335386 
L 663.34265 76.82068 
L 663.45425 76.70447 
L 663.67745 74.917542 
L 665.01665 59.001826 
L 665.46305 56.801191 
L 665.79785 56.162625 
L 666.02105 56.182718 
L 666.24425 56.541641 
L 666.57905 57.68063 
L 667.02545 60.181355 
L 667.91825 65.871592 
L 668.14145 66.295468 
L 668.25305 66.204962 
L 668.47625 65.40264 
L 668.81105 62.948263 
L 670.15025 51.350389 
L 670.59665 49.202032 
L 670.93145 48.309602 
L 671.15465 48.060086 
L 671.37785 48.090896 
L 671.60105 48.408501 
L 671.93585 49.446092 
L 672.38225 51.969862 
L 672.82865 56.010508 
L 673.27505 61.950222 
L 673.83305 72.793111 
L 674.39105 84.270533 
L 674.50265 84.877367 
L 674.61425 84.443874 
L 674.83745 81.125522 
L 675.73025 64.544393 
L 676.28825 58.867101 
L 676.73465 56.52913 
L 677.06945 55.873358 
L 677.29265 55.931286 
L 677.51585 56.385311 
L 677.85065 57.839391 
L 678.18545 60.313313 
L 678.63185 65.550412 
L 679.07825 73.908149 
L 679.52465 87.449538 
L 679.97105 103.152262 
L 680.08265 102.21119 
L 681.19865 68.881588 
L 681.64505 63.016141 
L 682.09145 59.604281 
L 682.42625 58.311892 
L 682.64945 57.991421 
L 682.87265 58.09056 
L 683.09585 58.61315 
L 683.43065 60.234669 
L 683.76545 62.989554 
L 684.21185 68.936733 
L 684.65825 79.009864 
L 684.99305 92.229236 
L 685.21625 108.364101 
L 685.32785 123.184676 
L 685.43945 158.722243 
L 685.88585 95.782635 
L 686.33225 77.477955 
L 686.77865 67.920902 
L 687.22505 62.22928 
L 687.67145 58.984282 
L 688.00625 57.812192 
L 688.22945 57.574569 
L 688.45265 57.762752 
L 688.67585 58.384839 
L 689.01065 60.187 
L 689.34545 63.182039 
L 689.79185 69.599934 
L 690.23825 80.304381 
L 690.90785 101.790989 
L 691.13105 94.583234 
L 691.68905 73.82143 
L 692.24705 62.097152 
L 692.80505 55.223368 
L 693.25145 51.938134 
L 693.69785 50.172408 
L 694.03265 49.731248 
L 694.25585 49.83954 
L 694.47905 50.269544 
L 694.81385 51.535478 
L 695.26025 54.478424 
L 695.70665 59.102702 
L 696.15305 65.872525 
L 696.71105 78.181387 
L 697.15745 87.844303 
L 697.26905 88.448725 
L 697.38065 87.879559 
L 697.71545 81.675315 
L 698.38505 68.819867 
L 698.83145 63.724931 
L 699.27785 60.909979 
L 699.61265 60.066233 
L 699.83585 60.065297 
L 700.05905 60.508194 
L 700.39385 62.025379 
L 700.72865 64.630335 
L 701.17505 69.937932 
L 701.95625 80.989011 
L 702.06785 81.348742 
L 702.17945 81.006322 
L 702.40265 78.409716 
L 703.85345 54.739996 
L 704.41145 50.134411 
L 704.85785 47.980801 
L 705.19265 47.158352 
L 705.41585 46.969312 
L 705.63905 47.063826 
L 705.86225 47.443676 
L 706.19705 48.564133 
L 706.64345 51.164545 
L 707.08985 55.232283 
L 707.53625 61.183893 
L 707.98265 69.869996 
L 708.42905 83.270394 
L 709.09865 110.976702 
L 709.54505 91.93465 
L 709.99145 79.781488 
L 710.43785 73.607398 
L 710.77265 71.401205 
L 710.99585 70.854078 
L 711.10745 70.839286 
L 711.33065 71.322404 
L 711.55385 72.509375 
L 711.88865 75.743903 
L 712.33505 83.317539 
L 712.89305 95.183954 
L 713.00465 95.258841 
L 713.22785 90.911232 
L 714.12065 65.854322 
L 714.67865 56.403629 
L 715.23665 50.1807 
L 715.79465 46.263086 
L 716.24105 44.476385 
L 716.57585 43.841251 
L 716.79905 43.739067 
L 717.02225 43.890463 
L 717.35705 44.594984 
L 717.69185 45.885933 
L 718.13825 48.569868 
L 718.69625 53.615218 
L 719.36585 62.29599 
L 720.14705 72.919153 
L 720.37025 74.124278 
L 720.48185 74.195419 
L 720.70505 73.404975 
L 721.15145 69.892709 
L 721.70945 65.908183 
L 722.04425 64.691977 
L 722.26745 64.473075 
L 722.49065 64.765236 
L 722.71385 65.612157 
L 723.04865 68.078133 
L 723.38345 72.363551 
L 723.71825 79.352552 
L 724.05305 91.254691 
L 724.49945 118.611348 
L 724.72265 103.582804 
L 725.16905 78.420436 
L 725.61545 65.129644 
L 726.17345 54.947229 
L 726.73145 48.576528 
L 727.28945 44.724328 
L 727.73585 43.087593 
L 728.07065 42.621062 
L 728.29385 42.662416 
L 728.51705 42.987186 
L 728.85185 44.021378 
L 729.29825 46.495103 
L 729.74465 50.389126 
L 730.30265 57.635859 
L 731.30705 72.361772 
L 731.41865 72.259119 
L 731.64185 70.25486 
L 733.09265 49.981145 
L 733.53905 46.99571 
L 733.98545 45.439851 
L 734.20865 45.16113 
L 734.43185 45.209088 
L 734.65505 45.587846 
L 734.98985 46.804695 
L 735.32465 48.876299 
L 735.77105 53.24703 
L 736.21745 60.169991 
L 736.66385 71.521572 
L 736.99865 86.303758 
L 737.33345 110.77289 
L 737.44505 109.044574 
L 737.89145 78.668827 
L 738.33785 63.725144 
L 738.89585 53.238474 
L 739.45385 47.035444 
L 740.01185 43.411582 
L 740.45825 41.880613 
L 740.79305 41.400622 
L 741.01625 41.369653 
L 741.23945 41.556682 
L 741.57425 42.226105 
L 742.02065 43.801559 
L 742.57865 46.75769 
L 743.58305 53.807711 
L 744.25265 57.839992 
L 744.58745 58.965139 
L 744.92225 59.389427 
L 745.14545 59.348908 
L 745.48025 58.979339 
L 746.48465 57.616903 
L 746.93105 57.409999 
L 748.04705 57.205072 
L 748.38185 56.765659 
L 748.82825 55.674385 
L 749.49785 53.176128 
L 750.61385 48.985679 
L 751.06025 47.985644 
L 751.39505 47.620296 
L 751.61825 47.58068 
L 751.84145 47.715417 
L 752.17625 48.265043 
L 752.51105 49.262323 
L 752.95745 51.360591 
L 753.51545 55.412077 
L 754.07345 61.433548 
L 754.63145 70.047292 
L 755.74745 89.338405 
L 755.85905 88.9629 
L 756.08225 86.408234 
L 757.08665 71.662565 
L 757.53305 68.044889 
L 757.97945 66.123543 
L 758.20265 65.729163 
L 758.42585 65.692176 
L 758.64905 66.007723 
L 758.98385 67.150931 
L 759.31865 69.140456 
L 759.76505 73.262313 
L 760.32305 81.091815 
L 760.99265 90.900816 
L 761.10425 91.151339 
L 761.21585 90.652603 
L 761.43905 87.709993 
L 762.88985 62.131785 
L 763.55945 55.15757 
L 764.22905 50.291071 
L 764.89865 46.969741 
L 765.45665 45.152632 
L 766.01465 44.091022 
L 766.46105 43.751417 
L 766.79585 43.788164 
L 767.13065 44.076699 
L 767.57705 44.864669 
L 768.02345 46.139278 
L 768.58145 48.484606 
L 769.13945 51.791721 
L 769.80905 57.343149 
L 770.36705 63.756359 
L 770.92505 72.657677 
L 771.37145 82.838832 
L 771.81785 98.672794 
L 772.37585 128.224532 
L 773.15705 91.309012 
L 773.60345 81.828765 
L 774.16145 74.539076 
L 774.71945 69.907654 
L 775.27745 66.817359 
L 775.94705 64.31316 
L 776.83985 61.940253 
L 777.84425 59.24345 
L 778.62545 56.394433 
L 779.51825 52.155124 
L 782.08505 39.305336 
L 782.86625 36.657103 
L 783.53585 35.096029 
L 784.09385 34.314563 
L 784.54025 34.030124 
L 784.98665 34.044132 
L 785.43305 34.348829 
L 785.87945 34.932943 
L 786.43745 36.032477 
L 787.10705 37.839311 
L 787.99985 40.909455 
L 790.56665 50.250812 
L 791.12465 51.404388 
L 791.57105 51.93031 
L 792.01745 52.127558 
L 792.46385 52.068802 
L 793.35665 51.616333 
L 793.91465 51.439927 
L 794.36105 51.523508 
L 794.80745 51.900619 
L 795.25385 52.646723 
L 795.70025 53.832163 
L 796.25825 56.041354 
L 796.81625 59.210486 
L 797.37425 63.554677 
L 798.04385 70.789196 
L 798.60185 79.186181 
L 799.15985 90.916151 
L 800.16425 116.703247 
L 800.27585 115.91701 
L 800.61065 109.124761 
L 801.16865 98.852575 
L 801.61505 94.298814 
L 801.94985 92.544589 
L 802.17305 92.03821 
L 802.39625 92.019994 
L 802.61945 92.475202 
L 802.95425 94.056395 
L 803.28905 96.798569 
L 803.73545 102.608088 
L 804.18185 111.507158 
L 804.73985 122.683559 
L 804.85145 122.396811 
L 805.07465 118.187177 
L 805.96745 95.639583 
L 806.63705 85.131795 
L 807.30665 78.060398 
L 807.97625 73.146167 
L 808.64585 69.767429 
L 809.20385 67.899143 
L 809.65025 66.962059 
L 810.09665 66.503466 
L 810.43145 66.474582 
L 810.76625 66.722166 
L 811.10105 67.255709 
L 811.54745 68.433101 
L 812.10545 70.69935 
L 812.77505 74.644535 
L 813.66785 81.701427 
L 814.44905 87.526106 
L 814.78385 88.803 
L 815.00705 89.04031 
L 815.23025 88.814005 
L 815.56505 87.829093 
L 816.79265 83.387531 
L 817.12745 82.944827 
L 817.35065 82.929014 
L 817.57385 83.151769 
L 817.90865 83.957622 
L 818.35505 85.970374 
L 818.80145 89.129839 
L 819.47105 95.916959 
L 820.14065 102.36305 
L 820.36385 102.870574 
L 820.47545 102.624942 
L 820.69865 101.204341 
L 821.14505 96.114024 
L 822.03785 85.748742 
L 822.70745 80.495636 
L 823.26545 77.663271 
L 823.82345 75.972283 
L 824.26985 75.292783 
L 824.60465 75.107081 
L 824.93945 75.149811 
L 825.38585 75.480744 
L 826.16705 76.460098 
L 826.83665 77.214097 
L 827.28305 77.41842 
L 827.61785 77.333628 
L 827.95265 77.015465 
L 828.39905 76.225248 
L 828.95705 74.72539 
L 829.96145 71.19647 
L 831.18905 67.002641 
L 831.85865 65.347498 
L 832.41665 64.479566 
L 832.86305 64.170776 
L 833.19785 64.182659 
L 833.53265 64.414491 
L 833.97905 65.08149 
L 834.42545 66.176226 
L 834.98345 68.177221 
L 835.65305 71.563068 
L 836.32265 76.106945 
L 837.10385 83.03322 
L 837.88505 92.004506 
L 838.66625 103.627216 
L 839.33585 116.768293 
L 839.89385 131.725077 
L 840.34025 149.071365 
L 840.89825 181.286587 
L 841.00985 181.195661 
L 841.56785 162.345033 
L 841.79105 159.503586 
L 841.90265 158.972593 
L 842.01425 158.987741 
L 842.23745 160.629132 
L 842.57225 166.744305 
L 842.79545 169.620232 
L 842.90705 167.905707 
L 843.24185 152.641254 
L 843.79985 129.33243 
L 844.46945 111.091358 
L 845.13905 98.5506 
L 845.80865 89.53414 
L 846.47825 83.120505 
L 847.03625 79.452057 
L 847.59425 77.198426 
L 847.92905 76.523375 
L 848.15225 76.365145 
L 848.37545 76.451189 
L 848.59865 76.795158 
L 848.93345 77.836999 
L 849.26825 79.593895 
L 849.71465 83.306396 
L 850.16105 89.15798 
L 850.60745 98.384305 
L 851.05385 113.135736 
L 851.38865 121.809069 
L 851.50025 119.835484 
L 852.50465 87.1922 
L 853.06265 77.906082 
L 853.62065 71.976168 
L 854.17865 68.339008 
L 854.62505 66.761773 
L 854.95985 66.285535 
L 855.18305 66.296585 
L 855.40625 66.572472 
L 855.74105 67.497854 
L 856.18745 69.752089 
L 856.63385 73.307048 
L 857.19185 79.765616 
L 857.97305 89.411581 
L 858.08465 89.819353 
L 858.19625 89.728296 
L 858.41945 88.088673 
L 858.86585 81.417558 
L 859.64705 69.842799 
L 860.31665 63.18623 
L 860.87465 59.673103 
L 861.32105 57.997914 
L 861.65585 57.352079 
L 861.87905 57.204288 
L 862.10225 57.282614 
L 862.32545 57.59047 
L 862.66025 58.498444 
L 863.10665 60.609062 
L 863.55305 63.905754 
L 863.99945 68.679425 
L 864.55745 77.490708 
L 865.22705 93.16522 
L 865.56185 98.089066 
L 865.67345 97.552211 
L 865.89665 93.600678 
L 866.78945 74.718513 
L 867.34745 67.874489 
L 867.90545 63.861205 
L 868.35185 62.257164 
L 868.57505 61.939122 
L 868.79825 61.936832 
L 869.02145 62.254635 
L 869.35625 63.361391 
L 869.69105 65.303698 
L 870.13745 69.482812 
L 870.58385 76.223129 
L 871.03025 87.53327 
L 871.36505 102.961231 
L 871.58825 122.746741 
L 871.69985 136.506083 
L 871.81145 132.137588 
L 872.14625 99.773507 
L 872.59265 81.135443 
L 873.15065 68.776225 
L 873.70865 61.402163 
L 874.26665 56.859004 
L 874.71305 54.690908 
L 875.15945 53.593922 
L 875.38265 53.407087 
L 875.60585 53.445927 
L 875.82905 53.700343 
L 876.16385 54.462579 
L 876.61025 56.110634 
L 878.06105 62.465439 
L 878.28425 62.624828 
L 878.50745 62.372765 
L 878.84225 61.31047 
L 879.51185 57.905138 
L 880.18145 54.796327 
L 880.62785 53.558126 
L 880.96265 53.195962 
L 881.18585 53.250145 
L 881.40905 53.555058 
L 881.74385 54.510072 
L 882.19025 56.78267 
L 882.63665 60.276695 
L 883.86425 71.605778 
L 883.97585 71.618842 
L 884.19905 70.566615 
L 884.53385 66.938666 
L 885.76145 51.885336 
L 886.31945 47.748786 
L 886.76585 45.70132 
L 887.10065 44.855243 
L 887.32385 44.611707 
L 887.54705 44.624919 
L 887.77025 44.899253 
L 888.10505 45.820325 
L 888.43985 47.399922 
L 888.88625 50.686431 
L 889.33265 55.675537 
L 889.77905 63.133032 
L 890.22545 74.916701 
L 890.56025 89.87242 
L 890.89505 115.096455 
L 891.00665 114.722695 
L 891.45305 84.55234 
L 891.89945 70.005386 
L 892.34585 61.8009 
L 892.79225 56.805996 
L 893.23865 53.911057 
L 893.57345 52.814269 
L 893.79665 52.532018 
L 894.01985 52.586348 
L 894.24305 52.965005 
L 894.57785 54.122317 
L 895.02425 56.711353 
L 896.36345 66.148035 
L 896.47505 66.136571 
L 896.69825 65.38159 
L 897.03305 62.778351 
L 898.48385 49.474169 
L 898.93025 47.272367 
L 899.37665 46.109674 
L 899.59985 45.911719 
L 899.82305 45.969511 
L 900.04625 46.286432 
L 900.38105 47.26316 
L 900.82745 49.568354 
L 901.27385 53.181305 
L 901.72025 58.410337 
L 902.27825 68.090225 
L 902.83625 82.813298 
L 903.28265 93.40947 
L 903.39425 93.201736 
L 903.61745 89.107241 
L 904.28705 73.997981 
L 904.73345 68.078196 
L 905.17985 64.814297 
L 905.51465 63.76487 
L 905.73785 63.667915 
L 905.96105 64.043335 
L 906.29585 65.521802 
L 906.63065 68.217674 
L 907.07705 74.22108 
L 907.52345 84.527931 
L 907.85825 97.777398 
L 908.30465 119.300743 
L 909.08585 81.137771 
L 909.53225 71.196105 
L 910.09025 63.878799 
L 910.53665 60.546254 
L 910.87145 59.158405 
L 911.20625 58.602456 
L 911.42945 58.666918 
L 911.65265 59.071289 
L 911.98745 60.314879 
L 912.43385 63.184701 
L 912.99185 68.704867 
L 913.88465 78.238651 
L 914.10785 78.630644 
L 914.33105 77.638952 
L 914.77745 73.070184 
L 915.55865 64.890802 
L 916.00505 61.991296 
L 916.33985 60.768377 
L 916.56305 60.404377 
L 916.78625 60.405484 
L 917.00945 60.782551 
L 917.34425 62.099611 
L 917.67905 64.432157 
L 918.12545 69.540146 
L 918.57185 78.091453 
L 918.90665 88.750658 
L 919.24145 109.060716 
L 919.46465 143.812952 
L 919.57625 137.255131 
L 919.91105 97.958287 
L 920.35745 79.168797 
L 920.80385 69.109768 
L 921.36185 61.661051 
L 921.80825 58.160123 
L 922.25465 56.25704 
L 922.58945 55.728199 
L 922.81265 55.77444 
L 923.03585 56.132317 
L 923.37065 57.253827 
L 923.81705 59.872222 
L 924.26345 63.849564 
L 924.93305 72.336772 
L 925.60265 80.775297 
L 925.82585 81.716854 
L 925.93745 81.626055 
L 926.16065 80.472188 
L 926.83025 74.03507 
L 927.38825 70.049172 
L 927.72305 68.923795 
L 927.94625 68.740281 
L 928.16945 69.032211 
L 928.39265 69.831503 
L 928.72745 72.101321 
L 929.06225 75.947856 
L 929.39705 82.001425 
L 929.73185 91.643031 
L 930.06665 107.797597 
L 930.28985 117.725621 
L 930.40145 114.538085 
L 930.95945 85.053008 
L 931.40585 72.291387 
L 931.96385 62.529926 
L 932.52185 56.536625 
L 932.96825 53.584997 
L 933.41465 51.952851 
L 933.74945 51.510688 
L 933.97265 51.574601 
L 934.19585 51.925217 
L 934.53065 53.001878 
L 934.97705 55.537441 
L 935.42345 59.517153 
L 935.86985 65.310275 
L 936.31625 73.582506 
L 936.87425 88.740762 
L 937.20905 97.619991 
L 937.32065 98.504779 
L 937.43225 97.781295 
L 937.76705 90.199383 
L 938.32505 78.274024 
L 938.77145 72.673216 
L 939.21785 69.639636 
L 939.55265 68.658197 
L 939.77585 68.514102 
L 939.99905 68.717496 
L 940.33385 69.532698 
L 941.11505 71.75154 
L 941.22665 71.775175 
L 941.44985 71.370335 
L 941.67305 70.313561 
L 942.11945 66.610136 
L 943.45865 54.142735 
L 944.01665 51.081869 
L 944.46305 49.758872 
L 944.79785 49.433673 
L 945.02105 49.54291 
L 945.24425 49.922658 
L 945.57905 51.028519 
L 946.02545 53.615089 
L 946.47185 57.736235 
L 946.91825 63.936417 
L 947.36465 73.420748 
L 947.69945 84.546391 
L 948.03425 103.907868 
L 948.25745 124.896413 
L 948.36905 123.060342 
L 948.81545 89.920187 
L 949.26185 75.674364 
L 949.70825 67.904026 
L 950.15465 63.425902 
L 950.60105 61.141751 
L 950.93585 60.572667 
L 951.15905 60.676565 
L 951.38225 61.142424 
L 951.71705 62.478567 
L 952.16345 65.294943 
L 953.05625 71.412961 
L 953.27945 71.751057 
L 953.39105 71.58527 
L 953.61425 70.603212 
L 954.06065 66.857884 
L 954.95345 58.852123 
L 955.51145 55.834692 
L 955.84625 54.929344 
L 956.06945 54.710417 
L 956.29265 54.804155 
L 956.51585 55.217202 
L 956.85065 56.455825 
L 957.29705 59.318567 
L 957.85505 64.817651 
L 958.52465 71.816368 
L 958.74785 72.546551 
L 958.85945 72.339332 
L 959.08265 70.814784 
L 959.52905 65.129836 
L 960.31025 55.243224 
L 960.86825 50.589776 
L 961.31465 48.33945 
L 961.64945 47.456978 
L 961.87265 47.242091 
L 962.09585 47.325844 
L 962.31905 47.712848 
L 962.65385 48.883034 
L 963.10025 51.628656 
L 963.54665 55.894323 
L 964.10465 63.502276 
L 964.66265 71.365618 
L 964.88585 72.427378 
L 964.99745 72.139266 
L 965.22065 70.083344 
L 966.78305 49.717799 
L 967.22945 47.02247 
L 967.56425 45.87302 
L 967.89905 45.422831 
L 968.12225 45.501696 
L 968.34545 45.883715 
L 968.68025 47.036883 
L 969.12665 49.713878 
L 969.57305 53.798331 
L 970.24265 62.43804 
L 970.80065 68.780153 
L 970.91225 69.18101 
L 971.02385 69.141982 
L 971.24705 67.820576 
L 971.69345 62.340628 
L 972.47465 53.143219 
L 973.03265 49.250243 
L 973.36745 47.989795 
L 973.70225 47.501384 
L 973.92545 47.603711 
L 974.14865 48.057264 
L 974.48345 49.435245 
L 974.81825 51.745278 
L 975.26465 56.605892 
L 975.71105 64.29874 
L 976.15745 76.450744 
L 976.60385 90.341745 
L 976.71545 90.228007 
L 976.93865 83.892242 
L 977.49665 65.617213 
L 978.05465 54.6055 
L 978.61265 47.974625 
L 979.17065 44.127751 
L 979.61705 42.578598 
L 979.95185 42.194144 
L 980.17505 42.288865 
L 980.39825 42.660239 
L 980.73305 43.739416 
L 981.17945 46.187382 
L 981.73745 50.996751 
L 982.40705 59.424458 
L 983.07665 68.092462 
L 983.29985 69.215948 
L 983.41145 69.191412 
L 983.63465 68.053427 
L 984.08105 63.326848 
L 984.86225 55.357252 
L 985.42025 52.009654 
L 985.86665 50.70151 
L 986.08985 50.455542 
L 986.31305 50.457254 
L 986.53625 50.686718 
L 986.87105 51.40554 
L 987.42905 53.311483 
L 988.09865 55.624495 
L 988.43345 56.142654 
L 988.65665 56.090703 
L 988.87985 55.703668 
L 989.21465 54.584935 
L 991.00025 47.310033 
L 991.33505 46.883309 
L 991.55825 46.839355 
L 991.78145 46.993825 
L 992.11625 47.606146 
L 992.56265 49.150066 
L 993.00905 51.54183 
L 993.56705 55.703752 
L 995.24105 69.924937 
L 995.46425 70.496096 
L 995.68745 70.596635 
L 995.91065 70.360588 
L 996.69185 69.12669 
L 996.91505 69.142231 
L 997.13825 69.457975 
L 997.47305 70.599258 
L 997.80785 72.669918 
L 998.25425 77.105718 
L 999.25865 89.663893 
L 999.37025 89.460431 
L 999.59345 87.11761 
L 1001.26745 60.46638 
L 1001.82545 56.262125 
L 1002.27185 54.288939 
L 1002.60665 53.533108 
L 1002.82985 53.357103 
L 1003.05305 53.438694 
L 1003.27625 53.777611 
L 1003.61105 54.776053 
L 1004.05745 57.065735 
L 1004.50385 60.55964 
L 1005.06185 66.915648 
L 1005.61985 75.910523 
L 1006.51265 90.931694 
L 1006.62425 91.236065 
L 1006.73585 90.937294 
L 1006.95905 88.949639 
L 1007.96345 77.317952 
L 1008.40985 74.867506 
L 1008.74465 74.193273 
L 1008.96785 74.257705 
L 1009.19105 74.714051 
L 1009.52585 76.099483 
L 1009.97225 79.116916 
L 1010.86505 85.897573 
L 1011.08825 86.240564 
L 1011.19985 86.022472 
L 1011.42305 84.845649 
L 1011.86945 80.59086 
L 1012.76225 71.950635 
L 1013.32025 68.697257 
L 1013.76665 67.416387 
L 1013.98985 67.198721 
L 1014.21305 67.252624 
L 1014.43625 67.569232 
L 1014.77105 68.510229 
L 1015.21745 70.520424 
L 1016.22185 75.668371 
L 1016.44505 76.055223 
L 1016.55665 76.040724 
L 1016.77985 75.575849 
L 1017.11465 73.926821 
L 1018.90025 62.773086 
L 1019.23505 61.949603 
L 1019.56985 61.668598 
L 1019.79305 61.791495 
L 1020.01625 62.170776 
L 1020.35105 63.242831 
L 1020.79745 65.693628 
L 1021.24385 69.497975 
L 1021.69025 75.008674 
L 1022.13665 82.874384 
L 1022.58305 94.24598 
L 1023.14105 111.244163 
L 1023.25265 111.898231 
L 1023.36425 110.617451 
L 1024.59185 83.818315 
L 1025.03825 79.736036 
L 1025.48465 77.597972 
L 1025.81945 76.992851 
L 1026.04265 76.991005 
L 1026.26585 77.271629 
L 1026.60065 78.147661 
L 1027.15865 80.460896 
L 1027.93985 83.755655 
L 1028.27465 84.468462 
L 1028.49785 84.615216 
L 1028.72105 84.539203 
L 1029.72545 83.747401 
L 1029.94865 84.00461 
L 1030.17185 84.584304 
L 1030.50665 86.211123 
L 1030.84145 88.983397 
L 1031.28785 95.029909 
L 1032.06905 108.638917 
L 1032.18065 108.084367 
L 1032.40385 103.517145 
L 1033.40825 77.527416 
L 1034.07785 67.114684 
L 1034.74745 60.307567 
L 1035.30545 56.597141 
L 1035.86345 54.318251 
L 1036.30985 53.396925 
L 1036.64465 53.189511 
L 1036.86785 53.270137 
L 1037.20265 53.706316 
L 1037.64905 54.848233 
L 1038.20705 57.097558 
L 1038.98825 61.419752 
L 1040.21585 68.294886 
L 1040.77385 70.223295 
L 1042.11305 74.025559 
L 1042.55945 76.695565 
L 1043.00585 81.027228 
L 1043.45225 88.023009 
L 1043.89865 99.79977 
L 1044.45665 119.890236 
L 1044.56825 117.485811 
L 1045.34945 85.873204 
L 1045.90745 73.772078 
L 1046.46545 65.961042 
L 1047.02345 60.732171 
L 1047.58145 57.353246 
L 1048.02785 55.738923 
L 1048.36265 55.100503 
L 1048.58585 54.936799 
L 1048.80905 54.98089 
L 1049.03225 55.234627 
L 1049.36705 56.020233 
L 1049.81345 57.879796 
L 1050.25985 60.807932 
L 1050.70625 65.083988 
L 1051.15265 71.250735 
L 1051.59905 80.489127 
L 1051.93385 91.149239 
L 1052.26865 108.190467 
L 1052.49185 118.941381 
L 1052.60345 116.0489 
L 1053.16145 86.985977 
L 1053.60785 74.415599 
L 1054.16585 64.543388 
L 1054.72385 58.011915 
L 1055.39345 52.835253 
L 1055.95145 50.114757 
L 1056.39785 48.796231 
L 1056.73265 48.265707 
L 1057.06745 48.115709 
L 1057.29065 48.226873 
L 1057.62545 48.716961 
L 1057.96025 49.611915 
L 1058.40665 51.490458 
L 1058.85305 54.266882 
L 1059.41105 59.329398 
L 1059.96905 66.927933 
L 1060.41545 76.040671 
L 1060.86185 90.453166 
L 1061.41985 113.249645 
L 1061.75465 97.25438 
L 1062.20105 80.69723 
L 1062.75905 68.945085 
L 1063.31705 61.785502 
L 1063.87505 57.180062 
L 1064.43305 54.277653 
L 1064.87945 52.884331 
L 1065.32585 52.168607 
L 1065.66065 52.020685 
L 1065.99545 52.17375 
L 1066.33025 52.605158 
L 1066.77665 53.582416 
L 1067.33465 55.404657 
L 1068.00425 58.414069 
L 1068.78545 63.000813 
L 1069.78985 70.461401 
L 1071.24065 81.595558 
L 1071.68705 83.292434 
L 1071.91025 83.580994 
L 1072.13345 83.518058 
L 1072.46825 82.905841 
L 1073.13785 80.826311 
L 1073.80745 79.028161 
L 1074.25385 78.431704 
L 1074.58865 78.372451 
L 1074.92345 78.654749 
L 1075.25825 79.263883 
L 1075.81625 80.882938 
L 1076.93225 84.417825 
L 1077.26705 84.736837 
L 1077.49025 84.608183 
L 1077.82505 83.912688 
L 1078.27145 82.280402 
L 1079.61065 76.877692 
L 1080.05705 75.845492 
L 1080.39185 75.429025 
L 1080.72665 75.321178 
L 1081.06145 75.511587 
L 1081.39625 75.981337 
L 1081.84265 76.995843 
L 1082.51225 79.18246 
L 1083.51665 83.380767 
L 1084.63265 88.912535 
L 1085.63705 93.904378 
L 1085.86025 94.320932 
L 1085.97185 94.30778 
L 1086.19505 93.744764 
L 1086.52985 91.499446 
L 1087.08785 85.10785 
L 1088.42705 68.990549 
L 1089.20825 62.355548 
L 1089.87785 58.370342 
L 1090.43585 56.149559 
L 1090.88225 55.050601 
L 1091.21705 54.608481 
L 1091.55185 54.488458 
L 1091.88665 54.688824 
L 1092.22145 55.210929 
L 1092.66785 56.416217 
L 1093.22585 58.774866 
L 1093.78385 62.158383 
L 1094.45345 67.789339 
L 1095.12305 75.64368 
L 1095.68105 84.741689 
L 1096.23905 97.938824 
L 1097.02025 120.988868 
L 1097.13185 119.370345 
L 1098.35945 86.116139 
L 1099.02905 76.745382 
L 1099.69865 70.330121 
L 1100.36825 65.936112 
L 1100.92625 63.567428 
L 1101.37265 62.475111 
L 1101.70745 62.129133 
L 1101.93065 62.131842 
L 1102.15385 62.329495 
L 1102.48865 63.013686 
L 1102.82345 64.205364 
L 1103.26985 66.704376 
L 1103.71625 70.48437 
L 1104.16265 75.995832 
L 1104.60905 84.089821 
L 1105.05545 96.319498 
L 1105.50185 109.94516 
L 1105.61345 109.974708 
L 1105.83665 104.090558 
L 1106.50625 83.282379 
L 1107.06425 72.954487 
L 1107.62225 66.308282 
L 1108.18025 61.98689 
L 1108.73825 59.364489 
L 1109.18465 58.279061 
L 1109.51945 58.003124 
L 1109.74265 58.067942 
L 1110.07745 58.539868 
L 1110.41225 59.47663 
L 1110.85865 61.512654 
L 1111.30505 64.599534 
L 1111.75145 69.042967 
L 1112.19785 75.456032 
L 1112.64425 85.268705 
L 1112.97905 97.308761 
L 1113.20225 110.962108 
L 1113.42545 142.798002 
L 1113.53705 181.784616 
L 1113.76025 117.156886 
L 1114.09505 94.291761 
L 1114.54145 79.195661 
L 1115.09945 67.935466 
L 1115.76905 59.260866 
L 1116.43865 53.501804 
L 1117.10825 49.702455 
L 1117.66625 47.72606 
L 1118.11265 46.838735 
L 1118.44745 46.560764 
L 1118.78225 46.612897 
L 1119.11705 47.00062 
L 1119.45185 47.736512 
L 1119.89825 49.296558 
L 1120.45625 52.29514 
L 1121.01425 56.719346 
L 1121.57225 63.093384 
L 1122.13025 72.571956 
L 1122.57665 84.451286 
L 1122.91145 99.370096 
L 1123.13465 117.931977 
L 1123.24625 136.441805 
L 1123.35785 174.220511 
L 1123.58105 116.908235 
L 1123.91585 94.090211 
L 1124.36225 79.797649 
L 1124.92025 69.753581 
L 1125.47825 63.55266 
L 1126.03625 59.510595 
L 1126.59425 56.902834 
L 1127.15225 55.349407 
L 1127.59865 54.714665 
L 1127.93345 54.545469 
L 1128.26825 54.617726 
L 1128.60305 54.920189 
L 1129.04945 55.675108 
L 1129.60745 57.19999 
L 1130.16545 59.436776 
L 1130.72345 62.522057 
L 1131.39305 67.687845 
L 1131.95105 73.726721 
L 1132.50905 82.260471 
L 1132.95545 92.089616 
L 1133.73665 114.958501 
L 1133.84825 114.522495 
L 1134.07145 108.576351 
L 1134.74105 88.838587 
L 1135.29905 78.681309 
L 1135.96865 70.599839 
L 1136.63825 65.033002 
L 1137.41945 60.475521 
L 1138.08905 57.723897 
L 1138.75865 55.825651 
L 1139.31665 54.851664 
L 1139.76305 54.48038 
L 1140.09785 54.455619 
L 1140.43265 54.665438 
L 1140.76745 55.129937 
L 1141.21385 56.189624 
L 1141.66025 57.824854 
L 1142.21825 60.8461 
L 1142.77625 65.265114 
L 1143.33425 71.671462 
L 1143.89225 81.312707 
L 1144.33865 93.423411 
L 1144.78505 113.443691 
L 1145.00825 121.135128 
L 1145.11985 118.587389 
L 1145.78945 90.301423 
L 1146.34745 77.972952 
L 1146.90545 70.327908 
L 1147.57505 64.373542 
L 1148.24465 60.531839 
L 1148.91425 58.036643 
L 1149.58385 56.405631 
L 1150.36505 55.133175 
L 1151.48105 53.808999 
L 1152.70865 52.661984 
L 1153.37825 52.309377 
L 1153.82465 52.269435 
L 1154.27105 52.43963 
L 1154.71745 52.868386 
L 1155.16385 53.607335 
L 1155.72185 55.05629 
L 1156.27985 57.219829 
L 1156.83785 60.286653 
L 1157.39585 64.533596 
L 1157.95385 70.386799 
L 1158.51185 78.457406 
L 1159.51625 94.272552 
L 1159.62785 94.128663 
L 1159.85105 91.813067 
L 1161.52505 65.494312 
L 1162.19465 59.913914 
L 1162.86425 56.293375 
L 1163.42225 54.447539 
L 1163.86865 53.621682 
L 1164.20345 53.345089 
L 1164.53825 53.342581 
L 1164.87305 53.599909 
L 1165.31945 54.326756 
L 1165.87745 55.818421 
L 1166.54705 58.407275 
L 1167.32825 62.429785 
L 1167.77465 65.156903 
L 1167.77465 65.156903 
" style="fill:none;stroke:#1f77b4;stroke-linecap:square;stroke-width:0.5;"/>
   </g>
   <g id="patch_3">
    <path d="M 51.88625 189.197344 
L 51.88625 26.117344 
" style="fill:none;stroke:#000000;stroke-linecap:square;stroke-linejoin:miter;stroke-width:0.8;"/>
   </g>
   <g id="patch_4">
    <path d="M 1167.88625 189.197344 
L 1167.88625 26.117344 
" style="fill:none;stroke:#000000;stroke-linecap:square;stroke-linejoin:miter;stroke-width:0.8;"/>
   </g>
   <g id="patch_5">
    <path d="M 51.88625 189.197344 
L 1167.88625 189.197344 
" style="fill:none;stroke:#000000;stroke-linecap:square;stroke-linejoin:miter;stroke-width:0.8;"/>
   </g>
   <g id="patch_6">
    <path d="M 51.88625 26.117344 
L 1167.88625 26.117344 
" style="fill:none;stroke:#000000;stroke-linecap:square;stroke-linejoin:miter;stroke-width:0.8;"/>
   </g>
   <g id="text_15">
    <!-- Envelope -->
    <defs>
     <path d="M 9.8125 72.90625 
L 55.90625 72.90625 
L 55.90625 64.59375 
L 19.671875 64.59375 
L 19.671875 43.015625 
L 54.390625 43.015625 
L 54.390625 34.71875 
L 19.671875 34.71875 
L 19.671875 8.296875 
L 56.78125 8.296875 
L 56.78125 0 
L 9.8125 0 
z
" id="DejaVuSans-69"/>
     <path d="M 54.890625 33.015625 
L 54.890625 0 
L 45.90625 0 
L 45.90625 32.71875 
Q 45.90625 40.484375 42.875 44.328125 
Q 39.84375 48.1875 33.796875 48.1875 
Q 26.515625 48.1875 22.3125 43.546875 
Q 18.109375 38.921875 18.109375 30.90625 
L 18.109375 0 
L 9.078125 0 
L 9.078125 54.6875 
L 18.109375 54.6875 
L 18.109375 46.1875 
Q 21.34375 51.125 25.703125 53.5625 
Q 30.078125 56 35.796875 56 
Q 45.21875 56 50.046875 50.171875 
Q 54.890625 44.34375 54.890625 33.015625 
z
" id="DejaVuSans-110"/>
     <path d="M 2.984375 54.6875 
L 12.5 54.6875 
L 29.59375 8.796875 
L 46.6875 54.6875 
L 56.203125 54.6875 
L 35.6875 0 
L 23.484375 0 
z
" id="DejaVuSans-118"/>
     <path d="M 56.203125 29.59375 
L 56.203125 25.203125 
L 14.890625 25.203125 
Q 15.484375 15.921875 20.484375 11.0625 
Q 25.484375 6.203125 34.421875 6.203125 
Q 39.59375 6.203125 44.453125 7.46875 
Q 49.3125 8.734375 54.109375 11.28125 
L 54.109375 2.78125 
Q 49.265625 0.734375 44.1875 -0.34375 
Q 39.109375 -1.421875 33.890625 -1.421875 
Q 20.796875 -1.421875 13.15625 6.1875 
Q 5.515625 13.8125 5.515625 26.8125 
Q 5.515625 40.234375 12.765625 48.109375 
Q 20.015625 56 32.328125 56 
Q 43.359375 56 49.78125 48.890625 
Q 56.203125 41.796875 56.203125 29.59375 
z
M 47.21875 32.234375 
Q 47.125 39.59375 43.09375 43.984375 
Q 39.0625 48.390625 32.421875 48.390625 
Q 24.90625 48.390625 20.390625 44.140625 
Q 15.875 39.890625 15.1875 32.171875 
z
" id="DejaVuSans-101"/>
     <path d="M 9.421875 75.984375 
L 18.40625 75.984375 
L 18.40625 0 
L 9.421875 0 
z
" id="DejaVuSans-108"/>
     <path d="M 30.609375 48.390625 
Q 23.390625 48.390625 19.1875 42.75 
Q 14.984375 37.109375 14.984375 27.296875 
Q 14.984375 17.484375 19.15625 11.84375 
Q 23.34375 6.203125 30.609375 6.203125 
Q 37.796875 6.203125 41.984375 11.859375 
Q 46.1875 17.53125 46.1875 27.296875 
Q 46.1875 37.015625 41.984375 42.703125 
Q 37.796875 48.390625 30.609375 48.390625 
z
M 30.609375 56 
Q 42.328125 56 49.015625 48.375 
Q 55.71875 40.765625 55.71875 27.296875 
Q 55.71875 13.875 49.015625 6.21875 
Q 42.328125 -1.421875 30.609375 -1.421875 
Q 18.84375 -1.421875 12.171875 6.21875 
Q 5.515625 13.875 5.515625 27.296875 
Q 5.515625 40.765625 12.171875 48.375 
Q 18.84375 56 30.609375 56 
z
" id="DejaVuSans-111"/>
     <path d="M 18.109375 8.203125 
L 18.109375 -20.796875 
L 9.078125 -20.796875 
L 9.078125 54.6875 
L 18.109375 54.6875 
L 18.109375 46.390625 
Q 20.953125 51.265625 25.265625 53.625 
Q 29.59375 56 35.59375 56 
Q 45.5625 56 51.78125 48.09375 
Q 58.015625 40.1875 58.015625 27.296875 
Q 58.015625 14.40625 51.78125 6.484375 
Q 45.5625 -1.421875 35.59375 -1.421875 
Q 29.59375 -1.421875 25.265625 0.953125 
Q 20.953125 3.328125 18.109375 8.203125 
z
M 48.6875 27.296875 
Q 48.6875 37.203125 44.609375 42.84375 
Q 40.53125 48.484375 33.40625 48.484375 
Q 26.265625 48.484375 22.1875 42.84375 
Q 18.109375 37.203125 18.109375 27.296875 
Q 18.109375 17.390625 22.1875 11.75 
Q 26.265625 6.109375 33.40625 6.109375 
Q 40.53125 6.109375 44.609375 11.75 
Q 48.6875 17.390625 48.6875 27.296875 
z
" id="DejaVuSans-112"/>
    </defs>
    <g transform="translate(570.678672 20.117344)scale(0.17 -0.17)">
     <use xlink:href="#DejaVuSans-69"/>
     <use x="63.183594" xlink:href="#DejaVuSans-110"/>
     <use x="126.5625" xlink:href="#DejaVuSans-118"/>
     <use x="185.742188" xlink:href="#DejaVuSans-101"/>
     <use x="247.265625" xlink:href="#DejaVuSans-108"/>
     <use x="275.048828" xlink:href="#DejaVuSans-111"/>
     <use x="336.230469" xlink:href="#DejaVuSans-112"/>
     <use x="399.707031" xlink:href="#DejaVuSans-101"/>
    </g>
   </g>
  </g>
 </g>
 <defs>
  <clipPath id="p1f01dc8621">
   <rect height="163.08" width="1116" x="51.88625" y="26.117344"/>
  </clipPath>
 </defs>
</svg>
