<?xml version="1.0" encoding="utf-8" standalone="no"?>
<!DOCTYPE svg PUBLIC "-//W3C//DTD SVG 1.1//EN"
  "http://www.w3.org/Graphics/SVG/1.1/DTD/svg11.dtd">
<!-- Created with matplotlib (https://matplotlib.org/) -->
<svg height="216pt" version="1.1" viewBox="0 0 1440 216" width="1440pt" xmlns="http://www.w3.org/2000/svg" xmlns:xlink="http://www.w3.org/1999/xlink">
 <defs>
  <style type="text/css">
*{stroke-linecap:butt;stroke-linejoin:round;}
  </style>
 </defs>
 <g id="figure_1">
  <g id="patch_1">
   <path d="M 0 216 
L 1440 216 
L 1440 0 
L 0 0 
z
" style="fill:#ffffff;"/>
  </g>
  <g id="axes_1">
   <g id="patch_2">
    <path d="M 180 189 
L 1296 189 
L 1296 25.92 
L 180 25.92 
z
" style="fill:#ffffff;"/>
   </g>
   <g id="matplotlib.axis_1">
    <g id="xtick_1">
     <g id="line2d_1">
      <defs>
       <path d="M 0 0 
L 0 3.5 
" id="md80afd7a10" style="stroke:#000000;stroke-width:0.8;"/>
      </defs>
      <g>
       <use style="stroke:#000000;stroke-width:0.8;" x="180" xlink:href="#md80afd7a10" y="189"/>
      </g>
     </g>
     <g id="text_1">
      <!-- 0.0 -->
      <defs>
       <path d="M 31.78125 66.40625 
Q 24.171875 66.40625 20.328125 58.90625 
Q 16.5 51.421875 16.5 36.375 
Q 16.5 21.390625 20.328125 13.890625 
Q 24.171875 6.390625 31.78125 6.390625 
Q 39.453125 6.390625 43.28125 13.890625 
Q 47.125 21.390625 47.125 36.375 
Q 47.125 51.421875 43.28125 58.90625 
Q 39.453125 66.40625 31.78125 66.40625 
z
M 31.78125 74.21875 
Q 44.046875 74.21875 50.515625 64.515625 
Q 56.984375 54.828125 56.984375 36.375 
Q 56.984375 17.96875 50.515625 8.265625 
Q 44.046875 -1.421875 31.78125 -1.421875 
Q 19.53125 -1.421875 13.0625 8.265625 
Q 6.59375 17.96875 6.59375 36.375 
Q 6.59375 54.828125 13.0625 64.515625 
Q 19.53125 74.21875 31.78125 74.21875 
z
" id="DejaVuSans-48"/>
       <path d="M 10.6875 12.40625 
L 21 12.40625 
L 21 0 
L 10.6875 0 
z
" id="DejaVuSans-46"/>
      </defs>
      <g transform="translate(172.048438 203.598437)scale(0.1 -0.1)">
       <use xlink:href="#DejaVuSans-48"/>
       <use x="63.623047" xlink:href="#DejaVuSans-46"/>
       <use x="95.410156" xlink:href="#DejaVuSans-48"/>
      </g>
     </g>
    </g>
    <g id="xtick_2">
     <g id="line2d_2">
      <g>
       <use style="stroke:#000000;stroke-width:0.8;" x="403.2" xlink:href="#md80afd7a10" y="189"/>
      </g>
     </g>
     <g id="text_2">
      <!-- 0.2 -->
      <defs>
       <path d="M 19.1875 8.296875 
L 53.609375 8.296875 
L 53.609375 0 
L 7.328125 0 
L 7.328125 8.296875 
Q 12.9375 14.109375 22.625 23.890625 
Q 32.328125 33.6875 34.8125 36.53125 
Q 39.546875 41.84375 41.421875 45.53125 
Q 43.3125 49.21875 43.3125 52.78125 
Q 43.3125 58.59375 39.234375 62.25 
Q 35.15625 65.921875 28.609375 65.921875 
Q 23.96875 65.921875 18.8125 64.3125 
Q 13.671875 62.703125 7.8125 59.421875 
L 7.8125 69.390625 
Q 13.765625 71.78125 18.9375 73 
Q 24.125 74.21875 28.421875 74.21875 
Q 39.75 74.21875 46.484375 68.546875 
Q 53.21875 62.890625 53.21875 53.421875 
Q 53.21875 48.921875 51.53125 44.890625 
Q 49.859375 40.875 45.40625 35.40625 
Q 44.1875 33.984375 37.640625 27.21875 
Q 31.109375 20.453125 19.1875 8.296875 
z
" id="DejaVuSans-50"/>
      </defs>
      <g transform="translate(395.248438 203.598437)scale(0.1 -0.1)">
       <use xlink:href="#DejaVuSans-48"/>
       <use x="63.623047" xlink:href="#DejaVuSans-46"/>
       <use x="95.410156" xlink:href="#DejaVuSans-50"/>
      </g>
     </g>
    </g>
    <g id="xtick_3">
     <g id="line2d_3">
      <g>
       <use style="stroke:#000000;stroke-width:0.8;" x="626.4" xlink:href="#md80afd7a10" y="189"/>
      </g>
     </g>
     <g id="text_3">
      <!-- 0.4 -->
      <defs>
       <path d="M 37.796875 64.3125 
L 12.890625 25.390625 
L 37.796875 25.390625 
z
M 35.203125 72.90625 
L 47.609375 72.90625 
L 47.609375 25.390625 
L 58.015625 25.390625 
L 58.015625 17.1875 
L 47.609375 17.1875 
L 47.609375 0 
L 37.796875 0 
L 37.796875 17.1875 
L 4.890625 17.1875 
L 4.890625 26.703125 
z
" id="DejaVuSans-52"/>
      </defs>
      <g transform="translate(618.448438 203.598437)scale(0.1 -0.1)">
       <use xlink:href="#DejaVuSans-48"/>
       <use x="63.623047" xlink:href="#DejaVuSans-46"/>
       <use x="95.410156" xlink:href="#DejaVuSans-52"/>
      </g>
     </g>
    </g>
    <g id="xtick_4">
     <g id="line2d_4">
      <g>
       <use style="stroke:#000000;stroke-width:0.8;" x="849.6" xlink:href="#md80afd7a10" y="189"/>
      </g>
     </g>
     <g id="text_4">
      <!-- 0.6 -->
      <defs>
       <path d="M 33.015625 40.375 
Q 26.375 40.375 22.484375 35.828125 
Q 18.609375 31.296875 18.609375 23.390625 
Q 18.609375 15.53125 22.484375 10.953125 
Q 26.375 6.390625 33.015625 6.390625 
Q 39.65625 6.390625 43.53125 10.953125 
Q 47.40625 15.53125 47.40625 23.390625 
Q 47.40625 31.296875 43.53125 35.828125 
Q 39.65625 40.375 33.015625 40.375 
z
M 52.59375 71.296875 
L 52.59375 62.3125 
Q 48.875 64.0625 45.09375 64.984375 
Q 41.3125 65.921875 37.59375 65.921875 
Q 27.828125 65.921875 22.671875 59.328125 
Q 17.53125 52.734375 16.796875 39.40625 
Q 19.671875 43.65625 24.015625 45.921875 
Q 28.375 48.1875 33.59375 48.1875 
Q 44.578125 48.1875 50.953125 41.515625 
Q 57.328125 34.859375 57.328125 23.390625 
Q 57.328125 12.15625 50.6875 5.359375 
Q 44.046875 -1.421875 33.015625 -1.421875 
Q 20.359375 -1.421875 13.671875 8.265625 
Q 6.984375 17.96875 6.984375 36.375 
Q 6.984375 53.65625 15.1875 63.9375 
Q 23.390625 74.21875 37.203125 74.21875 
Q 40.921875 74.21875 44.703125 73.484375 
Q 48.484375 72.75 52.59375 71.296875 
z
" id="DejaVuSans-54"/>
      </defs>
      <g transform="translate(841.648438 203.598437)scale(0.1 -0.1)">
       <use xlink:href="#DejaVuSans-48"/>
       <use x="63.623047" xlink:href="#DejaVuSans-46"/>
       <use x="95.410156" xlink:href="#DejaVuSans-54"/>
      </g>
     </g>
    </g>
    <g id="xtick_5">
     <g id="line2d_5">
      <g>
       <use style="stroke:#000000;stroke-width:0.8;" x="1072.8" xlink:href="#md80afd7a10" y="189"/>
      </g>
     </g>
     <g id="text_5">
      <!-- 0.8 -->
      <defs>
       <path d="M 31.78125 34.625 
Q 24.75 34.625 20.71875 30.859375 
Q 16.703125 27.09375 16.703125 20.515625 
Q 16.703125 13.921875 20.71875 10.15625 
Q 24.75 6.390625 31.78125 6.390625 
Q 38.8125 6.390625 42.859375 10.171875 
Q 46.921875 13.96875 46.921875 20.515625 
Q 46.921875 27.09375 42.890625 30.859375 
Q 38.875 34.625 31.78125 34.625 
z
M 21.921875 38.8125 
Q 15.578125 40.375 12.03125 44.71875 
Q 8.5 49.078125 8.5 55.328125 
Q 8.5 64.0625 14.71875 69.140625 
Q 20.953125 74.21875 31.78125 74.21875 
Q 42.671875 74.21875 48.875 69.140625 
Q 55.078125 64.0625 55.078125 55.328125 
Q 55.078125 49.078125 51.53125 44.71875 
Q 48 40.375 41.703125 38.8125 
Q 48.828125 37.15625 52.796875 32.3125 
Q 56.78125 27.484375 56.78125 20.515625 
Q 56.78125 9.90625 50.3125 4.234375 
Q 43.84375 -1.421875 31.78125 -1.421875 
Q 19.734375 -1.421875 13.25 4.234375 
Q 6.78125 9.90625 6.78125 20.515625 
Q 6.78125 27.484375 10.78125 32.3125 
Q 14.796875 37.15625 21.921875 38.8125 
z
M 18.3125 54.390625 
Q 18.3125 48.734375 21.84375 45.5625 
Q 25.390625 42.390625 31.78125 42.390625 
Q 38.140625 42.390625 41.71875 45.5625 
Q 45.3125 48.734375 45.3125 54.390625 
Q 45.3125 60.0625 41.71875 63.234375 
Q 38.140625 66.40625 31.78125 66.40625 
Q 25.390625 66.40625 21.84375 63.234375 
Q 18.3125 60.0625 18.3125 54.390625 
z
" id="DejaVuSans-56"/>
      </defs>
      <g transform="translate(1064.848438 203.598437)scale(0.1 -0.1)">
       <use xlink:href="#DejaVuSans-48"/>
       <use x="63.623047" xlink:href="#DejaVuSans-46"/>
       <use x="95.410156" xlink:href="#DejaVuSans-56"/>
      </g>
     </g>
    </g>
    <g id="xtick_6">
     <g id="line2d_6">
      <g>
       <use style="stroke:#000000;stroke-width:0.8;" x="1296" xlink:href="#md80afd7a10" y="189"/>
      </g>
     </g>
     <g id="text_6">
      <!-- 1.0 -->
      <defs>
       <path d="M 12.40625 8.296875 
L 28.515625 8.296875 
L 28.515625 63.921875 
L 10.984375 60.40625 
L 10.984375 69.390625 
L 28.421875 72.90625 
L 38.28125 72.90625 
L 38.28125 8.296875 
L 54.390625 8.296875 
L 54.390625 0 
L 12.40625 0 
z
" id="DejaVuSans-49"/>
      </defs>
      <g transform="translate(1288.048438 203.598437)scale(0.1 -0.1)">
       <use xlink:href="#DejaVuSans-49"/>
       <use x="63.623047" xlink:href="#DejaVuSans-46"/>
       <use x="95.410156" xlink:href="#DejaVuSans-48"/>
      </g>
     </g>
    </g>
    <g id="text_7">
     <!-- time -->
     <defs>
      <path d="M 18.3125 70.21875 
L 18.3125 54.6875 
L 36.8125 54.6875 
L 36.8125 47.703125 
L 18.3125 47.703125 
L 18.3125 18.015625 
Q 18.3125 11.328125 20.140625 9.421875 
Q 21.96875 7.515625 27.59375 7.515625 
L 36.8125 7.515625 
L 36.8125 0 
L 27.59375 0 
Q 17.1875 0 13.234375 3.875 
Q 9.28125 7.765625 9.28125 18.015625 
L 9.28125 47.703125 
L 2.6875 47.703125 
L 2.6875 54.6875 
L 9.28125 54.6875 
L 9.28125 70.21875 
z
" id="DejaVuSans-116"/>
      <path d="M 9.421875 54.6875 
L 18.40625 54.6875 
L 18.40625 0 
L 9.421875 0 
z
M 9.421875 75.984375 
L 18.40625 75.984375 
L 18.40625 64.59375 
L 9.421875 64.59375 
z
" id="DejaVuSans-105"/>
      <path d="M 52 44.1875 
Q 55.375 50.25 60.0625 53.125 
Q 64.75 56 71.09375 56 
Q 79.640625 56 84.28125 50.015625 
Q 88.921875 44.046875 88.921875 33.015625 
L 88.921875 0 
L 79.890625 0 
L 79.890625 32.71875 
Q 79.890625 40.578125 77.09375 44.375 
Q 74.3125 48.1875 68.609375 48.1875 
Q 61.625 48.1875 57.5625 43.546875 
Q 53.515625 38.921875 53.515625 30.90625 
L 53.515625 0 
L 44.484375 0 
L 44.484375 32.71875 
Q 44.484375 40.625 41.703125 44.40625 
Q 38.921875 48.1875 33.109375 48.1875 
Q 26.21875 48.1875 22.15625 43.53125 
Q 18.109375 38.875 18.109375 30.90625 
L 18.109375 0 
L 9.078125 0 
L 9.078125 54.6875 
L 18.109375 54.6875 
L 18.109375 46.1875 
Q 21.1875 51.21875 25.484375 53.609375 
Q 29.78125 56 35.6875 56 
Q 41.65625 56 45.828125 52.96875 
Q 50 49.953125 52 44.1875 
z
" id="DejaVuSans-109"/>
      <path d="M 56.203125 29.59375 
L 56.203125 25.203125 
L 14.890625 25.203125 
Q 15.484375 15.921875 20.484375 11.0625 
Q 25.484375 6.203125 34.421875 6.203125 
Q 39.59375 6.203125 44.453125 7.46875 
Q 49.3125 8.734375 54.109375 11.28125 
L 54.109375 2.78125 
Q 49.265625 0.734375 44.1875 -0.34375 
Q 39.109375 -1.421875 33.890625 -1.421875 
Q 20.796875 -1.421875 13.15625 6.1875 
Q 5.515625 13.8125 5.515625 26.8125 
Q 5.515625 40.234375 12.765625 48.109375 
Q 20.015625 56 32.328125 56 
Q 43.359375 56 49.78125 48.890625 
Q 56.203125 41.796875 56.203125 29.59375 
z
M 47.21875 32.234375 
Q 47.125 39.59375 43.09375 43.984375 
Q 39.0625 48.390625 32.421875 48.390625 
Q 24.90625 48.390625 20.390625 44.140625 
Q 15.875 39.890625 15.1875 32.171875 
z
" id="DejaVuSans-101"/>
     </defs>
     <g transform="translate(721.055859 221.075781)scale(0.15 -0.15)">
      <use xlink:href="#DejaVuSans-116"/>
      <use x="39.208984" xlink:href="#DejaVuSans-105"/>
      <use x="66.992188" xlink:href="#DejaVuSans-109"/>
      <use x="164.404297" xlink:href="#DejaVuSans-101"/>
     </g>
    </g>
   </g>
   <g id="matplotlib.axis_2">
    <g id="ytick_1">
     <g id="line2d_7">
      <path clip-path="url(#p5e962d65b4)" d="M 180 181.802774 
L 1296 181.802774 
" style="fill:none;stroke:#b0b0b0;stroke-linecap:square;stroke-width:0.8;"/>
     </g>
     <g id="line2d_8">
      <defs>
       <path d="M 0 0 
L -3.5 0 
" id="ma62c734e8c" style="stroke:#000000;stroke-width:0.8;"/>
      </defs>
      <g>
       <use style="stroke:#000000;stroke-width:0.8;" x="180" xlink:href="#ma62c734e8c" y="181.802774"/>
      </g>
     </g>
     <g id="text_8">
      <!-- 0.0 -->
      <g transform="translate(157.096875 185.601993)scale(0.1 -0.1)">
       <use xlink:href="#DejaVuSans-48"/>
       <use x="63.623047" xlink:href="#DejaVuSans-46"/>
       <use x="95.410156" xlink:href="#DejaVuSans-48"/>
      </g>
     </g>
    </g>
    <g id="ytick_2">
     <g id="line2d_9">
      <path clip-path="url(#p5e962d65b4)" d="M 180 151.756895 
L 1296 151.756895 
" style="fill:none;stroke:#b0b0b0;stroke-linecap:square;stroke-width:0.8;"/>
     </g>
     <g id="line2d_10">
      <g>
       <use style="stroke:#000000;stroke-width:0.8;" x="180" xlink:href="#ma62c734e8c" y="151.756895"/>
      </g>
     </g>
     <g id="text_9">
      <!-- 0.5 -->
      <defs>
       <path d="M 10.796875 72.90625 
L 49.515625 72.90625 
L 49.515625 64.59375 
L 19.828125 64.59375 
L 19.828125 46.734375 
Q 21.96875 47.46875 24.109375 47.828125 
Q 26.265625 48.1875 28.421875 48.1875 
Q 40.625 48.1875 47.75 41.5 
Q 54.890625 34.8125 54.890625 23.390625 
Q 54.890625 11.625 47.5625 5.09375 
Q 40.234375 -1.421875 26.90625 -1.421875 
Q 22.3125 -1.421875 17.546875 -0.640625 
Q 12.796875 0.140625 7.71875 1.703125 
L 7.71875 11.625 
Q 12.109375 9.234375 16.796875 8.0625 
Q 21.484375 6.890625 26.703125 6.890625 
Q 35.15625 6.890625 40.078125 11.328125 
Q 45.015625 15.765625 45.015625 23.390625 
Q 45.015625 31 40.078125 35.4375 
Q 35.15625 39.890625 26.703125 39.890625 
Q 22.75 39.890625 18.8125 39.015625 
Q 14.890625 38.140625 10.796875 36.28125 
z
" id="DejaVuSans-53"/>
      </defs>
      <g transform="translate(157.096875 155.556114)scale(0.1 -0.1)">
       <use xlink:href="#DejaVuSans-48"/>
       <use x="63.623047" xlink:href="#DejaVuSans-46"/>
       <use x="95.410156" xlink:href="#DejaVuSans-53"/>
      </g>
     </g>
    </g>
    <g id="ytick_3">
     <g id="line2d_11">
      <path clip-path="url(#p5e962d65b4)" d="M 180 121.711016 
L 1296 121.711016 
" style="fill:none;stroke:#b0b0b0;stroke-linecap:square;stroke-width:0.8;"/>
     </g>
     <g id="line2d_12">
      <g>
       <use style="stroke:#000000;stroke-width:0.8;" x="180" xlink:href="#ma62c734e8c" y="121.711016"/>
      </g>
     </g>
     <g id="text_10">
      <!-- 1.0 -->
      <g transform="translate(157.096875 125.510234)scale(0.1 -0.1)">
       <use xlink:href="#DejaVuSans-49"/>
       <use x="63.623047" xlink:href="#DejaVuSans-46"/>
       <use x="95.410156" xlink:href="#DejaVuSans-48"/>
      </g>
     </g>
    </g>
    <g id="ytick_4">
     <g id="line2d_13">
      <path clip-path="url(#p5e962d65b4)" d="M 180 91.665136 
L 1296 91.665136 
" style="fill:none;stroke:#b0b0b0;stroke-linecap:square;stroke-width:0.8;"/>
     </g>
     <g id="line2d_14">
      <g>
       <use style="stroke:#000000;stroke-width:0.8;" x="180" xlink:href="#ma62c734e8c" y="91.665136"/>
      </g>
     </g>
     <g id="text_11">
      <!-- 1.5 -->
      <g transform="translate(157.096875 95.464355)scale(0.1 -0.1)">
       <use xlink:href="#DejaVuSans-49"/>
       <use x="63.623047" xlink:href="#DejaVuSans-46"/>
       <use x="95.410156" xlink:href="#DejaVuSans-53"/>
      </g>
     </g>
    </g>
    <g id="ytick_5">
     <g id="line2d_15">
      <path clip-path="url(#p5e962d65b4)" d="M 180 61.619257 
L 1296 61.619257 
" style="fill:none;stroke:#b0b0b0;stroke-linecap:square;stroke-width:0.8;"/>
     </g>
     <g id="line2d_16">
      <g>
       <use style="stroke:#000000;stroke-width:0.8;" x="180" xlink:href="#ma62c734e8c" y="61.619257"/>
      </g>
     </g>
     <g id="text_12">
      <!-- 2.0 -->
      <g transform="translate(157.096875 65.418475)scale(0.1 -0.1)">
       <use xlink:href="#DejaVuSans-50"/>
       <use x="63.623047" xlink:href="#DejaVuSans-46"/>
       <use x="95.410156" xlink:href="#DejaVuSans-48"/>
      </g>
     </g>
    </g>
    <g id="ytick_6">
     <g id="line2d_17">
      <path clip-path="url(#p5e962d65b4)" d="M 180 31.573377 
L 1296 31.573377 
" style="fill:none;stroke:#b0b0b0;stroke-linecap:square;stroke-width:0.8;"/>
     </g>
     <g id="line2d_18">
      <g>
       <use style="stroke:#000000;stroke-width:0.8;" x="180" xlink:href="#ma62c734e8c" y="31.573377"/>
      </g>
     </g>
     <g id="text_13">
      <!-- 2.5 -->
      <g transform="translate(157.096875 35.372596)scale(0.1 -0.1)">
       <use xlink:href="#DejaVuSans-50"/>
       <use x="63.623047" xlink:href="#DejaVuSans-46"/>
       <use x="95.410156" xlink:href="#DejaVuSans-53"/>
      </g>
     </g>
    </g>
    <g id="text_14">
     <!-- Amplitude -->
     <defs>
      <path d="M 34.1875 63.1875 
L 20.796875 26.90625 
L 47.609375 26.90625 
z
M 28.609375 72.90625 
L 39.796875 72.90625 
L 67.578125 0 
L 57.328125 0 
L 50.6875 18.703125 
L 17.828125 18.703125 
L 11.1875 0 
L 0.78125 0 
z
" id="DejaVuSans-65"/>
      <path d="M 18.109375 8.203125 
L 18.109375 -20.796875 
L 9.078125 -20.796875 
L 9.078125 54.6875 
L 18.109375 54.6875 
L 18.109375 46.390625 
Q 20.953125 51.265625 25.265625 53.625 
Q 29.59375 56 35.59375 56 
Q 45.5625 56 51.78125 48.09375 
Q 58.015625 40.1875 58.015625 27.296875 
Q 58.015625 14.40625 51.78125 6.484375 
Q 45.5625 -1.421875 35.59375 -1.421875 
Q 29.59375 -1.421875 25.265625 0.953125 
Q 20.953125 3.328125 18.109375 8.203125 
z
M 48.6875 27.296875 
Q 48.6875 37.203125 44.609375 42.84375 
Q 40.53125 48.484375 33.40625 48.484375 
Q 26.265625 48.484375 22.1875 42.84375 
Q 18.109375 37.203125 18.109375 27.296875 
Q 18.109375 17.390625 22.1875 11.75 
Q 26.265625 6.109375 33.40625 6.109375 
Q 40.53125 6.109375 44.609375 11.75 
Q 48.6875 17.390625 48.6875 27.296875 
z
" id="DejaVuSans-112"/>
      <path d="M 9.421875 75.984375 
L 18.40625 75.984375 
L 18.40625 0 
L 9.421875 0 
z
" id="DejaVuSans-108"/>
      <path d="M 8.5 21.578125 
L 8.5 54.6875 
L 17.484375 54.6875 
L 17.484375 21.921875 
Q 17.484375 14.15625 20.5 10.265625 
Q 23.53125 6.390625 29.59375 6.390625 
Q 36.859375 6.390625 41.078125 11.03125 
Q 45.3125 15.671875 45.3125 23.6875 
L 45.3125 54.6875 
L 54.296875 54.6875 
L 54.296875 0 
L 45.3125 0 
L 45.3125 8.40625 
Q 42.046875 3.421875 37.71875 1 
Q 33.40625 -1.421875 27.6875 -1.421875 
Q 18.265625 -1.421875 13.375 4.4375 
Q 8.5 10.296875 8.5 21.578125 
z
M 31.109375 56 
z
" id="DejaVuSans-117"/>
      <path d="M 45.40625 46.390625 
L 45.40625 75.984375 
L 54.390625 75.984375 
L 54.390625 0 
L 45.40625 0 
L 45.40625 8.203125 
Q 42.578125 3.328125 38.25 0.953125 
Q 33.9375 -1.421875 27.875 -1.421875 
Q 17.96875 -1.421875 11.734375 6.484375 
Q 5.515625 14.40625 5.515625 27.296875 
Q 5.515625 40.1875 11.734375 48.09375 
Q 17.96875 56 27.875 56 
Q 33.9375 56 38.25 53.625 
Q 42.578125 51.265625 45.40625 46.390625 
z
M 14.796875 27.296875 
Q 14.796875 17.390625 18.875 11.75 
Q 22.953125 6.109375 30.078125 6.109375 
Q 37.203125 6.109375 41.296875 11.75 
Q 45.40625 17.390625 45.40625 27.296875 
Q 45.40625 37.203125 41.296875 42.84375 
Q 37.203125 48.484375 30.078125 48.484375 
Q 22.953125 48.484375 18.875 42.84375 
Q 14.796875 37.203125 14.796875 27.296875 
z
" id="DejaVuSans-100"/>
     </defs>
     <g transform="translate(149.977344 145.893984)rotate(-90)scale(0.15 -0.15)">
      <use xlink:href="#DejaVuSans-65"/>
      <use x="68.408203" xlink:href="#DejaVuSans-109"/>
      <use x="165.820312" xlink:href="#DejaVuSans-112"/>
      <use x="229.296875" xlink:href="#DejaVuSans-108"/>
      <use x="257.080078" xlink:href="#DejaVuSans-105"/>
      <use x="284.863281" xlink:href="#DejaVuSans-116"/>
      <use x="324.072266" xlink:href="#DejaVuSans-117"/>
      <use x="387.451172" xlink:href="#DejaVuSans-100"/>
      <use x="450.927734" xlink:href="#DejaVuSans-101"/>
     </g>
    </g>
   </g>
   <g id="line2d_19">
    <path clip-path="url(#p5e962d65b4)" d="M 180 172.195377 
L 180.2232 173.296276 
L 180.4464 170.612455 
L 181.116 155.638363 
L 182.232 131.957054 
L 182.9016 121.625607 
L 183.4596 115.842494 
L 183.906 113.182212 
L 184.2408 112.339697 
L 184.464 112.315936 
L 184.6872 112.70947 
L 185.022 114.047521 
L 185.4684 117.118121 
L 186.0264 122.722125 
L 186.9192 134.478916 
L 188.37 153.733579 
L 188.8164 157.402565 
L 189.1512 158.888663 
L 189.3744 159.25664 
L 189.5976 159.179551 
L 189.8208 158.739587 
L 190.2672 157.152252 
L 191.9412 150.413865 
L 193.6152 145.599621 
L 195.066 141.430681 
L 195.5124 140.684289 
L 195.8472 140.468269 
L 196.0704 140.519498 
L 196.4052 140.91988 
L 196.74 141.730196 
L 197.1864 143.455 
L 197.7444 146.569518 
L 198.6372 153.121096 
L 199.8648 162.042435 
L 200.4228 164.567685 
L 200.8692 165.594091 
L 201.204 165.884692 
L 201.5388 165.914401 
L 202.32 165.647443 
L 202.9896 165.307229 
L 203.3244 164.925713 
L 203.6592 164.230014 
L 204.1056 162.619684 
L 204.6636 159.405631 
L 205.4448 153.275023 
L 206.784 142.702644 
L 207.342 139.719683 
L 207.7884 138.289592 
L 208.1232 137.830931 
L 208.3464 137.824381 
L 208.5696 138.055362 
L 208.9044 138.834158 
L 209.3508 140.626413 
L 209.9088 143.919453 
L 210.69 150.029642 
L 211.806 160.70661 
L 213.48 177.199346 
L 213.5916 176.938765 
L 213.8148 175.064261 
L 214.3728 167.133996 
L 215.6004 145.399833 
L 217.0512 120.313198 
L 217.8324 110.542923 
L 218.3904 106.191195 
L 218.7252 104.765571 
L 218.9484 104.316325 
L 219.1716 104.257247 
L 219.3948 104.568177 
L 219.7296 105.657733 
L 220.176 108.019193 
L 221.4036 115.034964 
L 221.6268 115.496241 
L 221.7384 115.553072 
L 221.9616 115.28559 
L 222.1848 114.489434 
L 222.5196 112.328218 
L 223.0776 106.630578 
L 224.7516 87.484378 
L 225.198 85.056923 
L 225.4212 84.541604 
L 225.6444 84.517682 
L 225.8676 84.989473 
L 226.2024 86.605701 
L 226.6488 90.314129 
L 227.3184 98.351722 
L 228.4344 112.148934 
L 228.8808 114.975051 
L 229.104 115.402693 
L 229.2156 115.356025 
L 229.4388 114.756967 
L 229.7736 112.728013 
L 230.3316 107.288799 
L 231.4476 96.022459 
L 231.894 93.67335 
L 232.1172 93.229763 
L 232.2288 93.207721 
L 232.452 93.579154 
L 232.6752 94.517993 
L 233.01 97.002932 
L 233.4564 102.28871 
L 234.0144 111.820409 
L 234.7956 129.528756 
L 236.4696 169.797154 
L 236.5812 170.573848 
L 236.6928 170.559128 
L 236.916 168.446573 
L 237.474 158.330441 
L 238.3668 143.211619 
L 238.9248 136.952832 
L 239.3712 133.971198 
L 239.706 132.886976 
L 239.9292 132.677138 
L 240.1524 132.84429 
L 240.4872 133.721106 
L 240.9336 135.8196 
L 242.7192 145.683633 
L 243.054 146.223013 
L 243.2772 146.237171 
L 243.5004 146.004671 
L 243.8352 145.290456 
L 245.5092 140.926709 
L 245.844 140.779446 
L 246.0672 140.886157 
L 246.402 141.349506 
L 246.8484 142.48887 
L 247.4064 144.593226 
L 248.4108 149.479658 
L 250.308 159.979637 
L 251.424 167.575358 
L 252.0936 171.707593 
L 252.3168 172.358341 
L 252.4284 172.430952 
L 252.54 172.310681 
L 252.7632 171.488404 
L 253.098 169.041231 
L 253.7676 161.776468 
L 255.7764 138.509678 
L 256.6692 131.050003 
L 257.6736 124.75096 
L 258.9012 117.190626 
L 259.794 110.062501 
L 261.5796 95.14369 
L 262.026 92.982186 
L 262.3608 92.177092 
L 262.584 92.092478 
L 262.8072 92.403228 
L 263.142 93.662376 
L 263.4768 95.927084 
L 263.9232 100.573901 
L 264.4812 109.015005 
L 265.1508 122.809788 
L 266.0436 146.416339 
L 267.1596 179.258334 
L 267.2712 177.85491 
L 269.838 107.442974 
L 270.5076 96.738288 
L 271.0656 91.298413 
L 271.4004 89.608919 
L 271.6236 89.137895 
L 271.7352 89.096748 
L 271.9584 89.397002 
L 272.1816 90.196285 
L 272.5164 92.293868 
L 272.9628 96.654169 
L 273.5208 104.310019 
L 274.302 118.186687 
L 276.3108 156.363349 
L 276.6456 159.565264 
L 276.8688 160.414496 
L 276.9804 160.427489 
L 277.2036 159.69432 
L 277.5384 157.124207 
L 278.3196 148.289423 
L 279.2124 138.904426 
L 279.882 134.013805 
L 280.44 131.584298 
L 280.7748 130.839429 
L 281.1096 130.605401 
L 281.3328 130.71935 
L 281.6676 131.270733 
L 282.114 132.658787 
L 282.672 135.311513 
L 283.4532 140.398142 
L 284.5692 149.48808 
L 286.578 166.093272 
L 287.136 168.963821 
L 287.4708 169.825745 
L 287.694 169.98619 
L 287.9172 169.828414 
L 288.252 169.090987 
L 288.81 167.006064 
L 291.1536 157.207485 
L 292.158 154.218258 
L 293.0508 152.219032 
L 293.832 150.961866 
L 294.6132 150.109214 
L 296.7336 148.174835 
L 297.6264 146.787381 
L 298.5192 145.465194 
L 298.9656 145.151593 
L 299.3004 145.196971 
L 299.6352 145.554701 
L 299.97 146.282592 
L 300.4164 147.909925 
L 300.9744 151.098739 
L 301.644 156.632427 
L 303.318 172.43888 
L 303.4296 172.454943 
L 303.6528 171.517637 
L 303.9876 168.305268 
L 304.992 154.758697 
L 305.8848 143.90482 
L 306.5544 138.225943 
L 307.0008 135.939796 
L 307.3356 135.062487 
L 307.5588 134.872044 
L 307.782 134.983268 
L 308.0052 135.375209 
L 308.34 136.420908 
L 309.0096 139.55382 
L 309.6792 142.397887 
L 310.014 142.913616 
L 310.1256 142.87574 
L 310.3488 142.440616 
L 310.6836 140.852919 
L 311.13 137.130996 
L 311.9112 127.882027 
L 312.9156 116.110835 
L 313.4736 111.793018 
L 313.8084 110.384965 
L 314.0316 110.008821 
L 314.1432 109.998709 
L 314.3664 110.345676 
L 314.5896 111.192546 
L 314.9244 113.413172 
L 315.3708 118.133148 
L 315.9288 126.706147 
L 316.71 142.922746 
L 318.1608 178.026394 
L 318.2724 177.962064 
L 318.6072 171.108202 
L 319.6116 149.392639 
L 320.2812 139.307509 
L 320.7276 135.183824 
L 321.0624 133.557499 
L 321.2856 133.173632 
L 321.3972 133.187321 
L 321.6204 133.610959 
L 321.9552 135.165763 
L 322.4016 138.641169 
L 323.5176 148.282457 
L 323.7408 148.796512 
L 323.8524 148.701861 
L 324.0756 147.752715 
L 324.4104 144.507312 
L 324.9684 135.579055 
L 326.6424 106.25401 
L 327.2004 100.715649 
L 327.5352 98.904562 
L 327.7584 98.335754 
L 327.9816 98.26175 
L 328.2048 98.655276 
L 328.5396 100.033077 
L 328.986 103.042203 
L 330.66 115.704223 
L 330.9948 116.618576 
L 331.218 116.814932 
L 331.4412 116.736758 
L 331.776 116.274426 
L 332.4456 115.300603 
L 332.6688 115.31921 
L 332.892 115.651535 
L 333.2268 116.877637 
L 333.5616 119.105345 
L 334.008 123.715068 
L 334.6776 133.574518 
L 335.4588 145.145521 
L 335.7936 147.161091 
L 335.9052 147.093797 
L 336.1284 145.724974 
L 336.4632 140.844153 
L 337.0212 127.87016 
L 338.3604 94.725495 
L 338.9184 85.959537 
L 339.2532 82.972357 
L 339.4764 82.02322 
L 339.588 81.871863 
L 339.6996 81.938761 
L 339.9228 82.730741 
L 340.2576 85.555254 
L 340.704 92.262451 
L 341.262 104.850304 
L 342.1548 131.353158 
L 342.8244 149.638806 
L 343.1592 153.616659 
L 343.2708 153.610912 
L 343.494 151.614338 
L 343.8288 145.061386 
L 345.2796 111.463473 
L 345.726 105.824386 
L 346.0608 103.726862 
L 346.284 103.37346 
L 346.3956 103.508768 
L 346.6188 104.391505 
L 346.9536 107.182445 
L 347.4 113.366006 
L 348.0696 126.567837 
L 349.074 147.179068 
L 349.4088 150.749559 
L 349.632 151.333497 
L 349.7436 151.068277 
L 349.9668 149.565902 
L 350.4132 144.036138 
L 351.4176 131.042362 
L 351.864 128.202995 
L 352.0872 127.735828 
L 352.1988 127.750133 
L 352.422 128.275061 
L 352.7568 130.271861 
L 353.2032 134.989279 
L 353.8728 145.234495 
L 354.654 156.865721 
L 354.8772 158.477849 
L 354.9888 158.775717 
L 355.1004 158.708883 
L 355.3236 157.531681 
L 355.6584 153.764008 
L 357.1092 134.344515 
L 357.444 132.327119 
L 357.6672 131.771072 
L 357.7788 131.739471 
L 358.002 132.176333 
L 358.2252 133.279657 
L 358.56 136.154773 
L 359.0064 142.101297 
L 359.676 154.590557 
L 360.4572 169.553337 
L 360.6804 170.760589 
L 360.792 170.200821 
L 361.0152 167.20334 
L 361.7964 150.712326 
L 362.5776 136.326893 
L 363.1356 129.795687 
L 363.4704 127.680645 
L 363.6936 127.051676 
L 363.8052 126.970712 
L 363.9168 127.04334 
L 364.14 127.638594 
L 364.4748 129.595938 
L 364.9212 133.939417 
L 365.7024 144.566915 
L 366.4836 154.247935 
L 366.8184 156.122679 
L 366.93 156.29982 
L 367.0416 156.250964 
L 367.2648 155.532814 
L 367.5996 153.278148 
L 368.9388 142.643701 
L 369.2736 141.447071 
L 369.4968 141.090375 
L 369.72 141.058928 
L 369.9432 141.305745 
L 370.3896 142.346625 
L 370.9476 143.652305 
L 371.1708 143.815363 
L 371.394 143.623509 
L 371.6172 143.016793 
L 371.952 141.305863 
L 372.51 136.754969 
L 373.626 126.92855 
L 374.0724 124.880495 
L 374.2956 124.540284 
L 374.4072 124.560219 
L 374.6304 124.998606 
L 374.9652 126.684513 
L 375.4116 130.860905 
L 375.9696 138.957143 
L 376.8624 156.495862 
L 377.4204 166.715237 
L 377.6436 168.687675 
L 377.7552 168.806141 
L 377.8668 168.309659 
L 378.09 165.830859 
L 378.7596 153.918529 
L 379.5408 141.557484 
L 379.9872 137.045735 
L 380.322 135.127271 
L 380.5452 134.562924 
L 380.6568 134.491778 
L 380.7684 134.557685 
L 380.9916 135.084014 
L 381.3264 136.770611 
L 381.8844 141.367739 
L 382.7772 149.136366 
L 383.112 150.359716 
L 383.2236 150.416055 
L 383.3352 150.287132 
L 383.5584 149.493987 
L 383.8932 147.179992 
L 385.5672 133.196491 
L 385.7904 132.644977 
L 386.0136 132.575235 
L 386.2368 132.991844 
L 386.5716 134.49538 
L 387.018 137.928596 
L 388.4688 151.300847 
L 388.692 151.906999 
L 388.8036 151.942237 
L 389.0268 151.496976 
L 389.3616 149.771733 
L 390.5892 141.912723 
L 390.8124 141.552792 
L 390.924 141.586408 
L 391.1472 142.118472 
L 391.482 144.158308 
L 391.8168 147.759835 
L 392.2632 154.992832 
L 392.9328 170.47934 
L 393.2676 178.402917 
L 393.3792 177.881641 
L 393.8256 164.660921 
L 395.7228 104.678516 
L 396.2808 93.139824 
L 396.7272 87.375853 
L 397.062 85.270059 
L 397.2852 84.943864 
L 397.3968 85.100783 
L 397.62 86.038051 
L 397.9548 88.916587 
L 398.4012 95.123604 
L 400.1868 123.539658 
L 400.41 124.00001 
L 400.5216 123.804853 
L 400.7448 122.638406 
L 401.0796 119.364939 
L 402.3072 105.430789 
L 402.5304 104.449762 
L 402.642 104.265779 
L 402.7536 104.300872 
L 402.9768 105.062824 
L 403.3116 108.02559 
L 403.6464 113.242185 
L 404.0928 123.661804 
L 404.7624 146.001962 
L 405.5436 178.419868 
L 405.6552 177.52001 
L 406.7712 125.6579 
L 407.664 90.523303 
L 408.222 75.48681 
L 408.6684 68.420454 
L 409.0032 66.301364 
L 409.1148 66.220237 
L 409.2264 66.453952 
L 409.4496 67.863959 
L 409.7844 72.300779 
L 410.2308 82.346241 
L 410.7888 100.796402 
L 411.57 134.862203 
L 412.4628 176.958974 
L 412.5744 176.317463 
L 414.4716 105.752413 
L 414.918 98.519419 
L 415.2528 96.116277 
L 415.3644 95.891184 
L 415.476 95.949493 
L 415.6992 96.896032 
L 416.034 100.277158 
L 416.4804 107.960972 
L 418.0428 139.63817 
L 418.1544 139.878633 
L 418.266 139.584957 
L 418.4892 137.473501 
L 418.824 131.304181 
L 420.498 94.825266 
L 420.8328 91.913125 
L 421.056 91.197556 
L 421.1676 91.216928 
L 421.3908 92.012137 
L 421.7256 95.063938 
L 422.172 102.381668 
L 422.73 115.876098 
L 424.1808 153.988039 
L 424.404 155.117784 
L 424.5156 154.713908 
L 424.7388 152.260737 
L 425.2968 141.311592 
L 425.9664 128.833276 
L 426.4128 123.996737 
L 426.636 122.942775 
L 426.7476 122.780152 
L 426.8592 122.865335 
L 427.0824 123.785984 
L 427.4172 127.036778 
L 427.8636 134.728221 
L 428.4216 149.131369 
L 429.3144 178.109518 
L 429.426 177.225915 
L 429.984 156.642313 
L 431.1 117.301594 
L 431.7696 100.937792 
L 432.216 94.384166 
L 432.5508 91.994183 
L 432.774 91.627204 
L 432.8856 91.80854 
L 433.1088 92.884811 
L 433.4436 96.200877 
L 433.89 103.441266 
L 434.5596 118.556292 
L 435.4524 138.411128 
L 435.7872 142.114006 
L 436.0104 142.619063 
L 436.122 142.276735 
L 436.3452 140.562011 
L 436.7916 134.461041 
L 437.6844 121.812318 
L 438.0192 119.235576 
L 438.2424 118.480792 
L 438.354 118.41098 
L 438.4656 118.550287 
L 438.6888 119.458108 
L 439.0236 122.354333 
L 439.47 128.772932 
L 440.6976 149.729408 
L 440.8092 150.235275 
L 440.9208 150.208783 
L 441.144 148.504201 
L 441.4788 142.417516 
L 442.1484 124.057711 
L 443.0412 100.547316 
L 443.5992 90.925659 
L 443.934 87.762564 
L 444.1572 86.843669 
L 444.2688 86.750979 
L 444.3804 86.90481 
L 444.6036 87.952201 
L 444.9384 91.348291 
L 445.3848 99.119554 
L 445.9428 113.432291 
L 446.724 139.78259 
L 447.84 180.615179 
L 449.4024 136.746836 
L 449.8488 130.612934 
L 450.1836 128.35336 
L 450.4068 127.967658 
L 450.5184 128.104605 
L 450.7416 129.016451 
L 451.0764 131.877616 
L 451.5228 138.041462 
L 452.6388 155.751668 
L 452.862 156.587219 
L 452.9736 156.286188 
L 453.1968 154.284541 
L 453.6432 146.304752 
L 454.9824 118.86832 
L 455.4288 113.720447 
L 455.7636 111.896767 
L 455.9868 111.718041 
L 456.21 112.386008 
L 456.5448 114.967849 
L 456.9912 121.241526 
L 457.5492 133.124571 
L 458.442 158.568537 
L 459 173.271887 
L 459.1116 173.941189 
L 459.2232 172.941786 
L 459.558 164.884801 
L 460.674 136.197157 
L 461.232 127.203589 
L 461.5668 124.146647 
L 461.79 123.148154 
L 462.0132 122.994952 
L 462.2364 123.684154 
L 462.5712 126.258595 
L 463.0176 132.374889 
L 463.5756 143.613639 
L 464.58 165.967892 
L 464.8032 167.120586 
L 464.9148 166.403337 
L 465.138 162.857152 
L 465.8076 145.89565 
L 466.7004 125.00758 
L 467.2584 116.59494 
L 467.5932 113.771492 
L 467.8164 112.884713 
L 467.928 112.746143 
L 468.0396 112.81181 
L 468.2628 113.554571 
L 468.5976 116.173753 
L 469.044 122.336522 
L 469.602 133.821811 
L 470.4948 158.14519 
L 471.0528 171.952859 
L 471.1644 172.742974 
L 471.276 172.126343 
L 471.6108 165.017092 
L 472.95 131.621086 
L 473.508 123.194389 
L 473.8428 120.337613 
L 474.066 119.410882 
L 474.1776 119.246618 
L 474.2892 119.282816 
L 474.5124 119.955893 
L 474.8472 122.447315 
L 475.2936 128.408256 
L 475.8516 139.587423 
L 477.0792 167.315281 
L 477.1908 167.401213 
L 477.414 164.606911 
L 477.8604 152.577894 
L 479.4228 106.40071 
L 480.0924 93.615624 
L 480.5388 88.710059 
L 480.8736 87.106026 
L 480.9852 86.975862 
L 481.0968 87.048381 
L 481.32 87.797545 
L 481.6548 90.396799 
L 482.1012 96.428836 
L 482.7708 109.85438 
L 483.7752 131.415748 
L 484.11 134.744817 
L 484.2216 134.97189 
L 484.3332 134.705604 
L 484.5564 132.697518 
L 484.8912 126.456746 
L 485.4492 110.724813 
L 486.9 68.155636 
L 487.458 57.749131 
L 487.9044 53.118841 
L 488.1276 52.141511 
L 488.2392 51.9965 
L 488.3508 52.082155 
L 488.574 52.945759 
L 488.9088 55.953463 
L 489.3552 63.02773 
L 489.9132 76.249975 
L 490.806 104.165597 
L 491.5872 127.167523 
L 491.922 132.444475 
L 492.1452 133.24211 
L 492.2568 132.752242 
L 492.48 130.119924 
L 492.8148 122.935676 
L 493.8192 93.171813 
L 494.6004 73.661546 
L 495.1584 64.942483 
L 495.4932 62.178023 
L 495.7164 61.39946 
L 495.828 61.328872 
L 495.9396 61.468464 
L 496.1628 62.366137 
L 496.4976 65.190244 
L 496.944 71.421992 
L 497.6136 84.61619 
L 498.618 104.891554 
L 498.9528 108.735834 
L 499.176 109.787056 
L 499.2876 109.805655 
L 499.5108 108.811939 
L 499.8456 104.921758 
L 500.292 96.312012 
L 502.1892 54.958193 
L 502.6356 50.189872 
L 502.9704 48.561641 
L 503.082 48.402998 
L 503.1936 48.437499 
L 503.4168 49.083188 
L 503.7516 51.463442 
L 504.198 57.110803 
L 504.756 67.568489 
L 505.7604 91.987884 
L 506.6532 111.984769 
L 507.0996 118.19995 
L 507.4344 120.509957 
L 507.6576 120.957581 
L 507.7692 120.893219 
L 507.9924 120.289223 
L 508.4388 117.845067 
L 509.22 113.264703 
L 509.5548 112.281597 
L 509.778 112.11946 
L 510.0012 112.372852 
L 510.336 113.500686 
L 510.7824 116.143578 
L 511.7868 122.843468 
L 512.01 123.496325 
L 512.1216 123.601278 
L 512.2332 123.541934 
L 512.4564 122.900755 
L 512.7912 120.623445 
L 513.2376 115.479699 
L 515.1348 90.186759 
L 515.4696 88.463149 
L 515.6928 88.063633 
L 515.8044 88.096856 
L 516.0276 88.634255 
L 516.3624 90.608059 
L 516.8088 95.3097 
L 517.3668 104.044443 
L 518.3712 124.472947 
L 519.264 141.550103 
L 519.822 148.45641 
L 520.2684 151.304529 
L 520.6032 152.304653 
L 521.496 154.220502 
L 521.9424 156.214529 
L 522.9468 161.236355 
L 523.0584 161.266153 
L 523.17 161.071859 
L 523.3932 159.946735 
L 523.728 156.474445 
L 524.286 147.414557 
L 525.6252 124.343295 
L 526.0716 119.646651 
L 526.4064 117.763733 
L 526.6296 117.379648 
L 526.7412 117.461439 
L 526.9644 118.185729 
L 527.2992 120.689196 
L 527.7456 126.629487 
L 528.3036 137.880679 
L 529.1964 161.972626 
L 529.6428 172.249118 
L 529.7544 172.75606 
L 529.866 171.815452 
L 530.2008 164.102513 
L 531.4284 132.317854 
L 531.9864 123.676271 
L 532.3212 121.045275 
L 532.5444 120.445022 
L 532.656 120.49936 
L 532.8792 121.320591 
L 533.214 124.310651 
L 533.6604 131.373997 
L 534.33 146.908575 
L 534.888 158.92183 
L 535.1112 160.115722 
L 535.2228 159.357478 
L 535.446 155.339646 
L 535.8924 141.425514 
L 537.4548 88.740528 
L 538.0128 77.29165 
L 538.4592 72.408952 
L 538.6824 71.463298 
L 538.794 71.361953 
L 538.9056 71.503566 
L 539.1288 72.492447 
L 539.4636 75.609833 
L 539.91 82.261907 
L 541.2492 104.48151 
L 541.4724 105.712209 
L 541.584 105.841101 
L 541.6956 105.635664 
L 541.9188 104.247054 
L 542.2536 100.030405 
L 542.9232 87.330031 
L 543.7044 73.929689 
L 544.0392 70.792904 
L 544.2624 69.915776 
L 544.374 69.874955 
L 544.4856 70.110221 
L 544.7088 71.43201 
L 545.0436 75.587663 
L 545.49 85.147748 
L 546.048 102.977057 
L 547.4988 155.063283 
L 547.6104 154.799865 
L 547.8336 150.286166 
L 548.28 132.568269 
L 549.5076 81.136751 
L 550.0656 66.218074 
L 550.512 59.820851 
L 550.7352 58.601884 
L 550.8468 58.495176 
L 550.9584 58.723276 
L 551.1816 60.175218 
L 551.5164 64.777002 
L 551.9628 75.122565 
L 552.5208 93.743395 
L 554.0832 151.621983 
L 554.1948 152.567983 
L 554.3064 152.454147 
L 554.5296 149.367953 
L 554.976 136.813663 
L 555.8688 111.144108 
L 556.3152 103.329466 
L 556.65 100.44831 
L 556.8732 100.02553 
L 556.9848 100.267455 
L 557.208 101.649857 
L 557.5428 105.90276 
L 557.9892 115.298177 
L 558.6588 135.394427 
L 559.3284 155.343559 
L 559.5516 157.880399 
L 559.6632 157.566701 
L 559.8864 153.882603 
L 560.3328 139.530159 
L 561.5604 97.454266 
L 562.1184 85.508148 
L 562.4532 81.451256 
L 562.6764 80.127848 
L 562.788 79.886264 
L 562.8996 79.924712 
L 563.1228 80.834986 
L 563.4576 84.230556 
L 563.904 92.28935 
L 564.462 107.167514 
L 566.2476 159.779091 
L 566.3592 159.709722 
L 566.5824 157.161728 
L 567.0288 146.858223 
L 567.9216 125.60243 
L 568.4796 117.019804 
L 568.926 113.346459 
L 569.2608 112.326582 
L 569.3724 112.278393 
L 569.5956 112.558526 
L 569.9304 113.732095 
L 571.2696 119.868396 
L 571.4928 120.071876 
L 571.716 119.918586 
L 572.0508 119.118653 
L 573.1668 115.46327 
L 573.39 115.359709 
L 573.6132 115.669603 
L 573.8364 116.444596 
L 574.1712 118.538242 
L 574.6176 123.037969 
L 575.3988 134.210102 
L 576.0684 142.738935 
L 576.2916 144.059966 
L 576.4032 144.283347 
L 576.5148 144.191806 
L 576.738 143.064029 
L 577.0728 139.298392 
L 577.7424 127.667679 
L 578.6352 113.060603 
L 579.0816 108.75151 
L 579.4164 107.32357 
L 579.528 107.215095 
L 579.6396 107.293809 
L 579.8628 108.013858 
L 580.1976 110.478207 
L 580.644 116.182267 
L 581.202 126.528215 
L 582.6528 155.827503 
L 582.876 157.324793 
L 582.9876 157.443892 
L 583.0992 157.153305 
L 583.3224 155.517041 
L 583.7688 149.736946 
L 584.6616 138.096752 
L 585.108 134.857791 
L 585.4428 133.869739 
L 585.666 133.867104 
L 585.8892 134.329489 
L 586.224 135.711628 
L 587.2284 140.582657 
L 587.4516 140.763241 
L 587.6748 140.325013 
L 588.0096 138.467487 
L 588.456 134.173509 
L 589.6836 121.024758 
L 590.0184 119.262241 
L 590.2416 118.838092 
L 590.3532 118.872637 
L 590.5764 119.460081 
L 590.9112 121.682202 
L 591.3576 127.172796 
L 591.9156 137.863518 
L 592.6968 158.485365 
L 593.3664 177.222524 
L 593.478 177.432693 
L 593.8128 169.014936 
L 594.9288 139.202518 
L 595.4868 129.496285 
L 595.9332 125.252789 
L 596.1564 124.406829 
L 596.268 124.309606 
L 596.3796 124.429525 
L 596.6028 125.314286 
L 596.9376 128.198544 
L 597.384 134.650264 
L 598.7232 157.61182 
L 598.8348 157.654893 
L 598.9464 157.066706 
L 599.1696 154.147418 
L 599.616 143.752265 
L 601.0668 106.869945 
L 601.5132 100.28335 
L 601.848 97.580447 
L 602.0712 96.912057 
L 602.1828 96.924023 
L 602.406 97.640425 
L 602.7408 100.416592 
L 603.1872 107.105751 
L 603.7452 119.536188 
L 605.3076 158.024743 
L 605.4192 158.621097 
L 605.5308 158.564812 
L 605.754 156.677554 
L 606.2004 148.687636 
L 607.0932 132.125369 
L 607.5396 127.473052 
L 607.7628 126.393586 
L 607.986 126.196275 
L 608.2092 126.894632 
L 608.544 129.608449 
L 608.9904 136.192492 
L 609.5484 148.604212 
L 610.3296 171.571057 
L 610.6644 181.089356 
L 612.0036 140.174406 
L 612.6732 126.177017 
L 613.1196 120.701788 
L 613.4544 118.871919 
L 613.566 118.708548 
L 613.6776 118.768858 
L 613.9008 119.554156 
L 614.2356 122.340574 
L 614.682 128.777828 
L 615.3516 142.565071 
L 616.0212 155.39769 
L 616.2444 156.999273 
L 616.356 156.929949 
L 616.5792 155.03208 
L 616.914 148.8696 
L 618.4764 114.38702 
L 618.9228 109.695697 
L 619.146 108.668353 
L 619.2576 108.49871 
L 619.3692 108.560947 
L 619.5924 109.381978 
L 619.9272 112.328689 
L 620.3736 119.260744 
L 620.9316 131.879951 
L 621.936 155.689537 
L 622.1592 157.130685 
L 622.2708 156.724069 
L 622.494 153.785977 
L 622.9404 142.584397 
L 624.2796 105.894232 
L 624.8376 96.827941 
L 625.1724 93.916538 
L 625.3956 93.070965 
L 625.5072 92.975154 
L 625.6188 93.093978 
L 625.842 93.958559 
L 626.1768 96.727566 
L 626.6232 102.764591 
L 628.1856 127.887128 
L 628.4088 128.80279 
L 628.5204 128.763324 
L 628.7436 127.679205 
L 629.0784 123.78471 
L 629.6364 113.247916 
L 631.0872 83.661131 
L 631.7568 74.76372 
L 632.3148 70.267998 
L 632.7612 68.399195 
L 633.096 67.883109 
L 633.3192 67.921432 
L 633.5424 68.248115 
L 633.8772 69.262541 
L 634.3236 71.604105 
L 634.77 75.165964 
L 635.328 81.589773 
L 635.886 90.526471 
L 636.5556 104.777724 
L 638.3412 147.495678 
L 638.5644 148.348541 
L 638.676 147.859052 
L 638.8992 145.147917 
L 639.3456 134.753926 
L 641.2428 83.081874 
L 641.8008 75.081474 
L 642.1356 72.589261 
L 642.3588 71.908799 
L 642.4704 71.86019 
L 642.582 72.003158 
L 642.8052 72.851297 
L 643.14 75.465627 
L 643.5864 81.220243 
L 644.256 93.763422 
L 645.372 120.502171 
L 647.1576 162.679076 
L 647.8272 174.966365 
L 647.9388 175.855737 
L 648.0504 175.814525 
L 648.2736 173.264791 
L 648.9432 159.776509 
L 650.7288 122.447533 
L 651.3984 113.198927 
L 651.8448 109.824201 
L 652.068 109.112593 
L 652.1796 109.014041 
L 652.2912 109.090039 
L 652.5144 109.769568 
L 652.8492 112.096069 
L 653.2956 117.480944 
L 653.9652 129.165678 
L 654.7464 141.984958 
L 654.9696 143.471078 
L 655.0812 143.593575 
L 655.1928 143.26897 
L 655.416 141.300332 
L 655.7508 135.573574 
L 656.532 116.193828 
L 657.3132 98.434112 
L 657.7596 91.764725 
L 658.0944 88.986473 
L 658.3176 88.288088 
L 658.4292 88.294834 
L 658.6524 89.024095 
L 658.9872 91.880001 
L 659.4336 98.751253 
L 660.1032 114.077642 
L 660.996 134.760893 
L 661.3308 137.809484 
L 661.4424 137.79337 
L 661.6656 136.16499 
L 662.0004 130.390747 
L 662.7816 110.256313 
L 663.4512 95.09433 
L 663.8976 88.884795 
L 664.2324 86.845503 
L 664.344 86.699837 
L 664.4556 86.826639 
L 664.6788 87.90026 
L 665.0136 91.530664 
L 665.46 99.886031 
L 666.1296 118.146501 
L 666.9108 139.261612 
L 667.134 141.933458 
L 667.2456 142.20473 
L 667.3572 141.704401 
L 667.5804 138.508103 
L 668.0268 125.882295 
L 669.4776 78.193413 
L 669.924 69.606807 
L 670.2588 66.111756 
L 670.482 65.278988 
L 670.5936 65.321285 
L 670.8168 66.326989 
L 671.1516 70.114626 
L 671.598 79.235945 
L 672.156 96.462735 
L 672.9372 128.710256 
L 674.0532 175.543271 
L 674.2764 169.554929 
L 675.3924 128.817869 
L 675.9504 116.238088 
L 676.2852 111.976587 
L 676.5084 110.572223 
L 676.7316 110.323078 
L 676.9548 111.213031 
L 677.2896 114.599809 
L 677.736 122.585871 
L 678.4056 139.951568 
L 679.0752 156.107053 
L 679.2984 157.448051 
L 679.41 156.791517 
L 679.6332 153.068364 
L 680.0796 140.019879 
L 681.3072 102.057471 
L 681.8652 91.447039 
L 682.2 88.009301 
L 682.4232 87.026972 
L 682.5348 86.935889 
L 682.6464 87.112339 
L 682.8696 88.264266 
L 683.2044 91.950913 
L 683.6508 100.317601 
L 684.2088 115.619858 
L 685.1016 148.004672 
L 685.9944 179.676265 
L 686.9988 144.179358 
L 687.6684 127.582064 
L 688.1148 120.683618 
L 688.4496 117.869303 
L 688.6728 117.123611 
L 688.7844 117.084304 
L 688.896 117.262605 
L 689.1192 118.251784 
L 689.454 121.213489 
L 689.9004 127.509273 
L 691.3512 151.415179 
L 691.5744 152.04147 
L 691.686 151.744116 
L 691.9092 150.012402 
L 692.3556 143.320618 
L 693.6948 120.800315 
L 694.1412 116.862045 
L 694.476 115.604563 
L 694.5876 115.516988 
L 694.6992 115.594315 
L 694.9224 116.235389 
L 695.2572 118.359925 
L 695.7036 123.128866 
L 696.3732 133.298953 
L 697.4892 150.391685 
L 697.824 152.816637 
L 698.0472 153.227848 
L 698.1588 153.074625 
L 698.382 152.14081 
L 698.8284 148.56075 
L 699.8328 139.572669 
L 700.2792 137.335753 
L 700.614 136.706165 
L 700.8372 136.802999 
L 701.0604 137.305388 
L 701.3952 138.779744 
L 701.8416 141.941506 
L 702.5112 148.596377 
L 703.8504 162.724315 
L 704.1852 164.47903 
L 704.4084 164.794048 
L 704.52 164.673504 
L 704.7432 163.902263 
L 705.078 161.638195 
L 705.636 156.037037 
L 707.868 131.533078 
L 708.426 127.998805 
L 708.7608 126.869615 
L 708.984 126.595576 
L 709.2072 126.735586 
L 709.4304 127.311114 
L 709.7652 129.023835 
L 710.2116 132.92003 
L 710.7696 140.249141 
L 712.2204 161.972726 
L 712.332 162.10005 
L 712.4436 161.694539 
L 712.6668 159.355142 
L 713.1132 150.367265 
L 715.7916 86.647258 
L 716.3496 79.805077 
L 716.796 76.617263 
L 717.1308 75.544146 
L 717.354 75.433252 
L 717.5772 75.784553 
L 717.912 77.128231 
L 718.3584 80.305934 
L 718.9164 86.180241 
L 719.6976 97.134997 
L 720.9252 118.310436 
L 722.7108 149.199013 
L 723.1572 154.044582 
L 723.492 155.872595 
L 723.7152 156.113612 
L 723.9384 155.625448 
L 724.2732 153.826472 
L 725.166 146.647385 
L 725.8356 142.386076 
L 726.282 140.927869 
L 726.5052 140.659138 
L 726.7284 140.684825 
L 726.9516 140.977676 
L 727.2864 141.82076 
L 728.2908 144.870551 
L 728.514 145.016209 
L 728.7372 144.755368 
L 728.9604 144.030757 
L 729.2952 142.050304 
L 729.8532 136.758257 
L 731.5272 118.786831 
L 731.9736 116.391892 
L 732.3084 115.707825 
L 732.42 115.704779 
L 732.6432 116.042554 
L 732.978 117.40672 
L 733.4244 120.766495 
L 733.9824 127.165936 
L 734.7636 139.11907 
L 736.5492 167.862791 
L 737.2188 174.85424 
L 737.7768 178.354332 
L 738.1116 179.540043 
L 738.2232 179.667176 
L 738.3348 179.570715 
L 738.558 178.690654 
L 738.8928 176.155567 
L 739.4508 169.776638 
L 740.232 157.522939 
L 742.464 119.791515 
L 743.022 114.256517 
L 743.4684 111.80119 
L 743.6916 111.268709 
L 743.9148 111.199408 
L 744.138 111.581754 
L 744.4728 112.953939 
L 744.9192 116.091181 
L 745.5888 122.758225 
L 746.8164 135.313537 
L 747.3744 138.817293 
L 747.9324 140.788839 
L 748.7136 143.115495 
L 749.16 145.516336 
L 749.6064 149.386242 
L 750.1644 156.725119 
L 750.834 169.221234 
L 751.2804 178.289257 
L 751.392 178.49368 
L 751.7268 171.220378 
L 754.2936 105.483728 
L 754.8516 97.778404 
L 755.298 94.564919 
L 755.5212 94.003936 
L 755.6328 93.988642 
L 755.856 94.48665 
L 756.1908 96.529216 
L 756.6372 101.519879 
L 757.1952 110.804106 
L 758.646 137.391579 
L 758.8692 138.892437 
L 758.9808 139.099805 
L 759.0924 138.926381 
L 759.3156 137.460553 
L 759.6504 132.846114 
L 760.32 118.6503 
L 761.436 94.701067 
L 761.994 86.579049 
L 762.4404 82.735745 
L 762.7752 81.517189 
L 762.8868 81.431993 
L 762.9984 81.506445 
L 763.2216 82.128516 
L 763.5564 84.209238 
L 764.0028 88.973612 
L 764.5608 97.641638 
L 765.5652 117.674608 
L 766.3464 131.994581 
L 766.7928 136.856583 
L 767.016 137.888016 
L 767.1276 138.027005 
L 767.2392 137.92026 
L 767.4624 137.021233 
L 767.7972 134.263514 
L 768.4668 126.060267 
L 769.3596 115.543697 
L 769.9176 111.410304 
L 770.2524 110.127068 
L 770.4756 109.790413 
L 770.6988 109.863151 
L 770.922 110.330567 
L 771.2568 111.719308 
L 771.7032 114.672873 
L 772.4844 121.779004 
L 773.4888 130.770492 
L 774.0468 133.857853 
L 774.3816 134.827183 
L 774.7164 135.22703 
L 775.0512 135.238524 
L 775.8324 135.033318 
L 776.0556 135.19818 
L 776.3904 135.807581 
L 776.7252 136.926027 
L 777.1716 139.235753 
L 777.9528 144.902789 
L 778.6224 149.400742 
L 778.9572 150.504075 
L 779.1804 150.560725 
L 779.4036 150.015923 
L 779.7384 148.127091 
L 780.2964 142.91304 
L 781.524 130.511824 
L 781.9704 127.923122 
L 782.3052 127.089888 
L 782.5284 127.116771 
L 782.7516 127.627489 
L 783.0864 129.305857 
L 783.5328 133.175135 
L 784.2024 141.79735 
L 785.0952 153.70654 
L 785.3184 155.124992 
L 785.43 155.362878 
L 785.5416 155.247515 
L 785.7648 153.937998 
L 786.0996 149.6102 
L 786.7692 136.173633 
L 787.9968 111.027955 
L 788.5548 103.316929 
L 789.0012 99.718172 
L 789.336 98.701408 
L 789.4476 98.697975 
L 789.6708 99.204294 
L 790.0056 101.256025 
L 790.452 106.381994 
L 791.01 116.44407 
L 791.6796 133.223931 
L 792.684 165.203297 
L 793.1304 179.400096 
L 793.242 177.943718 
L 795.2508 117.300314 
L 795.8088 107.106185 
L 796.2552 102.047201 
L 796.59 100.184988 
L 796.8132 99.88363 
L 796.9248 100.015316 
L 797.148 100.83898 
L 797.4828 103.446973 
L 797.9292 109.356044 
L 798.4872 120.224946 
L 799.2684 140.433849 
L 800.6076 175.850912 
L 800.7192 174.932638 
L 801.1656 164.404235 
L 802.17 141.177664 
L 802.8396 130.759384 
L 803.3976 125.586079 
L 803.844 123.537447 
L 804.1788 122.99571 
L 804.402 122.996877 
L 804.7368 123.367858 
L 805.7412 124.927618 
L 806.076 125.014521 
L 806.4108 124.811769 
L 807.3036 123.993132 
L 807.5268 124.101978 
L 807.75 124.490521 
L 808.0848 125.75332 
L 808.4196 128.015322 
L 808.866 132.854809 
L 809.424 142.121102 
L 810.0936 157.965549 
L 810.8748 181.587273 
L 814.1112 74.595423 
L 814.7808 62.413845 
L 815.3388 56.372533 
L 815.6736 54.49139 
L 815.8968 53.921879 
L 816.12 53.867967 
L 816.3432 54.298382 
L 816.678 55.778931 
L 817.1244 59.132601 
L 817.6824 65.178532 
L 818.4636 76.313676 
L 820.4724 107.46653 
L 820.8072 109.377063 
L 820.9188 109.508961 
L 821.0304 109.360455 
L 821.2536 108.185444 
L 821.5884 104.228551 
L 822.0348 95.366095 
L 822.816 74.075914 
L 823.8204 47.316451 
L 824.3784 37.463796 
L 824.7132 34.233305 
L 824.9364 33.361986 
L 825.048 33.332727 
L 825.1596 33.581609 
L 825.3828 34.928803 
L 825.7176 39.098738 
L 826.164 48.608863 
L 826.722 66.252195 
L 828.396 126.491606 
L 828.5076 127.320082 
L 828.6192 127.234719 
L 828.8424 124.382743 
L 829.1772 114.729354 
L 830.07 77.443098 
L 830.8512 49.856544 
L 831.2976 40.096172 
L 831.6324 36.293182 
L 831.8556 35.533364 
L 831.9672 35.695372 
L 832.1904 37.104896 
L 832.5252 41.898231 
L 832.9716 53.060375 
L 833.5296 73.819395 
L 834.3108 112.376965 
L 835.5384 180.016682 
L 835.7616 170.693226 
L 836.5428 135.633725 
L 837.1008 118.443691 
L 837.5472 110.572998 
L 837.882 108.376775 
L 837.9936 108.363829 
L 838.2168 109.411092 
L 838.5516 113.60276 
L 838.998 123.743101 
L 839.6676 146.493645 
L 840.2256 163.652003 
L 840.3372 163.932659 
L 840.5604 159.239398 
L 841.0068 139.590622 
L 842.4576 71.939622 
L 843.0156 54.874193 
L 843.462 46.764137 
L 843.7968 44.198376 
L 843.9084 44.026053 
L 844.02 44.194128 
L 844.2432 45.539085 
L 844.578 49.994652 
L 845.0244 60.098807 
L 845.694 82.221831 
L 846.9216 126.127624 
L 847.2564 132.006149 
L 847.4796 133.000606 
L 847.5912 132.631047 
L 847.8144 130.446096 
L 848.2608 122.641652 
L 849.042 109.394993 
L 849.3768 106.659265 
L 849.6 106.196334 
L 849.7116 106.397307 
L 849.9348 107.678181 
L 850.2696 111.763795 
L 850.716 120.869544 
L 851.832 147.768832 
L 851.9436 148.269402 
L 852.0552 147.831278 
L 852.2784 144.149465 
L 852.6132 133.26848 
L 853.7292 83.758882 
L 854.5104 55.30114 
L 855.0684 42.814053 
L 855.4032 39.11227 
L 855.6264 38.312433 
L 855.738 38.418155 
L 855.9612 39.636659 
L 856.296 43.930911 
L 856.7424 53.984647 
L 857.3004 72.522244 
L 858.3048 115.677068 
L 858.9744 140.776329 
L 859.3092 145.814053 
L 859.4208 145.726609 
L 859.644 143.097487 
L 860.0904 131.849343 
L 861.0948 104.499521 
L 861.6528 95.230297 
L 861.9876 92.215559 
L 862.3224 90.984177 
L 862.434 90.929864 
L 862.6572 91.28531 
L 862.992 92.763516 
L 863.6616 97.460234 
L 864.2196 100.926575 
L 864.5544 102.069699 
L 864.7776 102.361404 
L 865.0008 102.308468 
L 865.3356 101.748975 
L 866.1168 100.186158 
L 866.34 100.208061 
L 866.5632 100.619102 
L 866.898 102.098289 
L 867.3444 105.796844 
L 867.9024 112.796095 
L 868.7952 124.434856 
L 869.13 126.290532 
L 869.2416 126.344186 
L 869.3532 126.083863 
L 869.5764 124.608333 
L 869.9112 120.197162 
L 870.4692 108.878891 
L 871.5852 85.34691 
L 872.0316 79.538038 
L 872.3664 77.304361 
L 872.5896 76.921388 
L 872.7012 77.071526 
L 872.9244 78.059592 
L 873.2592 81.240863 
L 873.7056 88.483575 
L 874.2636 101.668011 
L 875.3796 135.384728 
L 876.0492 152.129002 
L 876.384 155.655385 
L 876.4956 155.821898 
L 876.6072 155.513852 
L 876.8304 153.748111 
L 877.5 144.755929 
L 878.058 138.659117 
L 878.3928 136.690205 
L 878.616 136.143581 
L 878.7276 136.091149 
L 878.9508 136.391996 
L 879.2856 137.686482 
L 880.29 142.805787 
L 880.5132 142.93002 
L 880.7364 142.326743 
L 881.0712 140.025317 
L 881.5176 134.924144 
L 882.6336 121.014769 
L 883.08 118.234024 
L 883.3032 117.848856 
L 883.4148 117.933411 
L 883.638 118.680654 
L 883.9728 121.285193 
L 884.4192 127.523705 
L 884.9772 139.44663 
L 885.7584 162.090676 
L 886.3164 179.139812 
L 886.428 177.985201 
L 888.102 130.867267 
L 888.5484 124.02896 
L 888.8832 121.244906 
L 889.1064 120.573778 
L 889.218 120.600322 
L 889.4412 121.378715 
L 889.776 124.331287 
L 890.2224 131.40179 
L 890.7804 144.412335 
L 891.6732 165.761363 
L 891.7848 166.240941 
L 891.8964 165.617172 
L 892.1196 161.583609 
L 892.7892 141.11208 
L 893.682 115.440714 
L 894.24 104.955692 
L 894.5748 101.402555 
L 894.798 100.270407 
L 894.9096 100.083981 
L 895.0212 100.152061 
L 895.2444 101.049662 
L 895.5792 104.264273 
L 896.0256 111.828669 
L 896.5836 125.771984 
L 898.0344 166.503065 
L 898.146 166.65117 
L 898.3692 163.934299 
L 898.9272 149.98339 
L 899.5968 134.489415 
L 900.0432 127.910695 
L 900.378 125.457568 
L 900.6012 125.083544 
L 900.7128 125.281664 
L 900.936 126.44763 
L 901.2708 130.084662 
L 901.7172 138.234241 
L 902.3868 156.146702 
L 902.9448 171.500126 
L 903.0564 172.420992 
L 903.168 171.528021 
L 903.5028 162.293104 
L 904.9536 114.786639 
L 905.5116 103.394993 
L 905.958 98.61964 
L 906.1812 97.800202 
L 906.2928 97.790421 
L 906.516 98.568741 
L 906.8508 101.687355 
L 907.2972 109.222579 
L 907.9668 126.119314 
L 908.8596 148.708103 
L 909.0828 150.657924 
L 909.1944 150.571132 
L 909.4176 148.294499 
L 909.7524 140.972476 
L 911.3148 101.048358 
L 911.7612 96.01713 
L 911.9844 95.075218 
L 912.096 95.011563 
L 912.2076 95.221349 
L 912.4308 96.45968 
L 912.7656 100.327476 
L 913.212 109.016368 
L 913.77 124.741447 
L 915.2208 170.282781 
L 915.3324 169.246424 
L 915.6672 160.247809 
L 916.7832 126.870482 
L 917.3412 116.685863 
L 917.7876 112.58754 
L 918.0108 111.864439 
L 918.1224 111.812593 
L 918.234 111.95377 
L 918.4572 112.761986 
L 918.792 115.027011 
L 919.6848 122.173799 
L 919.908 122.727096 
L 920.0196 122.633624 
L 920.2428 121.610302 
L 920.5776 117.946318 
L 921.024 109.772972 
L 922.5864 77.380375 
L 923.0328 73.241366 
L 923.256 72.591126 
L 923.3676 72.64409 
L 923.5908 73.524842 
L 923.9256 76.801574 
L 924.372 84.747063 
L 924.93 99.909788 
L 925.7112 128.450276 
L 926.7156 164.864042 
L 926.8272 166.205792 
L 926.9388 166.075505 
L 927.162 162.049107 
L 928.836 117.377244 
L 929.2824 112.771672 
L 929.5056 111.982731 
L 929.6172 111.964733 
L 929.8404 112.665393 
L 930.1752 115.47302 
L 930.6216 122.124417 
L 931.2912 136.428528 
L 932.0724 152.128336 
L 932.2956 153.945315 
L 932.4072 154.090235 
L 932.5188 153.709467 
L 932.742 151.529885 
L 933.1884 143.529595 
L 934.3044 122.392244 
L 934.7508 117.621076 
L 935.0856 115.929435 
L 935.3088 115.702473 
L 935.532 116.160287 
L 935.8668 117.999675 
L 936.3132 122.109923 
L 937.3176 132.310765 
L 937.6524 133.660767 
L 937.764 133.702996 
L 937.8756 133.530269 
L 938.0988 132.557214 
L 938.4336 129.737565 
L 939.2148 119.984894 
L 939.8844 112.593294 
L 940.3308 109.759359 
L 940.554 109.125241 
L 940.7772 109.028842 
L 941.0004 109.456396 
L 941.3352 111.003283 
L 941.7816 114.446541 
L 943.5672 130.229501 
L 944.0136 131.971982 
L 944.7948 134.437841 
L 945.1296 136.304287 
L 945.576 140.418824 
L 946.0224 146.899965 
L 946.5804 158.671563 
L 947.3616 177.349368 
L 947.5848 172.194186 
L 948.4776 138.462732 
L 949.9284 84.990077 
L 950.598 67.676194 
L 951.156 58.858464 
L 951.4908 56.280936 
L 951.714 55.715711 
L 951.8256 55.77577 
L 952.0488 56.56674 
L 952.3836 59.359816 
L 952.83 65.792491 
L 953.4996 79.930421 
L 955.1736 118.383326 
L 955.62 123.310167 
L 955.8432 124.316801 
L 955.9548 124.46026 
L 956.0664 124.376339 
L 956.2896 123.582313 
L 956.6244 121.076978 
L 957.1824 114.48013 
L 958.0752 100.424105 
L 959.4144 74.904565 
L 960.4188 57.020501 
L 960.9768 50.545997 
L 961.3116 48.61419 
L 961.5348 48.304738 
L 961.6464 48.468523 
L 961.8696 49.467694 
L 962.2044 52.725156 
L 962.6508 60.482112 
L 963.2088 75.646576 
L 963.8784 101.093107 
L 965.4408 168.643816 
L 965.5524 167.488198 
L 965.8872 155.175957 
L 967.1148 103.765114 
L 967.6728 88.129678 
L 968.1192 80.375066 
L 968.454 77.421677 
L 968.6772 76.775488 
L 968.7888 76.829984 
L 969.012 77.646154 
L 969.3468 80.442967 
L 969.9048 88.088109 
L 970.7976 100.681932 
L 971.1324 102.734685 
L 971.244 102.889681 
L 971.3556 102.764088 
L 971.5788 101.683838 
L 971.9136 98.216957 
L 972.5832 87.384726 
L 973.3644 75.619801 
L 973.6992 72.785209 
L 973.9224 71.94025 
L 974.034 71.860125 
L 974.1456 72.0173 
L 974.3688 73.061564 
L 974.7036 76.482486 
L 975.15 84.447852 
L 975.708 99.369294 
L 976.4892 127.13196 
L 977.6052 167.061987 
L 977.8284 168.603988 
L 978.0516 165.083481 
L 979.5024 131.646449 
L 979.8372 128.420064 
L 980.0604 127.485644 
L 980.172 127.384193 
L 980.2836 127.52418 
L 980.5068 128.514465 
L 980.8416 131.694025 
L 981.288 138.75033 
L 981.9576 153.661146 
L 982.6272 167.972666 
L 982.8504 169.13309 
L 982.962 168.431125 
L 983.2968 162.866336 
L 984.4128 140.815856 
L 984.8592 136.166747 
L 985.0824 135.141735 
L 985.194 134.974501 
L 985.3056 135.042174 
L 985.5288 135.889811 
L 985.8636 138.941602 
L 986.31 146.215288 
L 986.868 159.777673 
L 987.426 174.407845 
L 987.5376 174.791335 
L 987.7608 169.952147 
L 988.542 141.127094 
L 989.658 102.294665 
L 990.3276 86.130376 
L 990.774 79.564711 
L 991.1088 77.040715 
L 991.332 76.505737 
L 991.4436 76.575283 
L 991.6668 77.365003 
L 992.0016 80.071116 
L 992.448 86.101561 
L 993.2292 100.672796 
L 994.0104 114.420728 
L 994.4568 119.108956 
L 994.7916 120.596481 
L 995.0148 120.729665 
L 995.238 120.354387 
L 996.2424 117.707493 
L 996.354 117.765337 
L 996.5772 118.291681 
L 996.912 120.251541 
L 997.2468 123.752697 
L 997.6932 130.866558 
L 998.3628 146.182369 
L 999.3672 171.488353 
L 999.4788 172.059373 
L 999.5904 171.310269 
L 999.9252 164.195954 
L 1001.1528 133.843319 
L 1001.7108 125.709785 
L 1002.0456 123.173822 
L 1002.2688 122.475209 
L 1002.3804 122.413952 
L 1002.492 122.53648 
L 1002.7152 123.29645 
L 1003.05 125.527732 
L 1004.166 134.416967 
L 1004.2776 134.51253 
L 1004.3892 134.316141 
L 1004.6124 132.97765 
L 1004.9472 128.625469 
L 1005.5052 116.680817 
L 1006.8444 85.104318 
L 1007.2908 78.696351 
L 1007.6256 76.124535 
L 1007.8488 75.573137 
L 1007.9604 75.657579 
L 1008.1836 76.554184 
L 1008.5184 79.707991 
L 1008.9648 87.150015 
L 1009.5228 101.04247 
L 1010.4156 130.524 
L 1011.42 162.97511 
L 1011.6432 166.308387 
L 1011.7548 166.664193 
L 1011.8664 166.126492 
L 1012.0896 163.113676 
L 1013.2056 144.587278 
L 1013.5404 142.310162 
L 1013.7636 141.923956 
L 1013.8752 142.073612 
L 1014.0984 143.047504 
L 1014.4332 146.111145 
L 1014.8796 152.723886 
L 1015.6608 165.21331 
L 1015.7724 165.672086 
L 1015.884 165.392278 
L 1016.1072 162.657028 
L 1016.5536 151.782292 
L 1018.0044 112.113497 
L 1018.5624 102.934904 
L 1018.8972 100.021514 
L 1019.1204 99.25388 
L 1019.232 99.23119 
L 1019.4552 99.9126 
L 1019.6784 101.557364 
L 1020.0132 105.780815 
L 1020.4596 114.4568 
L 1021.1292 132.798634 
L 1022.3568 169.391475 
L 1022.4684 170.063037 
L 1022.58 169.412447 
L 1022.8032 165.25151 
L 1024.1424 134.47876 
L 1024.5888 129.852864 
L 1024.812 128.980175 
L 1024.9236 128.913473 
L 1025.0352 129.093575 
L 1025.2584 130.187724 
L 1025.5932 133.603842 
L 1026.0396 141.133382 
L 1027.1556 163.313027 
L 1027.2672 163.352762 
L 1027.4904 160.737523 
L 1027.8252 152.141432 
L 1029.7224 95.929933 
L 1030.1688 89.427134 
L 1030.5036 87.146303 
L 1030.7268 86.919517 
L 1030.95 87.737371 
L 1031.2848 90.896443 
L 1031.7312 98.536803 
L 1032.2892 112.910721 
L 1033.182 143.377543 
L 1033.8516 165.553465 
L 1034.0748 168.701707 
L 1034.1864 168.324872 
L 1034.4096 164.353844 
L 1035.7488 131.820396 
L 1036.1952 126.646059 
L 1036.4184 125.531726 
L 1036.53 125.353374 
L 1036.6416 125.428708 
L 1036.8648 126.337667 
L 1037.1996 129.560253 
L 1037.646 137.123983 
L 1038.204 151.094864 
L 1039.0968 176.286215 
L 1039.2084 175.023122 
L 1039.6548 160.462606 
L 1040.8824 119.767654 
L 1041.552 104.629428 
L 1041.9984 98.598634 
L 1042.3332 96.409089 
L 1042.5564 96.079965 
L 1042.668 96.25214 
L 1042.8912 97.257664 
L 1043.226 100.35817 
L 1043.6724 107.215982 
L 1044.342 122.245842 
L 1046.2392 169.741243 
L 1046.3508 169.912935 
L 1046.4624 169.316989 
L 1046.7972 164.620353 
L 1048.0248 144.359244 
L 1048.806 135.764078 
L 1050.2568 121.137239 
L 1052.154 99.745066 
L 1052.6004 97.530033 
L 1052.8236 97.17493 
L 1052.9352 97.201442 
L 1053.1584 97.677352 
L 1053.4932 99.470074 
L 1053.9396 103.85343 
L 1054.4976 112.243974 
L 1055.3904 130.270252 
L 1056.3948 149.9199 
L 1056.8412 154.743671 
L 1057.0644 155.703869 
L 1057.176 155.835896 
L 1057.2876 155.76638 
L 1057.5108 155.152364 
L 1058.6268 150.769501 
L 1058.7384 150.730266 
L 1058.9616 151.014593 
L 1059.1848 151.80407 
L 1059.5196 153.935906 
L 1059.966 158.363075 
L 1060.9704 169.192124 
L 1061.082 169.340656 
L 1061.1936 169.034313 
L 1061.4168 167.147839 
L 1061.8632 160.214034 
L 1063.2024 137.494559 
L 1063.7604 131.889087 
L 1064.0952 130.182844 
L 1064.3184 129.782462 
L 1064.43 129.806086 
L 1064.6532 130.298632 
L 1064.988 132.123829 
L 1065.4344 136.443736 
L 1065.9924 144.389733 
L 1066.9968 162.856269 
L 1067.8896 178.149589 
L 1068.0012 178.923602 
L 1068.1128 178.730754 
L 1068.5592 174.261127 
L 1069.0056 170.561523 
L 1069.3404 169.08765 
L 1069.5636 168.759593 
L 1069.6752 168.784114 
L 1069.8984 169.172266 
L 1070.6796 171.592102 
L 1070.7912 171.438307 
L 1071.0144 170.192421 
L 1071.3492 166.039186 
L 1071.9072 155.205524 
L 1074.1392 107.411217 
L 1074.6972 101.136204 
L 1075.032 99.169269 
L 1075.2552 98.63079 
L 1075.3668 98.591043 
L 1075.59 98.958158 
L 1075.9248 100.561925 
L 1076.3712 104.393962 
L 1077.1524 113.9466 
L 1077.9336 123.024655 
L 1078.38 126.121648 
L 1078.7148 127.103722 
L 1078.938 127.179704 
L 1079.1612 126.89956 
L 1079.7192 125.474724 
L 1080.1656 124.657304 
L 1080.3888 124.654609 
L 1080.612 125.023202 
L 1080.9468 126.366209 
L 1081.3932 129.675331 
L 1082.0628 137.156796 
L 1082.7324 144.443963 
L 1083.0672 146.032216 
L 1083.1788 146.044243 
L 1083.402 145.199005 
L 1083.7368 141.8627 
L 1084.2948 132.468506 
L 1085.634 108.067943 
L 1086.192 101.830325 
L 1086.6384 99.204706 
L 1086.8616 98.6535 
L 1087.0848 98.559869 
L 1087.308 98.865942 
L 1087.6428 99.912245 
L 1088.982 105.260222 
L 1089.2052 105.512061 
L 1089.4284 105.477487 
L 1089.6516 105.184419 
L 1090.098 104.081039 
L 1090.656 102.725846 
L 1090.8792 102.543343 
L 1091.1024 102.726551 
L 1091.3256 103.36976 
L 1091.6604 105.370701 
L 1091.9952 108.796079 
L 1092.4416 115.787462 
L 1092.9996 128.460459 
L 1093.7808 152.252352 
L 1094.3388 168.578979 
L 1094.4504 169.744371 
L 1094.562 169.261266 
L 1094.7852 164.215736 
L 1095.5664 135.290858 
L 1096.5708 100.745361 
L 1097.2404 84.623532 
L 1097.6868 77.886967 
L 1098.0216 75.068214 
L 1098.2448 74.245596 
L 1098.3564 74.143169 
L 1098.468 74.241013 
L 1098.6912 75.01536 
L 1099.026 77.518433 
L 1099.4724 82.983092 
L 1100.2536 96.308835 
L 1101.4812 117.370448 
L 1102.1508 125.368681 
L 1103.49 139.902375 
L 1104.048 149.453573 
L 1104.7176 165.297519 
L 1105.2756 178.518841 
L 1105.4988 173.000847 
L 1106.7264 129.043651 
L 1107.7308 96.488454 
L 1108.4004 81.199457 
L 1108.8468 74.997637 
L 1109.1816 72.698253 
L 1109.4048 72.329043 
L 1109.5164 72.496502 
L 1109.7396 73.532578 
L 1110.0744 76.80699 
L 1110.5208 84.210685 
L 1111.0788 97.733559 
L 1111.9716 126.009269 
L 1112.8644 152.636491 
L 1113.0876 155.745898 
L 1113.1992 156.224303 
L 1113.3108 155.930493 
L 1113.534 153.265769 
L 1113.9804 142.863041 
L 1115.6544 99.271955 
L 1116.5472 82.550581 
L 1117.44 69.646702 
L 1118.3328 59.853848 
L 1118.8908 55.738443 
L 1119.3372 53.99529 
L 1119.5604 53.749629 
L 1119.7836 53.971019 
L 1120.0068 54.691704 
L 1120.3416 56.764898 
L 1120.788 61.462724 
L 1121.346 70.450212 
L 1122.0156 85.395913 
L 1123.02 113.736009 
L 1124.4708 154.164632 
L 1124.9172 161.810132 
L 1125.252 164.286312 
L 1125.3636 164.455965 
L 1125.4752 164.352178 
L 1125.6984 163.545533 
L 1126.7028 158.775269 
L 1126.926 158.544792 
L 1127.1492 158.744067 
L 1127.3724 159.369865 
L 1127.7072 161.059585 
L 1128.1536 164.510143 
L 1129.0464 173.821119 
L 1129.6044 179.22699 
L 1129.716 179.714286 
L 1129.8276 179.655971 
L 1130.1624 177.699234 
L 1130.7204 174.694364 
L 1131.0552 173.930998 
L 1131.2784 173.922815 
L 1131.5016 174.303675 
L 1131.948 175.885012 
L 1132.1712 176.534349 
L 1132.2828 176.566393 
L 1132.3944 176.288551 
L 1132.6176 174.730171 
L 1133.064 168.741904 
L 1133.8452 153.789374 
L 1135.854 113.185054 
L 1136.5236 104.812825 
L 1136.97 101.664671 
L 1137.3048 100.671813 
L 1137.528 100.66241 
L 1137.7512 101.162276 
L 1138.086 102.821093 
L 1138.5324 106.565436 
L 1139.202 114.75948 
L 1141.5456 146.578881 
L 1141.992 149.540328 
L 1142.3268 150.605517 
L 1142.55 150.729022 
L 1142.7732 150.373082 
L 1143.108 148.945087 
L 1143.5544 145.450377 
L 1144.1124 138.863953 
L 1145.0052 124.932432 
L 1146.456 102.265938 
L 1147.014 96.455603 
L 1147.4604 93.744439 
L 1147.7952 92.98627 
L 1147.9068 92.986575 
L 1148.13 93.370492 
L 1148.4648 94.8966 
L 1148.9112 98.629055 
L 1149.4692 105.707624 
L 1150.2504 118.896623 
L 1152.1476 152.498803 
L 1152.8172 160.097386 
L 1153.2636 163.006738 
L 1153.5984 163.863596 
L 1153.71 163.876323 
L 1153.9332 163.480449 
L 1154.268 161.848149 
L 1154.7144 157.911775 
L 1155.384 149.154597 
L 1157.616 117.077834 
L 1158.0624 114.004947 
L 1158.3972 113.018995 
L 1158.5088 112.959295 
L 1158.6204 113.037569 
L 1158.8436 113.612358 
L 1159.1784 115.520331 
L 1159.6248 119.950476 
L 1160.1828 128.168105 
L 1161.1872 147.408788 
L 1161.8568 158.454706 
L 1162.1916 160.864846 
L 1162.3032 160.982325 
L 1162.4148 160.758819 
L 1162.638 159.428544 
L 1163.0844 154.621666 
L 1163.9772 144.582428 
L 1164.4236 141.526174 
L 1164.7584 140.372635 
L 1164.9816 140.136783 
L 1165.2048 140.294751 
L 1165.5396 141.166714 
L 1166.0976 143.745732 
L 1166.8788 147.413264 
L 1167.2136 148.221443 
L 1167.4368 148.401885 
L 1167.66 148.319313 
L 1167.9948 147.841856 
L 1168.6644 146.784118 
L 1168.8876 146.764943 
L 1169.1108 147.054294 
L 1169.334 147.714051 
L 1169.6688 149.485272 
L 1170.1152 153.340058 
L 1171.2312 164.642154 
L 1171.3428 164.643468 
L 1171.566 163.212791 
L 1171.9008 157.890713 
L 1172.5704 141.285842 
L 1174.0212 104.085987 
L 1174.5792 94.455148 
L 1175.0256 89.737492 
L 1175.3604 88.111103 
L 1175.5836 87.955105 
L 1175.8068 88.530275 
L 1176.1416 90.70181 
L 1176.588 95.77792 
L 1177.2576 106.745141 
L 1178.3736 125.262581 
L 1178.82 129.079375 
L 1179.0432 129.819938 
L 1179.1548 129.914257 
L 1179.2664 129.843904 
L 1179.4896 129.289882 
L 1179.936 127.202987 
L 1180.494 124.732812 
L 1180.7172 124.291217 
L 1180.8288 124.243902 
L 1181.052 124.543056 
L 1181.2752 125.408602 
L 1181.61 127.81603 
L 1182.0564 133.00385 
L 1183.5072 153.359181 
L 1183.6188 153.585923 
L 1183.7304 153.394333 
L 1183.9536 151.778252 
L 1184.2884 146.854837 
L 1186.074 115.165634 
L 1186.4088 113.064202 
L 1186.632 112.707435 
L 1186.7436 112.851537 
L 1186.9668 113.787633 
L 1187.3016 116.780348 
L 1187.748 123.488913 
L 1188.5292 140.035529 
L 1189.0872 149.641962 
L 1189.3104 150.601321 
L 1189.422 150.179633 
L 1189.6452 147.564563 
L 1189.98 140.218026 
L 1191.8772 90.574053 
L 1192.3236 85.518814 
L 1192.5468 84.447126 
L 1192.6584 84.287484 
L 1192.77 84.380462 
L 1192.9932 85.323451 
L 1193.328 88.600358 
L 1193.7744 96.255395 
L 1194.3324 110.383547 
L 1195.3368 143.305464 
L 1195.8948 159.160601 
L 1196.118 161.952983 
L 1196.2296 162.047418 
L 1196.4528 159.773387 
L 1196.8992 149.996265 
L 1197.792 130.577026 
L 1198.2384 124.817972 
L 1198.5732 122.704118 
L 1198.7964 122.368799 
L 1198.908 122.518552 
L 1199.1312 123.43314 
L 1199.466 126.248798 
L 1199.9124 132.31036 
L 1201.4748 157.425472 
L 1201.698 157.975587 
L 1201.8096 157.723337 
L 1202.0328 156.327038 
L 1202.5908 150.096603 
L 1203.2604 143.281393 
L 1203.5952 141.48309 
L 1203.8184 141.015078 
L 1203.93 140.998562 
L 1204.1532 141.370783 
L 1204.488 142.760021 
L 1205.1576 146.159735 
L 1205.3808 146.378192 
L 1205.4924 146.119188 
L 1205.7156 144.70275 
L 1206.0504 140.181514 
L 1206.4968 130.328837 
L 1208.7288 73.643895 
L 1209.1752 69.148806 
L 1209.3984 68.293667 
L 1209.51 68.226043 
L 1209.6216 68.400024 
L 1209.8448 69.471118 
L 1210.1796 72.849849 
L 1210.626 80.441776 
L 1211.2956 97.161417 
L 1212.6348 133.513395 
L 1212.9696 137.433596 
L 1213.0812 137.831276 
L 1213.1928 137.765004 
L 1213.416 136.35145 
L 1213.7508 131.778367 
L 1215.4248 104.065881 
L 1215.8712 100.480414 
L 1216.3176 98.477508 
L 1216.8756 97.103193 
L 1217.322 95.89505 
L 1217.7684 93.896224 
L 1218.3264 90.086404 
L 1219.3308 82.834623 
L 1219.6656 81.774919 
L 1219.7772 81.702453 
L 1219.8888 81.792239 
L 1220.112 82.504808 
L 1220.4468 85.052804 
L 1220.7816 89.55079 
L 1221.228 98.75818 
L 1221.786 115.36203 
L 1222.5672 146.636423 
L 1223.2368 173.968381 
L 1223.3484 173.464278 
L 1223.6832 160.063548 
L 1225.0224 101.181467 
L 1225.692 81.827965 
L 1226.1384 74.592647 
L 1226.4732 72.457765 
L 1226.5848 72.390002 
L 1226.6964 72.645151 
L 1226.9196 74.118307 
L 1227.2544 78.681833 
L 1227.7008 88.884252 
L 1228.2588 107.270291 
L 1229.7096 160.113342 
L 1229.8212 160.305326 
L 1230.0444 156.805442 
L 1230.4908 142.041029 
L 1231.3836 112.258032 
L 1231.9416 100.562211 
L 1232.2764 96.942289 
L 1232.4996 96.021123 
L 1232.6112 96.009545 
L 1232.8344 96.871866 
L 1233.1692 100.295787 
L 1233.6156 108.432557 
L 1234.2852 126.025836 
L 1234.9548 143.201153 
L 1235.2896 146.847918 
L 1235.4012 146.775608 
L 1235.6244 144.675851 
L 1235.9592 137.833124 
L 1237.41 103.145912 
L 1237.7448 99.566371 
L 1237.968 98.585104 
L 1238.0796 98.534939 
L 1238.1912 98.78335 
L 1238.4144 100.182239 
L 1238.7492 104.524326 
L 1239.1956 114.337202 
L 1239.7536 132.350969 
L 1240.6464 170.602102 
L 1240.8696 179.834213 
L 1241.0928 171.292908 
L 1242.432 112.668688 
L 1243.1016 92.830256 
L 1243.548 84.922837 
L 1243.8828 82.061911 
L 1244.106 81.641553 
L 1244.2176 81.873077 
L 1244.4408 83.199266 
L 1244.7756 87.24562 
L 1245.222 96.052808 
L 1245.8916 114.49305 
L 1246.7844 139.313567 
L 1247.1192 144.176605 
L 1247.3424 144.935267 
L 1247.454 144.56758 
L 1247.6772 142.598442 
L 1248.2352 134.020183 
L 1248.7932 126.250072 
L 1249.128 123.794934 
L 1249.3512 123.368351 
L 1249.4628 123.545242 
L 1249.686 124.699706 
L 1250.0208 128.421127 
L 1250.4672 136.763867 
L 1251.36 156.386546 
L 1251.4716 157.073795 
L 1251.5832 156.779243 
L 1251.8064 153.16557 
L 1252.1412 142.178518 
L 1253.1456 97.178458 
L 1254.0384 61.975969 
L 1254.5964 47.37551 
L 1255.0428 41.052137 
L 1255.266 39.815532 
L 1255.3776 39.686163 
L 1255.4892 39.881741 
L 1255.7124 41.235422 
L 1256.0472 45.583398 
L 1256.4936 55.27418 
L 1257.1632 75.821659 
L 1258.056 103.445996 
L 1258.3908 109.158265 
L 1258.614 110.451802 
L 1258.7256 110.294569 
L 1258.9488 108.473828 
L 1259.2836 102.727197 
L 1260.7344 71.965983 
L 1261.0692 69.431666 
L 1261.1808 69.204218 
L 1261.2924 69.300782 
L 1261.5156 70.489263 
L 1261.8504 74.801735 
L 1262.2968 85.221636 
L 1262.8548 105.191671 
L 1263.636 143.457153 
L 1264.3056 180.530607 
L 1265.0868 136.08071 
L 1265.9796 91.479182 
L 1266.6492 68.094661 
L 1267.0956 58.640606 
L 1267.4304 55.007103 
L 1267.6536 54.234019 
L 1267.7652 54.332022 
L 1267.9884 55.464655 
L 1268.3232 59.358241 
L 1268.7696 68.043368 
L 1270.4436 105.89752 
L 1270.6668 106.481777 
L 1270.7784 106.067106 
L 1271.0016 103.895105 
L 1271.3364 97.845595 
L 1272.2292 74.82953 
L 1272.8988 60.551682 
L 1273.3452 55.343793 
L 1273.5684 54.326607 
L 1273.68 54.237632 
L 1273.7916 54.433173 
L 1274.0148 55.684011 
L 1274.3496 59.700202 
L 1274.796 68.904196 
L 1275.354 85.973126 
L 1276.1352 117.880355 
L 1277.4744 180.584858 
L 1278.144 152.03515 
L 1278.9252 123.861357 
L 1279.5948 107.319653 
L 1280.0412 100.643418 
L 1280.376 97.921033 
L 1280.5992 97.148536 
L 1280.7108 97.059792 
L 1280.8224 97.160712 
L 1281.0456 97.900608 
L 1281.3804 100.217741 
L 1281.8268 105.085377 
L 1283.2776 123.126369 
L 1283.6124 124.77296 
L 1283.8356 124.929942 
L 1284.0588 124.344327 
L 1284.3936 122.256331 
L 1284.9516 116.68678 
L 1285.956 106.30999 
L 1286.4024 103.527206 
L 1286.7372 102.588698 
L 1286.9604 102.564132 
L 1287.1836 103.037386 
L 1287.5184 104.687705 
L 1287.9648 108.602857 
L 1288.5228 116.02507 
L 1289.304 130.131084 
L 1290.8664 159.774171 
L 1291.2012 162.22873 
L 1291.3128 162.362265 
L 1291.4244 162.154103 
L 1291.6476 160.849941 
L 1292.094 156.054217 
L 1293.0984 144.536467 
L 1293.5448 141.322279 
L 1293.8796 139.963374 
L 1294.1028 139.56235 
L 1294.326 139.546534 
L 1294.5492 139.884975 
L 1294.884 140.954805 
L 1295.5536 144.236586 
L 1295.8884 145.789495 
L 1295.8884 145.789495 
" style="fill:none;stroke:#1f77b4;stroke-linecap:square;"/>
   </g>
   <g id="patch_3">
    <path d="M 180 189 
L 180 25.92 
" style="fill:none;stroke:#000000;stroke-linecap:square;stroke-linejoin:miter;stroke-width:0.8;"/>
   </g>
   <g id="patch_4">
    <path d="M 1296 189 
L 1296 25.92 
" style="fill:none;stroke:#000000;stroke-linecap:square;stroke-linejoin:miter;stroke-width:0.8;"/>
   </g>
   <g id="patch_5">
    <path d="M 180 189 
L 1296 189 
" style="fill:none;stroke:#000000;stroke-linecap:square;stroke-linejoin:miter;stroke-width:0.8;"/>
   </g>
   <g id="patch_6">
    <path d="M 180 25.92 
L 1296 25.92 
" style="fill:none;stroke:#000000;stroke-linecap:square;stroke-linejoin:miter;stroke-width:0.8;"/>
   </g>
   <g id="text_15">
    <!-- Envelope -->
    <defs>
     <path d="M 9.8125 72.90625 
L 55.90625 72.90625 
L 55.90625 64.59375 
L 19.671875 64.59375 
L 19.671875 43.015625 
L 54.390625 43.015625 
L 54.390625 34.71875 
L 19.671875 34.71875 
L 19.671875 8.296875 
L 56.78125 8.296875 
L 56.78125 0 
L 9.8125 0 
z
" id="DejaVuSans-69"/>
     <path d="M 54.890625 33.015625 
L 54.890625 0 
L 45.90625 0 
L 45.90625 32.71875 
Q 45.90625 40.484375 42.875 44.328125 
Q 39.84375 48.1875 33.796875 48.1875 
Q 26.515625 48.1875 22.3125 43.546875 
Q 18.109375 38.921875 18.109375 30.90625 
L 18.109375 0 
L 9.078125 0 
L 9.078125 54.6875 
L 18.109375 54.6875 
L 18.109375 46.1875 
Q 21.34375 51.125 25.703125 53.5625 
Q 30.078125 56 35.796875 56 
Q 45.21875 56 50.046875 50.171875 
Q 54.890625 44.34375 54.890625 33.015625 
z
" id="DejaVuSans-110"/>
     <path d="M 2.984375 54.6875 
L 12.5 54.6875 
L 29.59375 8.796875 
L 46.6875 54.6875 
L 56.203125 54.6875 
L 35.6875 0 
L 23.484375 0 
z
" id="DejaVuSans-118"/>
     <path d="M 30.609375 48.390625 
Q 23.390625 48.390625 19.1875 42.75 
Q 14.984375 37.109375 14.984375 27.296875 
Q 14.984375 17.484375 19.15625 11.84375 
Q 23.34375 6.203125 30.609375 6.203125 
Q 37.796875 6.203125 41.984375 11.859375 
Q 46.1875 17.53125 46.1875 27.296875 
Q 46.1875 37.015625 41.984375 42.703125 
Q 37.796875 48.390625 30.609375 48.390625 
z
M 30.609375 56 
Q 42.328125 56 49.015625 48.375 
Q 55.71875 40.765625 55.71875 27.296875 
Q 55.71875 13.875 49.015625 6.21875 
Q 42.328125 -1.421875 30.609375 -1.421875 
Q 18.84375 -1.421875 12.171875 6.21875 
Q 5.515625 13.875 5.515625 27.296875 
Q 5.515625 40.765625 12.171875 48.375 
Q 18.84375 56 30.609375 56 
z
" id="DejaVuSans-111"/>
    </defs>
    <g transform="translate(691.873438 19.92)scale(0.2 -0.2)">
     <use xlink:href="#DejaVuSans-69"/>
     <use x="63.183594" xlink:href="#DejaVuSans-110"/>
     <use x="126.5625" xlink:href="#DejaVuSans-118"/>
     <use x="185.742188" xlink:href="#DejaVuSans-101"/>
     <use x="247.265625" xlink:href="#DejaVuSans-108"/>
     <use x="275.048828" xlink:href="#DejaVuSans-111"/>
     <use x="336.230469" xlink:href="#DejaVuSans-112"/>
     <use x="399.707031" xlink:href="#DejaVuSans-101"/>
    </g>
   </g>
  </g>
 </g>
 <defs>
  <clipPath id="p5e962d65b4">
   <rect height="163.08" width="1116" x="180" y="25.92"/>
  </clipPath>
 </defs>
</svg>
