<?xml version="1.0" encoding="utf-8" standalone="no"?>
<!DOCTYPE svg PUBLIC "-//W3C//DTD SVG 1.1//EN"
  "http://www.w3.org/Graphics/SVG/1.1/DTD/svg11.dtd">
<!-- Created with matplotlib (https://matplotlib.org/) -->
<svg height="230.072969pt" version="1.1" viewBox="0 0 490.49375 230.072969" width="490.49375pt" xmlns="http://www.w3.org/2000/svg" xmlns:xlink="http://www.w3.org/1999/xlink">
 <defs>
  <style type="text/css">
*{stroke-linecap:butt;stroke-linejoin:round;}
  </style>
 </defs>
 <g id="figure_1">
  <g id="patch_1">
   <path d="M 0 230.072969 
L 490.49375 230.072969 
L 490.49375 0 
L 0 0 
z
" style="fill:#ffffff;"/>
  </g>
  <g id="axes_1">
   <g id="patch_2">
    <path d="M 28.942188 187.677656 
L 475.342187 187.677656 
L 475.342187 24.597656 
L 28.942188 24.597656 
z
" style="fill:#ffffff;"/>
   </g>
   <g id="matplotlib.axis_1">
    <g id="xtick_1">
     <g id="line2d_1">
      <defs>
       <path d="M 0 0 
L 0 3.5 
" id="mf1963c60c0" style="stroke:#000000;stroke-width:0.8;"/>
      </defs>
      <g>
       <use style="stroke:#000000;stroke-width:0.8;" x="28.942188" xlink:href="#mf1963c60c0" y="187.677656"/>
      </g>
     </g>
     <g id="text_1">
      <!-- 0.0 -->
      <defs>
       <path d="M 31.78125 66.40625 
Q 24.171875 66.40625 20.328125 58.90625 
Q 16.5 51.421875 16.5 36.375 
Q 16.5 21.390625 20.328125 13.890625 
Q 24.171875 6.390625 31.78125 6.390625 
Q 39.453125 6.390625 43.28125 13.890625 
Q 47.125 21.390625 47.125 36.375 
Q 47.125 51.421875 43.28125 58.90625 
Q 39.453125 66.40625 31.78125 66.40625 
z
M 31.78125 74.21875 
Q 44.046875 74.21875 50.515625 64.515625 
Q 56.984375 54.828125 56.984375 36.375 
Q 56.984375 17.96875 50.515625 8.265625 
Q 44.046875 -1.421875 31.78125 -1.421875 
Q 19.53125 -1.421875 13.0625 8.265625 
Q 6.59375 17.96875 6.59375 36.375 
Q 6.59375 54.828125 13.0625 64.515625 
Q 19.53125 74.21875 31.78125 74.21875 
z
" id="DejaVuSans-48"/>
       <path d="M 10.6875 12.40625 
L 21 12.40625 
L 21 0 
L 10.6875 0 
z
" id="DejaVuSans-46"/>
      </defs>
      <g transform="translate(20.990625 202.276094)scale(0.1 -0.1)">
       <use xlink:href="#DejaVuSans-48"/>
       <use x="63.623047" xlink:href="#DejaVuSans-46"/>
       <use x="95.410156" xlink:href="#DejaVuSans-48"/>
      </g>
     </g>
    </g>
    <g id="xtick_2">
     <g id="line2d_2">
      <g>
       <use style="stroke:#000000;stroke-width:0.8;" x="118.222188" xlink:href="#mf1963c60c0" y="187.677656"/>
      </g>
     </g>
     <g id="text_2">
      <!-- 0.2 -->
      <defs>
       <path d="M 19.1875 8.296875 
L 53.609375 8.296875 
L 53.609375 0 
L 7.328125 0 
L 7.328125 8.296875 
Q 12.9375 14.109375 22.625 23.890625 
Q 32.328125 33.6875 34.8125 36.53125 
Q 39.546875 41.84375 41.421875 45.53125 
Q 43.3125 49.21875 43.3125 52.78125 
Q 43.3125 58.59375 39.234375 62.25 
Q 35.15625 65.921875 28.609375 65.921875 
Q 23.96875 65.921875 18.8125 64.3125 
Q 13.671875 62.703125 7.8125 59.421875 
L 7.8125 69.390625 
Q 13.765625 71.78125 18.9375 73 
Q 24.125 74.21875 28.421875 74.21875 
Q 39.75 74.21875 46.484375 68.546875 
Q 53.21875 62.890625 53.21875 53.421875 
Q 53.21875 48.921875 51.53125 44.890625 
Q 49.859375 40.875 45.40625 35.40625 
Q 44.1875 33.984375 37.640625 27.21875 
Q 31.109375 20.453125 19.1875 8.296875 
z
" id="DejaVuSans-50"/>
      </defs>
      <g transform="translate(110.270625 202.276094)scale(0.1 -0.1)">
       <use xlink:href="#DejaVuSans-48"/>
       <use x="63.623047" xlink:href="#DejaVuSans-46"/>
       <use x="95.410156" xlink:href="#DejaVuSans-50"/>
      </g>
     </g>
    </g>
    <g id="xtick_3">
     <g id="line2d_3">
      <g>
       <use style="stroke:#000000;stroke-width:0.8;" x="207.502187" xlink:href="#mf1963c60c0" y="187.677656"/>
      </g>
     </g>
     <g id="text_3">
      <!-- 0.4 -->
      <defs>
       <path d="M 37.796875 64.3125 
L 12.890625 25.390625 
L 37.796875 25.390625 
z
M 35.203125 72.90625 
L 47.609375 72.90625 
L 47.609375 25.390625 
L 58.015625 25.390625 
L 58.015625 17.1875 
L 47.609375 17.1875 
L 47.609375 0 
L 37.796875 0 
L 37.796875 17.1875 
L 4.890625 17.1875 
L 4.890625 26.703125 
z
" id="DejaVuSans-52"/>
      </defs>
      <g transform="translate(199.550625 202.276094)scale(0.1 -0.1)">
       <use xlink:href="#DejaVuSans-48"/>
       <use x="63.623047" xlink:href="#DejaVuSans-46"/>
       <use x="95.410156" xlink:href="#DejaVuSans-52"/>
      </g>
     </g>
    </g>
    <g id="xtick_4">
     <g id="line2d_4">
      <g>
       <use style="stroke:#000000;stroke-width:0.8;" x="296.782188" xlink:href="#mf1963c60c0" y="187.677656"/>
      </g>
     </g>
     <g id="text_4">
      <!-- 0.6 -->
      <defs>
       <path d="M 33.015625 40.375 
Q 26.375 40.375 22.484375 35.828125 
Q 18.609375 31.296875 18.609375 23.390625 
Q 18.609375 15.53125 22.484375 10.953125 
Q 26.375 6.390625 33.015625 6.390625 
Q 39.65625 6.390625 43.53125 10.953125 
Q 47.40625 15.53125 47.40625 23.390625 
Q 47.40625 31.296875 43.53125 35.828125 
Q 39.65625 40.375 33.015625 40.375 
z
M 52.59375 71.296875 
L 52.59375 62.3125 
Q 48.875 64.0625 45.09375 64.984375 
Q 41.3125 65.921875 37.59375 65.921875 
Q 27.828125 65.921875 22.671875 59.328125 
Q 17.53125 52.734375 16.796875 39.40625 
Q 19.671875 43.65625 24.015625 45.921875 
Q 28.375 48.1875 33.59375 48.1875 
Q 44.578125 48.1875 50.953125 41.515625 
Q 57.328125 34.859375 57.328125 23.390625 
Q 57.328125 12.15625 50.6875 5.359375 
Q 44.046875 -1.421875 33.015625 -1.421875 
Q 20.359375 -1.421875 13.671875 8.265625 
Q 6.984375 17.96875 6.984375 36.375 
Q 6.984375 53.65625 15.1875 63.9375 
Q 23.390625 74.21875 37.203125 74.21875 
Q 40.921875 74.21875 44.703125 73.484375 
Q 48.484375 72.75 52.59375 71.296875 
z
" id="DejaVuSans-54"/>
      </defs>
      <g transform="translate(288.830625 202.276094)scale(0.1 -0.1)">
       <use xlink:href="#DejaVuSans-48"/>
       <use x="63.623047" xlink:href="#DejaVuSans-46"/>
       <use x="95.410156" xlink:href="#DejaVuSans-54"/>
      </g>
     </g>
    </g>
    <g id="xtick_5">
     <g id="line2d_5">
      <g>
       <use style="stroke:#000000;stroke-width:0.8;" x="386.062187" xlink:href="#mf1963c60c0" y="187.677656"/>
      </g>
     </g>
     <g id="text_5">
      <!-- 0.8 -->
      <defs>
       <path d="M 31.78125 34.625 
Q 24.75 34.625 20.71875 30.859375 
Q 16.703125 27.09375 16.703125 20.515625 
Q 16.703125 13.921875 20.71875 10.15625 
Q 24.75 6.390625 31.78125 6.390625 
Q 38.8125 6.390625 42.859375 10.171875 
Q 46.921875 13.96875 46.921875 20.515625 
Q 46.921875 27.09375 42.890625 30.859375 
Q 38.875 34.625 31.78125 34.625 
z
M 21.921875 38.8125 
Q 15.578125 40.375 12.03125 44.71875 
Q 8.5 49.078125 8.5 55.328125 
Q 8.5 64.0625 14.71875 69.140625 
Q 20.953125 74.21875 31.78125 74.21875 
Q 42.671875 74.21875 48.875 69.140625 
Q 55.078125 64.0625 55.078125 55.328125 
Q 55.078125 49.078125 51.53125 44.71875 
Q 48 40.375 41.703125 38.8125 
Q 48.828125 37.15625 52.796875 32.3125 
Q 56.78125 27.484375 56.78125 20.515625 
Q 56.78125 9.90625 50.3125 4.234375 
Q 43.84375 -1.421875 31.78125 -1.421875 
Q 19.734375 -1.421875 13.25 4.234375 
Q 6.78125 9.90625 6.78125 20.515625 
Q 6.78125 27.484375 10.78125 32.3125 
Q 14.796875 37.15625 21.921875 38.8125 
z
M 18.3125 54.390625 
Q 18.3125 48.734375 21.84375 45.5625 
Q 25.390625 42.390625 31.78125 42.390625 
Q 38.140625 42.390625 41.71875 45.5625 
Q 45.3125 48.734375 45.3125 54.390625 
Q 45.3125 60.0625 41.71875 63.234375 
Q 38.140625 66.40625 31.78125 66.40625 
Q 25.390625 66.40625 21.84375 63.234375 
Q 18.3125 60.0625 18.3125 54.390625 
z
" id="DejaVuSans-56"/>
      </defs>
      <g transform="translate(378.110625 202.276094)scale(0.1 -0.1)">
       <use xlink:href="#DejaVuSans-48"/>
       <use x="63.623047" xlink:href="#DejaVuSans-46"/>
       <use x="95.410156" xlink:href="#DejaVuSans-56"/>
      </g>
     </g>
    </g>
    <g id="xtick_6">
     <g id="line2d_6">
      <g>
       <use style="stroke:#000000;stroke-width:0.8;" x="475.342187" xlink:href="#mf1963c60c0" y="187.677656"/>
      </g>
     </g>
     <g id="text_6">
      <!-- 1.0 -->
      <defs>
       <path d="M 12.40625 8.296875 
L 28.515625 8.296875 
L 28.515625 63.921875 
L 10.984375 60.40625 
L 10.984375 69.390625 
L 28.421875 72.90625 
L 38.28125 72.90625 
L 38.28125 8.296875 
L 54.390625 8.296875 
L 54.390625 0 
L 12.40625 0 
z
" id="DejaVuSans-49"/>
      </defs>
      <g transform="translate(467.390625 202.276094)scale(0.1 -0.1)">
       <use xlink:href="#DejaVuSans-49"/>
       <use x="63.623047" xlink:href="#DejaVuSans-46"/>
       <use x="95.410156" xlink:href="#DejaVuSans-48"/>
      </g>
     </g>
    </g>
    <g id="text_7">
     <!-- t -->
     <defs>
      <path d="M 18.3125 70.21875 
L 18.3125 54.6875 
L 36.8125 54.6875 
L 36.8125 47.703125 
L 18.3125 47.703125 
L 18.3125 18.015625 
Q 18.3125 11.328125 20.140625 9.421875 
Q 21.96875 7.515625 27.59375 7.515625 
L 36.8125 7.515625 
L 36.8125 0 
L 27.59375 0 
Q 17.1875 0 13.234375 3.875 
Q 9.28125 7.765625 9.28125 18.015625 
L 9.28125 47.703125 
L 2.6875 47.703125 
L 2.6875 54.6875 
L 9.28125 54.6875 
L 9.28125 70.21875 
z
" id="DejaVuSans-116"/>
     </defs>
     <g transform="translate(249.201953 219.753438)scale(0.15 -0.15)">
      <use xlink:href="#DejaVuSans-116"/>
     </g>
    </g>
   </g>
   <g id="matplotlib.axis_2">
    <g id="ytick_1">
     <g id="line2d_7">
      <defs>
       <path d="M 0 0 
L -3.5 0 
" id="m37444b0f25" style="stroke:#000000;stroke-width:0.8;"/>
      </defs>
      <g>
       <use style="stroke:#000000;stroke-width:0.8;" x="28.942188" xlink:href="#m37444b0f25" y="179.612512"/>
      </g>
     </g>
     <g id="text_8">
      <!-- −2 -->
      <defs>
       <path d="M 10.59375 35.5 
L 73.1875 35.5 
L 73.1875 27.203125 
L 10.59375 27.203125 
z
" id="DejaVuSans-8722"/>
      </defs>
      <g transform="translate(7.2 183.411731)scale(0.1 -0.1)">
       <use xlink:href="#DejaVuSans-8722"/>
       <use x="83.789062" xlink:href="#DejaVuSans-50"/>
      </g>
     </g>
    </g>
    <g id="ytick_2">
     <g id="line2d_8">
      <g>
       <use style="stroke:#000000;stroke-width:0.8;" x="28.942188" xlink:href="#m37444b0f25" y="140.424267"/>
      </g>
     </g>
     <g id="text_9">
      <!-- −1 -->
      <g transform="translate(7.2 144.223486)scale(0.1 -0.1)">
       <use xlink:href="#DejaVuSans-8722"/>
       <use x="83.789062" xlink:href="#DejaVuSans-49"/>
      </g>
     </g>
    </g>
    <g id="ytick_3">
     <g id="line2d_9">
      <g>
       <use style="stroke:#000000;stroke-width:0.8;" x="28.942188" xlink:href="#m37444b0f25" y="101.236022"/>
      </g>
     </g>
     <g id="text_10">
      <!-- 0 -->
      <g transform="translate(15.579688 105.035241)scale(0.1 -0.1)">
       <use xlink:href="#DejaVuSans-48"/>
      </g>
     </g>
    </g>
    <g id="ytick_4">
     <g id="line2d_10">
      <g>
       <use style="stroke:#000000;stroke-width:0.8;" x="28.942188" xlink:href="#m37444b0f25" y="62.047777"/>
      </g>
     </g>
     <g id="text_11">
      <!-- 1 -->
      <g transform="translate(15.579688 65.846995)scale(0.1 -0.1)">
       <use xlink:href="#DejaVuSans-49"/>
      </g>
     </g>
    </g>
   </g>
   <g id="line2d_11">
    <path clip-path="url(#p099ef84652)" d="M 28.942188 101.236022 
L 29.343948 101.629874 
L 29.834988 102.476453 
L 30.415308 103.950991 
L 31.174188 106.525001 
L 32.334828 111.359902 
L 34.120428 118.72404 
L 34.923948 121.108979 
L 35.504268 122.218093 
L 35.950668 122.658761 
L 36.307788 122.731783 
L 36.620268 122.583627 
L 36.977388 122.167439 
L 37.423788 121.276554 
L 37.959468 119.67735 
L 38.629068 116.92284 
L 39.477227 112.4194 
L 40.816428 103.888529 
L 42.512748 93.334276 
L 43.316268 89.587227 
L 43.941228 87.620933 
L 44.387628 86.829576 
L 44.744748 86.603728 
L 45.012588 86.68569 
L 45.325068 87.063764 
L 45.682187 87.877873 
L 46.128588 89.477969 
L 46.664268 92.252318 
L 47.333868 96.991789 
L 48.137388 104.39104 
L 49.164108 116.070621 
L 50.905068 138.987397 
L 52.601388 160.317289 
L 53.583468 170.069005 
L 54.342348 175.594921 
L 54.922668 178.435078 
L 55.369067 179.740804 
L 55.726188 180.217557 
L 55.994028 180.240528 
L 56.261868 179.976962 
L 56.574348 179.31049 
L 56.976108 177.896712 
L 57.511787 175.076039 
L 58.181387 170.161434 
L 59.029548 162.035663 
L 60.145548 148.975012 
L 63.806027 104.383339 
L 64.743468 96.365247 
L 65.502347 91.579001 
L 66.171948 88.681032 
L 66.707628 87.241241 
L 67.154028 86.607007 
L 67.511147 86.444547 
L 67.823628 86.534605 
L 68.180747 86.879389 
L 68.671788 87.722867 
L 69.296748 89.294091 
L 70.278828 92.471097 
L 72.153707 98.598551 
L 72.912588 100.320138 
L 73.492908 101.149671 
L 73.983947 101.483254 
L 74.385707 101.496977 
L 74.787467 101.279938 
L 75.278508 100.716085 
L 75.858827 99.668522 
L 76.617707 97.801832 
L 78.269387 92.919527 
L 79.206828 90.565855 
L 79.831788 89.531854 
L 80.278188 89.158681 
L 80.635308 89.117852 
L 80.992428 89.3298 
L 81.394188 89.892802 
L 81.840587 90.944242 
L 82.376267 92.820167 
L 83.001227 95.864063 
L 83.760108 100.755271 
L 84.697548 108.40088 
L 85.992108 121.048693 
L 88.670507 147.716297 
L 89.607947 154.679816 
L 90.322188 158.474467 
L 90.857867 160.323825 
L 91.304268 161.164271 
L 91.616748 161.361568 
L 91.884588 161.271479 
L 92.197068 160.863985 
L 92.598827 159.866584 
L 93.089867 157.944141 
L 93.714827 154.443814 
L 94.473708 148.783598 
L 95.455787 139.648361 
L 97.241388 120.429892 
L 98.803787 104.563591 
L 99.785868 96.662748 
L 100.544747 92.139273 
L 101.169708 89.589181 
L 101.660748 88.363485 
L 102.062507 87.87146 
L 102.374988 87.8011 
L 102.687468 87.996141 
L 103.044588 88.530949 
L 103.490988 89.638699 
L 104.071308 91.735429 
L 104.830188 95.403565 
L 105.946188 102.063564 
L 108.312108 116.460917 
L 109.204908 120.44038 
L 109.874508 122.536092 
L 110.410187 123.599845 
L 110.856588 124.055514 
L 111.213708 124.138608 
L 111.570828 123.977221 
L 111.972588 123.515295 
L 112.463628 122.574896 
L 113.088588 120.849418 
L 113.936748 117.761128 
L 115.365228 111.527854 
L 116.927627 105.029788 
L 117.820427 102.205523 
L 118.534668 100.623831 
L 119.114987 99.82606 
L 119.606027 99.493652 
L 120.052427 99.451471 
L 120.498828 99.636128 
L 121.034508 100.116595 
L 121.748747 101.090664 
L 124.203947 104.743011 
L 124.694988 105.011144 
L 125.096748 105.005235 
L 125.498508 104.765214 
L 125.944908 104.194399 
L 126.435947 103.16725 
L 127.016267 101.385877 
L 127.685868 98.555261 
L 128.489388 94.108931 
L 129.471468 87.33989 
L 130.989227 75.100138 
L 132.819468 60.702352 
L 133.756908 54.972145 
L 134.471148 51.85607 
L 135.006827 50.36852 
L 135.408588 49.774918 
L 135.721068 49.636407 
L 135.988907 49.747567 
L 136.301388 50.147974 
L 136.703148 51.090962 
L 137.194187 52.887378 
L 137.819147 56.153081 
L 138.578028 61.455461 
L 139.560108 70.085369 
L 141.122508 86.167543 
L 142.952747 104.479352 
L 143.934827 112.273241 
L 144.738348 116.987825 
L 145.363308 119.460514 
L 145.854348 120.629254 
L 146.256108 121.07385 
L 146.568588 121.105214 
L 146.881067 120.868243 
L 147.238188 120.280783 
L 147.684588 119.098492 
L 148.264907 116.887913 
L 149.023787 113.039464 
L 150.139788 106.054104 
L 152.550348 90.634734 
L 153.443148 86.470644 
L 154.112748 84.284821 
L 154.648428 83.179962 
L 155.094828 82.709649 
L 155.451948 82.625929 
L 155.809067 82.794501 
L 156.210827 83.270728 
L 156.701867 84.231226 
L 157.326827 85.971376 
L 158.219628 89.192595 
L 160.808747 98.985945 
L 161.478347 100.537237 
L 161.969387 101.203542 
L 162.371148 101.414381 
L 162.683628 101.357628 
L 163.040748 101.048768 
L 163.442507 100.38645 
L 163.933547 99.128498 
L 164.558508 96.846785 
L 165.317387 93.165733 
L 166.344108 86.992099 
L 169.156428 69.41223 
L 169.915307 66.266629 
L 170.495628 64.730006 
L 170.897387 64.170632 
L 171.209868 64.040812 
L 171.477708 64.149617 
L 171.790188 64.538439 
L 172.191948 65.456552 
L 172.682988 67.213501 
L 173.263307 70.159249 
L 174.022187 75.310195 
L 174.959628 83.333216 
L 176.566667 99.389187 
L 178.129068 114.166731 
L 179.021867 120.610884 
L 179.691467 123.965041 
L 180.182507 125.473286 
L 180.539627 126.021801 
L 180.807467 126.117718 
L 181.030667 125.986881 
L 181.343147 125.478271 
L 181.744908 124.264795 
L 182.235948 121.936285 
L 182.816267 118.029448 
L 183.530507 111.641327 
L 184.467948 101.04103 
L 185.851788 82.438552 
L 188.083788 52.523755 
L 189.065868 42.371042 
L 189.824748 36.673605 
L 190.405068 33.785259 
L 190.851468 32.487362 
L 191.208587 32.041351 
L 191.431787 32.030937 
L 191.699628 32.289265 
L 192.012108 32.959045 
L 192.413867 34.387851 
L 192.949547 37.237185 
L 193.619147 42.178314 
L 194.467308 50.272967 
L 195.672588 64.164396 
L 198.395627 96.232419 
L 199.377707 104.990189 
L 200.181227 110.290381 
L 200.850827 113.309133 
L 201.386507 114.805405 
L 201.832908 115.452682 
L 202.190027 115.601602 
L 202.502508 115.482168 
L 202.859627 115.084664 
L 203.350667 114.138959 
L 203.975627 112.399999 
L 205.002347 108.763764 
L 206.564748 103.318312 
L 207.278988 101.609443 
L 207.814667 100.85998 
L 208.216428 100.646241 
L 208.528908 100.701589 
L 208.886028 101.010667 
L 209.287787 101.675843 
L 209.778827 102.940033 
L 210.403788 105.22889 
L 211.207308 109.143434 
L 212.323307 115.834352 
L 214.421388 128.551375 
L 215.180268 131.849197 
L 215.760587 133.51237 
L 216.206988 134.187692 
L 216.519468 134.317194 
L 216.787307 134.19101 
L 217.099787 133.757654 
L 217.501548 132.736581 
L 217.992588 130.770858 
L 218.572907 127.439777 
L 219.287148 121.915771 
L 220.179947 113.071193 
L 221.385227 98.654365 
L 224.242188 63.645084 
L 225.134987 55.738962 
L 225.804587 51.552136 
L 226.340267 49.439213 
L 226.742028 48.625204 
L 227.009867 48.460529 
L 227.233068 48.556895 
L 227.500907 48.953483 
L 227.858027 49.956531 
L 228.304427 51.958833 
L 228.884748 55.752522 
L 229.598988 62.112046 
L 230.491787 72.257326 
L 231.786347 89.853269 
L 234.330827 124.836375 
L 235.312907 135.1622 
L 236.071788 141.058898 
L 236.696748 144.368799 
L 237.187788 145.944081 
L 237.544908 146.519436 
L 237.812748 146.639557 
L 238.080587 146.498149 
L 238.393067 146.011904 
L 238.794827 144.900408 
L 239.330508 142.629216 
L 240.000108 138.679184 
L 240.892907 131.916878 
L 242.455308 117.959861 
L 244.062347 104.259326 
L 245.044427 97.715526 
L 245.803308 94.028078 
L 246.428268 91.97901 
L 246.919308 91.000999 
L 247.321068 90.601179 
L 247.678188 90.531981 
L 248.035307 90.713079 
L 248.437068 91.187717 
L 248.972747 92.202746 
L 249.731628 94.198702 
L 252.410028 101.769753 
L 252.990347 102.58026 
L 253.392108 102.824382 
L 253.749228 102.800543 
L 254.106348 102.537418 
L 254.508107 101.946561 
L 254.999148 100.797279 
L 255.579468 98.849262 
L 256.338347 95.421896 
L 257.320427 89.814356 
L 260.579147 70.216088 
L 261.248747 67.819412 
L 261.739788 66.73921 
L 262.141548 66.334292 
L 262.409387 66.319143 
L 262.677228 66.51543 
L 263.034347 67.11399 
L 263.480748 68.411964 
L 264.016428 70.775711 
L 264.641388 74.61286 
L 265.400268 80.714516 
L 266.382347 90.56859 
L 267.900107 108.454614 
L 269.908907 131.753044 
L 270.935628 141.116572 
L 271.694508 146.221425 
L 272.319467 149.07266 
L 272.810507 150.398807 
L 273.167627 150.847169 
L 273.435468 150.898308 
L 273.703307 150.707626 
L 274.015787 150.185205 
L 274.417548 149.054038 
L 274.953228 146.78779 
L 275.622827 142.861408 
L 276.470987 136.463761 
L 277.765547 124.7674 
L 279.997547 104.589629 
L 280.979627 97.761651 
L 281.738508 93.896289 
L 282.363467 91.750818 
L 282.854507 90.744049 
L 283.256267 90.360754 
L 283.568747 90.328809 
L 283.881228 90.52044 
L 284.282987 91.077171 
L 284.774027 92.191419 
L 285.398987 94.202557 
L 286.291787 97.93475 
L 289.550507 112.413484 
L 290.264747 114.292663 
L 290.845067 115.229874 
L 291.291467 115.569915 
L 291.648587 115.601578 
L 292.005707 115.423482 
L 292.452108 114.918057 
L 292.987787 113.9286 
L 293.657388 112.187308 
L 294.594828 109.067655 
L 297.183947 100.083936 
L 297.898188 98.490223 
L 298.433867 97.75051 
L 298.880268 97.469399 
L 299.237388 97.47602 
L 299.594508 97.692861 
L 300.040908 98.259135 
L 300.576588 99.359069 
L 301.246187 101.329084 
L 302.094347 104.615106 
L 303.388907 110.670214 
L 305.129867 118.616571 
L 305.978027 121.465691 
L 306.602987 122.850154 
L 307.094027 123.433663 
L 307.451147 123.555617 
L 307.763627 123.444767 
L 308.120747 123.064579 
L 308.567148 122.207545 
L 309.102827 120.629216 
L 309.772427 117.861071 
L 310.575947 113.52019 
L 311.691948 106.150381 
L 314.459628 87.322503 
L 315.263148 83.472787 
L 315.888107 81.410269 
L 316.379147 80.446222 
L 316.736267 80.13353 
L 317.048747 80.137328 
L 317.361227 80.40389 
L 317.718347 81.031234 
L 318.164747 82.294164 
L 318.745067 84.703553 
L 319.459307 88.767137 
L 320.352107 95.282227 
L 321.646667 106.613678 
L 324.057228 127.912489 
L 324.994667 134.246335 
L 325.753547 137.985004 
L 326.333867 139.881251 
L 326.824907 140.795683 
L 327.182028 141.05714 
L 327.494507 141.008559 
L 327.806987 140.705508 
L 328.208747 139.953262 
L 328.699787 138.508656 
L 329.324748 135.911136 
L 330.128267 131.525109 
L 331.288907 123.769035 
L 334.056587 104.812811 
L 334.994027 100.085698 
L 335.752907 97.304681 
L 336.377867 95.770337 
L 336.913547 94.996248 
L 337.359947 94.715147 
L 337.761707 94.72478 
L 338.163467 94.960009 
L 338.654508 95.514262 
L 339.324107 96.644544 
L 340.395467 98.972698 
L 341.868587 102.077432 
L 342.582827 103.101817 
L 343.118507 103.540239 
L 343.564907 103.656112 
L 344.011307 103.530074 
L 344.457707 103.157233 
L 344.993387 102.390603 
L 345.662987 100.980821 
L 346.511147 98.610427 
L 349.635947 89.231682 
L 350.171627 88.45008 
L 350.573387 88.181003 
L 350.930507 88.200025 
L 351.287627 88.482973 
L 351.689388 89.137396 
L 352.180428 90.44545 
L 352.760747 92.736449 
L 353.430347 96.387444 
L 354.233867 102.13064 
L 355.215947 110.909483 
L 356.599787 125.539534 
L 359.099627 152.187221 
L 360.081707 160.253027 
L 360.840587 164.822995 
L 361.420907 167.17094 
L 361.911947 168.320875 
L 362.269068 168.65965 
L 362.536907 168.635987 
L 362.804747 168.374627 
L 363.161867 167.660178 
L 363.608268 166.192769 
L 364.188587 163.377442 
L 364.902828 158.633132 
L 365.795627 151.053174 
L 367.090188 137.904956 
L 369.723948 110.785844 
L 370.750668 102.649493 
L 371.554188 97.880898 
L 372.223787 95.093713 
L 372.804107 93.56688 
L 373.250507 92.940219 
L 373.607627 92.766049 
L 373.920107 92.838935 
L 374.277227 93.162458 
L 374.723628 93.894322 
L 375.303947 95.312395 
L 376.107467 97.932878 
L 377.893067 104.825298 
L 379.009067 108.579346 
L 379.767947 110.428571 
L 380.348267 111.348592 
L 380.839307 111.762703 
L 381.241067 111.847931 
L 381.642828 111.70834 
L 382.089227 111.301068 
L 382.624907 110.490995 
L 383.339147 108.950913 
L 384.365867 106.116014 
L 386.374667 100.486258 
L 387.133547 99.048335 
L 387.669228 98.435992 
L 388.115628 98.221504 
L 388.517387 98.275808 
L 388.919147 98.573001 
L 389.365547 99.190671 
L 389.901227 100.322885 
L 390.570828 102.296694 
L 391.418988 105.546303 
L 392.758188 111.71459 
L 394.409868 119.113969 
L 395.213387 121.797005 
L 395.838347 123.187159 
L 396.284747 123.732121 
L 396.641867 123.872247 
L 396.954347 123.767441 
L 397.311467 123.379073 
L 397.713228 122.593088 
L 398.204268 121.128828 
L 398.829227 118.483083 
L 399.588107 114.178284 
L 400.525547 107.477255 
L 401.998667 95.065099 
L 403.873548 79.587212 
L 404.810988 73.583505 
L 405.525227 70.302379 
L 406.060907 68.712337 
L 406.507307 68.006891 
L 406.819787 67.86152 
L 407.087627 67.969185 
L 407.400107 68.366994 
L 407.801867 69.306713 
L 408.292907 71.09508 
L 408.917867 74.336392 
L 409.676747 79.575885 
L 410.658828 88.054167 
L 412.310507 104.64496 
L 414.051468 121.412744 
L 415.033547 128.903983 
L 415.837067 133.437432 
L 416.462028 135.828859 
L 416.953068 136.977184 
L 417.354827 137.43583 
L 417.667307 137.497836 
L 417.979787 137.3088 
L 418.336907 136.796904 
L 418.783307 135.738757 
L 419.363628 133.7338 
L 420.122507 130.21288 
L 421.193868 124.0387 
L 424.050827 106.988045 
L 424.943627 103.137016 
L 425.702507 100.77384 
L 426.327467 99.484191 
L 426.863148 98.833732 
L 427.354188 98.575032 
L 427.800588 98.585386 
L 428.291628 98.819974 
L 428.961227 99.411282 
L 431.014667 101.432647 
L 431.505707 101.566371 
L 431.952108 101.459627 
L 432.398507 101.096998 
L 432.889547 100.367688 
L 433.425227 99.147142 
L 434.050187 97.143451 
L 434.809067 93.890544 
L 435.746507 88.780872 
L 437.130347 79.806556 
L 438.960588 68.149828 
L 439.808747 64.083479 
L 440.433707 62.034505 
L 440.924747 61.112537 
L 441.281867 60.86535 
L 441.549707 60.928749 
L 441.862188 61.283059 
L 442.219308 62.068474 
L 442.665707 63.633263 
L 443.201388 66.372347 
L 443.870987 71.092892 
L 444.674507 78.535578 
L 445.656587 89.874245 
L 447.085067 109.280219 
L 449.540267 142.661151 
L 450.566987 153.483665 
L 451.370507 159.716784 
L 451.995468 162.987917 
L 452.486508 164.526633 
L 452.843627 165.063408 
L 453.111468 165.143958 
L 453.379307 164.950964 
L 453.691787 164.385793 
L 454.093547 163.136636 
L 454.629227 160.604406 
L 455.298828 156.176543 
L 456.146988 148.891718 
L 457.352267 136.362435 
L 460.075307 107.44552 
L 461.057388 99.607753 
L 461.816267 95.149988 
L 462.441228 92.632606 
L 462.976907 91.320984 
L 463.378668 90.840087 
L 463.691147 90.752789 
L 464.003627 90.904579 
L 464.360748 91.353407 
L 464.807147 92.292077 
L 465.387467 94.054535 
L 466.190988 97.265863 
L 467.976587 105.677775 
L 469.092588 110.263571 
L 469.851467 112.508576 
L 470.431787 113.599721 
L 470.878188 114.030579 
L 471.235307 114.109835 
L 471.592427 113.951854 
L 471.994188 113.495147 
L 472.485228 112.553044 
L 473.110187 110.797557 
L 473.913707 107.786528 
L 475.163627 102.086929 
L 475.297547 101.448614 
L 475.297547 101.448614 
" style="fill:none;stroke:#1f77b4;stroke-linecap:square;stroke-width:1.5;"/>
   </g>
   <g id="patch_3">
    <path d="M 28.942188 187.677656 
L 28.942188 24.597656 
" style="fill:none;stroke:#000000;stroke-linecap:square;stroke-linejoin:miter;stroke-width:0.8;"/>
   </g>
   <g id="patch_4">
    <path d="M 475.342187 187.677656 
L 475.342187 24.597656 
" style="fill:none;stroke:#000000;stroke-linecap:square;stroke-linejoin:miter;stroke-width:0.8;"/>
   </g>
   <g id="patch_5">
    <path d="M 28.942188 187.677656 
L 475.342187 187.677656 
" style="fill:none;stroke:#000000;stroke-linecap:square;stroke-linejoin:miter;stroke-width:0.8;"/>
   </g>
   <g id="patch_6">
    <path d="M 28.942188 24.597656 
L 475.342187 24.597656 
" style="fill:none;stroke:#000000;stroke-linecap:square;stroke-linejoin:miter;stroke-width:0.8;"/>
   </g>
   <g id="text_12">
    <!-- Fast fading -->
    <defs>
     <path d="M 9.8125 72.90625 
L 51.703125 72.90625 
L 51.703125 64.59375 
L 19.671875 64.59375 
L 19.671875 43.109375 
L 48.578125 43.109375 
L 48.578125 34.8125 
L 19.671875 34.8125 
L 19.671875 0 
L 9.8125 0 
z
" id="DejaVuSans-70"/>
     <path d="M 34.28125 27.484375 
Q 23.390625 27.484375 19.1875 25 
Q 14.984375 22.515625 14.984375 16.5 
Q 14.984375 11.71875 18.140625 8.90625 
Q 21.296875 6.109375 26.703125 6.109375 
Q 34.1875 6.109375 38.703125 11.40625 
Q 43.21875 16.703125 43.21875 25.484375 
L 43.21875 27.484375 
z
M 52.203125 31.203125 
L 52.203125 0 
L 43.21875 0 
L 43.21875 8.296875 
Q 40.140625 3.328125 35.546875 0.953125 
Q 30.953125 -1.421875 24.3125 -1.421875 
Q 15.921875 -1.421875 10.953125 3.296875 
Q 6 8.015625 6 15.921875 
Q 6 25.140625 12.171875 29.828125 
Q 18.359375 34.515625 30.609375 34.515625 
L 43.21875 34.515625 
L 43.21875 35.40625 
Q 43.21875 41.609375 39.140625 45 
Q 35.0625 48.390625 27.6875 48.390625 
Q 23 48.390625 18.546875 47.265625 
Q 14.109375 46.140625 10.015625 43.890625 
L 10.015625 52.203125 
Q 14.9375 54.109375 19.578125 55.046875 
Q 24.21875 56 28.609375 56 
Q 40.484375 56 46.34375 49.84375 
Q 52.203125 43.703125 52.203125 31.203125 
z
" id="DejaVuSans-97"/>
     <path d="M 44.28125 53.078125 
L 44.28125 44.578125 
Q 40.484375 46.53125 36.375 47.5 
Q 32.28125 48.484375 27.875 48.484375 
Q 21.1875 48.484375 17.84375 46.4375 
Q 14.5 44.390625 14.5 40.28125 
Q 14.5 37.15625 16.890625 35.375 
Q 19.28125 33.59375 26.515625 31.984375 
L 29.59375 31.296875 
Q 39.15625 29.25 43.1875 25.515625 
Q 47.21875 21.78125 47.21875 15.09375 
Q 47.21875 7.46875 41.1875 3.015625 
Q 35.15625 -1.421875 24.609375 -1.421875 
Q 20.21875 -1.421875 15.453125 -0.5625 
Q 10.6875 0.296875 5.421875 2 
L 5.421875 11.28125 
Q 10.40625 8.6875 15.234375 7.390625 
Q 20.0625 6.109375 24.8125 6.109375 
Q 31.15625 6.109375 34.5625 8.28125 
Q 37.984375 10.453125 37.984375 14.40625 
Q 37.984375 18.0625 35.515625 20.015625 
Q 33.0625 21.96875 24.703125 23.78125 
L 21.578125 24.515625 
Q 13.234375 26.265625 9.515625 29.90625 
Q 5.8125 33.546875 5.8125 39.890625 
Q 5.8125 47.609375 11.28125 51.796875 
Q 16.75 56 26.8125 56 
Q 31.78125 56 36.171875 55.265625 
Q 40.578125 54.546875 44.28125 53.078125 
z
" id="DejaVuSans-115"/>
     <path id="DejaVuSans-32"/>
     <path d="M 37.109375 75.984375 
L 37.109375 68.5 
L 28.515625 68.5 
Q 23.6875 68.5 21.796875 66.546875 
Q 19.921875 64.59375 19.921875 59.515625 
L 19.921875 54.6875 
L 34.71875 54.6875 
L 34.71875 47.703125 
L 19.921875 47.703125 
L 19.921875 0 
L 10.890625 0 
L 10.890625 47.703125 
L 2.296875 47.703125 
L 2.296875 54.6875 
L 10.890625 54.6875 
L 10.890625 58.5 
Q 10.890625 67.625 15.140625 71.796875 
Q 19.390625 75.984375 28.609375 75.984375 
z
" id="DejaVuSans-102"/>
     <path d="M 45.40625 46.390625 
L 45.40625 75.984375 
L 54.390625 75.984375 
L 54.390625 0 
L 45.40625 0 
L 45.40625 8.203125 
Q 42.578125 3.328125 38.25 0.953125 
Q 33.9375 -1.421875 27.875 -1.421875 
Q 17.96875 -1.421875 11.734375 6.484375 
Q 5.515625 14.40625 5.515625 27.296875 
Q 5.515625 40.1875 11.734375 48.09375 
Q 17.96875 56 27.875 56 
Q 33.9375 56 38.25 53.625 
Q 42.578125 51.265625 45.40625 46.390625 
z
M 14.796875 27.296875 
Q 14.796875 17.390625 18.875 11.75 
Q 22.953125 6.109375 30.078125 6.109375 
Q 37.203125 6.109375 41.296875 11.75 
Q 45.40625 17.390625 45.40625 27.296875 
Q 45.40625 37.203125 41.296875 42.84375 
Q 37.203125 48.484375 30.078125 48.484375 
Q 22.953125 48.484375 18.875 42.84375 
Q 14.796875 37.203125 14.796875 27.296875 
z
" id="DejaVuSans-100"/>
     <path d="M 9.421875 54.6875 
L 18.40625 54.6875 
L 18.40625 0 
L 9.421875 0 
z
M 9.421875 75.984375 
L 18.40625 75.984375 
L 18.40625 64.59375 
L 9.421875 64.59375 
z
" id="DejaVuSans-105"/>
     <path d="M 54.890625 33.015625 
L 54.890625 0 
L 45.90625 0 
L 45.90625 32.71875 
Q 45.90625 40.484375 42.875 44.328125 
Q 39.84375 48.1875 33.796875 48.1875 
Q 26.515625 48.1875 22.3125 43.546875 
Q 18.109375 38.921875 18.109375 30.90625 
L 18.109375 0 
L 9.078125 0 
L 9.078125 54.6875 
L 18.109375 54.6875 
L 18.109375 46.1875 
Q 21.34375 51.125 25.703125 53.5625 
Q 30.078125 56 35.796875 56 
Q 45.21875 56 50.046875 50.171875 
Q 54.890625 44.34375 54.890625 33.015625 
z
" id="DejaVuSans-110"/>
     <path d="M 45.40625 27.984375 
Q 45.40625 37.75 41.375 43.109375 
Q 37.359375 48.484375 30.078125 48.484375 
Q 22.859375 48.484375 18.828125 43.109375 
Q 14.796875 37.75 14.796875 27.984375 
Q 14.796875 18.265625 18.828125 12.890625 
Q 22.859375 7.515625 30.078125 7.515625 
Q 37.359375 7.515625 41.375 12.890625 
Q 45.40625 18.265625 45.40625 27.984375 
z
M 54.390625 6.78125 
Q 54.390625 -7.171875 48.1875 -13.984375 
Q 42 -20.796875 29.203125 -20.796875 
Q 24.46875 -20.796875 20.265625 -20.09375 
Q 16.0625 -19.390625 12.109375 -17.921875 
L 12.109375 -9.1875 
Q 16.0625 -11.328125 19.921875 -12.34375 
Q 23.78125 -13.375 27.78125 -13.375 
Q 36.625 -13.375 41.015625 -8.765625 
Q 45.40625 -4.15625 45.40625 5.171875 
L 45.40625 9.625 
Q 42.625 4.78125 38.28125 2.390625 
Q 33.9375 0 27.875 0 
Q 17.828125 0 11.671875 7.65625 
Q 5.515625 15.328125 5.515625 27.984375 
Q 5.515625 40.671875 11.671875 48.328125 
Q 17.828125 56 27.875 56 
Q 33.9375 56 38.28125 53.609375 
Q 42.625 51.21875 45.40625 46.390625 
L 45.40625 54.6875 
L 54.390625 54.6875 
z
" id="DejaVuSans-103"/>
    </defs>
    <g transform="translate(210.416406 18.597656)scale(0.15 -0.15)">
     <use xlink:href="#DejaVuSans-70"/>
     <use x="57.378906" xlink:href="#DejaVuSans-97"/>
     <use x="118.658203" xlink:href="#DejaVuSans-115"/>
     <use x="170.757812" xlink:href="#DejaVuSans-116"/>
     <use x="209.966797" xlink:href="#DejaVuSans-32"/>
     <use x="241.753906" xlink:href="#DejaVuSans-102"/>
     <use x="276.958984" xlink:href="#DejaVuSans-97"/>
     <use x="338.238281" xlink:href="#DejaVuSans-100"/>
     <use x="401.714844" xlink:href="#DejaVuSans-105"/>
     <use x="429.498047" xlink:href="#DejaVuSans-110"/>
     <use x="492.876953" xlink:href="#DejaVuSans-103"/>
    </g>
   </g>
  </g>
 </g>
 <defs>
  <clipPath id="p099ef84652">
   <rect height="163.08" width="446.4" x="28.942188" y="24.597656"/>
  </clipPath>
 </defs>
</svg>
