<?xml version="1.0" encoding="utf-8" standalone="no"?>
<!DOCTYPE svg PUBLIC "-//W3C//DTD SVG 1.1//EN"
  "http://www.w3.org/Graphics/SVG/1.1/DTD/svg11.dtd">
<!-- Created with matplotlib (https://matplotlib.org/) -->
<svg height="216pt" version="1.1" viewBox="0 0 1440 216" width="1440pt" xmlns="http://www.w3.org/2000/svg" xmlns:xlink="http://www.w3.org/1999/xlink">
 <defs>
  <style type="text/css">
*{stroke-linecap:butt;stroke-linejoin:round;}
  </style>
 </defs>
 <g id="figure_1">
  <g id="patch_1">
   <path d="M 0 216 
L 1440 216 
L 1440 0 
L 0 0 
z
" style="fill:#ffffff;"/>
  </g>
  <g id="axes_1">
   <g id="patch_2">
    <path d="M 180 189 
L 1296 189 
L 1296 25.92 
L 180 25.92 
z
" style="fill:#ffffff;"/>
   </g>
   <g id="matplotlib.axis_1">
    <g id="xtick_1">
     <g id="line2d_1">
      <defs>
       <path d="M 0 0 
L 0 3.5 
" id="mc0fcc39bc6" style="stroke:#000000;stroke-width:0.8;"/>
      </defs>
      <g>
       <use style="stroke:#000000;stroke-width:0.8;" x="180" xlink:href="#mc0fcc39bc6" y="189"/>
      </g>
     </g>
     <g id="text_1">
      <!-- 0.0 -->
      <defs>
       <path d="M 31.78125 66.40625 
Q 24.171875 66.40625 20.328125 58.90625 
Q 16.5 51.421875 16.5 36.375 
Q 16.5 21.390625 20.328125 13.890625 
Q 24.171875 6.390625 31.78125 6.390625 
Q 39.453125 6.390625 43.28125 13.890625 
Q 47.125 21.390625 47.125 36.375 
Q 47.125 51.421875 43.28125 58.90625 
Q 39.453125 66.40625 31.78125 66.40625 
z
M 31.78125 74.21875 
Q 44.046875 74.21875 50.515625 64.515625 
Q 56.984375 54.828125 56.984375 36.375 
Q 56.984375 17.96875 50.515625 8.265625 
Q 44.046875 -1.421875 31.78125 -1.421875 
Q 19.53125 -1.421875 13.0625 8.265625 
Q 6.59375 17.96875 6.59375 36.375 
Q 6.59375 54.828125 13.0625 64.515625 
Q 19.53125 74.21875 31.78125 74.21875 
z
" id="DejaVuSans-48"/>
       <path d="M 10.6875 12.40625 
L 21 12.40625 
L 21 0 
L 10.6875 0 
z
" id="DejaVuSans-46"/>
      </defs>
      <g transform="translate(172.048438 203.598437)scale(0.1 -0.1)">
       <use xlink:href="#DejaVuSans-48"/>
       <use x="63.623047" xlink:href="#DejaVuSans-46"/>
       <use x="95.410156" xlink:href="#DejaVuSans-48"/>
      </g>
     </g>
    </g>
    <g id="xtick_2">
     <g id="line2d_2">
      <g>
       <use style="stroke:#000000;stroke-width:0.8;" x="403.2" xlink:href="#mc0fcc39bc6" y="189"/>
      </g>
     </g>
     <g id="text_2">
      <!-- 0.2 -->
      <defs>
       <path d="M 19.1875 8.296875 
L 53.609375 8.296875 
L 53.609375 0 
L 7.328125 0 
L 7.328125 8.296875 
Q 12.9375 14.109375 22.625 23.890625 
Q 32.328125 33.6875 34.8125 36.53125 
Q 39.546875 41.84375 41.421875 45.53125 
Q 43.3125 49.21875 43.3125 52.78125 
Q 43.3125 58.59375 39.234375 62.25 
Q 35.15625 65.921875 28.609375 65.921875 
Q 23.96875 65.921875 18.8125 64.3125 
Q 13.671875 62.703125 7.8125 59.421875 
L 7.8125 69.390625 
Q 13.765625 71.78125 18.9375 73 
Q 24.125 74.21875 28.421875 74.21875 
Q 39.75 74.21875 46.484375 68.546875 
Q 53.21875 62.890625 53.21875 53.421875 
Q 53.21875 48.921875 51.53125 44.890625 
Q 49.859375 40.875 45.40625 35.40625 
Q 44.1875 33.984375 37.640625 27.21875 
Q 31.109375 20.453125 19.1875 8.296875 
z
" id="DejaVuSans-50"/>
      </defs>
      <g transform="translate(395.248438 203.598437)scale(0.1 -0.1)">
       <use xlink:href="#DejaVuSans-48"/>
       <use x="63.623047" xlink:href="#DejaVuSans-46"/>
       <use x="95.410156" xlink:href="#DejaVuSans-50"/>
      </g>
     </g>
    </g>
    <g id="xtick_3">
     <g id="line2d_3">
      <g>
       <use style="stroke:#000000;stroke-width:0.8;" x="626.4" xlink:href="#mc0fcc39bc6" y="189"/>
      </g>
     </g>
     <g id="text_3">
      <!-- 0.4 -->
      <defs>
       <path d="M 37.796875 64.3125 
L 12.890625 25.390625 
L 37.796875 25.390625 
z
M 35.203125 72.90625 
L 47.609375 72.90625 
L 47.609375 25.390625 
L 58.015625 25.390625 
L 58.015625 17.1875 
L 47.609375 17.1875 
L 47.609375 0 
L 37.796875 0 
L 37.796875 17.1875 
L 4.890625 17.1875 
L 4.890625 26.703125 
z
" id="DejaVuSans-52"/>
      </defs>
      <g transform="translate(618.448438 203.598437)scale(0.1 -0.1)">
       <use xlink:href="#DejaVuSans-48"/>
       <use x="63.623047" xlink:href="#DejaVuSans-46"/>
       <use x="95.410156" xlink:href="#DejaVuSans-52"/>
      </g>
     </g>
    </g>
    <g id="xtick_4">
     <g id="line2d_4">
      <g>
       <use style="stroke:#000000;stroke-width:0.8;" x="849.6" xlink:href="#mc0fcc39bc6" y="189"/>
      </g>
     </g>
     <g id="text_4">
      <!-- 0.6 -->
      <defs>
       <path d="M 33.015625 40.375 
Q 26.375 40.375 22.484375 35.828125 
Q 18.609375 31.296875 18.609375 23.390625 
Q 18.609375 15.53125 22.484375 10.953125 
Q 26.375 6.390625 33.015625 6.390625 
Q 39.65625 6.390625 43.53125 10.953125 
Q 47.40625 15.53125 47.40625 23.390625 
Q 47.40625 31.296875 43.53125 35.828125 
Q 39.65625 40.375 33.015625 40.375 
z
M 52.59375 71.296875 
L 52.59375 62.3125 
Q 48.875 64.0625 45.09375 64.984375 
Q 41.3125 65.921875 37.59375 65.921875 
Q 27.828125 65.921875 22.671875 59.328125 
Q 17.53125 52.734375 16.796875 39.40625 
Q 19.671875 43.65625 24.015625 45.921875 
Q 28.375 48.1875 33.59375 48.1875 
Q 44.578125 48.1875 50.953125 41.515625 
Q 57.328125 34.859375 57.328125 23.390625 
Q 57.328125 12.15625 50.6875 5.359375 
Q 44.046875 -1.421875 33.015625 -1.421875 
Q 20.359375 -1.421875 13.671875 8.265625 
Q 6.984375 17.96875 6.984375 36.375 
Q 6.984375 53.65625 15.1875 63.9375 
Q 23.390625 74.21875 37.203125 74.21875 
Q 40.921875 74.21875 44.703125 73.484375 
Q 48.484375 72.75 52.59375 71.296875 
z
" id="DejaVuSans-54"/>
      </defs>
      <g transform="translate(841.648438 203.598437)scale(0.1 -0.1)">
       <use xlink:href="#DejaVuSans-48"/>
       <use x="63.623047" xlink:href="#DejaVuSans-46"/>
       <use x="95.410156" xlink:href="#DejaVuSans-54"/>
      </g>
     </g>
    </g>
    <g id="xtick_5">
     <g id="line2d_5">
      <g>
       <use style="stroke:#000000;stroke-width:0.8;" x="1072.8" xlink:href="#mc0fcc39bc6" y="189"/>
      </g>
     </g>
     <g id="text_5">
      <!-- 0.8 -->
      <defs>
       <path d="M 31.78125 34.625 
Q 24.75 34.625 20.71875 30.859375 
Q 16.703125 27.09375 16.703125 20.515625 
Q 16.703125 13.921875 20.71875 10.15625 
Q 24.75 6.390625 31.78125 6.390625 
Q 38.8125 6.390625 42.859375 10.171875 
Q 46.921875 13.96875 46.921875 20.515625 
Q 46.921875 27.09375 42.890625 30.859375 
Q 38.875 34.625 31.78125 34.625 
z
M 21.921875 38.8125 
Q 15.578125 40.375 12.03125 44.71875 
Q 8.5 49.078125 8.5 55.328125 
Q 8.5 64.0625 14.71875 69.140625 
Q 20.953125 74.21875 31.78125 74.21875 
Q 42.671875 74.21875 48.875 69.140625 
Q 55.078125 64.0625 55.078125 55.328125 
Q 55.078125 49.078125 51.53125 44.71875 
Q 48 40.375 41.703125 38.8125 
Q 48.828125 37.15625 52.796875 32.3125 
Q 56.78125 27.484375 56.78125 20.515625 
Q 56.78125 9.90625 50.3125 4.234375 
Q 43.84375 -1.421875 31.78125 -1.421875 
Q 19.734375 -1.421875 13.25 4.234375 
Q 6.78125 9.90625 6.78125 20.515625 
Q 6.78125 27.484375 10.78125 32.3125 
Q 14.796875 37.15625 21.921875 38.8125 
z
M 18.3125 54.390625 
Q 18.3125 48.734375 21.84375 45.5625 
Q 25.390625 42.390625 31.78125 42.390625 
Q 38.140625 42.390625 41.71875 45.5625 
Q 45.3125 48.734375 45.3125 54.390625 
Q 45.3125 60.0625 41.71875 63.234375 
Q 38.140625 66.40625 31.78125 66.40625 
Q 25.390625 66.40625 21.84375 63.234375 
Q 18.3125 60.0625 18.3125 54.390625 
z
" id="DejaVuSans-56"/>
      </defs>
      <g transform="translate(1064.848438 203.598437)scale(0.1 -0.1)">
       <use xlink:href="#DejaVuSans-48"/>
       <use x="63.623047" xlink:href="#DejaVuSans-46"/>
       <use x="95.410156" xlink:href="#DejaVuSans-56"/>
      </g>
     </g>
    </g>
    <g id="xtick_6">
     <g id="line2d_6">
      <g>
       <use style="stroke:#000000;stroke-width:0.8;" x="1296" xlink:href="#mc0fcc39bc6" y="189"/>
      </g>
     </g>
     <g id="text_6">
      <!-- 1.0 -->
      <defs>
       <path d="M 12.40625 8.296875 
L 28.515625 8.296875 
L 28.515625 63.921875 
L 10.984375 60.40625 
L 10.984375 69.390625 
L 28.421875 72.90625 
L 38.28125 72.90625 
L 38.28125 8.296875 
L 54.390625 8.296875 
L 54.390625 0 
L 12.40625 0 
z
" id="DejaVuSans-49"/>
      </defs>
      <g transform="translate(1288.048438 203.598437)scale(0.1 -0.1)">
       <use xlink:href="#DejaVuSans-49"/>
       <use x="63.623047" xlink:href="#DejaVuSans-46"/>
       <use x="95.410156" xlink:href="#DejaVuSans-48"/>
      </g>
     </g>
    </g>
    <g id="text_7">
     <!-- time -->
     <defs>
      <path d="M 18.3125 70.21875 
L 18.3125 54.6875 
L 36.8125 54.6875 
L 36.8125 47.703125 
L 18.3125 47.703125 
L 18.3125 18.015625 
Q 18.3125 11.328125 20.140625 9.421875 
Q 21.96875 7.515625 27.59375 7.515625 
L 36.8125 7.515625 
L 36.8125 0 
L 27.59375 0 
Q 17.1875 0 13.234375 3.875 
Q 9.28125 7.765625 9.28125 18.015625 
L 9.28125 47.703125 
L 2.6875 47.703125 
L 2.6875 54.6875 
L 9.28125 54.6875 
L 9.28125 70.21875 
z
" id="DejaVuSans-116"/>
      <path d="M 9.421875 54.6875 
L 18.40625 54.6875 
L 18.40625 0 
L 9.421875 0 
z
M 9.421875 75.984375 
L 18.40625 75.984375 
L 18.40625 64.59375 
L 9.421875 64.59375 
z
" id="DejaVuSans-105"/>
      <path d="M 52 44.1875 
Q 55.375 50.25 60.0625 53.125 
Q 64.75 56 71.09375 56 
Q 79.640625 56 84.28125 50.015625 
Q 88.921875 44.046875 88.921875 33.015625 
L 88.921875 0 
L 79.890625 0 
L 79.890625 32.71875 
Q 79.890625 40.578125 77.09375 44.375 
Q 74.3125 48.1875 68.609375 48.1875 
Q 61.625 48.1875 57.5625 43.546875 
Q 53.515625 38.921875 53.515625 30.90625 
L 53.515625 0 
L 44.484375 0 
L 44.484375 32.71875 
Q 44.484375 40.625 41.703125 44.40625 
Q 38.921875 48.1875 33.109375 48.1875 
Q 26.21875 48.1875 22.15625 43.53125 
Q 18.109375 38.875 18.109375 30.90625 
L 18.109375 0 
L 9.078125 0 
L 9.078125 54.6875 
L 18.109375 54.6875 
L 18.109375 46.1875 
Q 21.1875 51.21875 25.484375 53.609375 
Q 29.78125 56 35.6875 56 
Q 41.65625 56 45.828125 52.96875 
Q 50 49.953125 52 44.1875 
z
" id="DejaVuSans-109"/>
      <path d="M 56.203125 29.59375 
L 56.203125 25.203125 
L 14.890625 25.203125 
Q 15.484375 15.921875 20.484375 11.0625 
Q 25.484375 6.203125 34.421875 6.203125 
Q 39.59375 6.203125 44.453125 7.46875 
Q 49.3125 8.734375 54.109375 11.28125 
L 54.109375 2.78125 
Q 49.265625 0.734375 44.1875 -0.34375 
Q 39.109375 -1.421875 33.890625 -1.421875 
Q 20.796875 -1.421875 13.15625 6.1875 
Q 5.515625 13.8125 5.515625 26.8125 
Q 5.515625 40.234375 12.765625 48.109375 
Q 20.015625 56 32.328125 56 
Q 43.359375 56 49.78125 48.890625 
Q 56.203125 41.796875 56.203125 29.59375 
z
M 47.21875 32.234375 
Q 47.125 39.59375 43.09375 43.984375 
Q 39.0625 48.390625 32.421875 48.390625 
Q 24.90625 48.390625 20.390625 44.140625 
Q 15.875 39.890625 15.1875 32.171875 
z
" id="DejaVuSans-101"/>
     </defs>
     <g transform="translate(721.055859 221.075781)scale(0.15 -0.15)">
      <use xlink:href="#DejaVuSans-116"/>
      <use x="39.208984" xlink:href="#DejaVuSans-105"/>
      <use x="66.992188" xlink:href="#DejaVuSans-109"/>
      <use x="164.404297" xlink:href="#DejaVuSans-101"/>
     </g>
    </g>
   </g>
   <g id="matplotlib.axis_2">
    <g id="ytick_1">
     <g id="line2d_7">
      <path clip-path="url(#p33ffe0c338)" d="M 180 181.799486 
L 1296 181.799486 
" style="fill:none;stroke:#b0b0b0;stroke-linecap:square;stroke-width:0.8;"/>
     </g>
     <g id="line2d_8">
      <defs>
       <path d="M 0 0 
L -3.5 0 
" id="m82cf8e5646" style="stroke:#000000;stroke-width:0.8;"/>
      </defs>
      <g>
       <use style="stroke:#000000;stroke-width:0.8;" x="180" xlink:href="#m82cf8e5646" y="181.799486"/>
      </g>
     </g>
     <g id="text_8">
      <!-- 0.0 -->
      <g transform="translate(157.096875 185.598705)scale(0.1 -0.1)">
       <use xlink:href="#DejaVuSans-48"/>
       <use x="63.623047" xlink:href="#DejaVuSans-46"/>
       <use x="95.410156" xlink:href="#DejaVuSans-48"/>
      </g>
     </g>
    </g>
    <g id="ytick_2">
     <g id="line2d_9">
      <path clip-path="url(#p33ffe0c338)" d="M 180 154.617622 
L 1296 154.617622 
" style="fill:none;stroke:#b0b0b0;stroke-linecap:square;stroke-width:0.8;"/>
     </g>
     <g id="line2d_10">
      <g>
       <use style="stroke:#000000;stroke-width:0.8;" x="180" xlink:href="#m82cf8e5646" y="154.617622"/>
      </g>
     </g>
     <g id="text_9">
      <!-- 0.5 -->
      <defs>
       <path d="M 10.796875 72.90625 
L 49.515625 72.90625 
L 49.515625 64.59375 
L 19.828125 64.59375 
L 19.828125 46.734375 
Q 21.96875 47.46875 24.109375 47.828125 
Q 26.265625 48.1875 28.421875 48.1875 
Q 40.625 48.1875 47.75 41.5 
Q 54.890625 34.8125 54.890625 23.390625 
Q 54.890625 11.625 47.5625 5.09375 
Q 40.234375 -1.421875 26.90625 -1.421875 
Q 22.3125 -1.421875 17.546875 -0.640625 
Q 12.796875 0.140625 7.71875 1.703125 
L 7.71875 11.625 
Q 12.109375 9.234375 16.796875 8.0625 
Q 21.484375 6.890625 26.703125 6.890625 
Q 35.15625 6.890625 40.078125 11.328125 
Q 45.015625 15.765625 45.015625 23.390625 
Q 45.015625 31 40.078125 35.4375 
Q 35.15625 39.890625 26.703125 39.890625 
Q 22.75 39.890625 18.8125 39.015625 
Q 14.890625 38.140625 10.796875 36.28125 
z
" id="DejaVuSans-53"/>
      </defs>
      <g transform="translate(157.096875 158.41684)scale(0.1 -0.1)">
       <use xlink:href="#DejaVuSans-48"/>
       <use x="63.623047" xlink:href="#DejaVuSans-46"/>
       <use x="95.410156" xlink:href="#DejaVuSans-53"/>
      </g>
     </g>
    </g>
    <g id="ytick_3">
     <g id="line2d_11">
      <path clip-path="url(#p33ffe0c338)" d="M 180 127.435757 
L 1296 127.435757 
" style="fill:none;stroke:#b0b0b0;stroke-linecap:square;stroke-width:0.8;"/>
     </g>
     <g id="line2d_12">
      <g>
       <use style="stroke:#000000;stroke-width:0.8;" x="180" xlink:href="#m82cf8e5646" y="127.435757"/>
      </g>
     </g>
     <g id="text_10">
      <!-- 1.0 -->
      <g transform="translate(157.096875 131.234976)scale(0.1 -0.1)">
       <use xlink:href="#DejaVuSans-49"/>
       <use x="63.623047" xlink:href="#DejaVuSans-46"/>
       <use x="95.410156" xlink:href="#DejaVuSans-48"/>
      </g>
     </g>
    </g>
    <g id="ytick_4">
     <g id="line2d_13">
      <path clip-path="url(#p33ffe0c338)" d="M 180 100.253893 
L 1296 100.253893 
" style="fill:none;stroke:#b0b0b0;stroke-linecap:square;stroke-width:0.8;"/>
     </g>
     <g id="line2d_14">
      <g>
       <use style="stroke:#000000;stroke-width:0.8;" x="180" xlink:href="#m82cf8e5646" y="100.253893"/>
      </g>
     </g>
     <g id="text_11">
      <!-- 1.5 -->
      <g transform="translate(157.096875 104.053111)scale(0.1 -0.1)">
       <use xlink:href="#DejaVuSans-49"/>
       <use x="63.623047" xlink:href="#DejaVuSans-46"/>
       <use x="95.410156" xlink:href="#DejaVuSans-53"/>
      </g>
     </g>
    </g>
    <g id="ytick_5">
     <g id="line2d_15">
      <path clip-path="url(#p33ffe0c338)" d="M 180 73.072028 
L 1296 73.072028 
" style="fill:none;stroke:#b0b0b0;stroke-linecap:square;stroke-width:0.8;"/>
     </g>
     <g id="line2d_16">
      <g>
       <use style="stroke:#000000;stroke-width:0.8;" x="180" xlink:href="#m82cf8e5646" y="73.072028"/>
      </g>
     </g>
     <g id="text_12">
      <!-- 2.0 -->
      <g transform="translate(157.096875 76.871247)scale(0.1 -0.1)">
       <use xlink:href="#DejaVuSans-50"/>
       <use x="63.623047" xlink:href="#DejaVuSans-46"/>
       <use x="95.410156" xlink:href="#DejaVuSans-48"/>
      </g>
     </g>
    </g>
    <g id="ytick_6">
     <g id="line2d_17">
      <path clip-path="url(#p33ffe0c338)" d="M 180 45.890164 
L 1296 45.890164 
" style="fill:none;stroke:#b0b0b0;stroke-linecap:square;stroke-width:0.8;"/>
     </g>
     <g id="line2d_18">
      <g>
       <use style="stroke:#000000;stroke-width:0.8;" x="180" xlink:href="#m82cf8e5646" y="45.890164"/>
      </g>
     </g>
     <g id="text_13">
      <!-- 2.5 -->
      <g transform="translate(157.096875 49.689383)scale(0.1 -0.1)">
       <use xlink:href="#DejaVuSans-50"/>
       <use x="63.623047" xlink:href="#DejaVuSans-46"/>
       <use x="95.410156" xlink:href="#DejaVuSans-53"/>
      </g>
     </g>
    </g>
    <g id="text_14">
     <!-- Amplitude -->
     <defs>
      <path d="M 34.1875 63.1875 
L 20.796875 26.90625 
L 47.609375 26.90625 
z
M 28.609375 72.90625 
L 39.796875 72.90625 
L 67.578125 0 
L 57.328125 0 
L 50.6875 18.703125 
L 17.828125 18.703125 
L 11.1875 0 
L 0.78125 0 
z
" id="DejaVuSans-65"/>
      <path d="M 18.109375 8.203125 
L 18.109375 -20.796875 
L 9.078125 -20.796875 
L 9.078125 54.6875 
L 18.109375 54.6875 
L 18.109375 46.390625 
Q 20.953125 51.265625 25.265625 53.625 
Q 29.59375 56 35.59375 56 
Q 45.5625 56 51.78125 48.09375 
Q 58.015625 40.1875 58.015625 27.296875 
Q 58.015625 14.40625 51.78125 6.484375 
Q 45.5625 -1.421875 35.59375 -1.421875 
Q 29.59375 -1.421875 25.265625 0.953125 
Q 20.953125 3.328125 18.109375 8.203125 
z
M 48.6875 27.296875 
Q 48.6875 37.203125 44.609375 42.84375 
Q 40.53125 48.484375 33.40625 48.484375 
Q 26.265625 48.484375 22.1875 42.84375 
Q 18.109375 37.203125 18.109375 27.296875 
Q 18.109375 17.390625 22.1875 11.75 
Q 26.265625 6.109375 33.40625 6.109375 
Q 40.53125 6.109375 44.609375 11.75 
Q 48.6875 17.390625 48.6875 27.296875 
z
" id="DejaVuSans-112"/>
      <path d="M 9.421875 75.984375 
L 18.40625 75.984375 
L 18.40625 0 
L 9.421875 0 
z
" id="DejaVuSans-108"/>
      <path d="M 8.5 21.578125 
L 8.5 54.6875 
L 17.484375 54.6875 
L 17.484375 21.921875 
Q 17.484375 14.15625 20.5 10.265625 
Q 23.53125 6.390625 29.59375 6.390625 
Q 36.859375 6.390625 41.078125 11.03125 
Q 45.3125 15.671875 45.3125 23.6875 
L 45.3125 54.6875 
L 54.296875 54.6875 
L 54.296875 0 
L 45.3125 0 
L 45.3125 8.40625 
Q 42.046875 3.421875 37.71875 1 
Q 33.40625 -1.421875 27.6875 -1.421875 
Q 18.265625 -1.421875 13.375 4.4375 
Q 8.5 10.296875 8.5 21.578125 
z
M 31.109375 56 
z
" id="DejaVuSans-117"/>
      <path d="M 45.40625 46.390625 
L 45.40625 75.984375 
L 54.390625 75.984375 
L 54.390625 0 
L 45.40625 0 
L 45.40625 8.203125 
Q 42.578125 3.328125 38.25 0.953125 
Q 33.9375 -1.421875 27.875 -1.421875 
Q 17.96875 -1.421875 11.734375 6.484375 
Q 5.515625 14.40625 5.515625 27.296875 
Q 5.515625 40.1875 11.734375 48.09375 
Q 17.96875 56 27.875 56 
Q 33.9375 56 38.25 53.625 
Q 42.578125 51.265625 45.40625 46.390625 
z
M 14.796875 27.296875 
Q 14.796875 17.390625 18.875 11.75 
Q 22.953125 6.109375 30.078125 6.109375 
Q 37.203125 6.109375 41.296875 11.75 
Q 45.40625 17.390625 45.40625 27.296875 
Q 45.40625 37.203125 41.296875 42.84375 
Q 37.203125 48.484375 30.078125 48.484375 
Q 22.953125 48.484375 18.875 42.84375 
Q 14.796875 37.203125 14.796875 27.296875 
z
" id="DejaVuSans-100"/>
     </defs>
     <g transform="translate(149.977344 145.893984)rotate(-90)scale(0.15 -0.15)">
      <use xlink:href="#DejaVuSans-65"/>
      <use x="68.408203" xlink:href="#DejaVuSans-109"/>
      <use x="165.820312" xlink:href="#DejaVuSans-112"/>
      <use x="229.296875" xlink:href="#DejaVuSans-108"/>
      <use x="257.080078" xlink:href="#DejaVuSans-105"/>
      <use x="284.863281" xlink:href="#DejaVuSans-116"/>
      <use x="324.072266" xlink:href="#DejaVuSans-117"/>
      <use x="387.451172" xlink:href="#DejaVuSans-100"/>
      <use x="450.927734" xlink:href="#DejaVuSans-101"/>
     </g>
    </g>
   </g>
   <g id="line2d_19">
    <path clip-path="url(#p33ffe0c338)" d="M 180 121.286425 
L 180.8928 135.476734 
L 181.3392 139.636053 
L 181.674 140.892319 
L 181.7856 140.968764 
L 182.0088 140.686621 
L 182.3436 139.468743 
L 183.348 135.223313 
L 183.5712 134.967113 
L 183.7944 135.12229 
L 184.0176 135.715 
L 184.3524 137.416821 
L 184.9104 142.005978 
L 185.58 147.770866 
L 185.8032 148.677636 
L 185.9148 148.763016 
L 186.0264 148.559353 
L 186.2496 147.211363 
L 186.5844 142.866396 
L 187.1424 130.971668 
L 189.0396 85.309149 
L 189.5976 78.005815 
L 189.9324 75.880461 
L 190.1556 75.483645 
L 190.2672 75.600292 
L 190.4904 76.472181 
L 190.8252 79.382155 
L 191.2716 86.199467 
L 191.8296 99.122743 
L 192.6108 123.946467 
L 193.8384 166.277646 
L 193.95 167.537471 
L 194.0616 167.290651 
L 194.2848 162.931597 
L 194.9544 140.219788 
L 195.9588 108.714927 
L 196.6284 94.093322 
L 197.1864 86.500221 
L 197.6328 83.359787 
L 197.9676 82.5586 
L 198.0792 82.557351 
L 198.3024 82.911914 
L 198.6372 84.218222 
L 199.0836 87.044677 
L 201.6504 105.61031 
L 202.4316 110.893529 
L 202.9896 116.117094 
L 203.6592 124.603491 
L 204.7752 142.579366 
L 205.4448 151.417567 
L 205.7796 153.257009 
L 205.8912 153.335188 
L 206.0028 153.139398 
L 206.226 151.982187 
L 206.5608 148.729106 
L 208.458 126.698234 
L 208.7928 125.157796 
L 209.016 124.69283 
L 209.2392 124.674765 
L 209.4624 125.090423 
L 209.7972 126.476691 
L 210.2436 129.571011 
L 210.9132 136.132368 
L 212.5872 153.40022 
L 213.3684 158.598792 
L 214.3728 164.892669 
L 215.0424 170.949165 
L 215.8236 179.524616 
L 215.9352 179.464932 
L 216.27 175.399512 
L 218.502 143.136295 
L 219.06 138.98675 
L 219.3948 137.80161 
L 219.618 137.59428 
L 219.8412 137.862338 
L 220.0644 138.604806 
L 220.3992 140.585511 
L 220.8456 144.727386 
L 221.5152 153.48523 
L 222.5196 167.340446 
L 222.7428 168.800452 
L 222.8544 169.028519 
L 222.966 168.897716 
L 223.1892 167.676968 
L 223.6356 162.992587 
L 224.5284 153.35202 
L 224.9748 150.549481 
L 225.3096 149.696623 
L 225.4212 149.666599 
L 225.6444 149.995495 
L 225.8676 150.842164 
L 226.2024 153.056097 
L 226.6488 157.613508 
L 227.8764 172.269273 
L 227.988 172.149711 
L 228.2112 170.324962 
L 228.6576 163.146715 
L 229.9968 139.920141 
L 230.5548 133.793224 
L 231.0012 131.220396 
L 231.2244 130.778409 
L 231.336 130.77341 
L 231.5592 131.195838 
L 231.894 132.894049 
L 232.3404 137.036021 
L 232.8984 144.79835 
L 234.4608 169.021138 
L 234.5724 169.229074 
L 234.684 168.971593 
L 234.9072 167.283633 
L 235.4652 159.975845 
L 236.1348 151.811777 
L 236.5812 148.482803 
L 236.916 147.415922 
L 237.0276 147.350218 
L 237.1392 147.431824 
L 237.3624 148.036933 
L 237.6972 150.027222 
L 238.1436 154.539031 
L 239.3712 169.702267 
L 239.4828 169.601477 
L 239.706 167.73622 
L 240.1524 159.813464 
L 241.8264 126.14621 
L 242.3844 119.584517 
L 242.7192 117.385904 
L 242.9424 116.689799 
L 243.1656 116.617381 
L 243.3888 117.164107 
L 243.7236 119.11004 
L 244.17 123.64809 
L 244.728 131.900253 
L 246.402 159.586876 
L 246.7368 161.29038 
L 246.8484 161.30783 
L 247.0716 160.62996 
L 247.4064 158.412456 
L 248.2992 151.919137 
L 248.634 150.73655 
L 248.8572 150.498551 
L 249.0804 150.709968 
L 249.3036 151.35123 
L 249.6384 153.012213 
L 250.7544 159.484939 
L 250.866 159.538386 
L 250.9776 159.368796 
L 251.2008 158.322355 
L 251.5356 155.104923 
L 252.0936 146.878978 
L 253.3212 128.138066 
L 253.8792 123.039389 
L 254.214 121.575712 
L 254.4372 121.326685 
L 254.5488 121.425924 
L 254.772 122.075018 
L 255.1068 124.165708 
L 255.5532 128.948379 
L 256.1112 137.762381 
L 257.004 156.493029 
L 258.0084 178.622071 
L 258.12 179.266571 
L 258.3432 176.092329 
L 259.236 161.612508 
L 259.6824 157.20947 
L 260.0172 155.45694 
L 260.2404 155.062019 
L 260.352 155.098657 
L 260.5752 155.636446 
L 260.91 157.569458 
L 261.3564 162.044449 
L 262.3608 173.296059 
L 262.4724 172.851698 
L 262.6956 170.182833 
L 263.2536 158.889764 
L 264.5928 130.625827 
L 265.2624 121.171013 
L 265.7088 117.577991 
L 266.0436 116.435971 
L 266.1552 116.353527 
L 266.2668 116.418191 
L 266.49 116.978528 
L 266.8248 118.835997 
L 267.2712 122.946999 
L 268.164 134.192736 
L 268.722 140.176436 
L 269.0568 142.058534 
L 269.28 142.35461 
L 269.3916 142.207438 
L 269.6148 141.365975 
L 269.9496 138.997325 
L 271.512 126.027267 
L 271.7352 125.455233 
L 271.9584 125.398544 
L 272.1816 125.876918 
L 272.5164 127.603699 
L 272.9628 131.699657 
L 273.5208 139.215871 
L 274.7484 157.387578 
L 275.0832 159.231982 
L 275.1948 159.233086 
L 275.418 158.328531 
L 275.7528 155.194292 
L 277.4268 136.076295 
L 277.7616 134.44778 
L 278.0964 133.805935 
L 278.3196 133.889947 
L 278.5428 134.334309 
L 278.9892 136.044519 
L 279.9936 140.369322 
L 280.2168 140.653007 
L 280.3284 140.632445 
L 280.5516 140.243106 
L 280.8864 138.806032 
L 281.3328 135.616679 
L 282.672 125.165977 
L 283.0068 124.006341 
L 283.23 123.779322 
L 283.4532 124.027988 
L 283.6764 124.772478 
L 284.0112 126.835794 
L 284.4576 131.320081 
L 285.0156 139.455178 
L 285.7968 154.402603 
L 287.0244 178.249098 
L 287.136 177.860463 
L 287.5824 170.849933 
L 288.3636 159.506363 
L 288.81 155.386224 
L 289.1448 153.615126 
L 289.368 153.07982 
L 289.5912 153.055829 
L 289.8144 153.527198 
L 290.1492 155.100022 
L 290.5956 158.561115 
L 291.7116 168.2463 
L 291.8232 168.465714 
L 291.9348 168.394627 
L 292.158 167.384494 
L 292.4928 164.171255 
L 294.2784 143.454885 
L 294.7248 141.305193 
L 294.948 140.916744 
L 295.0596 140.899371 
L 295.2828 141.220001 
L 295.6176 142.579613 
L 296.064 145.956466 
L 296.622 152.394709 
L 297.4032 164.427196 
L 298.296 178.821204 
L 298.4076 179.095991 
L 298.6308 176.636842 
L 299.8584 159.478637 
L 300.528 153.334544 
L 301.086 150.157923 
L 301.644 148.337659 
L 303.2064 144.592008 
L 303.9876 141.295913 
L 304.7688 138.182022 
L 305.1036 137.414684 
L 305.3268 137.204985 
L 305.55 137.279076 
L 305.7732 137.665753 
L 306.108 138.877003 
L 306.5544 141.723582 
L 307.1124 147.220853 
L 307.8936 157.885737 
L 308.898 172.088552 
L 309.1212 173.192112 
L 309.2328 173.048838 
L 309.456 171.518094 
L 310.014 164.507159 
L 310.9068 153.796584 
L 311.4648 149.570767 
L 311.7996 148.175826 
L 312.0228 147.734709 
L 312.246 147.678072 
L 312.4692 147.991368 
L 312.804 149.103731 
L 313.2504 151.605482 
L 314.1432 158.527068 
L 314.8128 163.007408 
L 315.1476 164.202745 
L 315.3708 164.51148 
L 315.594 164.466188 
L 315.9288 163.922247 
L 316.71 162.277863 
L 316.9332 162.10732 
L 317.1564 162.177888 
L 317.3796 162.523431 
L 317.7144 163.600493 
L 318.1608 166.1062 
L 318.7188 170.837596 
L 319.6116 180.530427 
L 319.7232 180.401157 
L 320.2812 173.743411 
L 321.174 163.745221 
L 321.732 159.486349 
L 322.1784 157.681941 
L 322.4016 157.390141 
L 322.6248 157.529443 
L 322.848 158.109773 
L 323.1828 159.811406 
L 323.6292 163.584939 
L 324.1872 170.404637 
L 324.7452 177.466716 
L 324.8568 177.649928 
L 325.08 175.423408 
L 325.7496 162.997578 
L 327.2004 136.164138 
L 327.87 127.537933 
L 328.428 123.062934 
L 328.7628 121.611187 
L 329.0976 121.029442 
L 329.3208 121.074 
L 329.544 121.412583 
L 329.9904 122.733421 
L 330.8832 125.799935 
L 331.218 126.253972 
L 331.4412 126.172195 
L 331.6644 125.753224 
L 331.9992 124.513813 
L 332.5572 121.217579 
L 333.5616 114.971717 
L 333.8964 113.863991 
L 334.1196 113.596618 
L 334.3428 113.764291 
L 334.566 114.40521 
L 334.9008 116.311599 
L 335.3472 120.678941 
L 335.9052 128.9843 
L 336.6864 144.776028 
L 337.4676 159.974423 
L 337.6908 161.691422 
L 337.8024 161.667104 
L 338.0256 159.779684 
L 338.3604 153.463526 
L 339.2532 129.47658 
L 340.3692 101.195449 
L 341.1504 86.820586 
L 341.7084 80.006902 
L 342.1548 76.701037 
L 342.4896 75.446197 
L 342.7128 75.171122 
L 342.936 75.327164 
L 343.1592 75.896355 
L 343.494 77.481524 
L 343.9404 80.849082 
L 344.4984 86.826994 
L 345.2796 97.885436 
L 346.3956 117.412269 
L 348.0696 146.766704 
L 348.516 151.424449 
L 348.8508 152.908407 
L 348.9624 152.972704 
L 349.074 152.825797 
L 349.2972 151.946486 
L 349.632 149.438874 
L 350.3016 142.148919 
L 351.4176 130.214006 
L 352.0872 125.485236 
L 352.5336 123.640205 
L 352.8684 122.9386 
L 353.0916 122.777895 
L 353.3148 122.845494 
L 353.6496 123.333444 
L 354.096 124.58635 
L 354.7656 127.327039 
L 356.1048 133.069995 
L 356.6628 134.499954 
L 356.9976 134.896058 
L 357.2208 134.947488 
L 357.444 134.824486 
L 357.7788 134.315799 
L 358.2252 133.066663 
L 358.7832 130.726821 
L 359.7876 125.233307 
L 360.9036 119.470077 
L 361.4616 117.651019 
L 361.7964 117.094312 
L 362.0196 116.981096 
L 362.2428 117.089419 
L 362.5776 117.6879 
L 362.9124 118.826258 
L 363.3588 121.188165 
L 363.9168 125.437218 
L 364.698 133.455963 
L 365.9256 148.997222 
L 367.488 168.286467 
L 368.3808 176.835681 
L 369.0504 181.587273 
L 372.0636 163.18415 
L 372.7332 160.170127 
L 373.1796 158.879445 
L 373.5144 158.393805 
L 373.7376 158.3272 
L 373.9608 158.478836 
L 374.2956 159.129408 
L 374.742 160.789278 
L 375.3 164.03143 
L 376.5276 172.098512 
L 376.7508 172.272977 
L 376.974 171.554713 
L 377.3088 169.064753 
L 377.9784 161.58981 
L 379.3176 146.507759 
L 379.9872 141.369885 
L 380.4336 139.277023 
L 380.7684 138.465944 
L 380.9916 138.288532 
L 381.2148 138.393965 
L 381.438 138.76836 
L 381.7728 139.786081 
L 382.3308 142.409492 
L 383.3352 147.431885 
L 383.67 148.15625 
L 383.8932 148.138408 
L 384.1164 147.668599 
L 384.4512 146.115293 
L 384.8976 142.69123 
L 385.902 132.368986 
L 386.6832 125.354651 
L 387.1296 122.771815 
L 387.4644 121.739452 
L 387.6876 121.527441 
L 387.9108 121.71486 
L 388.134 122.310557 
L 388.4688 123.973252 
L 388.9152 127.585665 
L 389.4732 134.106062 
L 391.2588 157.364929 
L 391.482 157.6767 
L 391.7052 156.791088 
L 392.04 153.538598 
L 392.7096 143.319016 
L 393.8256 126.42704 
L 394.3836 120.890419 
L 394.83 118.445293 
L 395.0532 117.935992 
L 395.2764 117.911704 
L 395.4996 118.370641 
L 395.8344 119.943204 
L 396.2808 123.581965 
L 396.8388 130.202133 
L 398.4012 150.278236 
L 398.6244 151.148188 
L 398.736 151.199191 
L 398.8476 150.985497 
L 399.0708 149.79059 
L 399.4056 146.36032 
L 400.0752 136.112331 
L 401.3028 116.893763 
L 401.9724 109.687898 
L 402.4188 106.674257 
L 402.7536 105.388454 
L 403.0884 104.918246 
L 403.3116 105.0371 
L 403.5348 105.481143 
L 403.8696 106.708365 
L 404.316 109.254967 
L 404.9856 114.544797 
L 406.3248 127.50935 
L 409.338 158.366297 
L 410.454 170.971603 
L 410.6772 171.826945 
L 410.7888 171.700372 
L 411.012 170.311731 
L 411.3468 166.165363 
L 412.128 152.597964 
L 414.1368 116.423186 
L 415.0296 104.533042 
L 415.6992 98.381294 
L 416.2572 95.285726 
L 416.592 94.353234 
L 416.8152 94.1228 
L 417.0384 94.206739 
L 417.2616 94.605246 
L 417.5964 95.791415 
L 418.0428 98.463369 
L 418.6008 103.527284 
L 419.2704 112.050567 
L 420.0516 125.14552 
L 421.056 146.197764 
L 422.5068 177.674875 
L 422.6184 176.753396 
L 423.0648 167.389419 
L 424.2924 141.75784 
L 424.962 131.804904 
L 425.52 126.595761 
L 425.8548 124.977237 
L 426.078 124.552682 
L 426.1896 124.538424 
L 426.4128 124.904513 
L 426.7476 126.421696 
L 427.194 130.143104 
L 427.752 137.077472 
L 428.9796 153.954581 
L 429.2028 155.245137 
L 429.3144 155.434159 
L 429.426 155.293487 
L 429.6492 154.035768 
L 429.984 150.085122 
L 430.6536 138.283576 
L 431.7696 119.159585 
L 432.3276 112.982472 
L 432.774 110.288954 
L 432.9972 109.733607 
L 433.2204 109.704906 
L 433.4436 110.189689 
L 433.7784 111.825561 
L 434.2248 115.494943 
L 435.006 124.578584 
L 435.7872 133.40426 
L 436.2336 136.231048 
L 436.4568 136.688866 
L 436.5684 136.661567 
L 436.7916 136.11148 
L 437.1264 134.199387 
L 437.6844 129.143875 
L 438.6888 119.763807 
L 439.1352 117.231378 
L 439.47 116.350721 
L 439.6932 116.294413 
L 439.9164 116.676155 
L 440.2512 118.073516 
L 440.6976 121.435888 
L 441.2556 127.854983 
L 442.0368 140.230932 
L 443.8224 171.002483 
L 443.934 171.031767 
L 444.1572 169.234528 
L 444.6036 161.312585 
L 445.9428 130.387948 
L 447.3936 98.562132 
L 448.1748 85.371957 
L 448.7328 78.799826 
L 449.1792 75.66828 
L 449.514 74.709151 
L 449.6256 74.668895 
L 449.8488 75.019844 
L 450.072 75.955426 
L 450.4068 78.467413 
L 450.8532 83.873744 
L 451.4112 93.790365 
L 452.1924 112.777694 
L 454.0896 162.828165 
L 454.2012 163.036109 
L 454.3128 162.422958 
L 454.536 159.13351 
L 455.094 145.067819 
L 456.4332 109.835943 
L 457.2144 94.889873 
L 457.7724 87.635607 
L 458.2188 84.037974 
L 458.5536 82.666401 
L 458.7768 82.393182 
L 458.8884 82.450213 
L 459.1116 82.952911 
L 459.4464 84.679979 
L 459.8928 88.791778 
L 460.4508 96.77785 
L 461.1204 110.260707 
L 462.0132 133.431485 
L 462.906 156.362565 
L 463.1292 159.342531 
L 463.2408 159.863621 
L 463.3524 159.644851 
L 463.5756 157.1251 
L 464.022 146.76413 
L 465.696 102.34696 
L 466.254 93.237769 
L 466.7004 89.137741 
L 466.9236 88.229732 
L 467.1468 88.101496 
L 467.37 88.754814 
L 467.7048 91.179541 
L 468.1512 96.98482 
L 468.7092 107.888986 
L 469.602 130.863151 
L 470.3832 149.164518 
L 470.718 152.357143 
L 470.8296 152.374044 
L 471.0528 150.841657 
L 471.3876 145.53166 
L 473.2848 108.308254 
L 473.7312 104.218642 
L 474.066 102.724074 
L 474.2892 102.449362 
L 474.4008 102.517542 
L 474.624 103.039852 
L 474.9588 104.693666 
L 475.4052 108.198023 
L 477.414 126.309125 
L 477.8604 127.969056 
L 478.3068 128.767234 
L 479.3112 129.972258 
L 479.7576 131.152109 
L 480.3156 133.367283 
L 481.2084 137.026146 
L 481.5432 137.627674 
L 481.7664 137.597238 
L 481.9896 137.174979 
L 482.3244 135.804818 
L 482.7708 132.821421 
L 484.3332 121.043649 
L 484.668 120.00994 
L 484.8912 119.829436 
L 485.1144 120.088192 
L 485.3376 120.802519 
L 485.6724 122.739671 
L 486.1188 126.897896 
L 486.6768 134.365323 
L 487.5696 149.91853 
L 488.574 166.755261 
L 488.9088 169.294542 
L 489.0204 169.453894 
L 489.132 169.267797 
L 489.3552 168.056744 
L 490.0248 161.840574 
L 490.5828 157.466344 
L 491.0292 155.477723 
L 491.364 154.932434 
L 491.5872 154.981241 
L 491.8104 155.308977 
L 492.2568 156.529066 
L 492.8148 158.115012 
L 493.038 158.396752 
L 493.2612 158.316946 
L 493.4844 157.815151 
L 493.8192 156.270578 
L 494.3772 152.147255 
L 495.3816 144.330435 
L 495.828 142.356946 
L 496.0512 141.935634 
L 496.2744 141.939719 
L 496.4976 142.393498 
L 496.8324 143.947755 
L 497.2788 147.659653 
L 497.8368 154.788217 
L 498.618 168.54205 
L 499.2876 180.410141 
L 499.9572 166.766452 
L 500.85 150.301601 
L 501.5196 141.823249 
L 501.966 138.687252 
L 502.3008 137.819137 
L 502.4124 137.823097 
L 502.6356 138.275845 
L 502.9704 140.062532 
L 503.4168 144.4481 
L 503.9748 152.861732 
L 504.756 168.907335 
L 505.314 179.704196 
L 505.6488 172.556364 
L 506.988 142.419628 
L 507.6576 132.040047 
L 508.104 127.77022 
L 508.4388 126.12663 
L 508.662 125.802185 
L 508.7736 125.873454 
L 508.9968 126.481453 
L 509.3316 128.537322 
L 509.778 133.305026 
L 510.336 142.127116 
L 511.2288 160.620384 
L 511.7868 171.026397 
L 512.01 172.115306 
L 512.2332 170.126967 
L 512.7912 159.493848 
L 513.7956 140.999172 
L 514.3536 134.35195 
L 514.8 131.470803 
L 515.0232 130.890604 
L 515.1348 130.817673 
L 515.2464 130.888891 
L 515.4696 131.458631 
L 515.8044 133.347487 
L 516.2508 137.638031 
L 516.9204 147.013257 
L 517.8132 160.053489 
L 518.0364 161.688932 
L 518.148 161.989243 
L 518.2596 161.902941 
L 518.4828 160.592035 
L 518.8176 156.368584 
L 519.7104 140.181308 
L 520.6032 125.829153 
L 521.1612 119.925183 
L 521.6076 117.321736 
L 521.8308 116.767479 
L 522.054 116.71763 
L 522.2772 117.169547 
L 522.612 118.769331 
L 523.0584 122.542455 
L 523.6164 129.634668 
L 524.3976 143.085918 
L 525.8484 169.878557 
L 526.0716 170.687092 
L 526.1832 170.157706 
L 526.4064 167.590049 
L 526.9644 157.259925 
L 528.6384 125.078433 
L 529.5312 111.913432 
L 530.3124 103.369139 
L 530.982 98.370082 
L 531.54 95.867177 
L 531.8748 95.086963 
L 532.2096 94.838019 
L 532.4328 94.96034 
L 532.7676 95.561668 
L 533.214 97.101824 
L 533.772 100.095105 
L 534.5532 105.885094 
L 535.8924 118.095443 
L 537.3432 130.642227 
L 538.3476 137.432353 
L 539.352 142.681867 
L 540.2448 146.196686 
L 540.9144 148.045712 
L 541.4724 149.043216 
L 542.142 149.743984 
L 543.0348 150.607788 
L 543.4812 151.428122 
L 543.9276 152.750225 
L 544.4856 155.318166 
L 545.0436 159.046774 
L 545.7132 165.062826 
L 547.0524 179.53047 
L 547.164 179.40191 
L 547.4988 175.981746 
L 549.1728 156.353633 
L 549.954 149.885296 
L 550.7352 145.381166 
L 552.4092 137.030997 
L 553.0788 131.88827 
L 555.1992 113.955531 
L 555.534 112.700207 
L 555.7572 112.335234 
L 555.9804 112.388884 
L 556.2036 112.890346 
L 556.5384 114.531515 
L 556.9848 118.451234 
L 557.5428 126.149344 
L 558.2124 139.137776 
L 559.5516 167.514619 
L 559.6632 167.843464 
L 559.7748 167.312915 
L 559.998 164.062842 
L 560.556 150.104696 
L 561.8952 115.61168 
L 562.5648 103.756271 
L 563.0112 98.837263 
L 563.346 96.888507 
L 563.5692 96.450759 
L 563.6808 96.493471 
L 563.904 97.102796 
L 564.2388 99.3151 
L 564.6852 104.609145 
L 565.2432 114.68686 
L 566.0244 134.046046 
L 567.4752 172.936134 
L 567.5868 172.884397 
L 567.81 169.322441 
L 569.8188 124.044256 
L 570.3768 118.032306 
L 570.7116 116.189533 
L 570.9348 115.688566 
L 571.0464 115.650983 
L 571.2696 115.987899 
L 571.6044 117.468152 
L 572.0508 121.057652 
L 572.7204 129.046146 
L 574.1712 147.853446 
L 574.6176 150.914129 
L 574.9524 151.799318 
L 575.1756 151.795109 
L 575.3988 151.4346 
L 575.9568 149.80047 
L 576.4032 148.662249 
L 576.738 148.32476 
L 576.9612 148.431182 
L 577.1844 148.828632 
L 577.5192 149.97765 
L 577.9656 152.455448 
L 579.528 162.449854 
L 579.6396 162.552857 
L 579.7512 162.496077 
L 579.9744 161.906402 
L 580.3092 159.983867 
L 580.9788 154.088933 
L 581.8716 146.57136 
L 582.318 144.204196 
L 582.6528 143.26667 
L 582.876 143.069152 
L 583.0992 143.218903 
L 583.3224 143.712301 
L 583.6572 145.071862 
L 584.1036 147.933398 
L 584.7732 153.940781 
L 586.1124 166.413817 
L 586.4472 167.856558 
L 586.6704 168.145756 
L 586.8936 167.93962 
L 587.2284 166.970037 
L 588.3444 163.055861 
L 588.6792 162.585353 
L 588.9024 162.519455 
L 589.1256 162.637561 
L 589.4604 163.09566 
L 590.4648 164.748287 
L 590.688 164.709736 
L 590.9112 164.389386 
L 591.246 163.356532 
L 591.6924 161.122881 
L 593.1432 153.005438 
L 593.5896 151.88041 
L 593.8128 151.727298 
L 594.036 151.869882 
L 594.2592 152.317117 
L 594.594 153.563261 
L 595.0404 156.264226 
L 595.5984 161.120325 
L 596.6028 172.372018 
L 597.0492 176.668777 
L 597.2724 177.296658 
L 597.4956 176.31161 
L 598.1652 170.281891 
L 598.8348 165.244739 
L 599.2812 163.324004 
L 599.616 162.776112 
L 599.8392 162.854639 
L 600.0624 163.288554 
L 600.3972 164.585662 
L 600.8436 167.40498 
L 601.9596 175.341415 
L 602.0712 175.189865 
L 602.2944 173.869566 
L 602.7408 168.891524 
L 604.4148 148.52556 
L 604.9728 144.455483 
L 605.4192 142.712821 
L 605.6424 142.37484 
L 605.8656 142.393818 
L 606.0888 142.763528 
L 606.4236 143.948073 
L 606.87 146.597736 
L 607.5396 152.386824 
L 609.5484 171.679773 
L 609.9948 173.771539 
L 610.4412 174.861445 
L 611.1108 176.282729 
L 611.5572 177.991485 
L 612.1152 180.257582 
L 612.3384 179.190433 
L 612.8964 173.782491 
L 614.0124 159.970272 
L 615.1284 147.125829 
L 615.798 141.972304 
L 616.2444 140.089915 
L 616.5792 139.584785 
L 616.8024 139.69041 
L 617.0256 140.147245 
L 617.3604 141.470068 
L 617.8068 144.333121 
L 618.4764 150.546225 
L 621.1548 178.275491 
L 621.7128 181.470213 
L 621.8244 181.400437 
L 622.3824 177.966209 
L 622.9404 173.043818 
L 623.61 164.719709 
L 624.5028 150.358482 
L 626.2884 120.665955 
L 626.958 112.869082 
L 627.516 108.699291 
L 627.9624 106.974355 
L 628.1856 106.630199 
L 628.4088 106.608188 
L 628.632 106.883358 
L 628.9668 107.786708 
L 629.4132 109.722776 
L 630.1944 114.310627 
L 631.7568 125.043073 
L 632.4264 130.997505 
L 633.096 138.997787 
L 633.7656 149.646605 
L 634.77 169.92333 
L 635.1048 175.947048 
L 635.2164 176.638326 
L 635.328 175.999124 
L 635.6628 169.844615 
L 637.002 142.15186 
L 637.56 134.599221 
L 638.0064 131.25471 
L 638.2296 130.595558 
L 638.3412 130.531798 
L 638.4528 130.648476 
L 638.676 131.429139 
L 639.0108 133.974121 
L 639.4572 139.878553 
L 640.0152 150.957144 
L 641.1312 176.030709 
L 641.3544 171.340059 
L 643.5864 108.933374 
L 644.1444 101.013846 
L 644.4792 98.475275 
L 644.7024 97.718707 
L 644.814 97.616193 
L 644.9256 97.693084 
L 645.1488 98.365755 
L 645.4836 100.572349 
L 645.93 105.357542 
L 647.604 125.892511 
L 647.9388 127.086773 
L 648.0504 127.166015 
L 648.2736 126.912881 
L 648.6084 125.782676 
L 649.3896 122.75486 
L 649.6128 122.531532 
L 649.7244 122.608041 
L 649.9476 123.193376 
L 650.2824 125.266959 
L 650.7288 130.388502 
L 651.2868 140.12229 
L 652.068 153.843664 
L 652.2912 154.763322 
L 652.4028 154.241289 
L 652.626 151.198414 
L 652.9608 142.736629 
L 653.8536 111.436805 
L 654.7464 82.626842 
L 655.3044 70.284456 
L 655.7508 64.716679 
L 655.974 63.516198 
L 656.0856 63.324382 
L 656.1972 63.406715 
L 656.4204 64.392611 
L 656.7552 67.889149 
L 657.2016 76.089444 
L 657.7596 91.112365 
L 659.2104 134.800499 
L 659.4336 137.459132 
L 659.5452 137.898263 
L 659.6568 137.729714 
L 659.88 135.714267 
L 660.2148 129.56944 
L 661.6656 98.814683 
L 662.112 94.804811 
L 662.3352 94.082685 
L 662.4468 94.025743 
L 662.5584 94.158755 
L 662.7816 94.940885 
L 663.1164 97.131312 
L 664.0092 103.6202 
L 664.2324 103.855869 
L 664.4556 103.000813 
L 664.6788 100.916968 
L 665.0136 95.493155 
L 665.5716 81.660083 
L 667.0224 42.569991 
L 667.4688 35.854793 
L 667.8036 33.543189 
L 667.9152 33.332727 
L 668.0268 33.409848 
L 668.25 34.435274 
L 668.5848 38.147414 
L 669.0312 47.004697 
L 669.5892 63.629278 
L 670.482 98.804776 
L 671.4864 136.613208 
L 671.8212 143.281888 
L 672.0444 144.778 
L 672.156 144.653534 
L 672.3792 143.003676 
L 672.9372 135.079273 
L 673.4952 128.561591 
L 673.7184 127.379126 
L 673.83 127.164083 
L 673.9416 127.212941 
L 674.1648 128.126461 
L 674.4996 131.5717 
L 674.946 139.953728 
L 675.504 155.864525 
L 676.1736 178.058011 
L 676.2852 176.07419 
L 677.0664 143.420901 
L 678.0708 104.391093 
L 678.7404 86.645096 
L 679.1868 80.142746 
L 679.41 78.687987 
L 679.5216 78.426457 
L 679.6332 78.478863 
L 679.8564 79.528661 
L 680.1912 83.447237 
L 680.6376 92.874032 
L 681.1956 110.686876 
L 681.9768 143.91548 
L 682.6464 172.627578 
L 682.758 173.366646 
L 682.9812 166.67328 
L 684.3204 113.013385 
L 684.8784 99.392166 
L 685.3248 93.798134 
L 685.548 92.876052 
L 685.6596 92.888342 
L 685.8828 93.852627 
L 686.2176 97.591532 
L 686.664 106.573233 
L 687.222 123.25273 
L 688.5612 169.656488 
L 688.6728 169.454906 
L 688.896 164.507675 
L 690.3468 121.09107 
L 690.7932 114.961469 
L 691.0164 113.674903 
L 691.128 113.491139 
L 691.2396 113.615646 
L 691.4628 114.786347 
L 691.7976 118.792838 
L 692.244 127.985939 
L 693.4716 158.373546 
L 693.5832 157.843586 
L 693.8064 153.375471 
L 694.2528 136.465397 
L 695.8152 71.103378 
L 696.3732 56.447093 
L 696.8196 49.872101 
L 697.0428 48.409324 
L 697.1544 48.136789 
L 697.266 48.167326 
L 697.4892 49.120185 
L 697.824 52.673152 
L 698.2704 60.909547 
L 698.94 78.46739 
L 699.9444 104.257049 
L 700.2792 108.732598 
L 700.5024 109.923981 
L 700.614 109.985349 
L 700.7256 109.717262 
L 700.9488 108.327338 
L 701.3952 103.353048 
L 702.0648 95.69035 
L 702.3996 93.785853 
L 702.5112 93.592888 
L 702.6228 93.646955 
L 702.846 94.541873 
L 703.1808 97.966027 
L 703.5156 103.967211 
L 703.962 115.889294 
L 704.6316 141.126066 
L 705.4128 174.512897 
L 705.5244 174.091712 
L 705.8592 159.724161 
L 707.1984 97.129203 
L 707.868 76.151921 
L 708.3144 68.061319 
L 708.6492 65.422004 
L 708.7608 65.212058 
L 708.8724 65.337481 
L 709.0956 66.586324 
L 709.4304 70.888719 
L 709.8768 80.828387 
L 710.4348 98.813937 
L 711.774 144.835574 
L 711.9972 146.333863 
L 712.1088 145.70757 
L 712.332 142.058154 
L 712.7784 129.185478 
L 713.7828 99.834265 
L 714.2292 92.319837 
L 714.564 89.785011 
L 714.6756 89.563322 
L 714.7872 89.657433 
L 715.0104 90.792735 
L 715.3452 94.825127 
L 715.7916 104.298225 
L 716.3496 121.735784 
L 717.5772 162.618721 
L 717.6888 162.351144 
L 717.912 157.771951 
L 718.47 136.770099 
L 719.3628 104.293994 
L 719.9208 90.678502 
L 720.3672 84.736848 
L 720.5904 83.540761 
L 720.702 83.393813 
L 720.8136 83.547377 
L 721.0368 84.748728 
L 721.3716 88.730593 
L 721.818 97.845022 
L 722.376 114.491633 
L 723.2688 149.196462 
L 723.9384 173.627305 
L 724.05 173.772133 
L 724.2732 167.951761 
L 725.5008 127.793086 
L 726.0588 116.639642 
L 726.5052 111.892734 
L 726.7284 110.919936 
L 726.84 110.772398 
L 726.9516 110.843087 
L 727.1748 111.608093 
L 727.5096 114.160916 
L 728.0676 121.187256 
L 728.9604 133.175427 
L 729.2952 135.17147 
L 729.4068 135.310919 
L 729.5184 135.171409 
L 729.7416 134.081537 
L 730.0764 130.724418 
L 730.8576 119.182524 
L 731.5272 110.821649 
L 731.9736 107.954184 
L 732.1968 107.532037 
L 732.3084 107.586424 
L 732.5316 108.229611 
L 732.8664 110.504652 
L 733.3128 115.788214 
L 733.9824 127.336408 
L 734.9868 145.158819 
L 735.3216 148.11325 
L 735.5448 148.579914 
L 735.6564 148.354984 
L 735.8796 147.097347 
L 736.326 142.392815 
L 737.3304 131.037232 
L 737.6652 129.006593 
L 737.8884 128.375106 
L 738 128.288351 
L 738.1116 128.356974 
L 738.3348 128.962225 
L 738.6696 131.022251 
L 739.116 135.779628 
L 739.674 144.412882 
L 741.1248 169.347188 
L 741.348 169.958094 
L 741.5712 168.660969 
L 742.0176 163.035298 
L 742.9104 151.584475 
L 743.4684 147.199459 
L 743.9148 145.456883 
L 744.2496 145.03472 
L 744.4728 145.077833 
L 744.8076 145.458845 
L 745.5888 146.474932 
L 745.812 146.490427 
L 746.0352 146.311055 
L 746.37 145.688293 
L 747.7092 142.451014 
L 747.9324 142.526652 
L 748.1556 142.955639 
L 748.4904 144.359051 
L 748.9368 147.799408 
L 749.3832 153.10303 
L 750.0528 164.242431 
L 750.7224 176.282389 
L 750.834 176.670908 
L 751.0572 173.904013 
L 751.8384 155.692668 
L 752.9544 131.271475 
L 753.624 121.06498 
L 754.0704 116.80969 
L 754.4052 115.06222 
L 754.6284 114.588562 
L 754.74 114.55561 
L 754.9632 114.885946 
L 755.298 116.32091 
L 755.7444 119.789201 
L 756.414 127.475473 
L 758.088 148.389104 
L 758.646 152.559149 
L 759.204 155.156401 
L 760.878 160.98718 
L 761.2128 161.579257 
L 761.436 161.513693 
L 761.6592 160.972017 
L 761.994 159.204515 
L 762.4404 155.325639 
L 764.226 137.737173 
L 764.5608 136.329827 
L 764.784 135.96066 
L 764.8956 135.957869 
L 765.1188 136.32867 
L 765.4536 137.847073 
L 765.9 141.666716 
L 766.458 149.140982 
L 767.2392 163.485677 
L 767.9088 175.087045 
L 768.0204 175.337633 
L 768.2436 173.03862 
L 768.9132 159.632286 
L 769.806 143.305771 
L 770.364 136.348952 
L 770.8104 133.067493 
L 771.1452 132.014532 
L 771.3684 131.978814 
L 771.5916 132.457494 
L 771.9264 134.076902 
L 772.3728 137.688825 
L 773.154 146.472722 
L 773.9352 154.454064 
L 774.27 156.166785 
L 774.4932 156.493828 
L 774.6048 156.417415 
L 774.828 155.845373 
L 775.2744 153.562297 
L 776.1672 148.680514 
L 776.502 147.806481 
L 776.7252 147.655077 
L 776.9484 147.866562 
L 777.2832 148.851311 
L 777.7296 151.257402 
L 779.0688 159.710006 
L 779.292 159.896007 
L 779.5152 159.432353 
L 779.85 157.625035 
L 780.408 152.779121 
L 781.3008 145.031197 
L 781.7472 142.715708 
L 782.082 141.987273 
L 782.3052 142.023497 
L 782.5284 142.485143 
L 782.8632 143.960531 
L 783.3096 147.274375 
L 783.9792 154.396123 
L 784.872 163.814957 
L 785.2068 165.19905 
L 785.3184 165.200081 
L 785.5416 164.516422 
L 785.8764 162.147534 
L 787.4388 148.690431 
L 787.7736 147.495942 
L 787.9968 147.186936 
L 788.22 147.272915 
L 788.4432 147.747347 
L 788.778 149.150853 
L 789.2244 152.164376 
L 790.0056 159.56226 
L 790.8984 167.847843 
L 791.2332 169.575546 
L 791.4564 170.047992 
L 791.6796 170.015362 
L 792.0144 169.336703 
L 792.684 167.728711 
L 792.9072 167.537994 
L 793.1304 167.623101 
L 793.3536 168.008582 
L 793.6884 169.150923 
L 794.2464 172.211186 
L 794.6928 174.352722 
L 794.8044 174.489304 
L 794.916 174.3593 
L 795.1392 173.25967 
L 795.474 169.988164 
L 796.3668 157.769033 
L 797.3712 145.122937 
L 797.9292 140.535792 
L 798.3756 138.630917 
L 798.5988 138.32678 
L 798.822 138.468925 
L 799.0452 139.058986 
L 799.38 140.769914 
L 799.8264 144.508917 
L 800.3844 151.218647 
L 801.2772 165.15973 
L 802.2816 180.899644 
L 802.728 174.873422 
L 803.3976 166.935117 
L 803.9556 162.625287 
L 804.402 160.773821 
L 804.7368 160.21523 
L 804.96 160.151787 
L 805.2948 160.335157 
L 805.7412 160.55981 
L 805.9644 160.394363 
L 806.1876 159.893966 
L 806.5224 158.36787 
L 806.9688 154.889252 
L 807.75 146.381552 
L 808.7544 136.018028 
L 809.3124 132.454988 
L 809.6472 131.359227 
L 809.8704 131.084734 
L 810.0936 131.169001 
L 810.3168 131.594663 
L 810.6516 132.807964 
L 811.2096 135.974345 
L 812.3256 142.665035 
L 812.6604 143.658834 
L 812.8836 143.919145 
L 813.1068 143.873076 
L 813.4416 143.342794 
L 814.446 141.099508 
L 814.6692 141.03628 
L 814.8924 141.290558 
L 815.1156 141.91385 
L 815.4504 143.622288 
L 815.8968 147.450565 
L 816.4548 154.717739 
L 817.236 168.547974 
L 817.6824 175.689575 
L 817.794 176.031213 
L 817.9056 175.269441 
L 818.2404 169.399135 
L 819.8028 138.128634 
L 820.3608 131.1852 
L 820.8072 128.161176 
L 821.0304 127.56924 
L 821.142 127.509806 
L 821.2536 127.609038 
L 821.4768 128.282968 
L 821.8116 130.465091 
L 822.258 135.449269 
L 822.816 144.576996 
L 824.2668 170.982347 
L 824.3784 170.835973 
L 824.6016 168.515869 
L 825.1596 157.781205 
L 826.0524 141.220369 
L 826.6104 134.394097 
L 827.0568 131.508716 
L 827.28 130.983285 
L 827.3916 130.952972 
L 827.6148 131.355179 
L 827.838 132.365488 
L 828.1728 134.979011 
L 828.6192 140.354217 
L 829.2888 151.741045 
L 830.5164 174.474525 
L 830.628 174.547377 
L 830.8512 172.197973 
L 831.5208 159.216416 
L 832.5252 141.460675 
L 833.1948 133.276792 
L 833.7528 128.949004 
L 834.1992 127.030309 
L 834.534 126.407134 
L 834.7572 126.34493 
L 834.9804 126.543893 
L 835.3152 127.296941 
L 835.7616 129.088116 
L 836.3196 132.539817 
L 836.8776 137.399103 
L 837.5472 145.336097 
L 838.2168 155.870752 
L 839.1096 173.888118 
L 839.4444 179.114107 
L 839.6676 175.113393 
L 840.8952 142.642472 
L 842.1228 112.186212 
L 842.904 97.8492 
L 843.462 91.118555 
L 843.9084 88.089386 
L 844.2432 87.220463 
L 844.3548 87.194511 
L 844.578 87.528023 
L 844.9128 88.953431 
L 845.3592 92.436039 
L 845.9172 98.92574 
L 846.81 112.610465 
L 848.7072 142.730172 
L 849.3768 149.856371 
L 849.8232 152.523845 
L 850.0464 153.078143 
L 850.158 153.146697 
L 850.2696 153.075253 
L 850.4928 152.521268 
L 850.8276 150.743301 
L 851.274 146.960898 
L 852.1668 136.921819 
L 853.1712 126.273925 
L 853.7292 122.368497 
L 854.064 121.045064 
L 854.2872 120.642593 
L 854.5104 120.644219 
L 854.7336 121.060095 
L 855.0684 122.466536 
L 855.5148 125.768284 
L 856.0728 131.983277 
L 856.854 143.655039 
L 858.528 169.687168 
L 858.8628 172.1317 
L 859.086 172.569575 
L 859.1976 172.459023 
L 859.4208 171.78328 
L 860.4252 167.958477 
L 860.76 167.546437 
L 861.0948 167.528654 
L 861.5412 167.571164 
L 861.7644 167.313226 
L 861.9876 166.679982 
L 862.3224 164.842457 
L 862.7688 160.778788 
L 863.6616 149.593225 
L 864.666 137.882748 
L 865.224 133.828554 
L 865.5588 132.597619 
L 865.782 132.330996 
L 866.0052 132.524362 
L 866.2284 133.183547 
L 866.5632 135.03978 
L 867.0096 139.066115 
L 867.5676 146.309272 
L 868.4604 161.525302 
L 869.4648 179.439065 
L 869.5764 179.73724 
L 869.9112 175.177983 
L 870.6924 164.702593 
L 871.2504 160.009671 
L 871.5852 158.517055 
L 871.8084 158.089493 
L 872.0316 158.109409 
L 872.2548 158.560217 
L 872.5896 159.980658 
L 873.036 163.007831 
L 873.9288 169.683272 
L 874.152 170.200509 
L 874.2636 170.098484 
L 874.4868 169.161205 
L 874.8216 166.331818 
L 876.6072 148.614788 
L 876.942 147.187707 
L 877.1652 146.732538 
L 877.3884 146.683369 
L 877.6116 147.038079 
L 877.9464 148.301499 
L 878.3928 151.226755 
L 879.0624 157.615361 
L 880.1784 168.591894 
L 880.5132 170.02631 
L 880.7364 170.153763 
L 880.9596 169.729294 
L 882.0756 166.326431 
L 882.2988 166.359321 
L 882.522 166.796381 
L 882.8568 168.270362 
L 883.3032 171.818657 
L 883.8612 178.715352 
L 884.0844 181.410314 
L 884.8656 166.922377 
L 887.0976 122.691912 
L 887.7672 114.58849 
L 888.2136 111.507265 
L 888.5484 110.491345 
L 888.7716 110.427944 
L 888.9948 110.840902 
L 889.3296 112.304195 
L 889.776 115.658382 
L 890.4456 122.968156 
L 892.6776 149.59432 
L 893.5704 156.388193 
L 894.24 159.965073 
L 894.5748 160.718855 
L 894.6864 160.710888 
L 894.9096 160.208981 
L 895.1328 158.994287 
L 895.4676 155.832142 
L 896.0256 147.684075 
L 898.3692 108.634623 
L 898.8156 105.25866 
L 899.1504 104.19437 
L 899.262 104.13202 
L 899.3736 104.217443 
L 899.5968 104.830493 
L 899.9316 106.832095 
L 900.378 111.372838 
L 901.0476 121.313811 
L 902.2752 140.532639 
L 902.61 143.163159 
L 902.8332 143.801743 
L 902.9448 143.783541 
L 903.168 143.13587 
L 903.5028 140.97877 
L 904.842 130.737269 
L 905.1768 130.004783 
L 905.2884 130.003017 
L 905.5116 130.362634 
L 905.8464 131.753834 
L 906.2928 134.853698 
L 907.074 140.71333 
L 907.2972 141.518151 
L 907.4088 141.63827 
L 907.5204 141.542188 
L 907.7436 140.653464 
L 908.0784 137.58628 
L 908.5248 130.895811 
L 910.1988 102.697676 
L 910.6452 99.129403 
L 910.8684 98.365523 
L 910.98 98.252832 
L 911.0916 98.322582 
L 911.3148 99.01268 
L 911.6496 101.412004 
L 912.096 107.021933 
L 912.654 117.289773 
L 914.1048 146.507806 
L 914.328 148.123185 
L 914.4396 148.33985 
L 914.5512 148.158541 
L 914.7744 146.70081 
L 915.1092 142.459664 
L 916.4484 122.583506 
L 916.7832 120.159019 
L 917.0064 119.420049 
L 917.118 119.324686 
L 917.2296 119.414033 
L 917.4528 120.145588 
L 917.7876 122.588896 
L 918.234 128.123621 
L 919.0152 141.84579 
L 919.5732 150.472418 
L 919.7964 152.047608 
L 919.908 152.211122 
L 920.0196 151.924078 
L 920.2428 150.043694 
L 920.5776 144.614292 
L 922.5864 105.283022 
L 922.9212 102.585538 
L 923.1444 101.704303 
L 923.3676 101.5698 
L 923.5908 102.177961 
L 923.9256 104.441054 
L 924.372 109.784096 
L 924.93 119.50553 
L 926.3808 147.177106 
L 926.7156 149.360801 
L 926.8272 149.392698 
L 927.0504 148.447877 
L 927.3852 145.009906 
L 929.1708 121.529542 
L 929.5056 119.763333 
L 929.7288 119.255495 
L 929.8404 119.202874 
L 930.0636 119.494123 
L 930.2868 120.298819 
L 930.6216 122.409368 
L 931.068 126.709655 
L 931.7376 135.488614 
L 932.9652 151.916424 
L 933.3 154.096942 
L 933.5232 154.464417 
L 933.6348 154.296788 
L 933.858 153.284977 
L 934.1928 150.320768 
L 934.7508 142.921166 
L 936.648 115.677506 
L 937.206 110.510157 
L 937.6524 108.034864 
L 937.9872 107.304366 
L 938.0988 107.292716 
L 938.322 107.633575 
L 938.5452 108.474759 
L 938.88 110.703036 
L 939.3264 115.507233 
L 939.8844 124.398771 
L 940.554 138.859696 
L 942.0048 172.234345 
L 942.1164 171.617156 
L 942.3396 167.658457 
L 944.5716 115.715796 
L 945.1296 109.463885 
L 945.4644 107.477495 
L 945.6876 106.882981 
L 945.9108 106.853223 
L 946.134 107.361374 
L 946.4688 109.049711 
L 946.9152 112.758706 
L 947.808 122.914003 
L 948.4776 129.538822 
L 948.8124 131.287994 
L 949.0356 131.617352 
L 949.1472 131.507963 
L 949.3704 130.734219 
L 949.7052 128.259043 
L 950.1516 122.940532 
L 950.9328 110.433871 
L 952.4952 85.328078 
L 953.1648 77.964899 
L 953.6112 74.965216 
L 953.946 73.917107 
L 954.1692 73.850905 
L 954.3924 74.324216 
L 954.7272 76.09884 
L 955.062 79.206687 
L 955.5084 85.482872 
L 956.0664 96.720734 
L 956.8476 118.119953 
L 958.41 163.585933 
L 958.5216 163.835138 
L 958.6332 163.045335 
L 958.8564 158.989254 
L 959.526 139.533859 
L 960.4188 115.513729 
L 960.9768 105.404801 
L 961.4232 100.733471 
L 961.758 99.310314 
L 961.8696 99.227692 
L 961.9812 99.336013 
L 962.2044 100.106675 
L 962.5392 102.549544 
L 962.9856 107.8141 
L 964.548 129.168171 
L 964.7712 130.111253 
L 964.8828 130.22378 
L 964.9944 130.097903 
L 965.2176 129.174013 
L 965.5524 126.409357 
L 967.0032 111.566072 
L 967.338 110.57321 
L 967.4496 110.58396 
L 967.6728 111.151143 
L 968.0076 113.410048 
L 968.454 119.06409 
L 969.012 130.112662 
L 969.7932 151.486833 
L 970.686 177.201958 
L 970.7976 176.409338 
L 971.244 163.854189 
L 972.1368 139.624627 
L 972.6948 129.057787 
L 973.1412 123.913318 
L 973.476 122.130293 
L 973.6992 121.936275 
L 973.9224 122.517847 
L 974.2572 124.761627 
L 974.7036 129.978637 
L 976.266 151.462999 
L 976.3776 151.599624 
L 976.4892 151.37721 
L 976.7124 149.914648 
L 977.0472 145.731264 
L 978.498 124.153459 
L 978.8328 121.886905 
L 979.056 121.279977 
L 979.1676 121.261522 
L 979.3908 121.807041 
L 979.614 123.134176 
L 979.9488 126.570866 
L 980.3952 133.702482 
L 981.0648 148.975598 
L 982.0692 173.923834 
L 982.1808 173.987005 
L 982.404 170.26673 
L 984.078 130.415797 
L 984.5244 124.887314 
L 984.8592 122.749573 
L 985.0824 122.305034 
L 985.194 122.374584 
L 985.4172 123.083058 
L 985.752 125.492536 
L 986.1984 130.867498 
L 987.5376 150.005438 
L 987.7608 150.678058 
L 987.8724 150.464733 
L 988.0956 148.966808 
L 988.4304 144.559998 
L 990.1044 117.900331 
L 990.4392 115.814184 
L 990.6624 115.365196 
L 990.774 115.4334 
L 990.9972 116.162101 
L 991.332 118.728113 
L 991.7784 124.782731 
L 992.3364 136.066307 
L 993.2292 159.701461 
L 993.7872 172.713586 
L 993.8988 173.379808 
L 994.0104 172.75019 
L 994.3452 166.297049 
L 995.3496 144.516824 
L 995.796 138.440589 
L 996.1308 135.891849 
L 996.354 135.214582 
L 996.4656 135.18893 
L 996.6888 135.765544 
L 996.912 137.171849 
L 997.2468 140.786714 
L 997.6932 148.192953 
L 998.3628 163.594205 
L 998.9208 175.019326 
L 999.0324 174.484735 
L 999.3672 166.930967 
L 1000.818 128.34645 
L 1001.376 119.056257 
L 1001.8224 115.051582 
L 1002.0456 114.274618 
L 1002.1572 114.195389 
L 1002.2688 114.320558 
L 1002.492 115.171719 
L 1002.8268 117.870165 
L 1003.2732 123.738958 
L 1004.6124 143.756294 
L 1004.8356 144.266592 
L 1004.9472 143.938673 
L 1005.1704 142.152712 
L 1005.5052 137.174468 
L 1007.1792 107.003827 
L 1007.514 104.586814 
L 1007.7372 104.046718 
L 1007.8488 104.109868 
L 1008.072 104.908811 
L 1008.4068 107.765765 
L 1008.8532 114.445329 
L 1009.5228 128.937689 
L 1010.1924 142.930396 
L 1010.4156 145.241105 
L 1010.5272 145.606602 
L 1010.6388 145.385568 
L 1010.862 143.206299 
L 1011.1968 136.407254 
L 1012.2012 107.374475 
L 1012.8708 91.609644 
L 1013.3172 85.251106 
L 1013.652 83.12943 
L 1013.7636 82.958132 
L 1013.8752 83.060406 
L 1014.0984 84.091313 
L 1014.4332 87.695854 
L 1014.8796 96.207964 
L 1015.4376 112.167985 
L 1016.3304 145.860276 
L 1016.8884 163.530059 
L 1017 164.382966 
L 1017.1116 163.672409 
L 1017.3348 158.489487 
L 1018.2276 125.171877 
L 1019.0088 101.208859 
L 1019.5668 90.933588 
L 1019.9016 87.970299 
L 1020.1248 87.379176 
L 1020.2364 87.499175 
L 1020.4596 88.559997 
L 1020.7944 92.140003 
L 1021.2408 100.33205 
L 1021.9104 118.432358 
L 1023.0264 150.323442 
L 1023.2496 152.561282 
L 1023.3612 152.560976 
L 1023.5844 150.380293 
L 1023.9192 143.217754 
L 1025.37 107.157184 
L 1025.8164 101.444765 
L 1026.1512 99.570159 
L 1026.2628 99.417454 
L 1026.3744 99.500899 
L 1026.5976 100.369418 
L 1026.9324 103.375948 
L 1027.3788 110.330791 
L 1027.9368 122.994755 
L 1029.6108 165.858122 
L 1029.7224 166.146596 
L 1029.834 165.614327 
L 1030.0572 162.622071 
L 1031.7312 132.503364 
L 1032.1776 129.335712 
L 1032.4008 128.681677 
L 1032.624 128.59636 
L 1032.8472 129.017985 
L 1033.182 130.419054 
L 1034.5212 137.432902 
L 1034.7444 137.494769 
L 1034.9676 137.017425 
L 1035.3024 135.36821 
L 1035.8604 130.989112 
L 1036.6416 124.923736 
L 1036.9764 123.433205 
L 1037.1996 123.01414 
L 1037.3112 122.997498 
L 1037.5344 123.374303 
L 1037.7576 124.319442 
L 1038.0924 126.828604 
L 1038.5388 132.179385 
L 1039.0968 141.790325 
L 1039.9896 161.963675 
L 1040.6592 176.34204 
L 1040.7708 176.617006 
L 1040.994 173.50517 
L 1042.3332 147.505037 
L 1042.8912 141.258093 
L 1043.226 139.284444 
L 1043.4492 138.734094 
L 1043.5608 138.688021 
L 1043.784 139.046914 
L 1044.0072 139.990319 
L 1044.342 142.435119 
L 1044.7884 147.383921 
L 1045.5696 159.140154 
L 1046.2392 168.5745 
L 1046.4624 170.005859 
L 1046.574 170.132112 
L 1046.6856 169.852089 
L 1046.9088 168.285227 
L 1047.5784 160.422571 
L 1048.248 153.814723 
L 1048.6944 151.532772 
L 1048.9176 151.146158 
L 1049.0292 151.147255 
L 1049.2524 151.53676 
L 1049.5872 153.057298 
L 1050.0336 156.626705 
L 1051.1496 166.817923 
L 1051.2612 166.891957 
L 1051.3728 166.59692 
L 1051.596 164.925731 
L 1052.0424 158.461825 
L 1053.9396 125.923258 
L 1054.4976 120.774784 
L 1054.8324 119.185983 
L 1055.0556 118.776281 
L 1055.1672 118.766284 
L 1055.3904 119.130672 
L 1055.7252 120.60604 
L 1056.1716 124.158774 
L 1056.7296 130.642751 
L 1058.1804 148.792545 
L 1058.5152 150.241479 
L 1058.6268 150.278928 
L 1058.7384 150.085648 
L 1058.9616 149.034268 
L 1059.2964 146.032712 
L 1059.966 136.974473 
L 1061.4168 116.626268 
L 1062.0864 110.228146 
L 1062.5328 107.490003 
L 1062.8676 106.316315 
L 1063.0908 105.973059 
L 1063.314 105.991675 
L 1063.5372 106.379678 
L 1063.872 107.666928 
L 1064.3184 110.716177 
L 1064.8764 116.655007 
L 1065.546 126.709857 
L 1066.4388 143.963975 
L 1067.4432 162.806612 
L 1067.6664 164.718886 
L 1067.778 164.984717 
L 1067.8896 164.749865 
L 1068.1128 162.916149 
L 1068.5592 155.832082 
L 1070.01 129.989431 
L 1070.568 123.52299 
L 1071.0144 120.395817 
L 1071.3492 119.310325 
L 1071.5724 119.189964 
L 1071.7956 119.545297 
L 1072.1304 120.943217 
L 1072.5768 124.324216 
L 1073.1348 130.706612 
L 1073.916 142.794935 
L 1075.2552 168.171116 
L 1075.9248 179.381281 
L 1076.0364 178.589008 
L 1076.706 166.710771 
L 1077.9336 146.152181 
L 1078.8264 134.650885 
L 1079.496 128.770313 
L 1079.9424 126.440543 
L 1080.2772 125.61231 
L 1080.5004 125.514217 
L 1080.7236 125.782164 
L 1081.0584 126.85954 
L 1081.5048 129.478194 
L 1082.0628 134.302266 
L 1083.402 146.714507 
L 1083.7368 147.978567 
L 1083.96 148.064635 
L 1084.1832 147.543651 
L 1084.518 145.788086 
L 1085.1876 140.366787 
L 1085.8572 135.317631 
L 1086.3036 133.425276 
L 1086.5268 133.093766 
L 1086.6384 133.095709 
L 1086.8616 133.444147 
L 1087.1964 134.825001 
L 1087.6428 138.138174 
L 1089.0936 151.089094 
L 1089.2052 151.174062 
L 1089.3168 150.985379 
L 1089.54 149.764486 
L 1089.8748 146.004129 
L 1090.4328 136.371406 
L 1091.6604 114.098057 
L 1092.2184 107.779568 
L 1092.5532 105.791072 
L 1092.7764 105.289339 
L 1092.888 105.292505 
L 1093.1112 105.810744 
L 1093.446 107.85643 
L 1093.8924 112.837736 
L 1094.4504 122.185643 
L 1096.236 155.527904 
L 1096.4592 156.183142 
L 1096.5708 155.95774 
L 1096.794 154.560059 
L 1097.2404 149.448775 
L 1098.0216 140.219313 
L 1098.468 137.372429 
L 1098.6912 136.898883 
L 1098.8028 136.916915 
L 1099.026 137.47256 
L 1099.3608 139.597632 
L 1099.8072 144.68072 
L 1100.5884 157.555676 
L 1101.0348 163.110109 
L 1101.1464 163.466118 
L 1101.258 163.227335 
L 1101.4812 160.982247 
L 1101.816 154.353761 
L 1103.9364 104.742328 
L 1104.3828 100.082143 
L 1104.7176 98.646917 
L 1104.8292 98.575195 
L 1104.9408 98.70847 
L 1105.164 99.588691 
L 1105.4988 102.418513 
L 1105.9452 108.861832 
L 1106.5032 120.657008 
L 1107.5076 148.284167 
L 1108.0656 161.784505 
L 1108.2888 164.155973 
L 1108.4004 164.196811 
L 1108.6236 162.051557 
L 1109.07 152.712253 
L 1110.2976 125.29929 
L 1110.9672 115.427844 
L 1111.5252 110.138727 
L 1112.0832 106.776448 
L 1113.1992 102.034123 
L 1114.8732 94.796238 
L 1115.0964 94.499864 
L 1115.3196 94.571223 
L 1115.5428 95.073094 
L 1115.8776 96.751678 
L 1116.2124 99.668488 
L 1116.6588 105.637394 
L 1117.2168 116.496939 
L 1117.8864 134.094824 
L 1118.8908 167.021006 
L 1119.3372 179.478068 
L 1120.0068 157.46559 
L 1121.0112 128.150941 
L 1121.6808 114.302147 
L 1122.2388 106.868717 
L 1122.6852 103.555468 
L 1123.02 102.45375 
L 1123.2432 102.291837 
L 1123.4664 102.522144 
L 1123.8012 103.465884 
L 1124.3592 106.097807 
L 1126.0332 115.929488 
L 1126.7028 121.067435 
L 1127.2608 127.211173 
L 1127.8188 135.714719 
L 1128.6 151.541637 
L 1129.3812 166.560333 
L 1129.4928 167.213373 
L 1129.6044 167.078746 
L 1129.8276 164.547882 
L 1130.274 154.32218 
L 1131.7248 118.426685 
L 1132.2828 110.258991 
L 1132.6176 107.690802 
L 1132.8408 107.039529 
L 1132.9524 107.041776 
L 1133.1756 107.709976 
L 1133.5104 110.370243 
L 1133.9568 116.918276 
L 1134.5148 129.443682 
L 1135.4076 156.211659 
L 1135.854 168.114242 
L 1135.9656 169.410826 
L 1136.0772 169.377595 
L 1136.3004 165.708671 
L 1136.97 145.782301 
L 1137.7512 124.951569 
L 1138.3092 115.419773 
L 1138.644 112.384086 
L 1138.8672 111.554452 
L 1138.9788 111.503108 
L 1139.0904 111.693915 
L 1139.3136 112.794833 
L 1139.6484 116.186874 
L 1140.0948 123.660862 
L 1140.7644 139.412966 
L 1141.434 154.348218 
L 1141.6572 156.372817 
L 1141.7688 156.379391 
L 1141.992 154.342204 
L 1142.3268 147.50541 
L 1143.7776 112.300575 
L 1144.224 106.955374 
L 1144.4472 105.782591 
L 1144.5588 105.592503 
L 1144.6704 105.671447 
L 1144.8936 106.643498 
L 1145.2284 110.130391 
L 1145.6748 118.407722 
L 1146.2328 133.729412 
L 1147.1256 160.1274 
L 1147.2372 161.242211 
L 1147.3488 161.106169 
L 1147.572 157.209045 
L 1148.0184 141.449296 
L 1149.3576 90.55543 
L 1149.9156 77.007156 
L 1150.362 71.149691 
L 1150.5852 70.024386 
L 1150.6968 69.922472 
L 1150.8084 70.128042 
L 1151.0316 71.454506 
L 1151.3664 75.668522 
L 1151.8128 85.098033 
L 1152.4824 105.422441 
L 1153.3752 132.725795 
L 1153.5984 136.00756 
L 1153.71 136.621886 
L 1153.8216 136.493562 
L 1154.0448 134.094402 
L 1154.3796 126.327379 
L 1156.0536 79.886265 
L 1156.3884 76.101621 
L 1156.6116 75.111266 
L 1156.7232 75.089057 
L 1156.8348 75.384162 
L 1157.058 76.922552 
L 1157.3928 81.542979 
L 1157.8392 91.674328 
L 1158.5088 113.22658 
L 1159.29 137.91632 
L 1159.5132 141.032798 
L 1159.6248 141.339801 
L 1159.7364 140.750299 
L 1159.9596 137.08741 
L 1160.406 123.164657 
L 1161.6336 80.527772 
L 1162.08 71.123109 
L 1162.4148 67.350298 
L 1162.638 66.522907 
L 1162.7496 66.629569 
L 1162.9728 67.892996 
L 1163.3076 72.40131 
L 1163.754 83.121908 
L 1164.312 103.354072 
L 1165.0932 141.473695 
L 1165.7628 177.362971 
L 1165.8744 176.156728 
L 1167.7716 85.871648 
L 1168.3296 72.20241 
L 1168.6644 67.973623 
L 1168.8876 66.868214 
L 1168.9992 66.829826 
L 1169.1108 67.131363 
L 1169.334 68.737332 
L 1169.6688 73.554085 
L 1170.1152 84.03897 
L 1170.7848 106.274852 
L 1171.6776 136.323258 
L 1171.9008 140.012484 
L 1172.0124 140.695464 
L 1172.124 140.532587 
L 1172.3472 137.800733 
L 1172.682 129.232068 
L 1174.356 79.010003 
L 1174.8024 72.736853 
L 1175.1372 70.7278 
L 1175.2488 70.561201 
L 1175.3604 70.636922 
L 1175.5836 71.48216 
L 1175.9184 74.318603 
L 1176.3648 80.395912 
L 1177.704 100.54287 
L 1178.0388 102.378342 
L 1178.1504 102.523294 
L 1178.262 102.43821 
L 1178.4852 101.625933 
L 1178.82 99.101708 
L 1180.1592 86.873679 
L 1180.3824 86.332958 
L 1180.494 86.339531 
L 1180.7172 86.945923 
L 1180.9404 88.376418 
L 1181.2752 92.098723 
L 1181.7216 99.903066 
L 1182.3912 116.613979 
L 1183.5072 145.727212 
L 1183.7304 148.142175 
L 1183.842 148.463127 
L 1183.9536 148.165574 
L 1184.1768 145.867955 
L 1184.6232 136.711889 
L 1185.8508 109.034841 
L 1186.2972 103.465839 
L 1186.632 101.550332 
L 1186.7436 101.359312 
L 1186.8552 101.392769 
L 1187.0784 102.127052 
L 1187.4132 104.846005 
L 1187.8596 111.23782 
L 1188.5292 125.439973 
L 1189.6452 150.893873 
L 1189.98 154.184325 
L 1190.0916 154.366546 
L 1190.2032 154.082613 
L 1190.4264 152.288971 
L 1190.8728 145.669055 
L 1191.7656 131.749767 
L 1192.212 127.671704 
L 1192.5468 126.393783 
L 1192.6584 126.322772 
L 1192.77 126.429477 
L 1192.9932 127.168617 
L 1193.328 129.534736 
L 1193.7744 134.757555 
L 1194.6672 149.197339 
L 1195.1136 155.213604 
L 1195.3368 156.744295 
L 1195.4484 156.987102 
L 1195.56 156.856764 
L 1195.7832 155.527074 
L 1196.118 151.450217 
L 1197.792 126.859955 
L 1198.2384 124.019711 
L 1198.4616 123.435491 
L 1198.6848 123.403426 
L 1198.908 123.902506 
L 1199.2428 125.568634 
L 1199.6892 129.221292 
L 1201.4748 146.192268 
L 1201.698 146.810817 
L 1201.9212 146.904399 
L 1202.1444 146.538182 
L 1202.4792 145.364477 
L 1203.5952 140.928347 
L 1203.8184 140.633166 
L 1204.0416 140.657961 
L 1204.2648 141.021031 
L 1204.5996 142.204576 
L 1205.046 144.893516 
L 1205.7156 150.699354 
L 1206.8316 160.489043 
L 1207.1664 162.023665 
L 1207.3896 162.465257 
L 1207.6128 162.461688 
L 1207.836 162.089631 
L 1208.2824 160.675562 
L 1209.1752 157.746825 
L 1209.6216 156.955986 
L 1210.068 156.58118 
L 1210.7376 156.127438 
L 1211.0724 155.617391 
L 1211.5188 154.430498 
L 1212.1884 151.762948 
L 1212.9696 148.801702 
L 1213.3044 148.159501 
L 1213.5276 148.068751 
L 1213.7508 148.293865 
L 1213.974 148.86429 
L 1214.3088 150.406594 
L 1214.7552 153.749102 
L 1215.4248 160.947425 
L 1215.9828 166.583294 
L 1216.206 167.388861 
L 1216.3176 167.229941 
L 1216.5408 165.707558 
L 1216.8756 161.000832 
L 1217.6568 145.029796 
L 1218.8844 120.008278 
L 1219.554 110.139752 
L 1220.112 104.912359 
L 1220.4468 103.192095 
L 1220.67 102.638883 
L 1220.8932 102.55123 
L 1221.1164 102.914504 
L 1221.4512 104.260146 
L 1221.8976 107.411171 
L 1222.4556 113.179756 
L 1223.2368 123.746027 
L 1224.576 145.466921 
L 1225.692 162.492312 
L 1226.0268 164.59581 
L 1226.1384 164.573738 
L 1226.3616 163.329386 
L 1226.6964 158.941824 
L 1227.366 145.349536 
L 1229.1516 106.661938 
L 1229.8212 97.367909 
L 1230.2676 93.99581 
L 1230.4908 93.275174 
L 1230.6024 93.168374 
L 1230.714 93.233867 
L 1230.9372 93.888276 
L 1231.272 96.187718 
L 1231.7184 101.674152 
L 1232.2764 112.121148 
L 1233.0576 131.767557 
L 1233.9504 153.688007 
L 1234.1736 156.265363 
L 1234.2852 156.655332 
L 1234.3968 156.392947 
L 1234.62 154.061549 
L 1235.0664 144.700239 
L 1236.5172 110.830027 
L 1237.0752 103.2382 
L 1237.41 100.700866 
L 1237.7448 99.693242 
L 1237.8564 99.687555 
L 1238.0796 100.147241 
L 1238.4144 101.92386 
L 1238.8608 105.970878 
L 1240.5348 123.574124 
L 1240.758 124.165045 
L 1240.8696 124.189854 
L 1241.0928 123.704338 
L 1241.4276 121.766634 
L 1241.9856 116.329218 
L 1243.1016 104.900244 
L 1243.548 102.389211 
L 1243.8828 101.704165 
L 1243.9944 101.72089 
L 1244.2176 102.13006 
L 1244.5524 103.682321 
L 1244.9988 107.445636 
L 1245.5568 114.610772 
L 1246.338 128.274232 
L 1247.6772 157.007432 
L 1248.6816 178.482122 
L 1248.7932 179.382979 
L 1249.0164 176.261235 
L 1251.6948 124.955439 
L 1252.5876 112.110739 
L 1253.2572 105.284711 
L 1253.7036 102.416676 
L 1254.0384 101.247275 
L 1254.2616 100.955396 
L 1254.4848 101.059723 
L 1254.708 101.560429 
L 1255.0428 103.043754 
L 1255.4892 106.328795 
L 1256.0472 112.320885 
L 1256.8284 123.434271 
L 1259.3952 162.398584 
L 1259.9532 166.94723 
L 1260.3996 168.832722 
L 1260.7344 169.415484 
L 1261.0692 169.579245 
L 1261.962 169.748613 
L 1262.4084 170.223395 
L 1262.9664 171.245531 
L 1263.636 172.477683 
L 1263.8592 172.599315 
L 1264.0824 172.412952 
L 1264.3056 171.833115 
L 1264.6404 170.145494 
L 1265.0868 166.465299 
L 1265.7564 158.549169 
L 1266.6492 144.990682 
L 1269.1044 106.048611 
L 1269.774 99.369127 
L 1270.2204 96.634493 
L 1270.5552 95.577702 
L 1270.7784 95.36186 
L 1271.0016 95.539079 
L 1271.2248 96.105867 
L 1271.5596 97.667229 
L 1272.006 100.996876 
L 1272.564 106.906318 
L 1273.4568 119.179264 
L 1274.9076 139.470681 
L 1275.4656 144.313157 
L 1275.8004 145.733103 
L 1276.0236 145.994341 
L 1276.2468 145.718845 
L 1276.5816 144.39529 
L 1277.028 141.277735 
L 1277.8092 133.646014 
L 1279.7064 114.312767 
L 1280.4876 108.853254 
L 1281.0456 106.366232 
L 1281.492 105.251332 
L 1281.8268 104.88945 
L 1282.1616 104.880128 
L 1282.4964 105.154568 
L 1283.0544 106.01178 
L 1284.0588 107.63113 
L 1284.5052 107.989924 
L 1284.9516 108.062434 
L 1285.7328 107.826005 
L 1286.1792 107.818913 
L 1286.514 108.047777 
L 1286.8488 108.574519 
L 1287.2952 109.857304 
L 1287.7416 111.892871 
L 1288.2996 115.521411 
L 1289.0808 122.338785 
L 1291.6476 146.519101 
L 1292.2056 149.345759 
L 1292.5404 150.247201 
L 1292.7636 150.465749 
L 1292.9868 150.351817 
L 1293.21 149.887809 
L 1293.5448 148.516325 
L 1293.9912 145.454934 
L 1294.5492 139.909532 
L 1295.5536 127.07732 
L 1295.8884 122.620682 
L 1295.8884 122.620682 
" style="fill:none;stroke:#1f77b4;stroke-linecap:square;"/>
   </g>
   <g id="patch_3">
    <path d="M 180 189 
L 180 25.92 
" style="fill:none;stroke:#000000;stroke-linecap:square;stroke-linejoin:miter;stroke-width:0.8;"/>
   </g>
   <g id="patch_4">
    <path d="M 1296 189 
L 1296 25.92 
" style="fill:none;stroke:#000000;stroke-linecap:square;stroke-linejoin:miter;stroke-width:0.8;"/>
   </g>
   <g id="patch_5">
    <path d="M 180 189 
L 1296 189 
" style="fill:none;stroke:#000000;stroke-linecap:square;stroke-linejoin:miter;stroke-width:0.8;"/>
   </g>
   <g id="patch_6">
    <path d="M 180 25.92 
L 1296 25.92 
" style="fill:none;stroke:#000000;stroke-linecap:square;stroke-linejoin:miter;stroke-width:0.8;"/>
   </g>
   <g id="text_15">
    <!-- Envelope -->
    <defs>
     <path d="M 9.8125 72.90625 
L 55.90625 72.90625 
L 55.90625 64.59375 
L 19.671875 64.59375 
L 19.671875 43.015625 
L 54.390625 43.015625 
L 54.390625 34.71875 
L 19.671875 34.71875 
L 19.671875 8.296875 
L 56.78125 8.296875 
L 56.78125 0 
L 9.8125 0 
z
" id="DejaVuSans-69"/>
     <path d="M 54.890625 33.015625 
L 54.890625 0 
L 45.90625 0 
L 45.90625 32.71875 
Q 45.90625 40.484375 42.875 44.328125 
Q 39.84375 48.1875 33.796875 48.1875 
Q 26.515625 48.1875 22.3125 43.546875 
Q 18.109375 38.921875 18.109375 30.90625 
L 18.109375 0 
L 9.078125 0 
L 9.078125 54.6875 
L 18.109375 54.6875 
L 18.109375 46.1875 
Q 21.34375 51.125 25.703125 53.5625 
Q 30.078125 56 35.796875 56 
Q 45.21875 56 50.046875 50.171875 
Q 54.890625 44.34375 54.890625 33.015625 
z
" id="DejaVuSans-110"/>
     <path d="M 2.984375 54.6875 
L 12.5 54.6875 
L 29.59375 8.796875 
L 46.6875 54.6875 
L 56.203125 54.6875 
L 35.6875 0 
L 23.484375 0 
z
" id="DejaVuSans-118"/>
     <path d="M 30.609375 48.390625 
Q 23.390625 48.390625 19.1875 42.75 
Q 14.984375 37.109375 14.984375 27.296875 
Q 14.984375 17.484375 19.15625 11.84375 
Q 23.34375 6.203125 30.609375 6.203125 
Q 37.796875 6.203125 41.984375 11.859375 
Q 46.1875 17.53125 46.1875 27.296875 
Q 46.1875 37.015625 41.984375 42.703125 
Q 37.796875 48.390625 30.609375 48.390625 
z
M 30.609375 56 
Q 42.328125 56 49.015625 48.375 
Q 55.71875 40.765625 55.71875 27.296875 
Q 55.71875 13.875 49.015625 6.21875 
Q 42.328125 -1.421875 30.609375 -1.421875 
Q 18.84375 -1.421875 12.171875 6.21875 
Q 5.515625 13.875 5.515625 27.296875 
Q 5.515625 40.765625 12.171875 48.375 
Q 18.84375 56 30.609375 56 
z
" id="DejaVuSans-111"/>
    </defs>
    <g transform="translate(691.873438 19.92)scale(0.2 -0.2)">
     <use xlink:href="#DejaVuSans-69"/>
     <use x="63.183594" xlink:href="#DejaVuSans-110"/>
     <use x="126.5625" xlink:href="#DejaVuSans-118"/>
     <use x="185.742188" xlink:href="#DejaVuSans-101"/>
     <use x="247.265625" xlink:href="#DejaVuSans-108"/>
     <use x="275.048828" xlink:href="#DejaVuSans-111"/>
     <use x="336.230469" xlink:href="#DejaVuSans-112"/>
     <use x="399.707031" xlink:href="#DejaVuSans-101"/>
    </g>
   </g>
  </g>
 </g>
 <defs>
  <clipPath id="p33ffe0c338">
   <rect height="163.08" width="1116" x="180" y="25.92"/>
  </clipPath>
 </defs>
</svg>
