<?xml version="1.0" encoding="utf-8" standalone="no"?>
<!DOCTYPE svg PUBLIC "-//W3C//DTD SVG 1.1//EN"
  "http://www.w3.org/Graphics/SVG/1.1/DTD/svg11.dtd">
<!-- Created with matplotlib (https://matplotlib.org/) -->
<svg height="211.555781pt" version="1.1" viewBox="0 0 443.809375 211.555781" width="443.809375pt" xmlns="http://www.w3.org/2000/svg" xmlns:xlink="http://www.w3.org/1999/xlink">
 <defs>
  <style type="text/css">
*{stroke-linecap:butt;stroke-linejoin:round;}
  </style>
 </defs>
 <g id="figure_1">
  <g id="patch_1">
   <path d="M 0 211.555781 
L 443.809375 211.555781 
L 443.809375 0 
L 0 0 
z
" style="fill:#ffffff;"/>
  </g>
  <g id="axes_1">
   <g id="patch_2">
    <path d="M 36.465625 187.677656 
L 427.065625 187.677656 
L 427.065625 24.597656 
L 36.465625 24.597656 
z
" style="fill:#ffffff;"/>
   </g>
   <g id="matplotlib.axis_1">
    <g id="xtick_1">
     <g id="line2d_1">
      <defs>
       <path d="M 0 0 
L 0 3.5 
" id="m462352a797" style="stroke:#000000;stroke-width:0.8;"/>
      </defs>
      <g>
       <use style="stroke:#000000;stroke-width:0.8;" x="36.465625" xlink:href="#m462352a797" y="187.677656"/>
      </g>
     </g>
     <g id="text_1">
      <!-- −300 -->
      <defs>
       <path d="M 10.59375 35.5 
L 73.1875 35.5 
L 73.1875 27.203125 
L 10.59375 27.203125 
z
" id="DejaVuSans-8722"/>
       <path d="M 40.578125 39.3125 
Q 47.65625 37.796875 51.625 33 
Q 55.609375 28.21875 55.609375 21.1875 
Q 55.609375 10.40625 48.1875 4.484375 
Q 40.765625 -1.421875 27.09375 -1.421875 
Q 22.515625 -1.421875 17.65625 -0.515625 
Q 12.796875 0.390625 7.625 2.203125 
L 7.625 11.71875 
Q 11.71875 9.328125 16.59375 8.109375 
Q 21.484375 6.890625 26.8125 6.890625 
Q 36.078125 6.890625 40.9375 10.546875 
Q 45.796875 14.203125 45.796875 21.1875 
Q 45.796875 27.640625 41.28125 31.265625 
Q 36.765625 34.90625 28.71875 34.90625 
L 20.21875 34.90625 
L 20.21875 43.015625 
L 29.109375 43.015625 
Q 36.375 43.015625 40.234375 45.921875 
Q 44.09375 48.828125 44.09375 54.296875 
Q 44.09375 59.90625 40.109375 62.90625 
Q 36.140625 65.921875 28.71875 65.921875 
Q 24.65625 65.921875 20.015625 65.03125 
Q 15.375 64.15625 9.8125 62.3125 
L 9.8125 71.09375 
Q 15.4375 72.65625 20.34375 73.4375 
Q 25.25 74.21875 29.59375 74.21875 
Q 40.828125 74.21875 47.359375 69.109375 
Q 53.90625 64.015625 53.90625 55.328125 
Q 53.90625 49.265625 50.4375 45.09375 
Q 46.96875 40.921875 40.578125 39.3125 
z
" id="DejaVuSans-51"/>
       <path d="M 31.78125 66.40625 
Q 24.171875 66.40625 20.328125 58.90625 
Q 16.5 51.421875 16.5 36.375 
Q 16.5 21.390625 20.328125 13.890625 
Q 24.171875 6.390625 31.78125 6.390625 
Q 39.453125 6.390625 43.28125 13.890625 
Q 47.125 21.390625 47.125 36.375 
Q 47.125 51.421875 43.28125 58.90625 
Q 39.453125 66.40625 31.78125 66.40625 
z
M 31.78125 74.21875 
Q 44.046875 74.21875 50.515625 64.515625 
Q 56.984375 54.828125 56.984375 36.375 
Q 56.984375 17.96875 50.515625 8.265625 
Q 44.046875 -1.421875 31.78125 -1.421875 
Q 19.53125 -1.421875 13.0625 8.265625 
Q 6.59375 17.96875 6.59375 36.375 
Q 6.59375 54.828125 13.0625 64.515625 
Q 19.53125 74.21875 31.78125 74.21875 
z
" id="DejaVuSans-48"/>
      </defs>
      <g transform="translate(22.732031 202.276094)scale(0.1 -0.1)">
       <use xlink:href="#DejaVuSans-8722"/>
       <use x="83.789062" xlink:href="#DejaVuSans-51"/>
       <use x="147.412109" xlink:href="#DejaVuSans-48"/>
       <use x="211.035156" xlink:href="#DejaVuSans-48"/>
      </g>
     </g>
    </g>
    <g id="xtick_2">
     <g id="line2d_2">
      <g>
       <use style="stroke:#000000;stroke-width:0.8;" x="101.565625" xlink:href="#m462352a797" y="187.677656"/>
      </g>
     </g>
     <g id="text_2">
      <!-- −200 -->
      <defs>
       <path d="M 19.1875 8.296875 
L 53.609375 8.296875 
L 53.609375 0 
L 7.328125 0 
L 7.328125 8.296875 
Q 12.9375 14.109375 22.625 23.890625 
Q 32.328125 33.6875 34.8125 36.53125 
Q 39.546875 41.84375 41.421875 45.53125 
Q 43.3125 49.21875 43.3125 52.78125 
Q 43.3125 58.59375 39.234375 62.25 
Q 35.15625 65.921875 28.609375 65.921875 
Q 23.96875 65.921875 18.8125 64.3125 
Q 13.671875 62.703125 7.8125 59.421875 
L 7.8125 69.390625 
Q 13.765625 71.78125 18.9375 73 
Q 24.125 74.21875 28.421875 74.21875 
Q 39.75 74.21875 46.484375 68.546875 
Q 53.21875 62.890625 53.21875 53.421875 
Q 53.21875 48.921875 51.53125 44.890625 
Q 49.859375 40.875 45.40625 35.40625 
Q 44.1875 33.984375 37.640625 27.21875 
Q 31.109375 20.453125 19.1875 8.296875 
z
" id="DejaVuSans-50"/>
      </defs>
      <g transform="translate(87.832031 202.276094)scale(0.1 -0.1)">
       <use xlink:href="#DejaVuSans-8722"/>
       <use x="83.789062" xlink:href="#DejaVuSans-50"/>
       <use x="147.412109" xlink:href="#DejaVuSans-48"/>
       <use x="211.035156" xlink:href="#DejaVuSans-48"/>
      </g>
     </g>
    </g>
    <g id="xtick_3">
     <g id="line2d_3">
      <g>
       <use style="stroke:#000000;stroke-width:0.8;" x="166.665625" xlink:href="#m462352a797" y="187.677656"/>
      </g>
     </g>
     <g id="text_3">
      <!-- −100 -->
      <defs>
       <path d="M 12.40625 8.296875 
L 28.515625 8.296875 
L 28.515625 63.921875 
L 10.984375 60.40625 
L 10.984375 69.390625 
L 28.421875 72.90625 
L 38.28125 72.90625 
L 38.28125 8.296875 
L 54.390625 8.296875 
L 54.390625 0 
L 12.40625 0 
z
" id="DejaVuSans-49"/>
      </defs>
      <g transform="translate(152.932031 202.276094)scale(0.1 -0.1)">
       <use xlink:href="#DejaVuSans-8722"/>
       <use x="83.789062" xlink:href="#DejaVuSans-49"/>
       <use x="147.412109" xlink:href="#DejaVuSans-48"/>
       <use x="211.035156" xlink:href="#DejaVuSans-48"/>
      </g>
     </g>
    </g>
    <g id="xtick_4">
     <g id="line2d_4">
      <g>
       <use style="stroke:#000000;stroke-width:0.8;" x="231.765625" xlink:href="#m462352a797" y="187.677656"/>
      </g>
     </g>
     <g id="text_4">
      <!-- 0 -->
      <g transform="translate(228.584375 202.276094)scale(0.1 -0.1)">
       <use xlink:href="#DejaVuSans-48"/>
      </g>
     </g>
    </g>
    <g id="xtick_5">
     <g id="line2d_5">
      <g>
       <use style="stroke:#000000;stroke-width:0.8;" x="296.865625" xlink:href="#m462352a797" y="187.677656"/>
      </g>
     </g>
     <g id="text_5">
      <!-- 100 -->
      <g transform="translate(287.321875 202.276094)scale(0.1 -0.1)">
       <use xlink:href="#DejaVuSans-49"/>
       <use x="63.623047" xlink:href="#DejaVuSans-48"/>
       <use x="127.246094" xlink:href="#DejaVuSans-48"/>
      </g>
     </g>
    </g>
    <g id="xtick_6">
     <g id="line2d_6">
      <g>
       <use style="stroke:#000000;stroke-width:0.8;" x="361.965625" xlink:href="#m462352a797" y="187.677656"/>
      </g>
     </g>
     <g id="text_6">
      <!-- 200 -->
      <g transform="translate(352.421875 202.276094)scale(0.1 -0.1)">
       <use xlink:href="#DejaVuSans-50"/>
       <use x="63.623047" xlink:href="#DejaVuSans-48"/>
       <use x="127.246094" xlink:href="#DejaVuSans-48"/>
      </g>
     </g>
    </g>
    <g id="xtick_7">
     <g id="line2d_7">
      <g>
       <use style="stroke:#000000;stroke-width:0.8;" x="427.065625" xlink:href="#m462352a797" y="187.677656"/>
      </g>
     </g>
     <g id="text_7">
      <!-- 300 -->
      <g transform="translate(417.521875 202.276094)scale(0.1 -0.1)">
       <use xlink:href="#DejaVuSans-51"/>
       <use x="63.623047" xlink:href="#DejaVuSans-48"/>
       <use x="127.246094" xlink:href="#DejaVuSans-48"/>
      </g>
     </g>
    </g>
   </g>
   <g id="matplotlib.axis_2">
    <g id="ytick_1">
     <g id="line2d_8">
      <defs>
       <path d="M 0 0 
L -3.5 0 
" id="mfbcf972282" style="stroke:#000000;stroke-width:0.8;"/>
      </defs>
      <g>
       <use style="stroke:#000000;stroke-width:0.8;" x="36.465625" xlink:href="#mfbcf972282" y="180.26493"/>
      </g>
     </g>
     <g id="text_8">
      <!-- 0.00 -->
      <defs>
       <path d="M 10.6875 12.40625 
L 21 12.40625 
L 21 0 
L 10.6875 0 
z
" id="DejaVuSans-46"/>
      </defs>
      <g transform="translate(7.2 184.064149)scale(0.1 -0.1)">
       <use xlink:href="#DejaVuSans-48"/>
       <use x="63.623047" xlink:href="#DejaVuSans-46"/>
       <use x="95.410156" xlink:href="#DejaVuSans-48"/>
       <use x="159.033203" xlink:href="#DejaVuSans-48"/>
      </g>
     </g>
    </g>
    <g id="ytick_2">
     <g id="line2d_9">
      <g>
       <use style="stroke:#000000;stroke-width:0.8;" x="36.465625" xlink:href="#mfbcf972282" y="148.361131"/>
      </g>
     </g>
     <g id="text_9">
      <!-- 0.01 -->
      <g transform="translate(7.2 152.16035)scale(0.1 -0.1)">
       <use xlink:href="#DejaVuSans-48"/>
       <use x="63.623047" xlink:href="#DejaVuSans-46"/>
       <use x="95.410156" xlink:href="#DejaVuSans-48"/>
       <use x="159.033203" xlink:href="#DejaVuSans-49"/>
      </g>
     </g>
    </g>
    <g id="ytick_3">
     <g id="line2d_10">
      <g>
       <use style="stroke:#000000;stroke-width:0.8;" x="36.465625" xlink:href="#mfbcf972282" y="116.457332"/>
      </g>
     </g>
     <g id="text_10">
      <!-- 0.02 -->
      <g transform="translate(7.2 120.25655)scale(0.1 -0.1)">
       <use xlink:href="#DejaVuSans-48"/>
       <use x="63.623047" xlink:href="#DejaVuSans-46"/>
       <use x="95.410156" xlink:href="#DejaVuSans-48"/>
       <use x="159.033203" xlink:href="#DejaVuSans-50"/>
      </g>
     </g>
    </g>
    <g id="ytick_4">
     <g id="line2d_11">
      <g>
       <use style="stroke:#000000;stroke-width:0.8;" x="36.465625" xlink:href="#mfbcf972282" y="84.553533"/>
      </g>
     </g>
     <g id="text_11">
      <!-- 0.03 -->
      <g transform="translate(7.2 88.352751)scale(0.1 -0.1)">
       <use xlink:href="#DejaVuSans-48"/>
       <use x="63.623047" xlink:href="#DejaVuSans-46"/>
       <use x="95.410156" xlink:href="#DejaVuSans-48"/>
       <use x="159.033203" xlink:href="#DejaVuSans-51"/>
      </g>
     </g>
    </g>
    <g id="ytick_5">
     <g id="line2d_12">
      <g>
       <use style="stroke:#000000;stroke-width:0.8;" x="36.465625" xlink:href="#mfbcf972282" y="52.649733"/>
      </g>
     </g>
     <g id="text_12">
      <!-- 0.04 -->
      <defs>
       <path d="M 37.796875 64.3125 
L 12.890625 25.390625 
L 37.796875 25.390625 
z
M 35.203125 72.90625 
L 47.609375 72.90625 
L 47.609375 25.390625 
L 58.015625 25.390625 
L 58.015625 17.1875 
L 47.609375 17.1875 
L 47.609375 0 
L 37.796875 0 
L 37.796875 17.1875 
L 4.890625 17.1875 
L 4.890625 26.703125 
z
" id="DejaVuSans-52"/>
      </defs>
      <g transform="translate(7.2 56.448952)scale(0.1 -0.1)">
       <use xlink:href="#DejaVuSans-48"/>
       <use x="63.623047" xlink:href="#DejaVuSans-46"/>
       <use x="95.410156" xlink:href="#DejaVuSans-48"/>
       <use x="159.033203" xlink:href="#DejaVuSans-52"/>
      </g>
     </g>
    </g>
   </g>
   <g id="line2d_13">
    <path clip-path="url(#pa6ec5b4656)" d="M 35.814625 180.253527 
L 70.317625 180.240722 
L 81.384625 180.208799 
L 84.639625 180.222725 
L 86.592625 180.178335 
L 88.545625 180.215323 
L 89.196625 180.14939 
L 89.847625 180.212805 
L 90.498625 180.127691 
L 91.149625 180.210467 
L 91.800625 180.097718 
L 92.451625 180.20858 
L 93.102625 180.054266 
L 93.753625 180.207582 
L 94.404625 179.987081 
L 95.055625 180.208078 
L 95.706625 179.873399 
L 96.357625 180.210156 
L 97.008625 179.653221 
L 97.659625 180.207434 
L 98.310625 179.119203 
L 98.961625 180.125515 
L 99.612625 177.0765 
L 100.263625 178.252883 
L 100.914625 115.886021 
L 101.565625 32.010384 
L 102.216625 73.355095 
L 102.867625 107.540647 
L 103.518625 127.631882 
L 104.169625 156.9881 
L 104.820625 177.300921 
L 105.471625 162.594154 
L 106.122625 103.015566 
L 106.773625 82.132969 
L 107.424625 128.636515 
L 108.075625 163.535513 
L 108.726625 179.772287 
L 109.377625 145.187344 
L 110.028625 101.910859 
L 110.679625 147.526587 
L 111.330625 176.074943 
L 111.981625 155.635628 
L 112.632625 110.107896 
L 113.283625 134.923489 
L 113.934625 174.348043 
L 114.585625 110.142222 
L 115.236625 75.40778 
L 116.538625 172.94023 
L 117.189625 177.918977 
L 117.840625 177.604977 
L 118.491625 126.573109 
L 119.142625 93.110818 
L 119.793625 142.279487 
L 120.444625 169.903831 
L 121.095625 164.102609 
L 123.048625 116.271487 
L 123.699625 132.473443 
L 124.350625 152.394295 
L 125.001625 161.212432 
L 125.652625 127.241892 
L 126.303625 128.711686 
L 126.954625 176.413578 
L 127.605625 173.155978 
L 128.256625 165.383074 
L 128.907625 148.813922 
L 129.558625 154.256941 
L 130.209625 178.377899 
L 130.860625 167.294152 
L 131.511625 171.235676 
L 132.162625 179.673269 
L 132.813625 177.099939 
L 133.464625 173.258041 
L 134.115625 146.722971 
L 134.766625 165.445528 
L 135.417625 168.849138 
L 136.068625 167.621183 
L 136.719625 179.222487 
L 137.370625 160.006928 
L 138.672625 180.202807 
L 139.323625 180.074633 
L 139.974625 171.718566 
L 140.625625 165.25446 
L 141.276625 180.023351 
L 141.927625 150.025525 
L 142.578625 149.890609 
L 143.229625 164.552447 
L 143.880625 160.70563 
L 144.531625 167.198991 
L 145.182625 179.128246 
L 145.833625 157.573867 
L 146.484625 150.896625 
L 147.135625 175.894594 
L 147.786625 155.724587 
L 148.437625 173.048682 
L 149.088625 151.329381 
L 149.739625 144.896086 
L 150.390625 147.549609 
L 151.041625 164.687989 
L 151.692625 174.768664 
L 152.343625 148.099248 
L 152.994625 168.686801 
L 153.645625 175.801485 
L 154.296625 177.657298 
L 156.249625 178.386948 
L 156.900625 168.438918 
L 158.202625 166.302601 
L 158.853625 162.648954 
L 159.504625 167.054367 
L 160.806625 145.662944 
L 161.457625 158.328543 
L 162.108625 165.039145 
L 162.759625 158.400255 
L 163.410625 161.566297 
L 164.061625 163.172444 
L 164.712625 143.317062 
L 166.014625 172.448611 
L 166.665625 157.036873 
L 167.316625 145.534816 
L 167.967625 168.777589 
L 168.618625 173.175862 
L 169.269625 159.879816 
L 170.571625 174.258621 
L 171.222625 178.995568 
L 171.873625 174.741376 
L 172.524625 157.93937 
L 173.175625 161.492152 
L 173.826625 164.185444 
L 174.477625 169.752473 
L 175.128625 176.549302 
L 175.779625 147.667527 
L 176.430625 151.96293 
L 177.081625 174.056249 
L 177.732625 178.309627 
L 178.383625 175.439128 
L 179.034625 173.389719 
L 179.685625 177.369109 
L 180.336625 178.661445 
L 180.987625 163.384805 
L 181.638625 164.118264 
L 182.289625 180.2276 
L 182.940625 167.372607 
L 183.591625 165.141709 
L 184.242625 156.960968 
L 184.893625 161.018312 
L 185.544625 167.832922 
L 186.195625 179.550883 
L 186.846625 158.60675 
L 187.497625 141.260974 
L 188.148625 170.950287 
L 188.799625 160.054192 
L 189.450625 173.532968 
L 190.101625 176.949635 
L 190.752625 176.472369 
L 191.403625 174.097084 
L 192.054625 157.079158 
L 192.705625 146.363618 
L 193.356625 169.939252 
L 194.007625 176.061747 
L 194.658625 161.309194 
L 195.309625 175.371515 
L 195.960625 174.5331 
L 196.611625 168.318317 
L 197.262625 154.052836 
L 197.913625 154.221827 
L 198.564625 173.682789 
L 199.215625 160.616452 
L 199.866625 157.754203 
L 200.517625 175.987966 
L 201.168625 177.563299 
L 201.819625 171.243124 
L 202.470625 166.275349 
L 203.121625 167.028269 
L 203.772625 175.826721 
L 204.423625 178.511058 
L 205.074625 168.828331 
L 205.725625 171.189846 
L 206.376625 179.871899 
L 207.027625 168.613898 
L 207.678625 165.319647 
L 208.329625 175.68921 
L 208.980625 176.682772 
L 209.631625 159.591054 
L 210.282625 165.716691 
L 210.933625 175.186129 
L 211.584625 154.249613 
L 212.235625 172.783912 
L 212.886625 176.877578 
L 213.537625 176.147078 
L 214.188625 177.146213 
L 214.839625 167.299471 
L 215.490625 167.192679 
L 216.141625 165.570042 
L 216.792625 169.682341 
L 217.443625 162.970627 
L 218.094625 179.859665 
L 218.745625 155.607216 
L 219.396625 148.863734 
L 220.047625 170.257951 
L 220.698625 176.382913 
L 221.349625 174.765581 
L 222.000625 174.160799 
L 222.651625 159.743759 
L 223.302625 160.122412 
L 223.953625 171.417332 
L 224.604625 173.742847 
L 225.255625 174.919436 
L 225.906625 171.811538 
L 226.557625 178.320427 
L 227.208625 174.436269 
L 227.859625 176.315536 
L 228.510625 176.860791 
L 229.161625 148.886787 
L 229.812625 155.305106 
L 230.463625 170.862749 
L 231.114625 146.45253 
L 231.765625 172.108185 
L 232.416625 157.023708 
L 233.067625 152.422503 
L 233.718625 178.18962 
L 235.020625 176.455518 
L 235.671625 179.108056 
L 236.322625 174.049752 
L 236.973625 174.10634 
L 237.624625 173.056625 
L 238.275625 172.840596 
L 238.926625 163.423699 
L 239.577625 160.898967 
L 240.228625 173.77775 
L 240.879625 173.262358 
L 241.530625 176.992367 
L 242.181625 169.017973 
L 242.832625 147.351566 
L 243.483625 158.533322 
L 244.134625 180.159248 
L 244.785625 164.59632 
L 245.436625 167.621592 
L 246.087625 167.378666 
L 246.738625 169.239257 
L 247.389625 167.616676 
L 248.040625 176.473002 
L 248.691625 176.425875 
L 249.342625 175.925435 
L 249.993625 173.763496 
L 250.644625 152.680528 
L 251.295625 173.818762 
L 251.946625 163.489241 
L 252.597625 159.848176 
L 253.248625 177.498206 
L 253.899625 176.918777 
L 254.550625 165.885246 
L 255.201625 166.522759 
L 255.852625 179.47545 
L 256.503625 169.710313 
L 257.154625 168.822485 
L 257.805625 178.914609 
L 258.456625 174.718935 
L 259.107625 168.893708 
L 259.758625 168.075889 
L 260.409625 169.41389 
L 261.060625 177.040994 
L 261.711625 175.231658 
L 262.362625 155.293502 
L 263.013625 163.194258 
L 263.664625 173.269973 
L 264.315625 155.410893 
L 264.966625 156.625461 
L 266.268625 174.831329 
L 266.919625 173.866704 
L 267.570625 160.596982 
L 268.221625 177.064084 
L 268.872625 170.374241 
L 269.523625 146.877914 
L 270.174625 154.764223 
L 270.825625 175.576062 
L 271.476625 175.545644 
L 272.127625 178.003201 
L 272.778625 172.167698 
L 273.429625 162.817425 
L 274.080625 170.408151 
L 274.731625 143.939991 
L 276.033625 179.995361 
L 276.684625 168.654539 
L 277.335625 160.799889 
L 277.986625 159.296782 
L 278.637625 162.623883 
L 279.288625 167.625472 
L 279.939625 179.998435 
L 280.590625 165.0757 
L 281.241625 162.821898 
L 281.892625 177.984877 
L 282.543625 177.326168 
L 283.194625 172.39884 
L 283.845625 175.346425 
L 284.496625 177.760716 
L 285.147625 174.084696 
L 285.798625 151.143794 
L 286.449625 151.193044 
L 287.100625 177.45618 
L 288.402625 166.050306 
L 289.704625 159.467934 
L 290.355625 173.05155 
L 291.006625 179.184623 
L 292.308625 166.385271 
L 292.959625 161.938315 
L 293.610625 172.937529 
L 294.261625 170.977494 
L 294.912625 147.175843 
L 295.563625 154.65725 
L 296.214625 171.389235 
L 296.865625 161.128536 
L 297.516625 146.141772 
L 298.167625 162.269916 
L 298.818625 162.611146 
L 299.469625 155.11954 
L 300.120625 163.114549 
L 300.771625 161.502663 
L 301.422625 148.462131 
L 302.073625 153.063848 
L 302.724625 166.505836 
L 303.375625 163.148941 
L 304.026625 166.971533 
L 304.677625 164.618497 
L 305.328625 166.763516 
L 305.979625 178.676397 
L 306.630625 177.558838 
L 307.281625 178.805176 
L 307.932625 177.445916 
L 308.583625 176.835908 
L 309.234625 169.225321 
L 309.885625 147.386351 
L 310.536625 174.726741 
L 311.187625 166.409749 
L 311.838625 150.257863 
L 312.489625 140.723447 
L 313.140625 149.790614 
L 313.791625 174.707977 
L 314.442625 157.143628 
L 315.093625 174.234921 
L 315.744625 150.563371 
L 316.395625 157.968795 
L 317.046625 178.539029 
L 317.697625 169.525616 
L 318.348625 162.77756 
L 318.999625 161.528117 
L 319.650625 149.18719 
L 320.301625 150.791922 
L 320.952625 179.936145 
L 321.603625 165.937505 
L 322.254625 171.82616 
L 322.905625 180.25515 
L 323.556625 180.244999 
L 324.207625 172.317113 
L 324.858625 161.707778 
L 325.509625 178.267978 
L 326.160625 169.13306 
L 326.811625 166.194147 
L 327.462625 165.936863 
L 328.113625 142.611161 
L 328.764625 172.008669 
L 329.415625 176.274616 
L 330.066625 179.334432 
L 330.717625 170.025526 
L 331.368625 167.161531 
L 332.019625 177.099674 
L 332.670625 153.395072 
L 333.321625 151.199503 
L 333.972625 166.743823 
L 334.623625 170.830071 
L 335.274625 177.196659 
L 335.925625 123.615929 
L 336.576625 124.153655 
L 337.227625 161.698004 
L 337.878625 152.230521 
L 339.180625 114.600157 
L 339.831625 133.953415 
L 340.482625 147.434038 
L 341.133625 167.006763 
L 341.784625 170.558217 
L 342.435625 137.856704 
L 343.086625 90.69746 
L 344.388625 177.710195 
L 345.039625 179.0246 
L 345.690625 173.252422 
L 346.992625 72.866797 
L 347.643625 112.328194 
L 348.294625 175.267471 
L 348.945625 135.267452 
L 349.596625 113.504265 
L 350.247625 152.981252 
L 350.898625 175.258655 
L 351.549625 144.084428 
L 352.200625 102.75129 
L 352.851625 148.549693 
L 353.502625 179.359605 
L 354.153625 166.980461 
L 354.804625 132.423725 
L 355.455625 77.043864 
L 356.106625 97.489664 
L 356.757625 164.35529 
L 357.408625 176.71366 
L 358.059625 159.075184 
L 359.361625 106.111099 
L 360.012625 64.921016 
L 360.663625 41.076312 
L 361.314625 117.335026 
L 361.965625 177.567535 
L 362.616625 177.150636 
L 363.267625 179.856787 
L 363.918625 179.245794 
L 364.569625 180.079472 
L 365.220625 179.763266 
L 365.871625 180.141419 
L 366.522625 179.965157 
L 367.173625 180.16926 
L 367.824625 180.063991 
L 368.475625 180.185621 
L 369.126625 180.119503 
L 369.777625 180.196809 
L 371.730625 180.176267 
L 373.683625 180.217086 
L 378.240625 180.223267 
L 388.005625 180.244123 
L 423.810625 180.255423 
L 427.716625 180.256002 
L 427.716625 180.256002 
" style="fill:none;stroke:#1f77b4;stroke-linecap:square;stroke-width:1.5;"/>
   </g>
   <g id="patch_3">
    <path d="M 36.465625 187.677656 
L 36.465625 24.597656 
" style="fill:none;stroke:#000000;stroke-linecap:square;stroke-linejoin:miter;stroke-width:0.8;"/>
   </g>
   <g id="patch_4">
    <path d="M 427.065625 187.677656 
L 427.065625 24.597656 
" style="fill:none;stroke:#000000;stroke-linecap:square;stroke-linejoin:miter;stroke-width:0.8;"/>
   </g>
   <g id="patch_5">
    <path d="M 36.465625 187.677656 
L 427.065625 187.677656 
" style="fill:none;stroke:#000000;stroke-linecap:square;stroke-linejoin:miter;stroke-width:0.8;"/>
   </g>
   <g id="patch_6">
    <path d="M 36.465625 24.597656 
L 427.065625 24.597656 
" style="fill:none;stroke:#000000;stroke-linecap:square;stroke-linejoin:miter;stroke-width:0.8;"/>
   </g>
   <g id="text_13">
    <!-- Power spectrum -->
    <defs>
     <path d="M 19.671875 64.796875 
L 19.671875 37.40625 
L 32.078125 37.40625 
Q 38.96875 37.40625 42.71875 40.96875 
Q 46.484375 44.53125 46.484375 51.125 
Q 46.484375 57.671875 42.71875 61.234375 
Q 38.96875 64.796875 32.078125 64.796875 
z
M 9.8125 72.90625 
L 32.078125 72.90625 
Q 44.34375 72.90625 50.609375 67.359375 
Q 56.890625 61.8125 56.890625 51.125 
Q 56.890625 40.328125 50.609375 34.8125 
Q 44.34375 29.296875 32.078125 29.296875 
L 19.671875 29.296875 
L 19.671875 0 
L 9.8125 0 
z
" id="DejaVuSans-80"/>
     <path d="M 30.609375 48.390625 
Q 23.390625 48.390625 19.1875 42.75 
Q 14.984375 37.109375 14.984375 27.296875 
Q 14.984375 17.484375 19.15625 11.84375 
Q 23.34375 6.203125 30.609375 6.203125 
Q 37.796875 6.203125 41.984375 11.859375 
Q 46.1875 17.53125 46.1875 27.296875 
Q 46.1875 37.015625 41.984375 42.703125 
Q 37.796875 48.390625 30.609375 48.390625 
z
M 30.609375 56 
Q 42.328125 56 49.015625 48.375 
Q 55.71875 40.765625 55.71875 27.296875 
Q 55.71875 13.875 49.015625 6.21875 
Q 42.328125 -1.421875 30.609375 -1.421875 
Q 18.84375 -1.421875 12.171875 6.21875 
Q 5.515625 13.875 5.515625 27.296875 
Q 5.515625 40.765625 12.171875 48.375 
Q 18.84375 56 30.609375 56 
z
" id="DejaVuSans-111"/>
     <path d="M 4.203125 54.6875 
L 13.1875 54.6875 
L 24.421875 12.015625 
L 35.59375 54.6875 
L 46.1875 54.6875 
L 57.421875 12.015625 
L 68.609375 54.6875 
L 77.59375 54.6875 
L 63.28125 0 
L 52.6875 0 
L 40.921875 44.828125 
L 29.109375 0 
L 18.5 0 
z
" id="DejaVuSans-119"/>
     <path d="M 56.203125 29.59375 
L 56.203125 25.203125 
L 14.890625 25.203125 
Q 15.484375 15.921875 20.484375 11.0625 
Q 25.484375 6.203125 34.421875 6.203125 
Q 39.59375 6.203125 44.453125 7.46875 
Q 49.3125 8.734375 54.109375 11.28125 
L 54.109375 2.78125 
Q 49.265625 0.734375 44.1875 -0.34375 
Q 39.109375 -1.421875 33.890625 -1.421875 
Q 20.796875 -1.421875 13.15625 6.1875 
Q 5.515625 13.8125 5.515625 26.8125 
Q 5.515625 40.234375 12.765625 48.109375 
Q 20.015625 56 32.328125 56 
Q 43.359375 56 49.78125 48.890625 
Q 56.203125 41.796875 56.203125 29.59375 
z
M 47.21875 32.234375 
Q 47.125 39.59375 43.09375 43.984375 
Q 39.0625 48.390625 32.421875 48.390625 
Q 24.90625 48.390625 20.390625 44.140625 
Q 15.875 39.890625 15.1875 32.171875 
z
" id="DejaVuSans-101"/>
     <path d="M 41.109375 46.296875 
Q 39.59375 47.171875 37.8125 47.578125 
Q 36.03125 48 33.890625 48 
Q 26.265625 48 22.1875 43.046875 
Q 18.109375 38.09375 18.109375 28.8125 
L 18.109375 0 
L 9.078125 0 
L 9.078125 54.6875 
L 18.109375 54.6875 
L 18.109375 46.1875 
Q 20.953125 51.171875 25.484375 53.578125 
Q 30.03125 56 36.53125 56 
Q 37.453125 56 38.578125 55.875 
Q 39.703125 55.765625 41.0625 55.515625 
z
" id="DejaVuSans-114"/>
     <path id="DejaVuSans-32"/>
     <path d="M 44.28125 53.078125 
L 44.28125 44.578125 
Q 40.484375 46.53125 36.375 47.5 
Q 32.28125 48.484375 27.875 48.484375 
Q 21.1875 48.484375 17.84375 46.4375 
Q 14.5 44.390625 14.5 40.28125 
Q 14.5 37.15625 16.890625 35.375 
Q 19.28125 33.59375 26.515625 31.984375 
L 29.59375 31.296875 
Q 39.15625 29.25 43.1875 25.515625 
Q 47.21875 21.78125 47.21875 15.09375 
Q 47.21875 7.46875 41.1875 3.015625 
Q 35.15625 -1.421875 24.609375 -1.421875 
Q 20.21875 -1.421875 15.453125 -0.5625 
Q 10.6875 0.296875 5.421875 2 
L 5.421875 11.28125 
Q 10.40625 8.6875 15.234375 7.390625 
Q 20.0625 6.109375 24.8125 6.109375 
Q 31.15625 6.109375 34.5625 8.28125 
Q 37.984375 10.453125 37.984375 14.40625 
Q 37.984375 18.0625 35.515625 20.015625 
Q 33.0625 21.96875 24.703125 23.78125 
L 21.578125 24.515625 
Q 13.234375 26.265625 9.515625 29.90625 
Q 5.8125 33.546875 5.8125 39.890625 
Q 5.8125 47.609375 11.28125 51.796875 
Q 16.75 56 26.8125 56 
Q 31.78125 56 36.171875 55.265625 
Q 40.578125 54.546875 44.28125 53.078125 
z
" id="DejaVuSans-115"/>
     <path d="M 18.109375 8.203125 
L 18.109375 -20.796875 
L 9.078125 -20.796875 
L 9.078125 54.6875 
L 18.109375 54.6875 
L 18.109375 46.390625 
Q 20.953125 51.265625 25.265625 53.625 
Q 29.59375 56 35.59375 56 
Q 45.5625 56 51.78125 48.09375 
Q 58.015625 40.1875 58.015625 27.296875 
Q 58.015625 14.40625 51.78125 6.484375 
Q 45.5625 -1.421875 35.59375 -1.421875 
Q 29.59375 -1.421875 25.265625 0.953125 
Q 20.953125 3.328125 18.109375 8.203125 
z
M 48.6875 27.296875 
Q 48.6875 37.203125 44.609375 42.84375 
Q 40.53125 48.484375 33.40625 48.484375 
Q 26.265625 48.484375 22.1875 42.84375 
Q 18.109375 37.203125 18.109375 27.296875 
Q 18.109375 17.390625 22.1875 11.75 
Q 26.265625 6.109375 33.40625 6.109375 
Q 40.53125 6.109375 44.609375 11.75 
Q 48.6875 17.390625 48.6875 27.296875 
z
" id="DejaVuSans-112"/>
     <path d="M 48.78125 52.59375 
L 48.78125 44.1875 
Q 44.96875 46.296875 41.140625 47.34375 
Q 37.3125 48.390625 33.40625 48.390625 
Q 24.65625 48.390625 19.8125 42.84375 
Q 14.984375 37.3125 14.984375 27.296875 
Q 14.984375 17.28125 19.8125 11.734375 
Q 24.65625 6.203125 33.40625 6.203125 
Q 37.3125 6.203125 41.140625 7.25 
Q 44.96875 8.296875 48.78125 10.40625 
L 48.78125 2.09375 
Q 45.015625 0.34375 40.984375 -0.53125 
Q 36.96875 -1.421875 32.421875 -1.421875 
Q 20.0625 -1.421875 12.78125 6.34375 
Q 5.515625 14.109375 5.515625 27.296875 
Q 5.515625 40.671875 12.859375 48.328125 
Q 20.21875 56 33.015625 56 
Q 37.15625 56 41.109375 55.140625 
Q 45.0625 54.296875 48.78125 52.59375 
z
" id="DejaVuSans-99"/>
     <path d="M 18.3125 70.21875 
L 18.3125 54.6875 
L 36.8125 54.6875 
L 36.8125 47.703125 
L 18.3125 47.703125 
L 18.3125 18.015625 
Q 18.3125 11.328125 20.140625 9.421875 
Q 21.96875 7.515625 27.59375 7.515625 
L 36.8125 7.515625 
L 36.8125 0 
L 27.59375 0 
Q 17.1875 0 13.234375 3.875 
Q 9.28125 7.765625 9.28125 18.015625 
L 9.28125 47.703125 
L 2.6875 47.703125 
L 2.6875 54.6875 
L 9.28125 54.6875 
L 9.28125 70.21875 
z
" id="DejaVuSans-116"/>
     <path d="M 8.5 21.578125 
L 8.5 54.6875 
L 17.484375 54.6875 
L 17.484375 21.921875 
Q 17.484375 14.15625 20.5 10.265625 
Q 23.53125 6.390625 29.59375 6.390625 
Q 36.859375 6.390625 41.078125 11.03125 
Q 45.3125 15.671875 45.3125 23.6875 
L 45.3125 54.6875 
L 54.296875 54.6875 
L 54.296875 0 
L 45.3125 0 
L 45.3125 8.40625 
Q 42.046875 3.421875 37.71875 1 
Q 33.40625 -1.421875 27.6875 -1.421875 
Q 18.265625 -1.421875 13.375 4.4375 
Q 8.5 10.296875 8.5 21.578125 
z
M 31.109375 56 
z
" id="DejaVuSans-117"/>
     <path d="M 52 44.1875 
Q 55.375 50.25 60.0625 53.125 
Q 64.75 56 71.09375 56 
Q 79.640625 56 84.28125 50.015625 
Q 88.921875 44.046875 88.921875 33.015625 
L 88.921875 0 
L 79.890625 0 
L 79.890625 32.71875 
Q 79.890625 40.578125 77.09375 44.375 
Q 74.3125 48.1875 68.609375 48.1875 
Q 61.625 48.1875 57.5625 43.546875 
Q 53.515625 38.921875 53.515625 30.90625 
L 53.515625 0 
L 44.484375 0 
L 44.484375 32.71875 
Q 44.484375 40.625 41.703125 44.40625 
Q 38.921875 48.1875 33.109375 48.1875 
Q 26.21875 48.1875 22.15625 43.53125 
Q 18.109375 38.875 18.109375 30.90625 
L 18.109375 0 
L 9.078125 0 
L 9.078125 54.6875 
L 18.109375 54.6875 
L 18.109375 46.1875 
Q 21.1875 51.21875 25.484375 53.609375 
Q 29.78125 56 35.6875 56 
Q 41.65625 56 45.828125 52.96875 
Q 50 49.953125 52 44.1875 
z
" id="DejaVuSans-109"/>
    </defs>
    <g transform="translate(170.953516 18.597656)scale(0.15 -0.15)">
     <use xlink:href="#DejaVuSans-80"/>
     <use x="60.255859" xlink:href="#DejaVuSans-111"/>
     <use x="121.4375" xlink:href="#DejaVuSans-119"/>
     <use x="203.224609" xlink:href="#DejaVuSans-101"/>
     <use x="264.748047" xlink:href="#DejaVuSans-114"/>
     <use x="305.861328" xlink:href="#DejaVuSans-32"/>
     <use x="337.648438" xlink:href="#DejaVuSans-115"/>
     <use x="389.748047" xlink:href="#DejaVuSans-112"/>
     <use x="453.224609" xlink:href="#DejaVuSans-101"/>
     <use x="514.748047" xlink:href="#DejaVuSans-99"/>
     <use x="569.728516" xlink:href="#DejaVuSans-116"/>
     <use x="608.9375" xlink:href="#DejaVuSans-114"/>
     <use x="650.050781" xlink:href="#DejaVuSans-117"/>
     <use x="713.429688" xlink:href="#DejaVuSans-109"/>
    </g>
   </g>
  </g>
 </g>
 <defs>
  <clipPath id="pa6ec5b4656">
   <rect height="163.08" width="390.6" x="36.465625" y="24.597656"/>
  </clipPath>
 </defs>
</svg>
