<?xml version="1.0" encoding="utf-8" standalone="no"?>
<!DOCTYPE svg PUBLIC "-//W3C//DTD SVG 1.1//EN"
  "http://www.w3.org/Graphics/SVG/1.1/DTD/svg11.dtd">
<!-- Created with matplotlib (https://matplotlib.org/) -->
<svg height="230.072969pt" version="1.1" viewBox="0 0 936.89375 230.072969" width="936.89375pt" xmlns="http://www.w3.org/2000/svg" xmlns:xlink="http://www.w3.org/1999/xlink">
 <defs>
  <style type="text/css">
*{stroke-linecap:butt;stroke-linejoin:round;}
  </style>
 </defs>
 <g id="figure_1">
  <g id="patch_1">
   <path d="M 0 230.072969 
L 936.89375 230.072969 
L 936.89375 0 
L 0 0 
z
" style="fill:#ffffff;"/>
  </g>
  <g id="axes_1">
   <g id="patch_2">
    <path d="M 28.942188 187.677656 
L 434.760369 187.677656 
L 434.760369 24.597656 
L 28.942188 24.597656 
z
" style="fill:#ffffff;"/>
   </g>
   <g id="matplotlib.axis_1">
    <g id="xtick_1">
     <g id="line2d_1">
      <defs>
       <path d="M 0 0 
L 0 3.5 
" id="m623649101b" style="stroke:#000000;stroke-width:0.8;"/>
      </defs>
      <g>
       <use style="stroke:#000000;stroke-width:0.8;" x="28.942188" xlink:href="#m623649101b" y="187.677656"/>
      </g>
     </g>
     <g id="text_1">
      <!-- 0.00 -->
      <defs>
       <path d="M 31.78125 66.40625 
Q 24.171875 66.40625 20.328125 58.90625 
Q 16.5 51.421875 16.5 36.375 
Q 16.5 21.390625 20.328125 13.890625 
Q 24.171875 6.390625 31.78125 6.390625 
Q 39.453125 6.390625 43.28125 13.890625 
Q 47.125 21.390625 47.125 36.375 
Q 47.125 51.421875 43.28125 58.90625 
Q 39.453125 66.40625 31.78125 66.40625 
z
M 31.78125 74.21875 
Q 44.046875 74.21875 50.515625 64.515625 
Q 56.984375 54.828125 56.984375 36.375 
Q 56.984375 17.96875 50.515625 8.265625 
Q 44.046875 -1.421875 31.78125 -1.421875 
Q 19.53125 -1.421875 13.0625 8.265625 
Q 6.59375 17.96875 6.59375 36.375 
Q 6.59375 54.828125 13.0625 64.515625 
Q 19.53125 74.21875 31.78125 74.21875 
z
" id="DejaVuSans-48"/>
       <path d="M 10.6875 12.40625 
L 21 12.40625 
L 21 0 
L 10.6875 0 
z
" id="DejaVuSans-46"/>
      </defs>
      <g transform="translate(17.809375 202.276094)scale(0.1 -0.1)">
       <use xlink:href="#DejaVuSans-48"/>
       <use x="63.623047" xlink:href="#DejaVuSans-46"/>
       <use x="95.410156" xlink:href="#DejaVuSans-48"/>
       <use x="159.033203" xlink:href="#DejaVuSans-48"/>
      </g>
     </g>
    </g>
    <g id="xtick_2">
     <g id="line2d_2">
      <g>
       <use style="stroke:#000000;stroke-width:0.8;" x="110.105824" xlink:href="#m623649101b" y="187.677656"/>
      </g>
     </g>
     <g id="text_2">
      <!-- 0.02 -->
      <defs>
       <path d="M 19.1875 8.296875 
L 53.609375 8.296875 
L 53.609375 0 
L 7.328125 0 
L 7.328125 8.296875 
Q 12.9375 14.109375 22.625 23.890625 
Q 32.328125 33.6875 34.8125 36.53125 
Q 39.546875 41.84375 41.421875 45.53125 
Q 43.3125 49.21875 43.3125 52.78125 
Q 43.3125 58.59375 39.234375 62.25 
Q 35.15625 65.921875 28.609375 65.921875 
Q 23.96875 65.921875 18.8125 64.3125 
Q 13.671875 62.703125 7.8125 59.421875 
L 7.8125 69.390625 
Q 13.765625 71.78125 18.9375 73 
Q 24.125 74.21875 28.421875 74.21875 
Q 39.75 74.21875 46.484375 68.546875 
Q 53.21875 62.890625 53.21875 53.421875 
Q 53.21875 48.921875 51.53125 44.890625 
Q 49.859375 40.875 45.40625 35.40625 
Q 44.1875 33.984375 37.640625 27.21875 
Q 31.109375 20.453125 19.1875 8.296875 
z
" id="DejaVuSans-50"/>
      </defs>
      <g transform="translate(98.973011 202.276094)scale(0.1 -0.1)">
       <use xlink:href="#DejaVuSans-48"/>
       <use x="63.623047" xlink:href="#DejaVuSans-46"/>
       <use x="95.410156" xlink:href="#DejaVuSans-48"/>
       <use x="159.033203" xlink:href="#DejaVuSans-50"/>
      </g>
     </g>
    </g>
    <g id="xtick_3">
     <g id="line2d_3">
      <g>
       <use style="stroke:#000000;stroke-width:0.8;" x="191.26946" xlink:href="#m623649101b" y="187.677656"/>
      </g>
     </g>
     <g id="text_3">
      <!-- 0.04 -->
      <defs>
       <path d="M 37.796875 64.3125 
L 12.890625 25.390625 
L 37.796875 25.390625 
z
M 35.203125 72.90625 
L 47.609375 72.90625 
L 47.609375 25.390625 
L 58.015625 25.390625 
L 58.015625 17.1875 
L 47.609375 17.1875 
L 47.609375 0 
L 37.796875 0 
L 37.796875 17.1875 
L 4.890625 17.1875 
L 4.890625 26.703125 
z
" id="DejaVuSans-52"/>
      </defs>
      <g transform="translate(180.136648 202.276094)scale(0.1 -0.1)">
       <use xlink:href="#DejaVuSans-48"/>
       <use x="63.623047" xlink:href="#DejaVuSans-46"/>
       <use x="95.410156" xlink:href="#DejaVuSans-48"/>
       <use x="159.033203" xlink:href="#DejaVuSans-52"/>
      </g>
     </g>
    </g>
    <g id="xtick_4">
     <g id="line2d_4">
      <g>
       <use style="stroke:#000000;stroke-width:0.8;" x="272.433097" xlink:href="#m623649101b" y="187.677656"/>
      </g>
     </g>
     <g id="text_4">
      <!-- 0.06 -->
      <defs>
       <path d="M 33.015625 40.375 
Q 26.375 40.375 22.484375 35.828125 
Q 18.609375 31.296875 18.609375 23.390625 
Q 18.609375 15.53125 22.484375 10.953125 
Q 26.375 6.390625 33.015625 6.390625 
Q 39.65625 6.390625 43.53125 10.953125 
Q 47.40625 15.53125 47.40625 23.390625 
Q 47.40625 31.296875 43.53125 35.828125 
Q 39.65625 40.375 33.015625 40.375 
z
M 52.59375 71.296875 
L 52.59375 62.3125 
Q 48.875 64.0625 45.09375 64.984375 
Q 41.3125 65.921875 37.59375 65.921875 
Q 27.828125 65.921875 22.671875 59.328125 
Q 17.53125 52.734375 16.796875 39.40625 
Q 19.671875 43.65625 24.015625 45.921875 
Q 28.375 48.1875 33.59375 48.1875 
Q 44.578125 48.1875 50.953125 41.515625 
Q 57.328125 34.859375 57.328125 23.390625 
Q 57.328125 12.15625 50.6875 5.359375 
Q 44.046875 -1.421875 33.015625 -1.421875 
Q 20.359375 -1.421875 13.671875 8.265625 
Q 6.984375 17.96875 6.984375 36.375 
Q 6.984375 53.65625 15.1875 63.9375 
Q 23.390625 74.21875 37.203125 74.21875 
Q 40.921875 74.21875 44.703125 73.484375 
Q 48.484375 72.75 52.59375 71.296875 
z
" id="DejaVuSans-54"/>
      </defs>
      <g transform="translate(261.300284 202.276094)scale(0.1 -0.1)">
       <use xlink:href="#DejaVuSans-48"/>
       <use x="63.623047" xlink:href="#DejaVuSans-46"/>
       <use x="95.410156" xlink:href="#DejaVuSans-48"/>
       <use x="159.033203" xlink:href="#DejaVuSans-54"/>
      </g>
     </g>
    </g>
    <g id="xtick_5">
     <g id="line2d_5">
      <g>
       <use style="stroke:#000000;stroke-width:0.8;" x="353.596733" xlink:href="#m623649101b" y="187.677656"/>
      </g>
     </g>
     <g id="text_5">
      <!-- 0.08 -->
      <defs>
       <path d="M 31.78125 34.625 
Q 24.75 34.625 20.71875 30.859375 
Q 16.703125 27.09375 16.703125 20.515625 
Q 16.703125 13.921875 20.71875 10.15625 
Q 24.75 6.390625 31.78125 6.390625 
Q 38.8125 6.390625 42.859375 10.171875 
Q 46.921875 13.96875 46.921875 20.515625 
Q 46.921875 27.09375 42.890625 30.859375 
Q 38.875 34.625 31.78125 34.625 
z
M 21.921875 38.8125 
Q 15.578125 40.375 12.03125 44.71875 
Q 8.5 49.078125 8.5 55.328125 
Q 8.5 64.0625 14.71875 69.140625 
Q 20.953125 74.21875 31.78125 74.21875 
Q 42.671875 74.21875 48.875 69.140625 
Q 55.078125 64.0625 55.078125 55.328125 
Q 55.078125 49.078125 51.53125 44.71875 
Q 48 40.375 41.703125 38.8125 
Q 48.828125 37.15625 52.796875 32.3125 
Q 56.78125 27.484375 56.78125 20.515625 
Q 56.78125 9.90625 50.3125 4.234375 
Q 43.84375 -1.421875 31.78125 -1.421875 
Q 19.734375 -1.421875 13.25 4.234375 
Q 6.78125 9.90625 6.78125 20.515625 
Q 6.78125 27.484375 10.78125 32.3125 
Q 14.796875 37.15625 21.921875 38.8125 
z
M 18.3125 54.390625 
Q 18.3125 48.734375 21.84375 45.5625 
Q 25.390625 42.390625 31.78125 42.390625 
Q 38.140625 42.390625 41.71875 45.5625 
Q 45.3125 48.734375 45.3125 54.390625 
Q 45.3125 60.0625 41.71875 63.234375 
Q 38.140625 66.40625 31.78125 66.40625 
Q 25.390625 66.40625 21.84375 63.234375 
Q 18.3125 60.0625 18.3125 54.390625 
z
" id="DejaVuSans-56"/>
      </defs>
      <g transform="translate(342.46392 202.276094)scale(0.1 -0.1)">
       <use xlink:href="#DejaVuSans-48"/>
       <use x="63.623047" xlink:href="#DejaVuSans-46"/>
       <use x="95.410156" xlink:href="#DejaVuSans-48"/>
       <use x="159.033203" xlink:href="#DejaVuSans-56"/>
      </g>
     </g>
    </g>
    <g id="xtick_6">
     <g id="line2d_6">
      <g>
       <use style="stroke:#000000;stroke-width:0.8;" x="434.760369" xlink:href="#m623649101b" y="187.677656"/>
      </g>
     </g>
     <g id="text_6">
      <!-- 0.10 -->
      <defs>
       <path d="M 12.40625 8.296875 
L 28.515625 8.296875 
L 28.515625 63.921875 
L 10.984375 60.40625 
L 10.984375 69.390625 
L 28.421875 72.90625 
L 38.28125 72.90625 
L 38.28125 8.296875 
L 54.390625 8.296875 
L 54.390625 0 
L 12.40625 0 
z
" id="DejaVuSans-49"/>
      </defs>
      <g transform="translate(423.627557 202.276094)scale(0.1 -0.1)">
       <use xlink:href="#DejaVuSans-48"/>
       <use x="63.623047" xlink:href="#DejaVuSans-46"/>
       <use x="95.410156" xlink:href="#DejaVuSans-49"/>
       <use x="159.033203" xlink:href="#DejaVuSans-48"/>
      </g>
     </g>
    </g>
    <g id="text_7">
     <!-- t -->
     <defs>
      <path d="M 18.3125 70.21875 
L 18.3125 54.6875 
L 36.8125 54.6875 
L 36.8125 47.703125 
L 18.3125 47.703125 
L 18.3125 18.015625 
Q 18.3125 11.328125 20.140625 9.421875 
Q 21.96875 7.515625 27.59375 7.515625 
L 36.8125 7.515625 
L 36.8125 0 
L 27.59375 0 
Q 17.1875 0 13.234375 3.875 
Q 9.28125 7.765625 9.28125 18.015625 
L 9.28125 47.703125 
L 2.6875 47.703125 
L 2.6875 54.6875 
L 9.28125 54.6875 
L 9.28125 70.21875 
z
" id="DejaVuSans-116"/>
     </defs>
     <g transform="translate(228.911044 219.753438)scale(0.15 -0.15)">
      <use xlink:href="#DejaVuSans-116"/>
     </g>
    </g>
   </g>
   <g id="matplotlib.axis_2">
    <g id="ytick_1">
     <g id="line2d_7">
      <defs>
       <path d="M 0 0 
L -3.5 0 
" id="m73b2cd0fe7" style="stroke:#000000;stroke-width:0.8;"/>
      </defs>
      <g>
       <use style="stroke:#000000;stroke-width:0.8;" x="28.942188" xlink:href="#m73b2cd0fe7" y="175.470535"/>
      </g>
     </g>
     <g id="text_8">
      <!-- −2 -->
      <defs>
       <path d="M 10.59375 35.5 
L 73.1875 35.5 
L 73.1875 27.203125 
L 10.59375 27.203125 
z
" id="DejaVuSans-8722"/>
      </defs>
      <g transform="translate(7.2 179.269754)scale(0.1 -0.1)">
       <use xlink:href="#DejaVuSans-8722"/>
       <use x="83.789062" xlink:href="#DejaVuSans-50"/>
      </g>
     </g>
    </g>
    <g id="ytick_2">
     <g id="line2d_8">
      <g>
       <use style="stroke:#000000;stroke-width:0.8;" x="28.942188" xlink:href="#m73b2cd0fe7" y="140.409377"/>
      </g>
     </g>
     <g id="text_9">
      <!-- −1 -->
      <g transform="translate(7.2 144.208596)scale(0.1 -0.1)">
       <use xlink:href="#DejaVuSans-8722"/>
       <use x="83.789062" xlink:href="#DejaVuSans-49"/>
      </g>
     </g>
    </g>
    <g id="ytick_3">
     <g id="line2d_9">
      <g>
       <use style="stroke:#000000;stroke-width:0.8;" x="28.942188" xlink:href="#m73b2cd0fe7" y="105.348219"/>
      </g>
     </g>
     <g id="text_10">
      <!-- 0 -->
      <g transform="translate(15.579688 109.147438)scale(0.1 -0.1)">
       <use xlink:href="#DejaVuSans-48"/>
      </g>
     </g>
    </g>
    <g id="ytick_4">
     <g id="line2d_10">
      <g>
       <use style="stroke:#000000;stroke-width:0.8;" x="28.942188" xlink:href="#m73b2cd0fe7" y="70.287061"/>
      </g>
     </g>
     <g id="text_11">
      <!-- 1 -->
      <g transform="translate(15.579688 74.08628)scale(0.1 -0.1)">
       <use xlink:href="#DejaVuSans-49"/>
      </g>
     </g>
    </g>
    <g id="ytick_5">
     <g id="line2d_11">
      <g>
       <use style="stroke:#000000;stroke-width:0.8;" x="28.942188" xlink:href="#m73b2cd0fe7" y="35.225904"/>
      </g>
     </g>
     <g id="text_12">
      <!-- 2 -->
      <g transform="translate(15.579688 39.025122)scale(0.1 -0.1)">
       <use xlink:href="#DejaVuSans-50"/>
      </g>
     </g>
    </g>
   </g>
   <g id="line2d_12">
    <path clip-path="url(#p17a6410d27)" d="M 28.942188 105.348219 
L 30.159642 108.859625 
L 32.594551 116.626286 
L 33.406188 118.538443 
L 34.217824 119.704977 
L 34.623642 119.945998 
L 35.02946 119.932673 
L 35.435278 119.650874 
L 35.841097 119.091438 
L 36.246915 118.250533 
L 37.058551 115.73707 
L 37.870188 112.193484 
L 39.087642 105.348219 
L 42.334188 85.53017 
L 43.145824 82.217582 
L 43.551642 81.045724 
L 43.95746 80.240671 
L 44.363278 79.828337 
L 44.769097 79.828287 
L 45.174915 80.253213 
L 45.580733 81.108535 
L 45.986551 82.392121 
L 46.798188 86.197085 
L 47.609824 91.498151 
L 48.827278 101.603274 
L 52.073824 130.556853 
L 52.88546 135.554309 
L 53.697097 138.777519 
L 54.102915 139.630182 
L 54.508733 139.942636 
L 54.914551 139.700058 
L 55.320369 138.896818 
L 55.726188 137.536718 
L 56.537824 133.20859 
L 57.34946 126.933439 
L 58.566915 114.682406 
L 61.81346 78.32702 
L 62.625097 71.654176 
L 63.436733 67.003063 
L 63.842551 65.549303 
L 64.248369 64.71923 
L 64.654188 64.532227 
L 65.060006 64.997162 
L 65.465824 66.112152 
L 65.871642 67.864512 
L 66.683278 73.177536 
L 67.494915 80.628185 
L 68.712369 94.786174 
L 71.553097 130.765762 
L 72.364733 138.798533 
L 73.176369 144.763042 
L 73.582188 146.838962 
L 73.988006 148.260065 
L 74.393824 149.001593 
L 74.799642 149.049899 
L 75.20546 148.402696 
L 75.611278 147.069124 
L 76.017097 145.06961 
L 76.828733 139.208783 
L 77.640369 131.192545 
L 78.857824 116.28117 
L 81.698551 79.631915 
L 82.510188 71.722102 
L 83.321824 65.979799 
L 83.727642 64.038844 
L 84.13346 62.760415 
L 84.539278 62.162733 
L 84.945097 62.252804 
L 85.350915 63.026345 
L 85.756733 64.467899 
L 86.162551 66.551135 
L 86.974187 72.486074 
L 87.785824 80.425781 
L 89.003278 94.906159 
L 91.438188 125.113377 
L 92.249824 133.187312 
L 93.06146 139.365411 
L 93.873097 143.287149 
L 94.278915 144.33078 
L 94.684733 144.745366 
L 95.090551 144.530769 
L 95.496369 143.697181 
L 95.902188 142.264859 
L 96.713824 137.732536 
L 97.52546 131.276429 
L 98.742915 119.015435 
L 101.583642 88.373433 
L 102.395278 81.621486 
L 103.206915 76.581151 
L 103.612733 74.791421 
L 104.018551 73.518932 
L 104.424369 72.775291 
L 104.830188 72.563129 
L 105.236006 72.876199 
L 105.641824 73.699632 
L 106.047642 75.010337 
L 106.859278 78.963394 
L 107.670915 84.409439 
L 108.888369 94.461438 
L 111.323278 115.462 
L 112.134915 121.074134 
L 112.946551 125.40194 
L 113.758188 128.23138 
L 114.164006 129.047579 
L 114.569824 129.459443 
L 114.975642 129.471743 
L 115.38146 129.095971 
L 115.787278 128.349974 
L 116.598915 125.847478 
L 117.410551 122.213618 
L 118.628006 115.334207 
L 121.062915 100.777286 
L 121.874551 96.873692 
L 122.686188 93.847996 
L 123.497824 91.833153 
L 123.903642 91.223838 
L 124.30946 90.879811 
L 124.715278 90.794831 
L 125.121097 90.958069 
L 125.526915 91.354475 
L 126.338551 92.768222 
L 127.150188 94.849568 
L 128.367642 98.736937 
L 130.396733 105.348219 
L 131.208369 107.462931 
L 132.020006 109.071253 
L 132.831642 110.111097 
L 133.23746 110.413994 
L 133.643278 110.576998 
L 134.049097 110.607643 
L 134.860733 110.315695 
L 135.672369 109.648078 
L 136.889824 108.243161 
L 138.513097 106.376889 
L 139.324733 105.730741 
L 140.136369 105.390581 
L 140.948006 105.392432 
L 141.759642 105.728358 
L 142.571278 106.348113 
L 143.788733 107.612201 
L 145.412006 109.284405 
L 146.223642 109.822649 
L 147.035278 110.010077 
L 147.441097 109.945875 
L 148.252733 109.469541 
L 149.064369 108.518397 
L 149.876006 107.120102 
L 151.09346 104.35668 
L 153.934188 97.244379 
L 154.745824 95.799537 
L 155.55746 94.905068 
L 155.963278 94.700615 
L 156.369097 94.671948 
L 156.774915 94.825587 
L 157.180733 95.16466 
L 157.992369 96.39392 
L 158.804006 98.313601 
L 159.615642 100.822211 
L 160.833097 105.348219 
L 163.268006 114.596358 
L 164.079642 116.93375 
L 164.891278 118.578971 
L 165.297097 119.098719 
L 165.702915 119.400199 
L 166.108733 119.475836 
L 166.514551 119.322027 
L 166.920369 118.939246 
L 167.326188 118.332057 
L 168.137824 116.482759 
L 168.94946 113.888439 
L 170.166915 108.98029 
L 173.007642 96.778662 
L 173.819278 94.16036 
L 174.630915 92.284931 
L 175.036733 91.665133 
L 175.442551 91.270736 
L 175.848369 91.106801 
L 176.254188 91.174261 
L 176.660006 91.469926 
L 177.065824 91.986564 
L 177.87746 93.634676 
L 178.689097 95.987845 
L 179.906551 100.440731 
L 182.34146 109.945737 
L 183.153097 112.497034 
L 183.964733 114.450059 
L 184.776369 115.699783 
L 185.182187 116.043554 
L 185.588006 116.198049 
L 185.993824 116.166434 
L 186.399642 115.955394 
L 186.80546 115.574935 
L 187.617097 114.360734 
L 188.428733 112.658747 
L 190.052006 108.469017 
L 191.675278 104.423007 
L 192.486915 102.843901 
L 193.298551 101.702027 
L 194.110187 101.046141 
L 194.921824 100.875142 
L 195.73346 101.139982 
L 196.545097 101.749966 
L 197.762551 103.039293 
L 199.385824 104.711816 
L 200.19746 105.229882 
L 201.009097 105.405508 
L 201.820733 105.191236 
L 202.632369 104.588247 
L 203.444006 103.648105 
L 205.067278 101.190779 
L 206.284733 99.449585 
L 207.096369 98.663805 
L 207.502188 98.446043 
L 207.908006 98.369172 
L 208.313824 98.448253 
L 208.719642 98.695339 
L 209.12546 99.11905 
L 209.937097 100.511636 
L 210.748733 102.61483 
L 211.560369 105.348219 
L 212.777824 110.287828 
L 214.806915 118.779354 
L 215.618551 121.43877 
L 216.430188 123.25054 
L 216.836006 123.761904 
L 217.241824 123.976561 
L 217.647642 123.874916 
L 218.05346 123.442619 
L 218.459278 122.671054 
L 218.865097 121.557729 
L 219.676733 118.328065 
L 220.488369 113.864073 
L 221.705824 105.348219 
L 224.952369 80.883748 
L 225.764006 76.774576 
L 226.169824 75.310978 
L 226.575642 74.295899 
L 226.98146 73.762121 
L 227.387278 73.734975 
L 227.793097 74.231658 
L 228.198915 75.260692 
L 228.604733 76.821519 
L 229.416369 81.489623 
L 230.228006 88.044703 
L 231.44546 100.647054 
L 234.692006 137.484066 
L 235.503642 144.02292 
L 236.315278 148.344374 
L 236.721097 149.543995 
L 237.126915 150.052764 
L 237.532733 149.84654 
L 237.938551 148.912736 
L 238.344369 147.250786 
L 238.750188 144.872394 
L 239.561824 138.074512 
L 240.37346 128.854573 
L 241.590915 111.64658 
L 244.431642 68.685527 
L 245.243278 59.354932 
L 246.054915 52.683252 
L 246.460733 50.516054 
L 246.866551 49.196276 
L 247.272369 48.758775 
L 247.678188 49.224312 
L 248.084006 50.599007 
L 248.489824 52.874016 
L 249.30146 60.014683 
L 250.113097 70.280325 
L 251.330551 90.211034 
L 254.577097 149.082589 
L 255.388733 159.888197 
L 256.200369 167.436589 
L 256.606188 169.805832 
L 257.012006 171.169228 
L 257.417824 171.494637 
L 257.823642 170.766615 
L 258.22946 168.98682 
L 258.635278 166.174146 
L 259.446915 157.610676 
L 260.258551 145.55892 
L 261.476006 122.56809 
L 264.722551 56.603728 
L 265.534188 44.861678 
L 266.345824 36.828306 
L 266.751642 34.387207 
L 267.15746 33.062247 
L 267.563278 32.880525 
L 267.969097 33.85067 
L 268.374915 35.962608 
L 268.780733 39.187644 
L 269.592369 48.771747 
L 270.404006 62.02326 
L 271.62146 86.924489 
L 274.462188 149.271946 
L 275.273824 163.02269 
L 276.08546 173.164833 
L 276.491278 176.666664 
L 276.897097 179.040171 
L 277.302915 180.246306 
L 277.708733 180.264929 
L 278.114551 179.09515 
L 278.520369 176.755355 
L 278.926187 173.28291 
L 279.737824 163.180475 
L 280.54946 149.435749 
L 281.766915 123.969972 
L 284.607642 61.648497 
L 285.419278 48.227544 
L 286.230915 38.487631 
L 286.636733 35.19532 
L 287.042551 33.02602 
L 287.448369 32.010384 
L 287.854187 32.160246 
L 288.260006 33.468502 
L 288.665824 35.909296 
L 289.071642 39.438516 
L 289.883278 49.499607 
L 290.694915 62.971192 
L 291.912369 87.574891 
L 294.347278 139.089106 
L 295.158915 152.931248 
L 295.970551 163.571298 
L 296.782187 170.382307 
L 297.188006 172.22549 
L 297.593824 172.993944 
L 297.999642 172.684787 
L 298.40546 171.312681 
L 298.811278 168.909444 
L 299.622915 161.218319 
L 300.434551 150.176891 
L 301.652006 129.061649 
L 304.492733 75.611386 
L 305.304369 63.653047 
L 306.116006 54.628341 
L 306.521824 51.380048 
L 306.927642 49.033176 
L 307.33346 47.612744 
L 307.739278 47.128252 
L 308.145097 47.573727 
L 308.550915 48.928039 
L 308.956733 51.15546 
L 309.768369 58.018761 
L 310.580006 67.62173 
L 311.79746 85.5939 
L 314.232369 123.993441 
L 315.044006 134.510073 
L 315.855642 142.765846 
L 316.667278 148.324142 
L 317.073097 150.008101 
L 317.478915 150.942702 
L 317.884733 151.129467 
L 318.290551 150.58238 
L 318.696369 149.327394 
L 319.102188 147.401738 
L 319.913824 141.738315 
L 320.72546 134.078355 
L 321.942915 120.166684 
L 324.377824 91.817648 
L 325.18946 84.439826 
L 326.001097 78.858225 
L 326.812733 75.325514 
L 327.218551 74.364195 
L 327.624369 73.939706 
L 328.030188 74.040408 
L 328.436006 74.645807 
L 328.841824 75.727184 
L 329.65346 79.166582 
L 330.465097 83.996232 
L 331.682551 92.886146 
L 333.711642 108.203629 
L 334.523278 113.279608 
L 335.334915 117.284687 
L 336.146551 120.041584 
L 336.552369 120.926718 
L 336.958188 121.48325 
L 337.364006 121.719577 
L 337.769824 121.650189 
L 338.175642 121.295132 
L 338.58146 120.679389 
L 339.393097 118.786129 
L 340.610551 114.815754 
L 342.639642 107.645603 
L 343.451278 105.348219 
L 344.262915 103.651468 
L 345.074551 102.638386 
L 345.480369 102.392407 
L 345.886188 102.312648 
L 346.292006 102.387835 
L 347.103642 102.938069 
L 347.915278 103.880674 
L 349.944369 106.604027 
L 350.756006 107.29167 
L 351.161824 107.46022 
L 351.567642 107.490885 
L 351.97346 107.372748 
L 352.379278 107.099192 
L 353.190915 106.082068 
L 354.002551 104.47829 
L 355.220006 101.232073 
L 357.654915 94.266112 
L 358.466551 92.715522 
L 358.872369 92.219929 
L 359.278187 91.943235 
L 359.684006 91.905046 
L 360.089824 92.120514 
L 360.495642 92.599873 
L 360.90146 93.348067 
L 361.713097 95.642809 
L 362.524733 98.931293 
L 363.742188 105.348219 
L 366.988733 124.048803 
L 367.800369 127.166491 
L 368.206187 128.264558 
L 368.612006 129.014208 
L 369.017824 129.391361 
L 369.423642 129.378135 
L 369.82946 128.963316 
L 370.235278 128.14272 
L 370.641097 126.919417 
L 371.452733 123.313698 
L 372.264369 118.316056 
L 373.481824 108.843268 
L 376.322551 84.85112 
L 377.134187 79.615532 
L 377.945824 75.877116 
L 378.351642 74.667423 
L 378.75746 73.936052 
L 379.163278 73.702342 
L 379.569097 73.97737 
L 379.974915 74.763653 
L 380.380733 76.055005 
L 381.192369 80.084874 
L 382.004006 85.847662 
L 383.22146 96.964177 
L 386.468006 129.217878 
L 387.279642 134.980586 
L 388.091278 138.917919 
L 388.497097 140.109998 
L 388.902915 140.751904 
L 389.308733 140.830567 
L 389.714551 140.342269 
L 390.120369 139.292743 
L 390.526187 137.697107 
L 391.337824 132.973364 
L 392.14946 126.467048 
L 393.366915 114.300541 
L 396.207642 84.221567 
L 397.019278 77.708033 
L 397.830915 72.975246 
L 398.236733 71.374612 
L 398.642551 70.31993 
L 399.048369 69.826468 
L 399.454187 69.900138 
L 399.860006 70.537426 
L 400.265824 71.725496 
L 400.671642 73.442434 
L 401.483278 78.332524 
L 402.294915 84.870167 
L 403.512369 96.777556 
L 405.947278 121.517176 
L 406.758915 128.088646 
L 407.570551 133.089238 
L 408.382187 136.230225 
L 408.788006 137.048031 
L 409.193824 137.351531 
L 409.599642 137.142147 
L 410.00546 136.429832 
L 410.411278 135.232799 
L 411.222915 131.496176 
L 412.034551 126.224535 
L 413.252006 116.301177 
L 416.092733 91.923771 
L 416.904369 86.667645 
L 417.716006 82.807812 
L 418.121824 81.466091 
L 418.527642 80.536849 
L 418.93346 80.02625 
L 419.339278 79.933193 
L 419.745097 80.249471 
L 420.150915 80.96006 
L 420.556733 82.04352 
L 421.368369 85.214381 
L 422.180006 89.483958 
L 423.803278 99.927995 
L 425.426551 110.4138 
L 426.644006 116.675841 
L 427.455642 119.624211 
L 428.267278 121.431485 
L 428.673097 121.892075 
L 429.078915 122.060307 
L 429.484733 121.945047 
L 429.890551 121.560075 
L 430.296369 120.923674 
L 431.108006 118.989228 
L 431.919642 116.357876 
L 433.542915 110.022327 
L 434.354551 106.838893 
L 434.354551 106.838893 
" style="fill:none;stroke:#1f77b4;stroke-linecap:square;stroke-width:1.5;"/>
   </g>
   <g id="patch_3">
    <path d="M 28.942188 187.677656 
L 28.942188 24.597656 
" style="fill:none;stroke:#000000;stroke-linecap:square;stroke-linejoin:miter;stroke-width:0.8;"/>
   </g>
   <g id="patch_4">
    <path d="M 434.760369 187.677656 
L 434.760369 24.597656 
" style="fill:none;stroke:#000000;stroke-linecap:square;stroke-linejoin:miter;stroke-width:0.8;"/>
   </g>
   <g id="patch_5">
    <path d="M 28.942188 187.677656 
L 434.760369 187.677656 
" style="fill:none;stroke:#000000;stroke-linecap:square;stroke-linejoin:miter;stroke-width:0.8;"/>
   </g>
   <g id="patch_6">
    <path d="M 28.942188 24.597656 
L 434.760369 24.597656 
" style="fill:none;stroke:#000000;stroke-linecap:square;stroke-linejoin:miter;stroke-width:0.8;"/>
   </g>
   <g id="text_13">
    <!-- Partial of Slow fading graph -->
    <defs>
     <path d="M 19.671875 64.796875 
L 19.671875 37.40625 
L 32.078125 37.40625 
Q 38.96875 37.40625 42.71875 40.96875 
Q 46.484375 44.53125 46.484375 51.125 
Q 46.484375 57.671875 42.71875 61.234375 
Q 38.96875 64.796875 32.078125 64.796875 
z
M 9.8125 72.90625 
L 32.078125 72.90625 
Q 44.34375 72.90625 50.609375 67.359375 
Q 56.890625 61.8125 56.890625 51.125 
Q 56.890625 40.328125 50.609375 34.8125 
Q 44.34375 29.296875 32.078125 29.296875 
L 19.671875 29.296875 
L 19.671875 0 
L 9.8125 0 
z
" id="DejaVuSans-80"/>
     <path d="M 34.28125 27.484375 
Q 23.390625 27.484375 19.1875 25 
Q 14.984375 22.515625 14.984375 16.5 
Q 14.984375 11.71875 18.140625 8.90625 
Q 21.296875 6.109375 26.703125 6.109375 
Q 34.1875 6.109375 38.703125 11.40625 
Q 43.21875 16.703125 43.21875 25.484375 
L 43.21875 27.484375 
z
M 52.203125 31.203125 
L 52.203125 0 
L 43.21875 0 
L 43.21875 8.296875 
Q 40.140625 3.328125 35.546875 0.953125 
Q 30.953125 -1.421875 24.3125 -1.421875 
Q 15.921875 -1.421875 10.953125 3.296875 
Q 6 8.015625 6 15.921875 
Q 6 25.140625 12.171875 29.828125 
Q 18.359375 34.515625 30.609375 34.515625 
L 43.21875 34.515625 
L 43.21875 35.40625 
Q 43.21875 41.609375 39.140625 45 
Q 35.0625 48.390625 27.6875 48.390625 
Q 23 48.390625 18.546875 47.265625 
Q 14.109375 46.140625 10.015625 43.890625 
L 10.015625 52.203125 
Q 14.9375 54.109375 19.578125 55.046875 
Q 24.21875 56 28.609375 56 
Q 40.484375 56 46.34375 49.84375 
Q 52.203125 43.703125 52.203125 31.203125 
z
" id="DejaVuSans-97"/>
     <path d="M 41.109375 46.296875 
Q 39.59375 47.171875 37.8125 47.578125 
Q 36.03125 48 33.890625 48 
Q 26.265625 48 22.1875 43.046875 
Q 18.109375 38.09375 18.109375 28.8125 
L 18.109375 0 
L 9.078125 0 
L 9.078125 54.6875 
L 18.109375 54.6875 
L 18.109375 46.1875 
Q 20.953125 51.171875 25.484375 53.578125 
Q 30.03125 56 36.53125 56 
Q 37.453125 56 38.578125 55.875 
Q 39.703125 55.765625 41.0625 55.515625 
z
" id="DejaVuSans-114"/>
     <path d="M 9.421875 54.6875 
L 18.40625 54.6875 
L 18.40625 0 
L 9.421875 0 
z
M 9.421875 75.984375 
L 18.40625 75.984375 
L 18.40625 64.59375 
L 9.421875 64.59375 
z
" id="DejaVuSans-105"/>
     <path d="M 9.421875 75.984375 
L 18.40625 75.984375 
L 18.40625 0 
L 9.421875 0 
z
" id="DejaVuSans-108"/>
     <path id="DejaVuSans-32"/>
     <path d="M 30.609375 48.390625 
Q 23.390625 48.390625 19.1875 42.75 
Q 14.984375 37.109375 14.984375 27.296875 
Q 14.984375 17.484375 19.15625 11.84375 
Q 23.34375 6.203125 30.609375 6.203125 
Q 37.796875 6.203125 41.984375 11.859375 
Q 46.1875 17.53125 46.1875 27.296875 
Q 46.1875 37.015625 41.984375 42.703125 
Q 37.796875 48.390625 30.609375 48.390625 
z
M 30.609375 56 
Q 42.328125 56 49.015625 48.375 
Q 55.71875 40.765625 55.71875 27.296875 
Q 55.71875 13.875 49.015625 6.21875 
Q 42.328125 -1.421875 30.609375 -1.421875 
Q 18.84375 -1.421875 12.171875 6.21875 
Q 5.515625 13.875 5.515625 27.296875 
Q 5.515625 40.765625 12.171875 48.375 
Q 18.84375 56 30.609375 56 
z
" id="DejaVuSans-111"/>
     <path d="M 37.109375 75.984375 
L 37.109375 68.5 
L 28.515625 68.5 
Q 23.6875 68.5 21.796875 66.546875 
Q 19.921875 64.59375 19.921875 59.515625 
L 19.921875 54.6875 
L 34.71875 54.6875 
L 34.71875 47.703125 
L 19.921875 47.703125 
L 19.921875 0 
L 10.890625 0 
L 10.890625 47.703125 
L 2.296875 47.703125 
L 2.296875 54.6875 
L 10.890625 54.6875 
L 10.890625 58.5 
Q 10.890625 67.625 15.140625 71.796875 
Q 19.390625 75.984375 28.609375 75.984375 
z
" id="DejaVuSans-102"/>
     <path d="M 53.515625 70.515625 
L 53.515625 60.890625 
Q 47.90625 63.578125 42.921875 64.890625 
Q 37.9375 66.21875 33.296875 66.21875 
Q 25.25 66.21875 20.875 63.09375 
Q 16.5 59.96875 16.5 54.203125 
Q 16.5 49.359375 19.40625 46.890625 
Q 22.3125 44.4375 30.421875 42.921875 
L 36.375 41.703125 
Q 47.40625 39.59375 52.65625 34.296875 
Q 57.90625 29 57.90625 20.125 
Q 57.90625 9.515625 50.796875 4.046875 
Q 43.703125 -1.421875 29.984375 -1.421875 
Q 24.8125 -1.421875 18.96875 -0.25 
Q 13.140625 0.921875 6.890625 3.21875 
L 6.890625 13.375 
Q 12.890625 10.015625 18.65625 8.296875 
Q 24.421875 6.59375 29.984375 6.59375 
Q 38.421875 6.59375 43.015625 9.90625 
Q 47.609375 13.234375 47.609375 19.390625 
Q 47.609375 24.75 44.3125 27.78125 
Q 41.015625 30.8125 33.5 32.328125 
L 27.484375 33.5 
Q 16.453125 35.6875 11.515625 40.375 
Q 6.59375 45.0625 6.59375 53.421875 
Q 6.59375 63.09375 13.40625 68.65625 
Q 20.21875 74.21875 32.171875 74.21875 
Q 37.3125 74.21875 42.625 73.28125 
Q 47.953125 72.359375 53.515625 70.515625 
z
" id="DejaVuSans-83"/>
     <path d="M 4.203125 54.6875 
L 13.1875 54.6875 
L 24.421875 12.015625 
L 35.59375 54.6875 
L 46.1875 54.6875 
L 57.421875 12.015625 
L 68.609375 54.6875 
L 77.59375 54.6875 
L 63.28125 0 
L 52.6875 0 
L 40.921875 44.828125 
L 29.109375 0 
L 18.5 0 
z
" id="DejaVuSans-119"/>
     <path d="M 45.40625 46.390625 
L 45.40625 75.984375 
L 54.390625 75.984375 
L 54.390625 0 
L 45.40625 0 
L 45.40625 8.203125 
Q 42.578125 3.328125 38.25 0.953125 
Q 33.9375 -1.421875 27.875 -1.421875 
Q 17.96875 -1.421875 11.734375 6.484375 
Q 5.515625 14.40625 5.515625 27.296875 
Q 5.515625 40.1875 11.734375 48.09375 
Q 17.96875 56 27.875 56 
Q 33.9375 56 38.25 53.625 
Q 42.578125 51.265625 45.40625 46.390625 
z
M 14.796875 27.296875 
Q 14.796875 17.390625 18.875 11.75 
Q 22.953125 6.109375 30.078125 6.109375 
Q 37.203125 6.109375 41.296875 11.75 
Q 45.40625 17.390625 45.40625 27.296875 
Q 45.40625 37.203125 41.296875 42.84375 
Q 37.203125 48.484375 30.078125 48.484375 
Q 22.953125 48.484375 18.875 42.84375 
Q 14.796875 37.203125 14.796875 27.296875 
z
" id="DejaVuSans-100"/>
     <path d="M 54.890625 33.015625 
L 54.890625 0 
L 45.90625 0 
L 45.90625 32.71875 
Q 45.90625 40.484375 42.875 44.328125 
Q 39.84375 48.1875 33.796875 48.1875 
Q 26.515625 48.1875 22.3125 43.546875 
Q 18.109375 38.921875 18.109375 30.90625 
L 18.109375 0 
L 9.078125 0 
L 9.078125 54.6875 
L 18.109375 54.6875 
L 18.109375 46.1875 
Q 21.34375 51.125 25.703125 53.5625 
Q 30.078125 56 35.796875 56 
Q 45.21875 56 50.046875 50.171875 
Q 54.890625 44.34375 54.890625 33.015625 
z
" id="DejaVuSans-110"/>
     <path d="M 45.40625 27.984375 
Q 45.40625 37.75 41.375 43.109375 
Q 37.359375 48.484375 30.078125 48.484375 
Q 22.859375 48.484375 18.828125 43.109375 
Q 14.796875 37.75 14.796875 27.984375 
Q 14.796875 18.265625 18.828125 12.890625 
Q 22.859375 7.515625 30.078125 7.515625 
Q 37.359375 7.515625 41.375 12.890625 
Q 45.40625 18.265625 45.40625 27.984375 
z
M 54.390625 6.78125 
Q 54.390625 -7.171875 48.1875 -13.984375 
Q 42 -20.796875 29.203125 -20.796875 
Q 24.46875 -20.796875 20.265625 -20.09375 
Q 16.0625 -19.390625 12.109375 -17.921875 
L 12.109375 -9.1875 
Q 16.0625 -11.328125 19.921875 -12.34375 
Q 23.78125 -13.375 27.78125 -13.375 
Q 36.625 -13.375 41.015625 -8.765625 
Q 45.40625 -4.15625 45.40625 5.171875 
L 45.40625 9.625 
Q 42.625 4.78125 38.28125 2.390625 
Q 33.9375 0 27.875 0 
Q 17.828125 0 11.671875 7.65625 
Q 5.515625 15.328125 5.515625 27.984375 
Q 5.515625 40.671875 11.671875 48.328125 
Q 17.828125 56 27.875 56 
Q 33.9375 56 38.28125 53.609375 
Q 42.625 51.21875 45.40625 46.390625 
L 45.40625 54.6875 
L 54.390625 54.6875 
z
" id="DejaVuSans-103"/>
     <path d="M 18.109375 8.203125 
L 18.109375 -20.796875 
L 9.078125 -20.796875 
L 9.078125 54.6875 
L 18.109375 54.6875 
L 18.109375 46.390625 
Q 20.953125 51.265625 25.265625 53.625 
Q 29.59375 56 35.59375 56 
Q 45.5625 56 51.78125 48.09375 
Q 58.015625 40.1875 58.015625 27.296875 
Q 58.015625 14.40625 51.78125 6.484375 
Q 45.5625 -1.421875 35.59375 -1.421875 
Q 29.59375 -1.421875 25.265625 0.953125 
Q 20.953125 3.328125 18.109375 8.203125 
z
M 48.6875 27.296875 
Q 48.6875 37.203125 44.609375 42.84375 
Q 40.53125 48.484375 33.40625 48.484375 
Q 26.265625 48.484375 22.1875 42.84375 
Q 18.109375 37.203125 18.109375 27.296875 
Q 18.109375 17.390625 22.1875 11.75 
Q 26.265625 6.109375 33.40625 6.109375 
Q 40.53125 6.109375 44.609375 11.75 
Q 48.6875 17.390625 48.6875 27.296875 
z
" id="DejaVuSans-112"/>
     <path d="M 54.890625 33.015625 
L 54.890625 0 
L 45.90625 0 
L 45.90625 32.71875 
Q 45.90625 40.484375 42.875 44.328125 
Q 39.84375 48.1875 33.796875 48.1875 
Q 26.515625 48.1875 22.3125 43.546875 
Q 18.109375 38.921875 18.109375 30.90625 
L 18.109375 0 
L 9.078125 0 
L 9.078125 75.984375 
L 18.109375 75.984375 
L 18.109375 46.1875 
Q 21.34375 51.125 25.703125 53.5625 
Q 30.078125 56 35.796875 56 
Q 45.21875 56 50.046875 50.171875 
Q 54.890625 44.34375 54.890625 33.015625 
z
" id="DejaVuSans-104"/>
    </defs>
    <g transform="translate(128.068857 18.597656)scale(0.15 -0.15)">
     <use xlink:href="#DejaVuSans-80"/>
     <use x="60.240234" xlink:href="#DejaVuSans-97"/>
     <use x="121.519531" xlink:href="#DejaVuSans-114"/>
     <use x="162.632812" xlink:href="#DejaVuSans-116"/>
     <use x="201.841797" xlink:href="#DejaVuSans-105"/>
     <use x="229.625" xlink:href="#DejaVuSans-97"/>
     <use x="290.904297" xlink:href="#DejaVuSans-108"/>
     <use x="318.6875" xlink:href="#DejaVuSans-32"/>
     <use x="350.474609" xlink:href="#DejaVuSans-111"/>
     <use x="411.65625" xlink:href="#DejaVuSans-102"/>
     <use x="446.861328" xlink:href="#DejaVuSans-32"/>
     <use x="478.648438" xlink:href="#DejaVuSans-83"/>
     <use x="542.125" xlink:href="#DejaVuSans-108"/>
     <use x="569.908203" xlink:href="#DejaVuSans-111"/>
     <use x="631.089844" xlink:href="#DejaVuSans-119"/>
     <use x="712.876953" xlink:href="#DejaVuSans-32"/>
     <use x="744.664062" xlink:href="#DejaVuSans-102"/>
     <use x="779.869141" xlink:href="#DejaVuSans-97"/>
     <use x="841.148438" xlink:href="#DejaVuSans-100"/>
     <use x="904.625" xlink:href="#DejaVuSans-105"/>
     <use x="932.408203" xlink:href="#DejaVuSans-110"/>
     <use x="995.787109" xlink:href="#DejaVuSans-103"/>
     <use x="1059.263672" xlink:href="#DejaVuSans-32"/>
     <use x="1091.050781" xlink:href="#DejaVuSans-103"/>
     <use x="1154.527344" xlink:href="#DejaVuSans-114"/>
     <use x="1195.640625" xlink:href="#DejaVuSans-97"/>
     <use x="1256.919922" xlink:href="#DejaVuSans-112"/>
     <use x="1320.396484" xlink:href="#DejaVuSans-104"/>
    </g>
   </g>
  </g>
  <g id="axes_2">
   <g id="patch_7">
    <path d="M 515.924006 187.677656 
L 921.742188 187.677656 
L 921.742188 24.597656 
L 515.924006 24.597656 
z
" style="fill:#ffffff;"/>
   </g>
   <g id="matplotlib.axis_3">
    <g id="xtick_7">
     <g id="line2d_13">
      <g>
       <use style="stroke:#000000;stroke-width:0.8;" x="515.924006" xlink:href="#m623649101b" y="187.677656"/>
      </g>
     </g>
     <g id="text_14">
      <!-- 0.0 -->
      <g transform="translate(507.972443 202.276094)scale(0.1 -0.1)">
       <use xlink:href="#DejaVuSans-48"/>
       <use x="63.623047" xlink:href="#DejaVuSans-46"/>
       <use x="95.410156" xlink:href="#DejaVuSans-48"/>
      </g>
     </g>
    </g>
    <g id="xtick_8">
     <g id="line2d_14">
      <g>
       <use style="stroke:#000000;stroke-width:0.8;" x="597.087642" xlink:href="#m623649101b" y="187.677656"/>
      </g>
     </g>
     <g id="text_15">
      <!-- 0.2 -->
      <g transform="translate(589.13608 202.276094)scale(0.1 -0.1)">
       <use xlink:href="#DejaVuSans-48"/>
       <use x="63.623047" xlink:href="#DejaVuSans-46"/>
       <use x="95.410156" xlink:href="#DejaVuSans-50"/>
      </g>
     </g>
    </g>
    <g id="xtick_9">
     <g id="line2d_15">
      <g>
       <use style="stroke:#000000;stroke-width:0.8;" x="678.251278" xlink:href="#m623649101b" y="187.677656"/>
      </g>
     </g>
     <g id="text_16">
      <!-- 0.4 -->
      <g transform="translate(670.299716 202.276094)scale(0.1 -0.1)">
       <use xlink:href="#DejaVuSans-48"/>
       <use x="63.623047" xlink:href="#DejaVuSans-46"/>
       <use x="95.410156" xlink:href="#DejaVuSans-52"/>
      </g>
     </g>
    </g>
    <g id="xtick_10">
     <g id="line2d_16">
      <g>
       <use style="stroke:#000000;stroke-width:0.8;" x="759.414915" xlink:href="#m623649101b" y="187.677656"/>
      </g>
     </g>
     <g id="text_17">
      <!-- 0.6 -->
      <g transform="translate(751.463352 202.276094)scale(0.1 -0.1)">
       <use xlink:href="#DejaVuSans-48"/>
       <use x="63.623047" xlink:href="#DejaVuSans-46"/>
       <use x="95.410156" xlink:href="#DejaVuSans-54"/>
      </g>
     </g>
    </g>
    <g id="xtick_11">
     <g id="line2d_17">
      <g>
       <use style="stroke:#000000;stroke-width:0.8;" x="840.578551" xlink:href="#m623649101b" y="187.677656"/>
      </g>
     </g>
     <g id="text_18">
      <!-- 0.8 -->
      <g transform="translate(832.626989 202.276094)scale(0.1 -0.1)">
       <use xlink:href="#DejaVuSans-48"/>
       <use x="63.623047" xlink:href="#DejaVuSans-46"/>
       <use x="95.410156" xlink:href="#DejaVuSans-56"/>
      </g>
     </g>
    </g>
    <g id="xtick_12">
     <g id="line2d_18">
      <g>
       <use style="stroke:#000000;stroke-width:0.8;" x="921.742188" xlink:href="#m623649101b" y="187.677656"/>
      </g>
     </g>
     <g id="text_19">
      <!-- 1.0 -->
      <g transform="translate(913.790625 202.276094)scale(0.1 -0.1)">
       <use xlink:href="#DejaVuSans-49"/>
       <use x="63.623047" xlink:href="#DejaVuSans-46"/>
       <use x="95.410156" xlink:href="#DejaVuSans-48"/>
      </g>
     </g>
    </g>
    <g id="text_20">
     <!-- t -->
     <g transform="translate(715.892862 219.753438)scale(0.15 -0.15)">
      <use xlink:href="#DejaVuSans-116"/>
     </g>
    </g>
   </g>
   <g id="matplotlib.axis_4">
    <g id="ytick_6">
     <g id="line2d_19">
      <g>
       <use style="stroke:#000000;stroke-width:0.8;" x="515.924006" xlink:href="#m73b2cd0fe7" y="175.470535"/>
      </g>
     </g>
     <g id="text_21">
      <!-- −2 -->
      <g transform="translate(494.181818 179.269754)scale(0.1 -0.1)">
       <use xlink:href="#DejaVuSans-8722"/>
       <use x="83.789062" xlink:href="#DejaVuSans-50"/>
      </g>
     </g>
    </g>
    <g id="ytick_7">
     <g id="line2d_20">
      <g>
       <use style="stroke:#000000;stroke-width:0.8;" x="515.924006" xlink:href="#m73b2cd0fe7" y="140.409377"/>
      </g>
     </g>
     <g id="text_22">
      <!-- −1 -->
      <g transform="translate(494.181818 144.208596)scale(0.1 -0.1)">
       <use xlink:href="#DejaVuSans-8722"/>
       <use x="83.789062" xlink:href="#DejaVuSans-49"/>
      </g>
     </g>
    </g>
    <g id="ytick_8">
     <g id="line2d_21">
      <g>
       <use style="stroke:#000000;stroke-width:0.8;" x="515.924006" xlink:href="#m73b2cd0fe7" y="105.348219"/>
      </g>
     </g>
     <g id="text_23">
      <!-- 0 -->
      <g transform="translate(502.561506 109.147438)scale(0.1 -0.1)">
       <use xlink:href="#DejaVuSans-48"/>
      </g>
     </g>
    </g>
    <g id="ytick_9">
     <g id="line2d_22">
      <g>
       <use style="stroke:#000000;stroke-width:0.8;" x="515.924006" xlink:href="#m73b2cd0fe7" y="70.287061"/>
      </g>
     </g>
     <g id="text_24">
      <!-- 1 -->
      <g transform="translate(502.561506 74.08628)scale(0.1 -0.1)">
       <use xlink:href="#DejaVuSans-49"/>
      </g>
     </g>
    </g>
    <g id="ytick_10">
     <g id="line2d_23">
      <g>
       <use style="stroke:#000000;stroke-width:0.8;" x="515.924006" xlink:href="#m73b2cd0fe7" y="35.225904"/>
      </g>
     </g>
     <g id="text_25">
      <!-- 2 -->
      <g transform="translate(502.561506 39.025122)scale(0.1 -0.1)">
       <use xlink:href="#DejaVuSans-50"/>
      </g>
     </g>
    </g>
   </g>
   <g id="line2d_24">
    <path clip-path="url(#p4da6a58a7c)" d="M 515.924006 105.348219 
L 516.492151 119.945998 
L 516.573315 119.650874 
L 516.69506 117.129913 
L 516.938551 105.348219 
L 517.425533 80.240671 
L 517.506697 79.828287 
L 517.58786 81.108535 
L 517.750187 88.675869 
L 518.156006 124.176551 
L 518.440078 139.630182 
L 518.48066 139.942636 
L 518.521242 139.700058 
L 518.642988 135.633067 
L 518.886478 114.682406 
L 519.414042 65.549303 
L 519.495206 64.532227 
L 519.535787 64.997162 
L 519.657533 70.230879 
L 519.901024 94.786174 
L 520.388006 146.838962 
L 520.509751 149.049899 
L 520.590915 147.069124 
L 520.753242 135.440938 
L 521.483715 62.162733 
L 521.524297 62.252804 
L 521.646042 66.551135 
L 521.889533 89.838827 
L 522.417097 143.287149 
L 522.49826 144.745366 
L 522.538842 144.530769 
L 522.660587 140.263679 
L 522.904078 119.015435 
L 523.39106 74.791421 
L 523.512806 72.563129 
L 523.553387 72.876199 
L 523.675133 76.777529 
L 523.918624 94.461438 
L 524.405606 128.23138 
L 524.527351 129.471743 
L 524.608515 128.349974 
L 524.811424 120.068069 
L 525.420151 91.223838 
L 525.501315 90.794831 
L 525.541897 90.958069 
L 525.663642 92.768222 
L 526.028878 104.135693 
L 526.312951 110.111097 
L 526.434697 110.607643 
L 526.475278 110.516272 
L 526.637606 109.215259 
L 527.043424 105.390581 
L 527.084006 105.348219 
L 527.124587 105.392432 
L 527.246333 106.007419 
L 527.733315 110.010077 
L 527.773897 109.945875 
L 527.895642 109.052692 
L 528.098551 105.348219 
L 528.626115 94.700615 
L 528.666697 94.671948 
L 528.74786 95.16466 
L 528.910187 98.313601 
L 529.356587 114.596358 
L 529.600078 119.400199 
L 529.64066 119.475836 
L 529.681242 119.322027 
L 529.802987 117.50906 
L 530.046478 108.98029 
L 530.53346 91.665133 
L 530.614624 91.106801 
L 530.655206 91.174261 
L 530.776951 92.713066 
L 531.020442 100.440731 
L 531.507424 115.699783 
L 531.588587 116.198049 
L 531.629169 116.166434 
L 531.750915 115.038119 
L 532.034987 108.469017 
L 532.400224 101.312236 
L 532.521969 100.875142 
L 532.562551 100.957876 
L 532.724878 102.147085 
L 533.130697 105.405508 
L 533.21186 105.191236 
L 533.374187 103.648105 
L 533.820587 98.369172 
L 533.901751 98.695339 
L 534.064078 101.477792 
L 534.348151 112.050113 
L 534.713387 123.761904 
L 534.753969 123.976561 
L 534.794551 123.874916 
L 534.916297 121.557729 
L 535.119206 111.232229 
L 535.727933 73.762121 
L 535.768515 73.734975 
L 535.849678 75.260692 
L 536.012006 84.548998 
L 536.377242 124.686946 
L 536.701897 149.543995 
L 536.742478 150.052764 
L 536.78306 149.84654 
L 536.904806 144.872394 
L 537.107715 123.490324 
L 537.716442 49.196276 
L 537.757024 48.758775 
L 537.797606 49.224312 
L 537.919351 56.025474 
L 538.162842 90.211034 
L 538.690406 169.805832 
L 538.771569 171.494637 
L 538.812151 170.766615 
L 538.933897 162.364563 
L 539.177387 122.56809 
L 539.704951 34.387207 
L 539.786115 32.880525 
L 539.826697 33.85067 
L 539.948442 43.478847 
L 540.191933 86.924489 
L 540.678915 176.666664 
L 540.80066 180.264929 
L 540.881824 176.755355 
L 541.044151 156.71313 
L 541.774624 32.010384 
L 541.815206 32.160246 
L 541.936951 39.438516 
L 542.180442 78.959671 
L 542.708006 170.382307 
L 542.789169 172.993944 
L 542.829751 172.684787 
L 542.951497 165.523377 
L 543.194987 129.061649 
L 543.722551 49.033176 
L 543.803715 47.128252 
L 543.844297 47.573727 
L 543.966042 54.206465 
L 544.209533 85.5939 
L 544.696515 148.324142 
L 544.81826 151.129467 
L 544.858842 150.58238 
L 544.980587 144.853045 
L 545.26466 115.215449 
L 545.670478 76.825972 
L 545.792224 73.939706 
L 545.832806 74.040408 
L 545.954551 77.24836 
L 546.198042 92.886146 
L 546.644442 120.041584 
L 546.766188 121.719577 
L 546.806769 121.650189 
L 546.928515 119.832169 
L 547.293751 107.645603 
L 547.577824 102.392407 
L 547.618406 102.312648 
L 547.658987 102.387835 
L 547.780733 103.37221 
L 548.186551 107.490885 
L 548.267715 107.099192 
L 548.430042 104.47829 
L 548.998187 91.905046 
L 549.038769 92.120514 
L 549.160515 94.364484 
L 549.404006 105.348219 
L 549.890987 129.014208 
L 549.931569 129.391361 
L 549.972151 129.378135 
L 550.053315 128.14272 
L 550.215642 120.973879 
L 550.946115 73.702342 
L 551.027278 74.763653 
L 551.189606 82.768367 
L 551.554842 118.042072 
L 551.879497 140.109998 
L 551.96066 140.830567 
L 552.001242 140.342269 
L 552.122987 135.579633 
L 552.366478 114.300541 
L 552.85346 71.374612 
L 552.934624 69.826468 
L 552.975206 69.900138 
L 553.096951 73.442434 
L 553.340442 92.613246 
L 553.868006 136.230225 
L 553.949169 137.351531 
L 553.989751 137.142147 
L 554.111497 133.577119 
L 554.354987 116.301177 
L 554.841969 81.466091 
L 554.963715 79.933193 
L 555.004297 80.249471 
L 555.126042 83.472507 
L 555.410115 99.927995 
L 555.815933 120.674914 
L 555.937678 122.060307 
L 555.97826 121.945047 
L 556.100006 120.05814 
L 556.384078 110.022327 
L 556.749315 99.151745 
L 556.87106 98.268646 
L 556.911642 98.296873 
L 557.033388 99.177491 
L 557.601533 105.463555 
L 557.642115 105.370392 
L 557.804442 104.159512 
L 558.21026 100.748952 
L 558.291424 101.099867 
L 558.453751 103.433973 
L 559.10306 118.348511 
L 559.184224 117.898761 
L 559.346551 114.223725 
L 559.671206 98.951731 
L 560.036442 85.768441 
L 560.077024 85.541881 
L 560.117606 85.635764 
L 560.239351 87.864556 
L 560.44226 97.368335 
L 561.050987 129.132507 
L 561.091569 129.233985 
L 561.172733 128.287877 
L 561.33506 122.071264 
L 562.065533 80.674969 
L 562.146697 81.142487 
L 562.309024 86.536183 
L 562.67426 111.211166 
L 562.998915 126.701546 
L 563.080078 127.421554 
L 563.12066 127.246218 
L 563.242406 124.69547 
L 563.485897 112.755804 
L 563.972878 89.913489 
L 564.054042 89.1601 
L 564.094624 89.196167 
L 564.216369 90.826938 
L 564.45986 98.93183 
L 564.90626 112.561302 
L 565.028006 113.149876 
L 565.068587 113.019957 
L 565.230915 111.24891 
L 565.717897 105.075165 
L 565.79906 105.247135 
L 565.961388 106.693846 
L 566.326624 110.216182 
L 566.407787 109.941722 
L 566.570115 107.490718 
L 566.894769 96.811532 
L 567.178842 89.508629 
L 567.219424 89.280725 
L 567.260006 89.329127 
L 567.381751 91.247001 
L 567.58466 100.194761 
L 568.193387 133.140068 
L 568.233969 133.15723 
L 568.315133 131.798448 
L 568.47746 123.600428 
L 568.883278 84.516558 
L 569.167351 67.07472 
L 569.207933 66.672499 
L 569.248515 66.889788 
L 569.37026 71.295771 
L 569.573169 89.804238 
L 570.181897 152.570249 
L 570.222478 152.874794 
L 570.26306 152.420562 
L 570.384806 146.547544 
L 570.628297 117.886215 
L 571.15586 52.980528 
L 571.237024 51.774639 
L 571.277606 52.446892 
L 571.399351 59.458833 
L 571.642842 91.622294 
L 572.129824 158.872135 
L 572.251569 161.660005 
L 572.332733 159.074674 
L 572.49506 144.066104 
L 573.225533 49.70271 
L 573.266115 49.799839 
L 573.38786 55.280796 
L 573.631351 85.270667 
L 574.158915 154.977209 
L 574.240078 156.992254 
L 574.28066 156.767122 
L 574.402406 151.327649 
L 574.645897 123.490522 
L 575.17346 62.132417 
L 575.254624 60.646547 
L 575.295206 60.976198 
L 575.416951 66.035536 
L 575.660442 90.132292 
L 576.147424 138.635648 
L 576.269169 140.873932 
L 576.309751 140.472773 
L 576.431497 136.090571 
L 576.715569 113.075239 
L 577.121387 82.715769 
L 577.243133 80.292284 
L 577.283715 80.323666 
L 577.40546 82.741395 
L 577.648951 95.1559 
L 578.095351 117.974544 
L 578.257678 119.761764 
L 578.338842 119.144126 
L 578.541751 114.379047 
L 579.069315 100.927945 
L 579.19106 100.557368 
L 579.312806 101.201142 
L 579.799787 105.366093 
L 579.840369 105.348219 
L 579.962115 104.806387 
L 580.489678 100.478199 
L 580.570842 100.783705 
L 580.733169 102.787391 
L 581.42306 115.699002 
L 581.463642 115.529642 
L 581.585387 113.962314 
L 581.828878 106.851398 
L 582.31586 92.510364 
L 582.397024 92.198146 
L 582.437606 92.360808 
L 582.559351 94.096019 
L 582.802842 102.016784 
L 583.289824 117.684885 
L 583.370987 118.15152 
L 583.411569 118.072571 
L 583.533315 116.642104 
L 583.776806 109.696267 
L 584.223206 96.796648 
L 584.344951 95.946747 
L 584.385533 95.990523 
L 584.507278 97.012113 
L 584.791351 102.702083 
L 585.156588 108.68044 
L 585.278333 108.991005 
L 585.400078 108.493998 
L 585.88706 105.268214 
L 585.927642 105.348219 
L 586.049387 106.082979 
L 586.576951 111.387144 
L 586.658115 111.068814 
L 586.820442 108.64103 
L 587.145097 98.264578 
L 587.469751 90.159355 
L 587.510333 90.007348 
L 587.550915 90.115637 
L 587.67266 92.083766 
L 587.875569 100.569787 
L 588.484297 130.450446 
L 588.524878 130.436752 
L 588.606042 129.159134 
L 588.768369 121.716935 
L 589.174188 86.796322 
L 589.45826 71.377081 
L 589.498842 71.033742 
L 589.539424 71.239516 
L 589.661169 75.178677 
L 589.90466 95.979642 
L 590.432224 146.092295 
L 590.513387 147.276951 
L 590.553969 146.871892 
L 590.675715 141.681224 
L 590.919206 116.400979 
L 591.446769 59.196137 
L 591.527933 58.132625 
L 591.568515 58.724501 
L 591.69026 64.902069 
L 591.933751 93.248128 
L 592.420733 152.562246 
L 592.542478 155.031679 
L 592.623642 152.757616 
L 592.785969 139.524506 
L 593.516442 56.142899 
L 593.557024 56.223123 
L 593.678769 61.054479 
L 593.92226 87.572336 
L 594.449824 149.373149 
L 594.530987 151.176133 
L 594.571569 150.984264 
L 594.693315 146.178535 
L 594.936806 121.477676 
L 595.464369 66.809228 
L 595.545533 65.462196 
L 595.586115 65.745058 
L 595.70786 70.229246 
L 595.951351 91.728364 
L 596.438333 135.294172 
L 596.560078 137.356968 
L 596.60066 137.012716 
L 596.722406 133.11017 
L 597.006478 112.359106 
L 597.412297 84.628678 
L 597.574624 82.333581 
L 597.655787 83.425262 
L 597.858697 91.341405 
L 598.467424 118.866018 
L 598.548587 119.312925 
L 598.589169 119.177529 
L 598.710915 117.507054 
L 599.035569 107.832864 
L 599.360224 100.340443 
L 599.481969 99.604013 
L 599.522551 99.612518 
L 599.644297 100.264785 
L 600.253024 105.639428 
L 600.293606 105.603269 
L 600.455933 104.940656 
L 600.821169 103.197302 
L 600.902333 103.319025 
L 601.06466 104.415652 
L 601.713969 111.456036 
L 601.795133 111.181815 
L 601.95746 109.375131 
L 602.687933 97.619094 
L 602.728515 97.736385 
L 602.85026 98.817683 
L 603.134333 104.403896 
L 603.540151 111.544735 
L 603.661897 111.887242 
L 603.783642 111.258632 
L 604.027133 107.958733 
L 604.432951 102.784263 
L 604.554697 102.486919 
L 604.595278 102.533271 
L 604.757606 103.274933 
L 605.163424 105.382655 
L 605.244587 105.248661 
L 605.406915 104.247081 
L 605.853315 100.739916 
L 605.893897 100.786711 
L 606.015642 101.617917 
L 606.218551 105.348219 
L 606.786697 117.892796 
L 606.827278 117.831779 
L 606.949024 116.28889 
L 607.151933 109.329634 
L 607.76066 83.857368 
L 607.801242 83.833087 
L 607.882406 84.861078 
L 608.044733 91.173176 
L 608.409969 118.545953 
L 608.734624 135.526095 
L 608.775206 135.874273 
L 608.815787 135.733949 
L 608.937533 132.33718 
L 609.140442 117.734136 
L 609.749169 67.084525 
L 609.789751 66.793884 
L 609.830333 67.118801 
L 609.952078 71.773607 
L 610.195569 95.060055 
L 610.723133 148.965539 
L 610.804297 150.072341 
L 610.844878 149.561741 
L 610.966624 143.833179 
L 611.210115 116.938418 
L 611.737678 57.932305 
L 611.818842 56.986565 
L 611.859424 57.664772 
L 611.981169 64.168301 
L 612.22466 93.137717 
L 612.711642 152.158156 
L 612.792806 154.420108 
L 612.833387 154.38768 
L 612.914551 152.003646 
L 613.076878 138.779051 
L 613.807351 58.572403 
L 613.847933 58.727467 
L 613.969678 63.528458 
L 614.213169 88.744197 
L 614.740733 145.427291 
L 614.821897 146.888555 
L 614.862478 146.623443 
L 614.984224 142.02644 
L 615.227715 119.62834 
L 615.714697 73.749784 
L 615.836442 71.532187 
L 615.877024 71.883736 
L 615.998769 75.980159 
L 616.282842 97.922102 
L 616.68866 127.26907 
L 616.810406 129.666697 
L 616.850987 129.6522 
L 616.972733 127.344854 
L 617.216224 115.295959 
L 617.662624 92.99793 
L 617.824951 91.264156 
L 617.906115 91.882042 
L 618.109024 96.576609 
L 618.596006 109.104297 
L 618.717751 109.71007 
L 618.758333 109.655957 
L 618.880078 108.895745 
L 619.326478 105.167923 
L 619.36706 105.210221 
L 619.488806 105.898953 
L 619.81346 110.166253 
L 620.016369 111.769452 
L 620.056951 111.753661 
L 620.178697 110.853027 
L 620.381606 106.548322 
L 620.949751 92.015164 
L 620.990333 91.99024 
L 621.071497 92.622066 
L 621.233824 96.564603 
L 621.639642 115.234926 
L 621.923715 123.163298 
L 621.964297 123.290575 
L 622.004878 123.128008 
L 622.126624 120.916066 
L 622.370115 110.067759 
L 622.857097 86.798114 
L 622.978842 85.865975 
L 623.060006 86.797176 
L 623.222333 92.058397 
L 623.952806 123.313448 
L 623.993387 123.188266 
L 624.115133 121.15582 
L 624.358624 111.434544 
L 624.845606 92.522622 
L 624.926769 91.869342 
L 624.967351 91.885358 
L 625.089097 93.204894 
L 625.332587 99.941852 
L 625.778987 111.557725 
L 625.900733 112.128677 
L 625.941315 112.041258 
L 626.06306 111.094647 
L 626.631206 104.956563 
L 626.671787 105.007819 
L 626.793533 105.637577 
L 627.199351 108.786583 
L 627.239933 108.775361 
L 627.321097 108.40548 
L 627.483424 106.189913 
L 628.092151 93.154638 
L 628.173315 93.434216 
L 628.29506 95.564964 
L 628.538551 105.348219 
L 629.025533 126.090197 
L 629.106697 126.434774 
L 629.18786 125.382116 
L 629.350187 119.137281 
L 629.756006 89.740527 
L 630.040078 76.882157 
L 630.08066 76.616055 
L 630.121242 76.811039 
L 630.242988 80.17323 
L 630.486478 97.580271 
L 631.014042 138.507874 
L 631.095206 139.354681 
L 631.135787 138.966233 
L 631.257533 134.60012 
L 631.501024 114.138449 
L 631.988006 70.958402 
L 632.109751 69.183715 
L 632.190915 70.864723 
L 632.353242 80.545468 
L 633.083715 140.222727 
L 633.124297 140.094608 
L 633.246042 136.468919 
L 633.489533 117.640307 
L 633.976515 77.525329 
L 634.09826 75.448256 
L 634.138842 75.722474 
L 634.260587 79.26528 
L 634.504078 95.422846 
L 634.950478 124.809534 
L 635.072224 126.837376 
L 635.112806 126.781899 
L 635.234551 124.60326 
L 635.478042 113.857229 
L 635.924442 95.692031 
L 636.046187 94.836955 
L 636.086769 94.983339 
L 636.249097 97.248763 
L 636.736078 105.875471 
L 636.77666 105.926162 
L 636.817242 105.838404 
L 636.938987 104.845027 
L 637.344806 99.993265 
L 637.385387 100.01665 
L 637.466551 100.600364 
L 637.628878 104.044039 
L 638.237606 124.211066 
L 638.318769 123.78373 
L 638.440515 120.495582 
L 638.684006 105.348219 
L 639.170988 72.994094 
L 639.252151 72.416488 
L 639.333315 74.019849 
L 639.495642 83.724185 
L 639.90146 130.032975 
L 640.185533 150.694856 
L 640.226115 151.169929 
L 640.266697 150.91089 
L 640.388442 145.686112 
L 640.591351 123.756734 
L 641.200078 49.480996 
L 641.24066 49.125212 
L 641.281242 49.667106 
L 641.402987 56.626538 
L 641.646478 90.529016 
L 642.174042 167.160801 
L 642.255206 168.569727 
L 642.295787 167.769125 
L 642.417533 159.4759 
L 642.661024 121.525871 
L 643.148006 42.374595 
L 643.269751 39.127208 
L 643.350915 42.189129 
L 643.513242 59.865517 
L 644.243715 170.457935 
L 644.284297 170.32731 
L 644.406042 163.868124 
L 644.649533 128.773521 
L 645.177097 47.715868 
L 645.25826 45.426624 
L 645.298842 45.713932 
L 645.420588 52.09559 
L 645.664078 84.399816 
L 646.15106 152.798628 
L 646.272806 156.462948 
L 646.313387 156.046133 
L 646.435133 150.154194 
L 646.678624 122.593828 
L 647.165606 68.15621 
L 647.287351 65.830158 
L 647.327933 66.337359 
L 647.449678 71.374093 
L 647.733751 96.924656 
L 648.139569 129.383915 
L 648.261315 131.694482 
L 648.301897 131.567338 
L 648.423642 128.759172 
L 648.707715 112.98331 
L 649.113533 93.620716 
L 649.235278 92.433934 
L 649.27586 92.5451 
L 649.397606 94.143005 
L 650.046915 107.12093 
L 650.087497 107.067734 
L 650.209242 106.268804 
L 650.61506 102.780308 
L 650.696224 103.102625 
L 650.858551 105.348219 
L 651.426697 117.20734 
L 651.50786 116.930616 
L 651.629606 114.831194 
L 651.873097 105.348219 
L 652.360078 86.284307 
L 652.40066 86.049896 
L 652.441242 86.129661 
L 652.562987 88.281659 
L 652.765897 97.556759 
L 653.374624 128.332548 
L 653.415206 128.402614 
L 653.496369 127.431578 
L 653.658697 121.350845 
L 654.389169 82.676463 
L 654.429751 82.778337 
L 654.551497 85.200058 
L 654.794987 97.473708 
L 655.281969 122.472611 
L 655.403715 123.47779 
L 655.484878 122.66362 
L 655.687788 116.422146 
L 656.255933 95.764772 
L 656.337097 95.2913 
L 656.377678 95.349635 
L 656.499424 96.544686 
L 657.108151 106.437861 
L 657.189315 106.236905 
L 657.392224 104.19496 
L 657.676297 101.671087 
L 657.75746 101.923466 
L 657.919787 104.349848 
L 658.244442 114.863258 
L 658.528515 121.331353 
L 658.569097 121.360697 
L 658.65026 120.520477 
L 658.812587 115.101087 
L 659.137242 93.396145 
L 659.461897 76.048429 
L 659.54306 75.401298 
L 659.583642 75.81803 
L 659.705387 80.128491 
L 659.948878 100.829791 
L 660.476442 148.23924 
L 660.517024 148.751748 
L 660.557606 148.56859 
L 660.679351 143.774639 
L 660.88226 123.003609 
L 661.490987 50.760211 
L 661.531569 50.348615 
L 661.572151 50.815762 
L 661.693897 57.468318 
L 661.937387 90.688202 
L 662.464951 167.331075 
L 662.546115 168.870717 
L 662.586697 168.128523 
L 662.708442 159.948085 
L 662.951933 121.761286 
L 663.438915 40.747281 
L 663.56066 37.23359 
L 663.641824 40.267973 
L 663.804151 58.317717 
L 664.534624 173.701183 
L 664.575206 173.619648 
L 664.696951 166.982658 
L 664.89986 137.861618 
L 665.508587 41.961032 
L 665.549169 41.198323 
L 665.589751 41.458134 
L 665.711497 48.168042 
L 665.954988 82.756268 
L 666.482551 159.20614 
L 666.563715 161.047487 
L 666.604297 160.629561 
L 666.726042 154.299725 
L 666.969533 124.259612 
L 667.456515 64.293433 
L 667.57826 61.663786 
L 667.618842 62.205153 
L 667.740587 67.728177 
L 668.02466 95.999023 
L 668.430478 132.056129 
L 668.552224 134.612608 
L 668.592806 134.46488 
L 668.714551 131.319998 
L 668.998624 113.77604 
L 669.404442 92.642323 
L 669.526187 91.502495 
L 669.566769 91.68066 
L 669.688515 93.578711 
L 670.297242 106.507838 
L 670.378406 106.13646 
L 670.581315 103.428257 
L 670.865387 100.565558 
L 670.946551 100.99979 
L 671.108878 104.127067 
L 671.717606 123.053724 
L 671.798769 122.592958 
L 671.961097 117.733111 
L 672.245169 99.280035 
L 672.650987 76.705761 
L 672.691569 76.30837 
L 672.732151 76.3811 
L 672.853897 79.48678 
L 673.056806 93.418984 
L 673.665533 142.023618 
L 673.706115 142.257931 
L 673.746697 141.899554 
L 673.868442 137.307043 
L 674.111933 115.03203 
L 674.639497 65.669325 
L 674.72066 64.920888 
L 674.801824 66.74447 
L 674.964151 77.509513 
L 675.694624 144.819949 
L 675.735206 144.688816 
L 675.856951 140.619558 
L 676.100442 119.306229 
L 676.628006 72.282226 
L 676.709169 71.230632 
L 676.749751 71.530798 
L 676.871497 75.538916 
L 677.114987 93.972178 
L 677.601969 129.063033 
L 677.683133 130.252826 
L 677.723715 130.21761 
L 677.84546 127.778455 
L 678.088951 115.365822 
L 678.535351 93.559315 
L 678.657097 92.292465 
L 678.697678 92.384745 
L 678.819424 93.965056 
L 679.468733 106.904447 
L 679.509315 106.767655 
L 679.671642 105.125122 
L 679.996297 101.581172 
L 680.036878 101.601933 
L 680.118042 102.149296 
L 680.280369 105.348219 
L 680.889097 122.102313 
L 680.929678 121.799507 
L 681.051424 118.947753 
L 681.294915 105.348219 
L 681.781897 75.908294 
L 681.86306 75.383334 
L 681.944224 76.848565 
L 682.106551 85.696012 
L 682.512369 127.668563 
L 682.796442 146.132162 
L 682.837024 146.523545 
L 682.877606 146.254097 
L 682.999351 141.460822 
L 683.242842 116.507439 
L 683.770406 57.534827 
L 683.851569 56.280375 
L 683.892151 56.823635 
L 684.013897 63.078078 
L 684.257387 92.613246 
L 684.784951 157.236055 
L 684.866115 158.208405 
L 684.947278 155.827405 
L 685.109606 141.775906 
L 685.840078 53.062043 
L 685.88066 53.176554 
L 686.002406 58.398942 
L 686.245897 86.602911 
L 686.77346 150.971746 
L 686.854624 152.671591 
L 686.895206 152.385143 
L 687.016951 147.178619 
L 687.260442 121.641847 
L 687.747424 69.443812 
L 687.869169 67.013309 
L 687.909751 67.446371 
L 688.031497 72.191366 
L 688.315569 97.050609 
L 688.721387 129.248211 
L 688.843133 131.587555 
L 688.883715 131.470584 
L 689.00546 128.685528 
L 689.289533 112.936567 
L 689.695351 93.951729 
L 689.817097 92.979373 
L 689.857678 93.160897 
L 690.020006 95.837196 
L 690.506987 106.019528 
L 690.547569 106.117125 
L 690.588151 106.060303 
L 690.709897 105.076689 
L 691.115715 99.933387 
L 691.156297 99.944193 
L 691.23746 100.522509 
L 691.399788 104.021765 
L 692.008515 124.176396 
L 692.089678 123.684229 
L 692.252006 118.525319 
L 692.536078 98.8712 
L 692.941897 74.542413 
L 692.982478 74.086609 
L 693.02306 74.135829 
L 693.104224 75.793101 
L 693.266551 85.140534 
L 693.997024 146.256439 
L 694.078188 144.914962 
L 694.240515 134.615198 
L 694.605751 88.798312 
L 694.930406 59.719181 
L 695.011569 58.68504 
L 695.052151 59.282263 
L 695.173897 65.430538 
L 695.417388 93.449516 
L 695.904369 151.189287 
L 695.985533 153.410815 
L 696.026115 153.378743 
L 696.107278 151.036506 
L 696.269606 138.056539 
L 697.000078 60.223548 
L 697.04066 60.431476 
L 697.162406 65.227921 
L 697.405897 89.580733 
L 697.892878 140.758488 
L 698.014624 143.349247 
L 698.055206 142.985672 
L 698.176951 138.451824 
L 698.461024 113.746477 
L 698.866842 80.586106 
L 698.988587 77.935432 
L 699.029169 77.977092 
L 699.150915 80.662943 
L 699.394406 94.308894 
L 699.840806 118.47496 
L 699.962551 119.971673 
L 700.003133 119.903686 
L 700.124878 118.246624 
L 700.774187 103.057418 
L 700.855351 103.247893 
L 701.017678 104.975906 
L 701.342333 108.299309 
L 701.423497 107.987618 
L 701.585824 105.348219 
L 702.194551 89.834206 
L 702.235133 90.089707 
L 702.356878 92.683141 
L 702.600369 105.348219 
L 703.087351 133.035506 
L 703.168515 133.535203 
L 703.249678 132.159786 
L 703.412006 123.835317 
L 703.817824 84.379926 
L 704.101897 67.100601 
L 704.142478 66.744581 
L 704.18306 67.008489 
L 704.304806 71.532652 
L 704.548297 94.920434 
L 705.07586 149.793511 
L 705.157024 150.919128 
L 705.197606 150.394265 
L 705.319351 144.534032 
L 705.562842 117.119982 
L 706.049824 59.268955 
L 706.171569 56.869031 
L 706.252733 59.104476 
L 706.41506 72.053265 
L 707.145533 152.60644 
L 707.186115 152.471471 
L 707.30786 147.668206 
L 707.551351 122.17394 
L 708.078915 64.803685 
L 708.160078 63.362619 
L 708.20066 63.651841 
L 708.322406 68.362777 
L 708.565897 91.020003 
L 709.052878 136.535258 
L 709.174624 138.531502 
L 709.215206 138.117505 
L 709.336951 133.908741 
L 709.621024 112.427276 
L 710.026842 85.299587 
L 710.148587 83.471312 
L 710.189169 83.616215 
L 710.310915 86.069158 
L 710.594988 99.204967 
L 710.960224 113.538443 
L 711.081969 114.731357 
L 711.122551 114.703903 
L 711.244297 113.566976 
L 711.812442 105.161274 
L 711.853024 105.267046 
L 712.015351 106.808146 
L 712.421169 111.332144 
L 712.502333 110.895909 
L 712.66466 107.862863 
L 713.029897 94.19394 
L 713.273388 88.133772 
L 713.313969 87.963274 
L 713.354551 88.091536 
L 713.476297 90.353076 
L 713.679206 99.982357 
L 714.287933 132.553361 
L 714.328515 132.458468 
L 714.45026 129.486362 
L 714.653169 116.440291 
L 715.261897 71.5047 
L 715.302478 71.300624 
L 715.34306 71.642735 
L 715.464806 75.905423 
L 715.708297 96.440599 
L 716.23586 141.76851 
L 716.317024 142.447662 
L 716.398187 140.767692 
L 716.560515 130.883201 
L 717.290988 69.150873 
L 717.331569 69.269897 
L 717.453315 72.997525 
L 717.696806 92.541131 
L 718.224369 135.729993 
L 718.305533 136.705256 
L 718.346115 136.434106 
L 718.46786 132.763172 
L 718.711351 115.822513 
L 719.198333 83.444554 
L 719.279497 82.330265 
L 719.320078 82.35469 
L 719.441824 84.586049 
L 719.685315 96.049772 
L 720.131715 116.377573 
L 720.25346 117.602773 
L 720.294042 117.531498 
L 720.415787 116.094146 
L 721.065097 103.707407 
L 721.105678 103.796108 
L 721.268006 105.197334 
L 721.633242 108.520929 
L 721.714406 108.096499 
L 721.876733 105.348219 
L 722.48546 90.32504 
L 722.526042 90.583323 
L 722.647788 93.113014 
L 722.891278 105.348219 
L 723.37826 132.101819 
L 723.459424 132.602108 
L 723.540588 131.290807 
L 723.702915 123.265403 
L 724.108733 84.923872 
L 724.392806 67.9379 
L 724.433387 67.565939 
L 724.473969 67.800331 
L 724.595715 72.166122 
L 724.839206 95.073477 
L 725.366769 149.57372 
L 725.447933 150.76716 
L 725.488515 150.280838 
L 725.61026 144.533202 
L 725.853751 117.181053 
L 726.381315 56.872646 
L 726.462478 55.919631 
L 726.50306 56.621912 
L 726.624806 63.299026 
L 726.868297 92.908671 
L 727.355278 152.664805 
L 727.436442 154.865871 
L 727.477024 154.788276 
L 727.598769 149.925244 
L 727.84226 123.220145 
L 728.369824 61.390418 
L 728.450987 59.668306 
L 728.491569 59.901625 
L 728.613315 64.812089 
L 728.856806 89.45578 
L 729.343787 140.929397 
L 729.465533 143.518655 
L 729.506115 143.150329 
L 729.62786 138.592551 
L 729.911933 113.786565 
L 730.317751 80.388236 
L 730.439497 77.669633 
L 730.480078 77.693567 
L 730.601824 80.35031 
L 730.845315 94.0988 
L 731.291715 119.007497 
L 731.41346 120.706508 
L 731.454042 120.690373 
L 731.575787 119.119448 
L 731.85986 110.281859 
L 732.184515 102.520747 
L 732.265678 102.081904 
L 732.30626 102.094802 
L 732.428006 102.899362 
L 732.833824 107.050822 
L 732.874406 107.005535 
L 732.996151 105.983 
L 733.239642 100.481206 
L 733.604878 92.58779 
L 733.64546 92.505481 
L 733.686042 92.667535 
L 733.807788 94.715482 
L 734.010697 103.090916 
L 734.578842 129.839937 
L 734.619424 129.88626 
L 734.700587 128.737886 
L 734.862915 121.536741 
L 735.228151 90.363964 
L 735.552806 71.451853 
L 735.593387 71.11648 
L 735.633969 71.331061 
L 735.755715 75.295021 
L 735.999206 96.051064 
L 736.526769 145.238377 
L 736.607933 146.290794 
L 736.648515 145.840245 
L 736.77026 140.628022 
L 737.013751 115.98127 
L 737.541315 61.975268 
L 737.622478 61.151534 
L 737.703642 63.130689 
L 737.865969 74.862839 
L 738.596442 149.327397 
L 738.637024 149.249422 
L 738.758769 144.908776 
L 739.00226 121.195187 
L 739.529824 66.381767 
L 739.610987 64.846874 
L 739.651569 65.048405 
L 739.773315 69.3839 
L 740.016806 91.224272 
L 740.503788 137.183614 
L 740.625533 139.588683 
L 740.666115 139.290826 
L 740.78786 135.294051 
L 741.031351 116.829467 
L 741.518333 80.823481 
L 741.640078 79.362589 
L 741.721242 80.479656 
L 741.883569 86.964515 
L 742.614042 122.152833 
L 742.695206 121.664904 
L 742.857533 117.872027 
L 743.547424 97.657699 
L 743.588006 97.609747 
L 743.628587 97.710464 
L 743.790915 99.312099 
L 744.318478 106.055882 
L 744.399642 106.098784 
L 744.521387 105.625987 
L 744.927206 103.314749 
L 744.967787 103.350437 
L 745.089533 103.972977 
L 745.333024 107.289895 
L 745.738842 112.86639 
L 745.779424 112.947835 
L 745.820006 112.895885 
L 745.941751 111.90448 
L 746.14466 107.68021 
L 746.712806 94.16437 
L 746.753387 94.068976 
L 746.793969 94.157651 
L 746.915715 95.523581 
L 747.159206 102.365696 
L 747.646187 116.931333 
L 747.727351 117.465873 
L 747.767933 117.439785 
L 747.889678 116.213154 
L 748.133169 109.64096 
L 748.620151 95.890744 
L 748.741897 95.32277 
L 748.82306 95.769661 
L 749.025969 99.229448 
L 749.594115 110.497205 
L 749.675278 110.701265 
L 749.71586 110.640723 
L 749.837606 109.909878 
L 750.405751 105.067897 
L 750.446333 105.126421 
L 750.60866 106.000494 
L 750.973897 108.471757 
L 751.014478 108.458351 
L 751.136224 107.785967 
L 751.339133 104.4953 
L 751.866697 94.031013 
L 751.907278 94.038188 
L 751.988442 94.679206 
L 752.150769 98.539979 
L 752.516006 115.645762 
L 752.800078 125.458335 
L 752.881242 125.875546 
L 752.921824 125.577473 
L 753.043569 122.595431 
L 753.28706 108.429518 
L 753.814624 76.230504 
L 753.855206 75.890961 
L 753.895787 76.02343 
L 754.017533 79.296973 
L 754.220442 93.39358 
L 754.829169 142.187232 
L 754.869751 142.457095 
L 754.910333 142.134077 
L 755.032078 137.625864 
L 755.275569 115.218369 
L 755.803133 63.73951 
L 755.884297 62.726429 
L 755.924878 63.234678 
L 756.046624 68.749479 
L 756.290115 94.363608 
L 756.777097 148.432771 
L 756.898842 150.732763 
L 756.980006 148.682416 
L 757.142333 136.620942 
L 757.872806 60.223709 
L 757.913387 60.298176 
L 758.035133 64.735248 
L 758.278624 89.062482 
L 758.806187 145.511649 
L 758.887351 147.114392 
L 758.927933 146.916926 
L 759.049678 142.472694 
L 759.293169 119.949116 
L 759.780151 72.357919 
L 759.901897 69.850999 
L 759.942478 70.155829 
L 760.064224 74.291939 
L 760.307715 93.440811 
L 760.794697 130.713692 
L 760.916442 132.183496 
L 760.997606 130.997191 
L 761.200515 121.863312 
L 761.809242 89.192382 
L 761.890406 88.658209 
L 761.930988 88.823967 
L 762.052733 90.846743 
L 762.377387 102.434607 
L 762.702042 110.927142 
L 762.823787 111.510332 
L 762.864369 111.400724 
L 763.026697 109.848697 
L 763.432515 105.369159 
L 763.473097 105.348219 
L 763.513678 105.436555 
L 763.635424 106.313393 
L 764.122406 111.734148 
L 764.162987 111.652514 
L 764.284733 110.45058 
L 764.487642 105.348219 
L 765.015206 89.899299 
L 765.055787 89.79938 
L 765.096369 89.96421 
L 765.218115 92.099162 
L 765.461606 102.94938 
L 765.989169 128.18808 
L 766.029751 128.447406 
L 766.070333 128.334222 
L 766.192078 125.731841 
L 766.394988 114.658258 
L 767.003715 77.348102 
L 767.044297 77.201531 
L 767.12546 78.260502 
L 767.287788 85.508186 
L 767.734187 122.957866 
L 768.01826 135.560961 
L 768.058842 135.586076 
L 768.140006 134.196933 
L 768.302333 126.12173 
L 769.032806 75.945933 
L 769.073387 76.039103 
L 769.195133 79.053896 
L 769.438624 94.920322 
L 769.966187 130.286807 
L 770.047351 131.136099 
L 770.087933 130.939301 
L 770.209678 127.994309 
L 770.453169 114.074795 
L 770.940151 86.607091 
L 771.061897 85.488385 
L 771.14306 86.34697 
L 771.345969 93.085726 
L 771.954697 117.397589 
L 772.03586 117.800052 
L 772.076442 117.678097 
L 772.198188 116.172187 
L 772.522842 107.523064 
L 772.847497 101.189685 
L 772.969242 100.759955 
L 773.009824 100.843661 
L 773.172151 102.00766 
L 773.577969 105.335714 
L 773.659133 105.27927 
L 773.82146 104.269108 
L 774.26786 100.59925 
L 774.349024 100.844251 
L 774.511351 102.766247 
L 774.836006 110.777826 
L 775.16066 116.614525 
L 775.201242 116.675612 
L 775.241824 116.543681 
L 775.363569 114.958334 
L 775.60706 107.075818 
L 776.134624 89.200141 
L 776.175206 89.043083 
L 776.215788 89.149582 
L 776.337533 91.056733 
L 776.581024 100.949916 
L 777.108587 123.812935 
L 777.189751 124.212806 
L 777.230333 123.959799 
L 777.352078 121.437506 
L 777.595569 110.110346 
L 778.082551 87.434834 
L 778.163715 86.667059 
L 778.204297 86.732435 
L 778.326042 88.67367 
L 778.569533 98.774787 
L 779.056515 120.031844 
L 779.17826 121.039927 
L 779.218842 120.863312 
L 779.340587 118.911303 
L 779.62466 108.717663 
L 780.030478 95.926148 
L 780.152224 95.161029 
L 780.192806 95.267039 
L 780.314551 96.530605 
L 780.679787 104.519958 
L 780.96386 108.341744 
L 781.045024 108.481047 
L 781.085606 108.402401 
L 781.247933 107.355986 
L 781.613169 104.913588 
L 781.694333 105.108777 
L 781.85666 106.595757 
L 782.343642 112.901776 
L 782.384224 112.883228 
L 782.465388 112.359851 
L 782.627715 109.268843 
L 782.992951 95.663328 
L 783.277024 88.5268 
L 783.317606 88.414548 
L 783.358187 88.58813 
L 783.479933 90.88712 
L 783.723424 102.712404 
L 784.250988 131.044753 
L 784.291569 131.393738 
L 784.332151 131.324342 
L 784.453897 128.544902 
L 784.656806 116.075465 
L 785.265533 71.69639 
L 785.306115 71.41701 
L 785.346697 71.680516 
L 785.468442 75.726383 
L 785.711933 96.245661 
L 786.239497 144.056986 
L 786.32066 145.04519 
L 786.361242 144.593798 
L 786.482988 139.509844 
L 786.726478 115.63205 
L 787.254042 63.399103 
L 787.335206 62.591327 
L 787.375788 63.206121 
L 787.497533 68.996376 
L 787.741024 94.598716 
L 788.228006 146.267571 
L 788.309169 148.185327 
L 788.349751 148.126279 
L 788.471497 143.943845 
L 788.714988 120.848744 
L 789.242551 67.003339 
L 789.323715 65.455136 
L 789.364297 65.634835 
L 789.486042 69.857022 
L 789.729533 91.371295 
L 790.216515 137.011399 
L 790.33826 139.440106 
L 790.378842 139.154894 
L 790.500587 135.201863 
L 790.744078 116.810556 
L 791.23106 80.854983 
L 791.352806 79.413101 
L 791.433969 80.54445 
L 791.636878 89.350869 
L 792.245606 121.103742 
L 792.326769 121.644745 
L 792.367351 121.493547 
L 792.489097 119.548179 
L 792.813751 108.224324 
L 793.138406 99.759995 
L 793.260151 99.118582 
L 793.300733 99.205472 
L 793.422478 100.176378 
L 793.90946 105.348219 
L 793.950042 105.311524 
L 794.071788 104.609362 
L 794.558769 99.590487 
L 794.639933 99.844497 
L 794.80226 102.154243 
L 795.126915 112.183144 
L 795.451569 119.724962 
L 795.492151 119.825885 
L 795.532733 119.679808 
L 795.654478 117.707913 
L 795.897969 107.590791 
L 796.425533 83.939821 
L 796.466115 83.69413 
L 796.506697 83.797837 
L 796.628442 86.232359 
L 796.831351 96.614644 
L 797.440078 131.609241 
L 797.48066 131.744956 
L 797.561824 130.747971 
L 797.724151 123.944885 
L 798.495206 77.095853 
L 798.535787 77.529368 
L 798.657533 81.429527 
L 798.941606 101.816064 
L 799.388006 131.494464 
L 799.469169 132.601652 
L 799.509751 132.502953 
L 799.631497 129.674845 
L 799.874987 114.964752 
L 800.402551 82.554979 
L 800.483715 81.818151 
L 800.524297 82.018063 
L 800.646042 84.75988 
L 800.889533 97.464373 
L 801.376515 121.999854 
L 801.49826 122.900446 
L 801.579424 122.07682 
L 801.782333 116.025564 
L 802.39106 95.386296 
L 802.472224 95.159737 
L 802.512806 95.316383 
L 802.675133 97.422633 
L 803.28386 107.965076 
L 803.365024 108.017209 
L 803.486769 107.479874 
L 803.892587 104.81822 
L 803.933169 104.824447 
L 804.054915 105.348219 
L 804.298406 108.273347 
L 804.62306 111.93095 
L 804.663642 112.002237 
L 804.704224 111.943848 
L 804.825969 110.930783 
L 805.028878 106.545302 
L 805.597024 92.276547 
L 805.637606 92.256435 
L 805.718769 92.881024 
L 805.881097 96.743843 
L 806.286915 115.065588 
L 806.570988 122.93639 
L 806.611569 123.07529 
L 806.652151 122.928246 
L 806.773897 120.779056 
L 807.017388 110.052046 
L 807.544951 85.967884 
L 807.626115 85.603248 
L 807.707278 86.499388 
L 807.869606 91.77371 
L 808.600078 124.211366 
L 808.64066 124.112691 
L 808.762406 122.065088 
L 809.005897 111.860053 
L 809.492878 91.239496 
L 809.614624 90.415902 
L 809.695788 91.08728 
L 809.898697 96.223819 
L 810.466842 113.302867 
L 810.548006 113.714694 
L 810.588588 113.677062 
L 810.710333 112.717312 
L 811.359642 104.319507 
L 811.400224 104.415189 
L 811.562551 105.552511 
L 811.887206 108.044626 
L 811.927788 108.032424 
L 812.008951 107.646759 
L 812.171278 105.348219 
L 812.780006 92.782813 
L 812.820587 92.979001 
L 812.942333 95.045487 
L 813.185824 105.348219 
L 813.713387 129.185705 
L 813.753969 129.266096 
L 813.835133 128.219306 
L 813.99746 121.291339 
L 814.362697 90.306078 
L 814.687351 70.644644 
L 814.727933 70.209934 
L 814.768515 70.338171 
L 814.89026 74.167456 
L 815.093169 90.979631 
L 815.701897 150.194997 
L 815.742478 150.563301 
L 815.78306 150.209425 
L 815.904806 144.817582 
L 816.148297 117.484725 
L 816.67586 53.514532 
L 816.757024 52.138311 
L 816.797606 52.715468 
L 816.919351 59.454832 
L 817.162842 91.477207 
L 817.690406 162.574708 
L 817.771569 163.797654 
L 817.812151 163.018891 
L 817.933897 155.261837 
L 818.177388 120.216649 
L 818.664369 47.756147 
L 818.786115 44.840079 
L 818.867278 47.667693 
L 819.029606 63.846277 
L 819.760078 164.709184 
L 819.80066 164.596111 
L 819.922406 158.728154 
L 820.165897 126.743046 
L 820.69346 52.446195 
L 820.774624 50.28546 
L 820.815206 50.518072 
L 820.936951 56.294646 
L 821.180442 85.967062 
L 821.708006 151.735103 
L 821.789169 153.377274 
L 821.829751 153.047893 
L 821.951497 147.680051 
L 822.194988 121.796963 
L 822.681969 68.984658 
L 822.803715 66.411949 
L 822.844297 66.806856 
L 822.966042 71.490112 
L 823.250115 96.751792 
L 823.696515 132.461931 
L 823.81826 133.986283 
L 823.899424 132.700233 
L 824.102333 122.953174 
L 824.71106 87.821844 
L 824.792224 87.141395 
L 824.832806 87.26463 
L 824.954551 89.295339 
L 825.238624 100.18218 
L 825.644442 113.144911 
L 825.766188 113.894653 
L 825.806769 113.809167 
L 825.928515 112.725598 
L 826.577824 104.137437 
L 826.618406 104.152924 
L 826.740151 104.601334 
L 827.145969 106.72206 
L 827.186551 106.682021 
L 827.308297 106.102282 
L 827.551788 103.205449 
L 827.917024 99.076092 
L 827.957606 98.996077 
L 827.998187 99.029041 
L 828.119933 99.838685 
L 828.322842 103.38283 
L 828.890987 114.721514 
L 828.931569 114.79241 
L 828.972151 114.708596 
L 829.093897 113.537899 
L 829.337387 107.813418 
L 829.824369 95.998261 
L 829.905533 95.614913 
L 829.946115 95.660975 
L 830.06786 96.715555 
L 830.311351 102.002616 
L 830.798333 112.330094 
L 830.879497 112.646118 
L 830.920078 112.61397 
L 831.041824 111.823363 
L 831.325897 107.400277 
L 831.691133 102.794311 
L 831.812878 102.582448 
L 831.934624 102.998127 
L 832.381024 105.456835 
L 832.421606 105.436707 
L 832.543351 104.968269 
L 832.786842 102.621417 
L 833.070915 100.307761 
L 833.111497 100.279338 
L 833.152078 100.361892 
L 833.273824 101.336792 
L 833.476733 105.348219 
L 834.044878 117.954123 
L 834.126042 117.540556 
L 834.288369 114.022254 
L 834.613024 98.977554 
L 834.97826 85.272247 
L 835.018842 84.966118 
L 835.059424 84.987539 
L 835.140588 86.044153 
L 835.302915 92.105532 
L 835.749315 122.918032 
L 835.992806 132.559603 
L 836.033388 132.81681 
L 836.073969 132.634176 
L 836.195715 129.434308 
L 836.439206 112.795815 
L 836.966769 73.295987 
L 837.047933 72.422603 
L 837.088515 72.770226 
L 837.21026 76.922152 
L 837.453751 96.75201 
L 837.981315 140.71943 
L 838.062478 141.443903 
L 838.10306 140.945805 
L 838.224806 136.107314 
L 838.468297 114.472897 
L 838.955278 70.425855 
L 839.036442 68.76092 
L 839.077024 68.797763 
L 839.198769 72.336406 
L 839.401678 87.927864 
L 840.010406 139.236285 
L 840.050988 139.632604 
L 840.091569 139.481484 
L 840.213315 135.85897 
L 840.456806 117.364129 
L 840.943787 78.176103 
L 841.065533 76.118447 
L 841.106115 76.373142 
L 841.22786 79.792049 
L 841.471351 95.567144 
L 841.958333 126.031786 
L 842.080078 127.167711 
L 842.161242 126.157289 
L 842.364151 118.657394 
L 842.972878 92.792408 
L 843.054042 92.477835 
L 843.094624 92.660166 
L 843.256951 95.266915 
L 843.90626 108.965259 
L 843.946842 108.967245 
L 844.068587 108.35494 
L 844.514987 104.823891 
L 844.555569 104.893198 
L 844.677315 105.729424 
L 844.961388 110.276613 
L 845.24546 113.499956 
L 845.326624 113.232874 
L 845.488951 110.5757 
L 845.773024 100.408368 
L 846.13826 88.833764 
L 846.219424 88.440808 
L 846.260006 88.66622 
L 846.381751 91.088354 
L 846.625242 102.797177 
L 847.152806 129.22425 
L 847.193387 129.471844 
L 847.233969 129.331186 
L 847.355715 126.560745 
L 847.599206 111.920564 
L 848.126769 77.142517 
L 848.207933 76.407669 
L 848.248515 76.731746 
L 848.37026 80.433475 
L 848.613751 97.854847 
L 849.100733 134.690806 
L 849.222478 136.209467 
L 849.303642 134.777699 
L 849.465969 126.519978 
L 850.196442 75.520953 
L 850.237024 75.624484 
L 850.358769 78.70741 
L 850.60226 94.805752 
L 851.129824 130.400851 
L 851.210987 131.221453 
L 851.251569 131.006957 
L 851.373315 128.005508 
L 851.616806 114.034726 
L 852.103787 86.965635 
L 852.225533 85.965545 
L 852.306697 86.872483 
L 852.509606 93.554986 
L 853.077751 115.870753 
L 853.199497 116.533363 
L 853.28066 115.987901 
L 853.483569 112.142259 
L 853.929969 103.106211 
L 854.051715 102.65112 
L 854.092297 102.718293 
L 854.254624 103.782616 
L 854.61986 106.270978 
L 854.701024 106.016512 
L 854.863351 104.297611 
L 855.390915 96.675242 
L 855.431497 96.764272 
L 855.553242 98.105923 
L 855.756151 103.798458 
L 856.324297 122.384012 
L 856.364878 122.426383 
L 856.446042 121.644839 
L 856.608369 116.647801 
L 856.973606 94.863417 
L 857.29826 81.616407 
L 857.338842 81.382231 
L 857.379424 81.533598 
L 857.501169 84.314386 
L 857.74466 98.848544 
L 858.272224 133.092801 
L 858.353388 133.792454 
L 858.393969 133.462441 
L 858.515715 129.795466 
L 858.759206 112.682362 
L 859.246188 76.787927 
L 859.367933 75.35566 
L 859.449097 76.777431 
L 859.611424 84.839987 
L 860.341897 133.882336 
L 860.382478 133.759235 
L 860.504224 130.744747 
L 860.747715 115.338647 
L 861.234697 82.930559 
L 861.356442 81.31192 
L 861.397024 81.550709 
L 861.518769 84.445567 
L 861.802842 100.070353 
L 862.20866 120.724072 
L 862.330406 122.280284 
L 862.370987 122.221051 
L 862.492733 120.463425 
L 862.776806 110.288979 
L 863.182624 97.906369 
L 863.304369 97.280295 
L 863.344951 97.404297 
L 863.507278 99.181751 
L 863.99426 105.725726 
L 864.034842 105.751622 
L 864.075424 105.672287 
L 864.237751 104.479703 
L 864.602988 101.218802 
L 864.684151 101.410701 
L 864.805897 102.755266 
L 865.049387 108.889669 
L 865.455206 119.183626 
L 865.495788 119.37678 
L 865.536369 119.327844 
L 865.658115 117.632936 
L 865.861024 109.821466 
L 866.469751 81.572566 
L 866.510333 81.583985 
L 866.591497 82.795532 
L 866.753824 89.856973 
L 867.200224 125.907379 
L 867.443715 137.149757 
L 867.484297 137.441438 
L 867.524878 137.21865 
L 867.646624 133.453552 
L 867.890115 114.018383 
L 868.417678 68.264352 
L 868.498842 67.293467 
L 868.539424 67.715042 
L 868.661169 72.563651 
L 868.90466 95.466219 
L 869.432224 145.722037 
L 869.513388 146.50466 
L 869.553969 145.915035 
L 869.675715 140.345519 
L 869.919206 115.698206 
L 870.406187 65.959043 
L 870.487351 64.116256 
L 870.527933 64.174835 
L 870.649678 68.205435 
L 870.893169 90.435602 
L 871.420733 142.217595 
L 871.501897 143.704057 
L 871.542478 143.530402 
L 871.664224 139.469465 
L 871.907715 118.786249 
L 872.394697 74.877976 
L 872.516442 72.525244 
L 872.557024 72.793801 
L 872.678769 76.581719 
L 872.92226 94.283491 
L 873.409242 129.14251 
L 873.530988 130.603642 
L 873.612151 129.546218 
L 873.774478 123.278601 
L 874.504951 88.773693 
L 874.586115 89.233967 
L 874.748442 92.946999 
L 875.438333 113.056291 
L 875.478915 113.110389 
L 875.519497 113.015413 
L 875.641242 111.972478 
L 876.249969 104.558034 
L 876.290551 104.575163 
L 876.412297 105.04953 
L 876.818115 107.418096 
L 876.858697 107.384771 
L 876.980442 106.755503 
L 877.183351 104.061963 
L 877.670333 97.438107 
L 877.751497 97.675485 
L 877.913824 99.890419 
L 878.238478 109.285028 
L 878.563133 116.957843 
L 878.644297 117.3784 
L 878.684878 117.297146 
L 878.806624 115.874528 
L 879.050115 108.566743 
L 879.577678 92.226749 
L 879.61826 92.01979 
L 879.658842 92.028156 
L 879.740006 92.685514 
L 879.902333 96.319676 
L 880.632806 116.943944 
L 880.713969 116.490937 
L 880.876297 113.619349 
L 881.566188 98.40868 
L 881.606769 98.419829 
L 881.728515 99.162566 
L 882.053169 103.84049 
L 882.337242 106.292901 
L 882.418406 106.250063 
L 882.580733 105.336915 
L 882.945969 103.161285 
L 883.027133 103.452409 
L 883.18946 105.348219 
L 883.798188 116.247181 
L 883.838769 116.093969 
L 883.960515 114.33891 
L 884.163424 107.260409 
L 884.731569 84.075408 
L 884.772151 83.982884 
L 884.853315 84.879141 
L 885.015642 91.027841 
L 885.340297 115.590533 
L 885.705533 136.927479 
L 885.746115 137.344086 
L 885.786697 137.247932 
L 885.908442 133.812121 
L 886.111351 118.50302 
L 886.720078 63.995056 
L 886.76066 63.638989 
L 886.801242 63.949522 
L 886.922987 68.885457 
L 887.166478 94.114893 
L 887.694042 153.458622 
L 887.775206 154.748919 
L 887.815787 154.218625 
L 887.937533 147.972505 
L 888.181024 118.233886 
L 888.708588 52.248582 
L 888.789751 51.135065 
L 888.830333 51.869076 
L 888.952078 59.097014 
L 889.195569 91.597462 
L 889.682551 158.300683 
L 889.763715 160.894876 
L 889.804297 160.875167 
L 889.88546 158.206726 
L 890.047788 143.264185 
L 890.77826 52.152654 
L 890.818842 52.327198 
L 890.940587 57.786588 
L 891.184078 86.471999 
L 891.711642 150.7625 
L 891.792806 152.377485 
L 891.833388 152.055099 
L 891.955133 146.786358 
L 892.198624 121.41488 
L 892.685606 70.257718 
L 892.807351 67.966036 
L 892.847933 68.416159 
L 892.969678 73.113696 
L 893.253751 97.326851 
L 893.659569 128.234408 
L 893.781315 130.389099 
L 893.821897 130.247144 
L 893.943642 127.504838 
L 894.227715 112.469334 
L 894.592951 95.703731 
L 894.755278 94.218417 
L 894.877024 95.471287 
L 895.445169 105.682341 
L 895.485751 105.616254 
L 895.607497 104.582182 
L 896.053897 98.699593 
L 896.094478 98.810435 
L 896.216224 100.381023 
L 896.419133 107.018845 
L 896.946697 125.954795 
L 896.987278 125.844771 
L 897.109024 123.266923 
L 897.311933 111.82422 
L 897.92066 71.511097 
L 897.961242 71.55898 
L 898.042406 73.339676 
L 898.204733 83.436545 
L 898.935206 150.18397 
L 899.016369 148.786258 
L 899.178697 137.595225 
L 899.543933 86.939332 
L 899.868588 54.081542 
L 899.949751 52.774798 
L 899.990333 53.374027 
L 900.112078 60.111774 
L 900.355569 91.734596 
L 900.883133 160.838654 
L 900.964297 161.901863 
L 901.04546 159.382056 
L 901.207787 144.392562 
L 901.93826 48.66438 
L 901.978842 48.736183 
L 902.100588 54.250841 
L 902.344078 84.80408 
L 902.871642 156.382991 
L 902.952806 158.49183 
L 902.993388 158.278116 
L 903.115133 152.725868 
L 903.358624 124.077583 
L 903.886188 60.567256 
L 903.967351 59.002577 
L 904.007933 59.332066 
L 904.129678 64.546598 
L 904.373169 89.53155 
L 904.860151 140.054862 
L 904.981897 142.41682 
L 905.022478 142.007619 
L 905.144224 137.458818 
L 905.428297 113.434308 
L 905.834115 81.593551 
L 905.95586 79.023662 
L 905.996442 79.047511 
L 906.118187 81.562599 
L 906.361678 94.597972 
L 906.84866 119.655436 
L 906.970406 120.68983 
L 907.010988 120.496392 
L 907.132733 118.534791 
L 907.497969 106.602771 
L 907.782042 100.473032 
L 907.903788 99.991596 
L 907.944369 100.09387 
L 908.106697 101.446993 
L 908.512515 105.309849 
L 908.553097 105.348219 
L 908.593678 105.299853 
L 908.715424 104.675584 
L 909.202406 100.753483 
L 909.242988 100.825002 
L 909.364733 101.722971 
L 909.608224 106.308682 
L 910.054624 115.276298 
L 910.135787 115.462497 
L 910.216951 114.961634 
L 910.379278 111.941145 
L 911.109751 92.579301 
L 911.150333 92.746839 
L 911.272078 94.458126 
L 911.515569 102.144269 
L 912.002551 116.991291 
L 912.083715 117.381167 
L 912.124297 117.280268 
L 912.246042 115.861548 
L 912.489533 109.3234 
L 912.935933 97.921331 
L 913.057678 97.350279 
L 913.09826 97.449664 
L 913.220006 98.49987 
L 913.869315 107.189764 
L 913.950478 107.077546 
L 914.112806 106.063031 
L 914.43746 104.097516 
L 914.518624 104.290291 
L 914.680951 105.90027 
L 915.249097 114.972431 
L 915.33026 114.614323 
L 915.492588 111.470526 
L 915.77666 99.529041 
L 916.141897 85.506415 
L 916.22306 84.921394 
L 916.263642 85.135392 
L 916.385387 87.912332 
L 916.588297 99.149484 
L 917.197024 137.044986 
L 917.237606 136.985782 
L 917.359351 133.672045 
L 917.56226 118.506964 
L 918.211569 62.996857 
L 918.292733 64.238931 
L 918.45506 74.702549 
L 918.779715 117.209165 
L 919.144951 155.149593 
L 919.226115 156.569331 
L 919.266697 156.061192 
L 919.388442 149.689139 
L 919.631933 118.819971 
L 920.159497 49.206718 
L 920.24066 47.92629 
L 920.281242 48.652317 
L 920.402987 56.17949 
L 920.646478 90.646352 
L 921.13346 162.667877 
L 921.255206 165.655341 
L 921.336369 162.888448 
L 921.498697 146.818088 
L 921.701606 112.936362 
L 921.701606 112.936362 
" style="fill:none;stroke:#1f77b4;stroke-linecap:square;stroke-width:1.5;"/>
   </g>
   <g id="patch_8">
    <path d="M 515.924006 187.677656 
L 515.924006 24.597656 
" style="fill:none;stroke:#000000;stroke-linecap:square;stroke-linejoin:miter;stroke-width:0.8;"/>
   </g>
   <g id="patch_9">
    <path d="M 921.742188 187.677656 
L 921.742188 24.597656 
" style="fill:none;stroke:#000000;stroke-linecap:square;stroke-linejoin:miter;stroke-width:0.8;"/>
   </g>
   <g id="patch_10">
    <path d="M 515.924006 187.677656 
L 921.742188 187.677656 
" style="fill:none;stroke:#000000;stroke-linecap:square;stroke-linejoin:miter;stroke-width:0.8;"/>
   </g>
   <g id="patch_11">
    <path d="M 515.924006 24.597656 
L 921.742188 24.597656 
" style="fill:none;stroke:#000000;stroke-linecap:square;stroke-linejoin:miter;stroke-width:0.8;"/>
   </g>
   <g id="text_26">
    <!-- Slow fading -->
    <g transform="translate(675.286222 18.597656)scale(0.15 -0.15)">
     <use xlink:href="#DejaVuSans-83"/>
     <use x="63.476562" xlink:href="#DejaVuSans-108"/>
     <use x="91.259766" xlink:href="#DejaVuSans-111"/>
     <use x="152.441406" xlink:href="#DejaVuSans-119"/>
     <use x="234.228516" xlink:href="#DejaVuSans-32"/>
     <use x="266.015625" xlink:href="#DejaVuSans-102"/>
     <use x="301.220703" xlink:href="#DejaVuSans-97"/>
     <use x="362.5" xlink:href="#DejaVuSans-100"/>
     <use x="425.976562" xlink:href="#DejaVuSans-105"/>
     <use x="453.759766" xlink:href="#DejaVuSans-110"/>
     <use x="517.138672" xlink:href="#DejaVuSans-103"/>
    </g>
   </g>
  </g>
 </g>
 <defs>
  <clipPath id="p17a6410d27">
   <rect height="163.08" width="405.818182" x="28.942188" y="24.597656"/>
  </clipPath>
  <clipPath id="p4da6a58a7c">
   <rect height="163.08" width="405.818182" x="515.924006" y="24.597656"/>
  </clipPath>
 </defs>
</svg>
